<svg width="18" height="20" viewBox="0 0 18 20" fill="none" xmlns="http://www.w3.org/2000/svg">
<path d="M0.791556 16.2229C0.791556 15.5616 0.791556 14.929 0.791556 14.2917C0.791556 11.3398 0.791556 8.38786 0.791556 5.43595C0.791556 5.11488 0.80114 4.78422 0.786763 4.45836C0.777179 4.27627 0.877813 4.22355 1.02157 4.17084C1.93207 3.84019 2.84735 3.50474 3.75784 3.1693C5.67467 2.46007 7.5915 1.75085 9.50353 1.03683C10.0977 0.816395 10.6872 0.581584 11.2814 0.361149C11.3485 0.337188 11.4395 0.337188 11.5066 0.356357C12.9778 0.830771 14.4537 1.30519 15.9249 1.78439C16.2651 1.89461 16.5958 2.02879 16.9408 2.12463C17.1277 2.17734 17.1612 2.26839 17.1612 2.4409C17.1565 4.02229 17.1612 5.59888 17.1612 7.18026C17.1612 10.7695 17.1565 14.354 17.1708 17.9432C17.1708 18.2212 17.0942 18.3314 16.821 18.4129C15.1246 18.9112 13.4378 19.424 11.751 19.9463C11.5114 20.023 11.3053 20.0182 11.0657 19.9271C9.42686 19.3233 7.78318 18.7435 6.1395 18.1541C4.59166 17.5982 3.03903 17.0375 1.4912 16.4817C1.3714 16.4385 1.25639 16.3954 1.13658 16.3523C1.14138 16.3379 1.14617 16.3187 1.15096 16.3043C4.55812 16.7165 7.96528 17.1286 11.3964 17.5407C11.3964 12.8589 11.3964 8.22493 11.3964 3.53829C11.0801 3.61017 10.7878 3.67726 10.4907 3.74435C9.30226 4.02708 8.11862 4.3146 6.93019 4.59254C6.23534 4.75547 5.54049 4.91361 4.84085 5.05737C4.5677 5.11488 4.45269 5.21072 4.45269 5.52699C4.46707 8.45974 4.45749 11.3925 4.46707 14.3204C4.46707 14.5265 4.40956 14.6367 4.21309 14.723C3.07737 15.207 1.95603 15.7101 0.791556 16.2229Z" fill="url(#paint0_linear_3571_178)"/>
<defs>
<linearGradient id="paint0_linear_3571_178" x1="1.64974" y1="16.577" x2="17.575" y2="2.51097" gradientUnits="userSpaceOnUse">
<stop stop-color="#008D1E"/>
<stop offset="1" stop-color="#04CB3A"/>
</linearGradient>
</defs>
</svg>
