<svg width="17" height="19" viewBox="0 0 17 19" fill="none" xmlns="http://www.w3.org/2000/svg">
<g clip-path="url(#clip0_3609_2)">
<path d="M6.58648 0.420166L6.49447 0.475821C6.34811 0.564355 6.21023 0.663344 6.08157 0.771505L6.34696 0.584826H8.5995L9.009 3.68557L6.9615 5.73307L4.914 7.15624V8.79732C4.914 9.94351 5.51306 11.0064 6.49361 11.5999L8.64909 12.9046L4.095 15.5611H3.21666L1.57959 14.5702C0.599041 13.9767 0 12.9139 0 11.7677V6.24928C0 5.10272 0.599422 4.03958 1.58047 3.44617L6.49447 0.473806C6.52493 0.455387 6.5556 0.437508 6.58648 0.420166Z" fill="url(#paint0_radial_3609_2)"/>
<path d="M6.58648 0.420166L6.49447 0.475821C6.34811 0.564355 6.21023 0.663344 6.08157 0.771505L6.34696 0.584826H8.5995L9.009 3.68557L6.9615 5.73307L4.914 7.15624V8.79732C4.914 9.94351 5.51306 11.0064 6.49361 11.5999L8.64909 12.9046L4.095 15.5611H3.21666L1.57959 14.5702C0.599041 13.9767 0 12.9139 0 11.7677V6.24928C0 5.10272 0.599422 4.03958 1.58047 3.44617L6.49447 0.473806C6.52493 0.455387 6.5556 0.437508 6.58648 0.420166Z" fill="url(#paint1_linear_3609_2)"/>
<path d="M11.4659 6.96143V8.79611C11.4659 9.9423 10.8668 11.0052 9.88627 11.5987L4.97227 14.5731C3.96703 15.1816 2.71629 15.2036 1.69336 14.639L6.49344 17.5445C7.53627 18.1758 8.84339 18.1758 9.88627 17.5445L14.8003 14.5701C15.7808 13.9765 16.3798 12.9137 16.3798 11.7675V10.4422L15.9703 9.82793L11.4659 6.96143Z" fill="url(#paint2_radial_3609_2)"/>
<path d="M11.4659 6.96143V8.79611C11.4659 9.9423 10.8668 11.0052 9.88627 11.5987L4.97227 14.5731C3.96703 15.1816 2.71629 15.2036 1.69336 14.639L6.49344 17.5445C7.53627 18.1758 8.84339 18.1758 9.88627 17.5445L14.8003 14.5701C15.7808 13.9765 16.3798 12.9137 16.3798 11.7675V10.4422L15.9703 9.82793L11.4659 6.96143Z" fill="url(#paint3_linear_3609_2)"/>
<path d="M14.7996 3.446L9.8856 0.473634C8.87548 -0.137369 7.61762 -0.156296 6.59215 0.416849L6.49453 0.475899C5.51349 1.06931 4.91406 2.13243 4.91406 3.279V7.16266L6.49453 6.20664C7.53695 5.57613 8.84317 5.57613 9.8856 6.20664L14.7996 9.179C15.75 9.75389 16.3422 10.7695 16.3783 11.8748C16.3795 11.8391 16.3801 11.8034 16.3801 11.7675V6.24911C16.3801 5.10255 15.7806 4.0394 14.7996 3.446Z" fill="url(#paint4_radial_3609_2)"/>
<path d="M14.7996 3.446L9.8856 0.473634C8.87548 -0.137369 7.61762 -0.156296 6.59215 0.416849L6.49453 0.475899C5.51349 1.06931 4.91406 2.13243 4.91406 3.279V7.16266L6.49453 6.20664C7.53695 5.57613 8.84317 5.57613 9.8856 6.20664L14.7996 9.179C15.75 9.75389 16.3422 10.7695 16.3783 11.8748C16.3795 11.8391 16.3801 11.8034 16.3801 11.7675V6.24911C16.3801 5.10255 15.7806 4.0394 14.7996 3.446Z" fill="url(#paint5_linear_3609_2)"/>
</g>
<defs>
<radialGradient id="paint0_radial_3609_2" cx="0" cy="0" r="1" gradientUnits="userSpaceOnUse" gradientTransform="translate(5.49492 3.53745) rotate(110.528) scale(13.6633 23.8315)">
<stop offset="0.06441" stop-color="#AE7FE2"/>
<stop offset="1" stop-color="#0078D4"/>
</radialGradient>
<linearGradient id="paint1_linear_3609_2" x1="5.53312" y1="14.6882" x2="3.58366" y2="11.3165" gradientUnits="userSpaceOnUse">
<stop stop-color="#114A8B"/>
<stop offset="1" stop-color="#0078D4" stop-opacity="0"/>
</linearGradient>
<radialGradient id="paint2_radial_3609_2" cx="0" cy="0" r="1" gradientUnits="userSpaceOnUse" gradientTransform="translate(2.63292 14.0667) rotate(-8.36717) scale(12.7151 8.39917)">
<stop offset="0.133928" stop-color="#D59DFF"/>
<stop offset="1" stop-color="#5E438F"/>
</radialGradient>
<linearGradient id="paint3_linear_3609_2" x1="14.8879" y1="9.57273" x2="12.7989" y2="12.5681" gradientUnits="userSpaceOnUse">
<stop stop-color="#493474"/>
<stop offset="1" stop-color="#8C66BA" stop-opacity="0"/>
</linearGradient>
<radialGradient id="paint4_radial_3609_2" cx="0" cy="0" r="1" gradientUnits="userSpaceOnUse" gradientTransform="translate(15.1742 10.0343) rotate(-165.772) scale(10.2059 17.1807)">
<stop offset="0.0584996" stop-color="#50E6FF"/>
<stop offset="1" stop-color="#436DCD"/>
</radialGradient>
<linearGradient id="paint5_linear_3609_2" x1="5.31365" y1="0.43259" x2="8.38941" y2="0.43259" gradientUnits="userSpaceOnUse">
<stop stop-color="#2D3F80"/>
<stop offset="1" stop-color="#436DCD" stop-opacity="0"/>
</linearGradient>
<clipPath id="clip0_3609_2">
<rect width="16.38" height="18.018" fill="white"/>
</clipPath>
</defs>
</svg>
