<svg width="28" height="25" viewBox="0 0 28 25" fill="none" xmlns="http://www.w3.org/2000/svg">
<path d="M7.05874 6.0697C7.82658 6.24033 8.59443 6.36831 9.31962 6.53894C10.898 6.88021 12.4763 7.22147 14.0973 7.52008C14.3106 7.56274 14.5239 7.56274 14.7372 7.52008C15.5477 7.30679 16.4009 7.05084 17.2114 6.83755C18.3205 6.53894 18.9604 6.83755 19.2163 7.94666C19.3443 8.50121 19.6002 8.7145 20.1548 8.84248C21.9891 9.18374 23.7807 9.61033 25.615 9.99425C25.743 10.0369 25.871 10.0369 26.0416 10.0796C25.9563 10.5915 25.8283 11.1034 25.743 11.6153C25.487 12.8523 25.1884 14.1321 24.9325 15.3692C24.7192 16.3076 24.122 16.6916 23.1835 16.5209C22.6716 16.4356 22.1597 16.3076 21.5198 16.1797C21.6478 16.6916 21.8184 17.1608 21.9038 17.6301C21.9891 17.9287 22.0317 18.2273 22.0317 18.4832C21.9464 19.1231 21.5198 19.4217 20.9226 19.5923C18.1498 20.3602 15.3771 21.128 12.6469 21.8959C10.0875 22.6211 7.48532 23.3036 4.92583 24.0288C3.98735 24.2847 3.34748 23.9435 3.09153 22.9623C2.15305 19.6776 1.25723 16.393 0.318753 13.1083C0.0628044 12.1272 0.404069 11.4873 1.42786 11.2313C2.9209 10.8048 4.41393 10.3782 5.90697 9.99425C6.16292 9.90893 6.29089 9.82362 6.33355 9.56767C6.54684 8.58653 6.76013 7.56274 6.97342 6.5816C6.97342 6.36831 7.01608 6.24033 7.05874 6.0697ZM2.53698 16.8622C2.53698 16.9475 2.53698 17.0328 2.53698 17.0755C3.04887 18.9525 3.56077 20.8294 4.11533 22.749C4.20064 23.0476 4.37127 23.0903 4.66988 23.005C6.33355 22.5357 8.03987 22.0665 9.70354 21.5973C13.2868 20.6161 16.8701 19.5923 20.4534 18.6112C21.0506 18.4406 21.0506 18.4406 20.88 17.8433C20.496 16.4356 20.1121 15.0279 19.6855 13.6202C19.5576 13.1509 19.4296 12.7244 19.3016 12.2551C13.6707 13.7908 8.08253 15.3265 2.53698 16.8622ZM18.6617 9.95159C18.4911 9.31172 18.3205 8.75716 18.1925 8.20261C18.1072 7.81868 17.9366 7.73337 17.5526 7.86134C13.5854 8.97045 9.57557 10.0796 5.60836 11.1887C4.28596 11.5299 3.00621 11.9139 1.68381 12.2551C1.47052 12.2978 1.21457 12.3831 1.29989 12.6391C1.47052 13.2789 1.64115 13.9188 1.85445 14.6013C7.48532 13.0656 13.0309 11.4873 18.6617 9.95159ZM22.1597 10.5488C21.6905 10.5061 21.5198 10.6768 21.4345 11.018C21.3065 11.6153 21.1786 12.1698 21.0506 12.767C20.9653 13.1509 21.1359 13.4069 21.5198 13.4922C22.1171 13.6202 22.7143 13.7482 23.3115 13.8761C23.6527 13.9615 23.9087 13.7908 23.994 13.4496C24.122 12.8097 24.2926 12.2125 24.3779 11.5726C24.4206 11.274 24.2926 11.018 23.994 10.9754C23.3541 10.8048 22.7143 10.6768 22.1597 10.5488Z" fill="#04CB3A"/>
<path d="M26.7677 7.21673C20.4117 5.89432 14.1409 4.52926 7.74219 3.20686C7.87016 2.43902 7.95548 1.67117 8.16877 0.988639C8.3394 0.348767 9.02193 0.0928178 9.78978 0.26345C11.0269 0.519399 12.3066 0.818006 13.5437 1.07395C17.6389 1.92712 21.7767 2.82294 25.8719 3.6761C26.7677 3.84673 27.1516 4.44395 27.0237 5.33977C26.981 5.93698 26.853 6.5342 26.7677 7.21673Z" fill="#008D1E"/>
<path d="M5.13991 21.7549C5.01193 21.6269 4.75598 21.4563 4.71333 21.2857C4.50004 20.6885 4.37206 20.0913 4.20143 19.4514C4.11611 19.0675 4.28675 18.8115 4.62801 18.7262C5.22522 18.5556 5.77978 18.3849 6.37699 18.257C6.76092 18.1716 7.01686 18.2996 7.14484 18.6835C7.31547 19.2807 7.4861 19.8353 7.61408 20.4325C7.74205 20.8591 7.61408 21.115 7.14484 21.243C6.50497 21.371 5.8651 21.5416 5.13991 21.7549Z" fill="#04CB3A"/>
</svg>
