<svg width="12" height="17" viewBox="0 0 12 17" fill="none" xmlns="http://www.w3.org/2000/svg">
<path d="M1.7012 6.81272C1.7012 5.93406 1.68127 5.10455 1.70518 4.2757C1.7623 2.30121 3.11316 0.600347 4.97806 0.123494C7.32049 -0.476225 9.79175 1.17815 10.1285 3.5737C10.161 3.80283 10.1909 4.03594 10.1876 4.2664C10.1809 4.72134 9.84422 5.07267 9.40788 5.10853C8.9742 5.14439 8.59099 4.84686 8.51063 4.39657C8.47011 4.16877 8.4741 3.93234 8.42362 3.7072C8.14469 2.45463 6.97048 1.58527 5.71327 1.6902C4.48261 1.79314 3.46914 2.84581 3.42132 4.12494C3.38811 5.00625 3.41468 5.88956 3.41468 6.81272C3.57141 6.81272 3.70092 6.81272 3.83109 6.81272C6.15492 6.81272 8.47808 6.81205 10.8019 6.81338C11.6427 6.81404 11.8884 7.05911 11.8891 7.90191C11.8904 10.5684 11.8904 13.235 11.8891 15.9021C11.8884 16.7137 11.6002 17 10.7913 17C7.56024 17 4.3292 17 1.09816 17C0.337715 17 0.00166035 16.6712 0.000996211 15.9161C-0.00033207 13.2383 -0.00033207 10.5605 0.000996211 7.88265C0.00166035 7.10294 0.287905 6.8167 1.05831 6.81272C1.25622 6.81139 1.45414 6.81272 1.7012 6.81272ZM5.84875 9.40021C5.25368 9.42677 4.71573 9.70637 4.41753 10.3386C4.12796 10.953 4.15387 11.6005 4.64865 12.0588C5.07503 12.4539 5.13148 12.875 5.09362 13.3771C5.08765 13.4541 5.0903 13.5318 5.09562 13.6089C5.13015 14.1302 5.44163 14.4424 5.9331 14.4503C6.43652 14.4583 6.76792 14.1369 6.79382 13.6002C6.80711 13.3246 6.77656 13.0457 6.80644 12.7727C6.82238 12.6306 6.89278 12.4566 6.99838 12.3682C7.5702 11.8927 7.81461 11.2133 7.60075 10.6036C7.35569 9.90296 6.65568 9.39622 5.84875 9.40021Z" fill="black"/>
</svg>
