<svg width="18" height="18" viewBox="0 0 18 18" fill="none" xmlns="http://www.w3.org/2000/svg">
<path d="M8.77027 11.5327C8.16018 11.5231 7.3469 11.1994 6.66375 10.5546C6.34111 10.2501 6.30484 9.83359 6.56882 9.53281C6.84454 9.21816 7.26424 9.20483 7.61248 9.49868C8.64921 10.3738 9.7862 10.3264 10.7488 9.36482C12.1695 7.94572 13.5918 6.52822 15.0072 5.10379C15.7591 4.34704 15.8807 3.24472 15.3239 2.39518C14.5779 1.25712 13.0126 1.09714 12.017 2.06987C11.2544 2.81488 10.5072 3.57589 9.75313 4.32944C9.6902 4.39237 9.62887 4.45743 9.55901 4.51183C9.2641 4.74168 8.87053 4.71821 8.61295 4.4601C8.35856 4.20518 8.33883 3.80681 8.56762 3.51243C8.60015 3.4703 8.63801 3.43244 8.67534 3.39458C9.45395 2.61543 10.223 1.82562 11.0144 1.05927C12.5364 -0.414758 14.8141 -0.339562 16.2108 1.21713C17.3921 2.53384 17.4166 4.62756 16.1873 5.9112C14.6573 7.50842 13.0697 9.05018 11.5018 10.6106C11.3525 10.7594 11.1728 10.882 10.9936 10.9962C10.416 11.3636 9.78246 11.5401 8.77027 11.5327Z" fill="white"/>
<path d="M3.45828 17.063C2.07971 16.9803 0.947524 16.311 0.339567 14.9255C-0.262524 13.5534 -0.0678713 12.2249 0.95499 11.1349C2.34103 9.65816 3.78092 8.2284 5.25122 6.83489C6.59353 5.56245 8.69844 5.62538 10.0445 6.89516C10.3741 7.20607 10.4157 7.6359 10.1453 7.93828C9.86956 8.24653 9.44773 8.25346 9.09788 7.95588C8.09155 7.09941 6.93164 7.13941 5.99997 8.06894C4.69713 9.36805 3.39215 10.665 2.09891 11.9743C1.12724 12.9582 1.27337 14.5096 2.39276 15.2674C3.2375 15.8396 4.34942 15.7319 5.10563 14.9911C5.75305 14.3565 6.39034 13.7117 7.02976 13.0686C7.22975 12.8675 7.4564 12.7454 7.74598 12.8046C8.28407 12.915 8.49793 13.5534 8.12729 13.9747C7.87504 14.261 7.59346 14.5213 7.32254 14.7911C6.86871 15.2423 6.425 15.7047 5.9557 16.1393C5.28855 16.7569 4.48167 17.0416 3.45828 17.063Z" fill="white"/>
<path d="M5.00621 4.15027C4.99075 4.53904 4.87609 4.74916 4.63824 4.87928C4.40252 5.00834 4.16254 5.00034 3.92842 4.86648C3.89802 4.84888 3.86656 4.82969 3.84203 4.80516C3.10128 4.06601 2.35573 3.33219 1.62565 2.58344C1.40113 2.35306 1.399 2.00322 1.56699 1.74457C1.73711 1.48219 2.05602 1.35313 2.35573 1.45446C2.48479 1.49819 2.61225 1.58138 2.70984 1.67737C3.39246 2.34879 4.07348 3.02235 4.73956 3.7103C4.87875 3.85322 4.95288 4.05961 5.00621 4.15027Z" fill="white"/>
<path d="M12.862 12.0625C13.022 12.1478 13.2118 12.2017 13.3366 12.3233C14.0502 13.0166 14.7531 13.721 15.4495 14.4314C15.7429 14.7306 15.7386 15.1609 15.4687 15.4383C15.192 15.7225 14.7504 15.7284 14.4427 15.426C13.7393 14.7354 13.0449 14.0346 12.3495 13.3355C12.1196 13.1046 12.0615 12.8288 12.1831 12.5265C12.2876 12.2652 12.5521 12.1036 12.862 12.0625Z" fill="white"/>
<path d="M12.1184 15.3119C12.1184 15.6409 12.1259 15.97 12.1168 16.2985C12.104 16.7774 11.8102 17.0888 11.392 17.0808C10.9745 17.0728 10.6972 16.7539 10.6956 16.2707C10.6929 15.6223 10.6924 14.9732 10.6956 14.3247C10.6977 13.8485 10.9857 13.5317 11.4064 13.5317C11.8187 13.5317 12.1024 13.8309 12.1163 14.2997C12.1264 14.6362 12.1184 14.9743 12.1184 15.3119Z" fill="white"/>
<path d="M6.42779 1.79867C6.42779 2.13624 6.43259 2.47382 6.42672 2.8114C6.41872 3.24977 6.12861 3.55375 5.72384 3.55854C5.3276 3.56281 5.02309 3.28443 5.01242 2.85246C4.99482 2.14211 4.99429 1.43069 5.01242 0.720342C5.02362 0.282506 5.3484 -0.00707317 5.74997 0.0105256C6.13608 0.0275911 6.41926 0.335838 6.42672 0.758741C6.43259 1.10592 6.42779 1.45256 6.42779 1.79867Z" fill="white"/>
<path d="M1.78058 6.38882C1.44301 6.38882 1.1049 6.39415 0.767852 6.38721C0.347615 6.37868 0.0409701 6.08857 0.0287043 5.7014C0.0164385 5.31102 0.299085 4.98732 0.720922 4.97558C1.43981 4.95532 2.16029 4.95585 2.8797 4.97452C3.30847 4.98571 3.58579 5.29769 3.57619 5.69446C3.56606 6.09977 3.26314 6.38135 2.82051 6.38828C2.47387 6.39308 2.12722 6.38935 1.78058 6.38882Z" fill="white"/>
<path d="M15.3102 10.6782C15.6568 10.6782 16.0035 10.6729 16.3496 10.6793C16.7709 10.6873 17.0786 10.9737 17.0935 11.3608C17.1084 11.7523 16.8274 12.0786 16.4056 12.0904C15.6776 12.1106 14.9481 12.1106 14.2206 12.0893C13.8073 12.077 13.5391 11.764 13.546 11.3768C13.553 10.9811 13.8495 10.6894 14.2708 10.6798C14.6169 10.6718 14.9635 10.6782 15.3102 10.6782Z" fill="white"/>
</svg>
