<svg width="19" height="15" viewBox="0 0 19 15" fill="none" xmlns="http://www.w3.org/2000/svg">
<path d="M10.1932 0.119873C13.2894 0.175337 16.2233 1.36123 18.6511 3.76161C19.037 4.143 19.1005 4.55411 18.8518 4.9435C18.531 5.44496 17.9043 5.52044 17.4463 5.11733C17.0535 4.77139 16.6744 4.40602 16.2564 4.09325C12.0629 0.950114 6.23007 1.30691 2.44138 4.92864C2.37276 4.99439 2.30586 5.06301 2.23439 5.1259C1.83528 5.47756 1.30809 5.46269 0.954721 5.09045C0.603069 4.71993 0.601354 4.21561 0.971303 3.83537C1.68604 3.10176 2.48884 2.47451 3.36596 1.94617C5.37066 0.737979 7.54633 0.133596 10.1932 0.119873Z" fill="#04CB3A"/>
<path d="M10.0958 3.7804C12.6231 3.81985 14.6644 4.65867 16.3518 6.33802C16.8206 6.8046 16.7886 7.40841 16.2917 7.76807C15.9286 8.03109 15.5198 7.98878 15.1396 7.68973C14.6547 7.30835 14.1835 6.8938 13.6512 6.59132C10.9626 5.06464 7.66512 5.47347 5.41169 7.61483C4.76785 8.22664 3.9622 7.86584 3.81067 7.23687C3.73176 6.90924 3.82611 6.6302 4.05197 6.3992C5.41569 5.0046 7.06531 4.16178 8.99453 3.87817C9.40794 3.81699 9.8282 3.80327 10.0958 3.7804Z" fill="#04CB3A"/>
<path d="M12.7813 10.6855C12.4771 10.6952 12.265 10.526 12.054 10.3379C11.11 9.49733 10.027 9.21429 8.82736 9.65514C8.4294 9.80152 8.06288 10.0766 7.7341 10.3539C7.2698 10.745 6.7712 10.7993 6.38639 10.4225C6.00672 10.0502 6.00672 9.4533 6.38581 9.03246C8.26529 6.94371 11.5691 6.94942 13.4223 9.04504C13.7076 9.36753 13.7842 9.73348 13.6075 10.1309C13.4509 10.4831 13.169 10.6684 12.7813 10.6855Z" fill="#04CB3A"/>
<path d="M10.1561 14.5335C9.2006 14.5323 8.42411 13.7633 8.41897 12.8124C8.41439 11.8484 9.19546 11.069 10.1652 11.0713C11.1218 11.073 11.8943 11.8398 11.9 12.7935C11.9057 13.7593 11.1293 14.5346 10.1561 14.5335Z" fill="#04CB3A"/>
</svg>
