<svg width="68" height="16" viewBox="0 0 68 16" fill="none" xmlns="http://www.w3.org/2000/svg">
<path d="M4.50583 10.563C6.56663 10.563 8.23724 8.89621 8.23724 6.8401C8.23724 4.78399 6.56663 3.11719 4.50583 3.11719C2.44502 3.11719 0.774414 4.78399 0.774414 6.8401C0.774414 8.89621 2.44502 10.563 4.50583 10.563Z" fill="white"/>
<path d="M65.371 13.1263H65.5332L65.7495 13.7737L65.9659 13.1263H66.1281V13.9086H66.0199V13.45V13.3691V13.2612L65.8036 13.9086H65.6955L65.4792 13.2612V13.9086H65.371V13.1263V13.1263ZM65.2899 13.1263V13.2072H65.0195V13.8816H64.9113V13.2072H64.6409V13.1263H65.2899ZM58.1245 14.8259V12.6946H57.6378V15.2575H59.4494V14.8259H58.1245V14.8259ZM53.7441 14.1784H55.015V13.7467H53.7441V13.1263H55.1772V12.6946H53.2574V15.2575H55.1772V14.8259H53.7171L53.7441 14.1784V14.1784ZM50.229 12.7216V14.4212L48.9041 12.7216H48.4715V15.2845H48.9582V13.5309L50.3101 15.2845H50.7157V12.7216H50.229ZM45.416 12.7216V14.4212L44.0911 12.7216H43.6585V15.2845H44.1452V13.5309L45.5242 15.2845H45.9298V12.7216H45.416ZM40.3597 14.2323L39.9541 13.2881L39.5485 14.2323H40.3597ZM41.279 15.2305L40.7923 15.2575L40.5219 14.637H39.3593L39.0889 15.2575H38.6022L39.7378 12.6676H40.1704L41.279 15.2305V15.2305ZM35.7901 13.7467H34.6274V12.6946H34.1407V15.2575H34.6274V14.1784H35.7901V15.2575H36.2768V12.6946H35.7901V13.7467ZM31.4368 14.5291L31.7612 14.8528L31.7342 14.8798C31.4638 15.1496 31.1664 15.3384 30.7067 15.3384C29.9496 15.3384 29.4088 14.7449 29.4088 14.0165C29.4088 13.2881 29.9496 12.6946 30.7337 12.6946C31.1934 12.6946 31.4908 12.8565 31.7342 13.0993V13.1263L31.4368 13.477H31.4097C31.2205 13.2881 31.0041 13.1802 30.7067 13.1802C30.22 13.1802 29.8955 13.5579 29.8955 14.0435C29.8955 14.5291 30.247 14.9338 30.7067 14.9338C31.0041 14.8528 31.1934 14.7449 31.4368 14.5291V14.5291ZM66.1011 3.41431L64.2624 8.67495L62.5319 3.41431H60.7743L63.4512 10.5634L63.4242 10.6173C63.4242 10.6173 62.8834 12.0741 62.3967 12.4248C62.0181 12.6137 61.1529 12.6137 60.8014 12.5867V13.9356C61.3962 13.9356 62.7482 13.9626 63.1808 13.6928C63.7216 13.3421 63.8568 13.2072 64.2353 12.4248C64.6409 11.5885 67.8045 3.41431 67.8045 3.41431H66.1011V3.41431ZM57.4755 4.60133V3.41431H55.8262V10.6173H57.4755V7.86562C57.4755 7.38003 57.5296 6.94839 57.6648 6.62465C58.1515 5.32973 59.5576 4.95204 60.2606 4.84413L59.6928 3.46827C59.1249 3.5492 58.0974 3.81898 57.4755 4.60133M29.0303 9.34939C27.7594 9.34939 26.8671 8.32424 26.8671 7.02932C26.8671 5.76137 27.7324 4.73622 28.9492 4.73622C29.7874 4.73622 30.3282 5.1139 30.8149 5.62648L31.8424 4.5204C31.1664 3.792 30.3282 3.27943 28.9762 3.27943C26.8131 3.27943 25.2448 5.006 25.2448 7.0563C25.2448 9.1066 26.8401 10.7792 28.9762 10.7792C30.3822 10.7792 31.2204 10.2127 31.9235 9.43033L30.923 8.45913C30.3822 8.97171 29.8144 9.34939 29.0303 9.34939M52.96 6.3279C52.933 6.05812 52.8789 6.00417 52.7707 5.76137C52.6896 5.51857 52.5544 5.32973 52.3922 5.16786C52.2299 5.006 52.0407 4.87111 51.8243 4.7632C51.608 4.65529 51.3647 4.62831 51.0943 4.62831C50.5805 4.62831 50.1749 4.79017 49.8234 5.14088C49.499 5.49159 49.2827 5.76137 49.2286 6.3279H52.96V6.3279ZM54.366 5.65346C54.5012 6.11208 54.5823 6.62465 54.5823 7.13723V7.35305C54.5823 7.43398 54.5823 7.51491 54.5553 7.59585H49.2556C49.3367 8.18936 49.5801 8.64798 49.9586 8.94473C50.3372 9.26846 50.7969 9.43033 51.3376 9.43033C51.7432 9.43033 52.0947 9.34939 52.3922 9.21451C52.6896 9.07962 52.987 8.8638 53.2845 8.56704L54.2579 9.43033C53.9064 9.83499 53.5008 10.1587 53.0141 10.4015C52.5274 10.6443 51.9595 10.7792 51.3106 10.7792C50.7969 10.7792 50.3101 10.6983 49.8505 10.5094C49.3908 10.3206 49.0123 10.0778 48.6878 9.75406C48.3633 9.43033 48.0929 9.02566 47.9037 8.56704C47.7144 8.10842 47.6062 7.59585 47.6062 7.0563V7.02932C47.6062 6.51674 47.6873 6.03115 47.8766 5.57253C48.0388 5.11391 48.2822 4.73622 48.6067 4.38551C48.9311 4.0348 49.2827 3.76502 49.7153 3.57618C50.1479 3.38734 50.6076 3.27943 51.1484 3.27943C51.7162 3.27943 52.2299 3.38734 52.6626 3.60316C53.0952 3.81898 53.4467 4.08875 53.7441 4.43946C54.0145 4.79017 54.2308 5.19484 54.366 5.65346ZM43.7667 8.70193L41.8198 3.41431H40.0352L43.0096 10.6713H44.4967L47.444 3.41431H45.7135L43.7667 8.70193ZM38.3318 7.02932C38.3318 6.70559 38.2777 6.40883 38.1695 6.13906C38.0614 5.86928 37.8991 5.62648 37.7099 5.41066C37.5206 5.19484 37.2772 5.03297 37.0068 4.92506C36.7365 4.79017 36.439 4.73622 36.1145 4.73622C35.7901 4.73622 35.4926 4.79017 35.2223 4.92506C34.9519 5.03297 34.7356 5.22182 34.5192 5.41066C34.33 5.62648 34.1677 5.86928 34.0866 6.13906C33.9785 6.40883 33.9514 6.70559 33.9514 7.02932V7.0563C33.9514 7.35305 34.0055 7.6498 34.1136 7.94656C34.2218 8.21633 34.384 8.48611 34.5733 8.70193C34.7626 8.91775 35.0059 9.07962 35.2763 9.21451C35.5467 9.32242 35.8442 9.40335 36.1686 9.40335C36.5201 9.40335 36.8176 9.34939 37.088 9.21451C37.3584 9.07962 37.5747 8.91775 37.7639 8.72891C37.9532 8.51309 38.0884 8.27029 38.1966 8.00051C38.2777 7.6498 38.3318 7.35305 38.3318 7.02932ZM39.7108 5.54555C39.9 6.00417 39.9812 6.48976 39.9812 7.00234V7.02932C39.9812 7.54189 39.873 8.02749 39.6837 8.45913C39.4945 8.91775 39.2241 9.32242 38.8726 9.64615C38.521 9.99686 38.1155 10.2666 37.6558 10.4555C37.1691 10.6443 36.6553 10.7522 36.1145 10.7522C35.5738 10.7522 35.06 10.6443 34.6004 10.4555C34.1407 10.2666 33.7351 9.99686 33.3836 9.67312C33.0321 9.32242 32.7617 8.94473 32.5724 8.48611C32.3831 8.02749 32.275 7.54189 32.275 7.02932V7.00234C32.275 6.48976 32.3831 6.00417 32.5724 5.54555C32.7617 5.08693 33.0321 4.68226 33.3836 4.35853C33.7351 4.00782 34.1407 3.73805 34.6004 3.5492C35.06 3.36036 35.5738 3.25245 36.1416 3.25245C36.7094 3.25245 37.1961 3.36036 37.6828 3.5492C38.1425 3.73805 38.5481 4.00782 38.8996 4.35853C39.2511 4.70924 39.5215 5.08693 39.7108 5.54555M23.7576 7.0563C23.5413 6.89443 23.298 6.75954 23.0276 6.65163C22.7572 6.54372 22.4868 6.43581 22.2434 6.35488C22.0271 6.27394 21.8378 6.21999 21.6486 6.13906C21.4593 6.0851 21.27 6.00417 21.1348 5.92323C20.9726 5.8423 20.8644 5.76137 20.7833 5.65346C20.7022 5.54555 20.6481 5.43764 20.6481 5.32973C20.6481 5.11391 20.7292 4.95204 20.9185 4.81715C21.0807 4.68226 21.3511 4.60133 21.6756 4.60133C21.973 4.60133 22.2975 4.65529 22.649 4.79017C23.0005 4.89808 23.352 5.08693 23.7035 5.27577L24.3525 4.11573C23.9739 3.87293 23.5413 3.65711 23.0816 3.52223C22.622 3.38734 22.1623 3.3064 21.7026 3.3064C21.3511 3.3064 20.9996 3.36036 20.7022 3.46827C20.3777 3.57618 20.1073 3.71107 19.891 3.89991C19.6477 4.08875 19.4854 4.33155 19.3502 4.57435C19.215 4.84413 19.161 5.14088 19.161 5.49159V5.51857C19.161 5.86928 19.2421 6.16603 19.3773 6.38185C19.5125 6.62465 19.7017 6.8135 19.891 6.97536C20.1073 7.13723 20.3507 7.27212 20.6211 7.35305C20.8915 7.46096 21.1619 7.54189 21.4052 7.62283C21.6215 7.67678 21.8108 7.75771 22.0271 7.81167C22.2164 7.86562 22.4057 7.94656 22.5409 8.00051C22.7031 8.08145 22.8113 8.16238 22.8924 8.27029C22.9735 8.3782 23.0276 8.48611 23.0276 8.621V8.64798C23.0276 8.89077 22.9194 9.07962 22.7301 9.21451C22.5409 9.34939 22.2705 9.43033 21.8919 9.43033C21.5134 9.43033 21.1348 9.34939 20.7292 9.21451C20.3236 9.05264 19.9181 8.83682 19.5395 8.56704L18.8094 9.67312C19.2691 10.0238 19.7558 10.2936 20.2966 10.4825C20.8374 10.6713 21.3511 10.7522 21.8649 10.7522C22.2206 10.7507 22.5748 10.7054 22.9194 10.6173C23.2439 10.5094 23.5413 10.3745 23.7576 10.1857C24.001 9.99686 24.1903 9.75406 24.3254 9.48428C24.4606 9.18753 24.5418 8.8638 24.5418 8.48611V8.45913C24.5418 8.1354 24.4606 7.83865 24.3254 7.62283C24.1362 7.407 23.9739 7.19118 23.7576 7.0563M15.9703 10.6173H17.6197V3.41431H15.9703V10.6173V10.6173ZM15.024 5.76137C15.024 8.45913 12.9419 10.5364 9.94058 10.5364H7.04738C7.64224 10.1317 8.12895 9.61917 8.48046 8.99868H9.96762C11.9685 8.99868 13.2934 7.6498 13.2934 5.76137C13.2934 3.87293 11.9956 2.49708 9.96762 2.49708H8.07487V3.89991C7.80448 3.5492 7.48001 3.25245 7.10146 3.00965C6.88514 2.84778 6.64179 2.7129 6.39844 2.60499V0.986328H9.96762C12.9419 1.01331 15.024 3.09058 15.024 5.76137" fill="white"/>
</svg>
