<svg width="39" height="24" viewBox="0 0 39 24" fill="none" xmlns="http://www.w3.org/2000/svg">
<path d="M19.5929 23.0296C19.0104 23.0341 18.2177 23.0054 17.425 22.9494C16.7593 22.9026 16.0952 22.833 15.4326 22.7438C13.5612 22.4929 11.7292 22.0726 9.94561 21.4497C8.33748 20.8873 6.80197 20.1767 5.39051 19.2137C4.35877 18.5107 3.41325 17.7095 2.60692 16.754C1.8732 15.8832 1.30438 14.9186 0.963999 13.8256C0.727999 13.0712 0.65841 12.3001 0.676564 11.514C0.697743 10.4799 0.977615 9.51385 1.42995 8.59315C1.95943 7.51673 2.70525 6.60359 3.57513 5.78721C4.56753 4.85441 5.68551 4.0985 6.88366 3.45749C8.26789 2.71518 9.72322 2.14674 11.2285 1.70226C12.1437 1.43164 13.0726 1.21545 14.0106 1.04159C14.7095 0.913087 15.4114 0.808771 16.1179 0.730157C16.8743 0.647006 17.6338 0.572927 18.3947 0.563856C19.5535 0.55025 20.7139 0.544202 21.8727 0.601652C22.5671 0.636424 23.2584 0.71655 23.9483 0.805748C25.1903 0.969025 26.4172 1.2094 27.6274 1.53445C29.0797 1.9245 30.4882 2.42945 31.8406 3.09011C33.2793 3.7916 34.6167 4.64427 35.7952 5.73581C36.5969 6.47811 37.2959 7.30357 37.8284 8.26206C38.2822 9.07845 38.5833 9.94472 38.7058 10.8715C38.7648 11.322 38.7512 11.7771 38.7315 12.2306C38.6619 13.8044 38.025 15.1605 37.0947 16.3942C36.2142 17.5613 35.1129 18.4941 33.8981 19.2969C32.4306 20.2644 30.8452 20.9886 29.1841 21.5495C27.865 21.9955 26.5185 22.3266 25.1464 22.5654C24.3371 22.706 23.5232 22.8149 22.7047 22.8905C21.7411 22.9797 20.7744 23.0265 19.5929 23.0296ZM19.7925 2.04091C18.8607 1.99102 17.8531 2.08173 16.8486 2.23291C16.0408 2.35386 15.245 2.5262 14.4599 2.75449C12.9879 3.18082 11.6006 3.79311 10.3147 4.63066C9.89568 4.90279 9.48571 5.18701 9.12415 5.53322C8.80494 5.84012 8.54928 6.20145 8.30117 6.5658C7.35869 7.95063 6.78987 9.47152 6.66582 11.1466C6.60984 11.9146 6.65069 12.6811 6.80802 13.4401C7.09394 14.8158 7.64612 16.0706 8.46456 17.2121C8.79435 17.6732 9.15743 18.0995 9.62035 18.4382C10.9062 19.38 12.3101 20.0921 13.8199 20.5985C15.4296 21.1383 17.0861 21.4346 18.7805 21.5162C19.9363 21.5722 21.0875 21.5253 22.2358 21.3726C23.2357 21.2396 24.2191 21.0294 25.1842 20.7316C26.6623 20.275 28.0556 19.637 29.3339 18.7587C29.6803 18.5198 30.0283 18.2809 30.3187 17.9725C30.8271 17.4313 31.2416 16.822 31.5956 16.1719C32.2188 15.0275 32.6258 13.815 32.7272 12.5088C32.7952 11.6319 32.7393 10.7641 32.5456 9.9039C32.2748 8.69293 31.7786 7.58174 31.0842 6.55673C30.6939 5.97921 30.2552 5.45007 29.6788 5.04339C28.2114 4.00628 26.6108 3.25037 24.8877 2.74693C24.0436 2.5005 23.1813 2.32815 22.3114 2.20721C21.9347 2.15429 21.558 2.1044 21.1768 2.08324C20.7441 2.05603 20.3114 2.04544 19.7925 2.04091ZM20.9423 1.08241C20.8712 1.07788 20.8016 1.07334 20.7305 1.07032C20.5671 1.06427 20.4037 1.06125 20.2388 1.05369C20.1708 1.05066 20.1375 1.07636 20.136 1.14742C20.1314 1.26837 20.1344 1.38931 20.1511 1.50875C20.1571 1.5541 20.1783 1.57678 20.2282 1.58434C20.4506 1.61457 20.6745 1.62516 20.8984 1.63876C21.5837 1.67807 22.2645 1.74913 22.9407 1.85798C23.9271 2.01672 24.8923 2.2571 25.8393 2.57761C27.1691 3.02813 28.4307 3.61623 29.585 4.42354C30.7348 5.22783 31.7408 6.17877 32.5441 7.3338C33.6712 8.95448 34.1099 10.752 33.8935 12.7098C33.8043 13.5217 33.5577 14.2912 33.2097 15.0305C32.5849 16.3579 31.6773 17.463 30.5517 18.3928C29.1599 19.5448 27.5896 20.3718 25.8862 20.9599C24.8983 21.3 23.8878 21.5465 22.856 21.7097C22.319 21.7959 21.7789 21.8579 21.2358 21.8987C20.8939 21.9244 20.552 21.9365 20.2086 21.9562C20.1844 21.9577 20.1465 21.9426 20.1465 21.9879C20.145 22.1285 20.1269 22.2691 20.1465 22.4112C20.1526 22.4566 20.1768 22.4823 20.2237 22.4913C20.3069 22.5065 20.3901 22.5019 20.4733 22.4989C21.3598 22.4717 22.2448 22.4127 23.1268 22.316C23.8999 22.2298 24.6699 22.1179 25.4354 21.9713C26.7107 21.7279 27.9633 21.4043 29.1887 20.9735C30.8422 20.3929 32.4079 19.637 33.8557 18.6438C34.8375 17.971 35.7059 17.1728 36.4578 16.2536C37.0735 15.5022 37.5409 14.6601 37.839 13.7318C38.1506 12.7582 38.2323 11.7665 38.0598 10.7566C37.9176 9.91902 37.6151 9.13892 37.196 8.40266C36.5682 7.29903 35.7225 6.38438 34.7437 5.58613C33.8799 4.88011 32.9389 4.29353 31.9481 3.78404C30.1145 2.84369 28.1826 2.18151 26.1721 1.74459C25.1555 1.52386 24.1283 1.35756 23.095 1.24115C22.3825 1.16103 21.6639 1.10962 20.9423 1.08241ZM18.5551 22.4762C18.6927 22.4838 18.9499 22.4853 19.2071 22.4853C19.2328 22.4853 19.2721 22.5034 19.2721 22.4505C19.2737 22.3145 19.2888 22.1784 19.2721 22.0423C19.2661 21.9985 19.2479 21.9728 19.2026 21.9683C19.1178 21.9592 19.0331 21.9456 18.9469 21.941C18.4159 21.9169 17.8849 21.8836 17.3569 21.8216C16.6035 21.7339 15.8577 21.6024 15.1195 21.4255C13.3948 21.0143 11.7701 20.3627 10.2663 19.4163C9.04397 18.6468 7.97138 17.711 7.10605 16.5469C6.21046 15.3419 5.63559 14.007 5.50094 12.4982C5.43438 11.7483 5.47069 11.0045 5.62197 10.2652C5.91243 8.84563 6.57051 7.60442 7.50694 6.51591C8.1862 5.72522 8.95925 5.02676 9.82458 4.43715C11.2557 3.46353 12.8139 2.77112 14.4765 2.30397C15.2556 2.08626 16.0468 1.92299 16.8471 1.80809C17.3433 1.73703 17.8425 1.68412 18.3433 1.65237C18.6277 1.63423 18.9121 1.61457 19.1965 1.59794C19.251 1.59492 19.2691 1.57224 19.2767 1.52235C19.2873 1.43467 19.2903 1.34698 19.2858 1.25778C19.2767 1.06578 19.2525 1.04462 19.0588 1.05369C18.7699 1.06729 18.4794 1.0809 18.1905 1.09299C17.3614 1.12928 16.537 1.20336 15.714 1.3107C14.9031 1.41652 14.0953 1.5541 13.295 1.72645C12.0363 1.99858 10.8019 2.35386 9.60068 2.81799C8.23915 3.3441 6.93812 3.98814 5.72484 4.80301C4.62956 5.53927 3.63866 6.39043 2.84746 7.45324C1.99574 8.59618 1.39364 9.84343 1.29379 11.2902C1.259 11.7861 1.26505 12.282 1.35128 12.7733C1.52072 13.7349 1.88531 14.6208 2.39815 15.4478C3.07741 16.5453 3.97754 17.4388 4.99264 18.2189C6.2982 19.2228 7.74446 19.9832 9.26786 20.5985C10.6339 21.1504 12.0424 21.5616 13.4841 21.8639C14.4901 22.0756 15.5052 22.2313 16.5279 22.3356C17.1618 22.4022 17.7971 22.4536 18.5551 22.4762Z" fill="#0175FE"/>
<path d="M19.1828 14.0167C16.7517 14.0197 14.8607 12.0589 14.9 9.68077C14.9378 7.34954 16.8546 5.44766 19.2524 5.49906C21.6336 5.55047 23.4157 7.51735 23.4157 9.7352C23.4172 12.204 21.4233 14.0091 19.1828 14.0167ZM18.4446 9.71857C18.4446 10.3052 18.443 10.8917 18.4446 11.4798C18.4461 11.947 18.8303 12.2751 19.2932 12.207C19.6609 12.1526 19.9211 11.8608 19.9226 11.4889C19.9241 10.3324 19.9226 9.17733 19.9226 8.02079C19.9226 7.97846 19.9165 7.93613 19.9105 7.89379C19.8621 7.55515 19.5444 7.26488 19.2085 7.25127C18.8606 7.23615 18.5489 7.48258 18.4703 7.83332C18.4461 7.93915 18.4461 8.048 18.4461 8.15685C18.4446 8.67541 18.4446 9.19699 18.4446 9.71857Z" fill="#0175FE"/>
<path d="M28.7485 14.1098C28.3023 14.1098 27.856 14.1083 27.4097 14.1114C27.3507 14.1114 27.3189 14.0887 27.2917 14.0403C26.9074 13.3539 26.5232 12.6691 26.1374 11.9842C26.1253 11.9631 26.1208 11.9283 26.092 11.9283C26.0648 11.9283 26.0588 11.9631 26.0482 11.9842C25.6684 12.6661 25.2872 13.3479 24.9105 14.0312C24.8772 14.0932 24.8394 14.1144 24.7698 14.1144C23.9106 14.1114 23.0513 14.1114 22.1905 14.1114C22.0967 14.1114 22.0952 14.1098 22.1421 14.0297C22.5883 13.2662 23.0331 12.5028 23.4809 11.7393C23.8833 11.0499 24.2872 10.3605 24.6912 9.67264C24.7214 9.61973 24.7229 9.58193 24.6912 9.52902C23.8969 8.18652 23.1042 6.84402 22.313 5.50152C22.2918 5.46675 22.2449 5.42895 22.2661 5.39116C22.2858 5.35941 22.3418 5.37906 22.3811 5.37906C23.251 5.37906 24.1208 5.37906 24.9907 5.37755C25.0633 5.37755 25.1027 5.40023 25.1374 5.46372C25.4445 6.02763 25.7547 6.59003 26.0648 7.15394C26.0724 7.16755 26.0799 7.17964 26.086 7.19325C26.1117 7.25221 26.1329 7.25372 26.1662 7.19476C26.3114 6.93322 26.4597 6.67167 26.6064 6.41164C26.7849 6.09264 26.9649 5.77516 27.1404 5.45465C27.1707 5.39872 27.2055 5.37755 27.2705 5.37755C28.1253 5.37906 28.98 5.37906 29.8348 5.37906C29.9406 5.37906 29.9422 5.38209 29.8862 5.47733C29.1071 6.81076 28.3295 8.14419 27.5474 9.4761C27.508 9.54262 27.5065 9.591 27.5474 9.65903C28.4036 11.1013 29.2569 12.5466 30.1101 13.9904C30.1177 14.004 30.1267 14.0161 30.1328 14.0297C30.1434 14.0539 30.1766 14.0766 30.16 14.1023C30.1479 14.1235 30.1131 14.1114 30.0889 14.1114C29.6411 14.1098 29.1948 14.1098 28.7485 14.1098Z" fill="#0175FE"/>
<path d="M9.46777 9.75192C9.46777 8.3308 9.46777 6.9112 9.46777 5.49009C9.46777 5.36914 9.46777 5.36914 9.58426 5.36914C11.3013 5.36914 13.0168 5.36914 14.7339 5.36914C14.8504 5.36914 14.8474 5.36914 14.8549 5.48253C14.8927 6.0283 14.9321 6.57255 14.9699 7.11681C14.9835 7.30276 14.9911 7.48872 15.0077 7.67467C15.0138 7.74573 14.9896 7.76387 14.9215 7.76387C13.9896 7.76236 13.0562 7.76236 12.1243 7.76236C12.0033 7.76236 12.0017 7.76236 12.0017 7.88784C12.0002 8.19474 12.0017 8.50315 11.9972 8.81005C11.9957 8.88564 12.0229 8.90227 12.0925 8.90227C12.8308 8.90681 13.569 8.91286 14.3073 8.90227C14.4813 8.89925 14.4586 8.88716 14.4586 9.04892C14.4586 9.76401 14.4586 10.4791 14.4586 11.1957C14.4586 11.2955 14.4586 11.297 14.3587 11.297C13.5993 11.297 12.8414 11.2985 12.0819 11.2985C11.9806 11.2985 11.9791 11.2985 11.9806 11.4028C11.9821 12.2767 11.9836 13.1505 11.9836 14.0243C11.9836 14.1286 11.9836 14.1286 11.8822 14.1286C11.1107 14.1286 10.3392 14.1286 9.56762 14.1286C9.46777 14.1286 9.46777 14.1286 9.46777 14.0304C9.46929 12.6032 9.46929 11.1776 9.46777 9.75192C9.46777 9.75192 9.46929 9.75192 9.46777 9.75192Z" fill="#0175FE"/>
<path d="M20.4206 16.3155C20.4206 15.8015 20.4221 15.2874 20.4191 14.7734C20.4191 14.7009 20.4388 14.6797 20.5114 14.6797C21.3707 14.6827 22.2299 14.6812 23.0892 14.6797C23.1376 14.6797 23.1739 14.6933 23.2087 14.7281C23.3313 14.852 23.4538 14.9745 23.5794 15.0939C23.6127 15.1257 23.6263 15.1604 23.6263 15.2073C23.6248 15.5172 23.6248 15.8272 23.6263 16.1371C23.6263 16.184 23.6127 16.2172 23.5794 16.249C23.4795 16.3457 23.3842 16.4455 23.2844 16.5423C23.2314 16.5921 23.2314 16.639 23.2571 16.704C23.4009 17.0427 23.54 17.3828 23.6807 17.7215C23.6868 17.7381 23.6928 17.7547 23.6989 17.7714C23.7564 17.9286 23.7503 17.9422 23.5869 17.9437C23.2995 17.9452 23.0121 17.9362 22.7246 17.9346C22.6717 17.9346 22.6656 17.8984 22.652 17.8636C22.534 17.5446 22.4115 17.2271 22.298 16.9066C22.2647 16.8114 22.2103 16.7781 22.1134 16.7811C21.8986 16.7857 21.6853 16.7857 21.4705 16.7841C21.4085 16.7841 21.3933 16.8083 21.3933 16.8643C21.3903 17.1923 21.3858 17.5189 21.3828 17.847C21.3812 17.9483 21.3812 17.9482 21.2784 17.9482C21.0182 17.9482 20.7595 17.9452 20.4993 17.9498C20.4312 17.9513 20.4146 17.9286 20.4146 17.8636C20.4221 17.3481 20.4206 16.831 20.4206 16.3155ZM21.9637 15.4114C21.9637 15.4129 21.9637 15.4144 21.9637 15.4159C21.8018 15.4159 21.6414 15.4159 21.4796 15.4159C21.4297 15.4159 21.3903 15.428 21.3903 15.4915C21.3873 15.6457 21.3812 15.7984 21.4024 15.9511C21.41 16.0071 21.4372 16.0267 21.4902 16.0328C21.6339 16.0509 21.7776 16.0464 21.9198 16.0464C22.0908 16.0479 22.2632 16.0479 22.4342 16.0418C22.5885 16.0358 22.655 15.9632 22.6611 15.809C22.6626 15.7606 22.6626 15.7138 22.6611 15.6654C22.6581 15.4961 22.5809 15.4144 22.41 15.4114C22.2617 15.4084 22.1119 15.4114 21.9637 15.4114Z" fill="#0175FE"/>
<path d="M19.8787 16.3144C19.8787 16.6697 19.8772 17.025 19.8802 17.3802C19.8802 17.4377 19.8621 17.4785 19.8212 17.5193C19.6896 17.6448 19.561 17.7733 19.434 17.9018C19.4022 17.9336 19.3689 17.9502 19.322 17.9502C18.6064 17.9487 17.8894 17.9487 17.1738 17.9502C17.133 17.9502 17.1027 17.9381 17.074 17.9094C16.9393 17.7733 16.8032 17.6388 16.6655 17.5057C16.6322 17.4725 16.6201 17.4377 16.6201 17.3923C16.6216 16.6848 16.6216 15.9773 16.6201 15.2682C16.6201 15.2229 16.6337 15.1866 16.6655 15.1533C16.7971 15.0142 16.9272 14.8736 17.0558 14.733C17.0891 14.6968 17.1254 14.6816 17.1738 14.6816C17.8879 14.6832 18.6004 14.6832 19.3144 14.6816C19.3629 14.6816 19.3992 14.6937 19.4355 14.73C19.5626 14.8585 19.6927 14.987 19.8243 15.111C19.8666 15.1518 19.8818 15.1941 19.8802 15.2501C19.8787 15.6054 19.8787 15.9606 19.8787 16.3144ZM18.9423 16.2963C18.9423 16.133 18.9332 15.9682 18.9453 15.8064C18.9544 15.6734 18.9196 15.5751 18.8137 15.492C18.7698 15.4572 18.7305 15.436 18.673 15.436C18.3962 15.4391 18.1193 15.4376 17.8425 15.4376C17.7275 15.4376 17.5808 15.5827 17.5808 15.6976C17.5808 16.0529 17.5868 16.4066 17.5777 16.7619C17.5747 16.8965 17.608 16.9962 17.7124 17.0809C17.7593 17.1187 17.8001 17.1384 17.8591 17.1384C18.1027 17.1353 18.3478 17.1308 18.5913 17.1399C18.7154 17.1444 18.8077 17.1157 18.8863 17.0174C18.9211 16.9736 18.9438 16.9358 18.9438 16.8783C18.9408 16.6833 18.9423 16.4898 18.9423 16.2963Z" fill="#0175FE"/>
<path d="M10.6568 17.9506C10.2378 17.9506 9.82021 17.9506 9.40116 17.9506C9.2998 17.9506 9.2998 17.9506 9.2998 17.8463C9.2998 17.7329 9.30132 17.6196 9.2998 17.5062C9.2998 17.4654 9.31039 17.4321 9.34368 17.4079C9.34519 17.4064 9.34821 17.4049 9.34973 17.4034C9.4647 17.2582 9.60993 17.2174 9.79752 17.2219C10.3058 17.2325 10.8156 17.234 11.324 17.2129C11.4919 17.2053 11.5085 17.1917 11.5115 17.0239C11.5131 16.9513 11.5131 16.8788 11.4994 16.8062C11.4798 16.7079 11.4631 16.6913 11.3603 16.6807C11.1091 16.6565 10.8565 16.6701 10.6054 16.6671C10.3225 16.6641 10.0411 16.6656 9.75819 16.6671C9.70675 16.6671 9.66893 16.652 9.63262 16.6157C9.53883 16.5205 9.44201 16.4282 9.34519 16.3375C9.31342 16.3073 9.2998 16.2755 9.30132 16.2317C9.30283 15.8885 9.30283 15.5468 9.30132 15.2037C9.30132 15.1598 9.31342 15.1281 9.34519 15.0963C9.47378 14.9724 9.60237 14.8469 9.72793 14.7214C9.75516 14.6942 9.78391 14.6836 9.82173 14.6836C10.6432 14.6836 11.4646 14.6851 12.2861 14.6836C12.3391 14.6836 12.3648 14.6972 12.3618 14.7562C12.3572 14.8816 12.3618 15.0086 12.3587 15.1341C12.3542 15.2823 12.2195 15.4108 12.0728 15.4123C11.5736 15.4138 11.0743 15.4138 10.5751 15.4168C10.5025 15.4168 10.4299 15.4259 10.3558 15.4304C10.3073 15.4319 10.2816 15.4592 10.2756 15.5045C10.2604 15.6179 10.262 15.7298 10.2741 15.8432C10.2816 15.9142 10.3315 15.9248 10.3875 15.9278C10.5418 15.9339 10.6946 15.9414 10.8489 15.9414C11.2302 15.9429 11.6099 15.9429 11.9911 15.9414C12.0425 15.9414 12.0804 15.955 12.1182 15.9928C12.2211 16.0971 12.3254 16.1984 12.4329 16.2982C12.4676 16.33 12.4798 16.3647 12.4798 16.4116C12.4782 16.7487 12.4782 17.0859 12.4798 17.4245C12.4798 17.4744 12.4646 17.5092 12.4283 17.544C12.3028 17.6634 12.1787 17.7859 12.0562 17.9098C12.0214 17.9461 11.9835 17.9567 11.9351 17.9567C11.51 17.9491 11.0834 17.9506 10.6568 17.9506Z" fill="#0175FE"/>
<path d="M28.5371 17.9502C28.1105 17.9502 27.6854 17.9487 27.2588 17.9517C27.1892 17.9517 27.1665 17.9306 27.1695 17.8625C27.1741 17.7446 27.1726 17.6252 27.1695 17.5072C27.168 17.4573 27.1892 17.4256 27.2179 17.3878C27.3178 17.2548 27.4418 17.2185 27.6067 17.22C28.1362 17.2291 28.6657 17.2336 29.1937 17.2124C29.3646 17.2049 29.3692 17.2034 29.3843 17.0325C29.3919 16.9494 29.3798 16.8662 29.3677 16.7846C29.3571 16.7166 29.3162 16.6863 29.2497 16.6803C29.1498 16.6712 29.0485 16.6667 28.9471 16.6667C28.5114 16.6667 28.0757 16.6652 27.6385 16.6667C27.578 16.6667 27.5341 16.65 27.4933 16.6062C27.4025 16.5125 27.3072 16.4217 27.2119 16.331C27.1801 16.3008 27.1665 16.2691 27.1665 16.2252C27.168 15.8745 27.168 15.5252 27.1665 15.1745C27.1665 15.1337 27.1771 15.1034 27.2074 15.0747C27.3269 14.9598 27.4449 14.8419 27.5629 14.724C27.5946 14.6922 27.6279 14.6816 27.6703 14.6816C28.4963 14.6832 29.3238 14.6832 30.1498 14.6816C30.2163 14.6816 30.239 14.7013 30.236 14.7678C30.2315 14.8782 30.23 14.9901 30.2345 15.1004C30.2406 15.241 30.1468 15.3181 30.056 15.3982C30.0318 15.4194 29.997 15.4088 29.9682 15.4088C29.4584 15.4103 28.9501 15.4103 28.4403 15.4134C28.3692 15.4134 28.2996 15.4224 28.2285 15.4255C28.1756 15.427 28.1544 15.4542 28.1468 15.5041C28.1302 15.6114 28.1317 15.7188 28.1438 15.8276C28.1514 15.9002 28.1922 15.9198 28.2557 15.9228C28.3873 15.9274 28.5175 15.9365 28.6491 15.9365C29.053 15.938 29.4554 15.9395 29.8593 15.9365C29.9138 15.9365 29.9546 15.9516 29.9925 15.9909C30.0832 16.0846 30.1785 16.1753 30.2738 16.266C30.3056 16.2963 30.3192 16.328 30.3192 16.3719C30.3177 16.7317 30.3177 17.0915 30.3192 17.4528C30.3192 17.4997 30.3041 17.5329 30.2708 17.5647C30.1604 17.6705 30.0499 17.7779 29.944 17.8897C29.9002 17.9366 29.8533 17.9502 29.7912 17.9502C29.3737 17.9487 28.9547 17.9502 28.5371 17.9502Z" fill="#0175FE"/>
<path d="M12.9895 16.3155C12.9895 15.8045 12.9895 15.2935 12.9895 14.781C12.9895 14.6812 12.9895 14.6812 13.0893 14.6812C13.9335 14.6812 14.7776 14.6812 15.6218 14.6797C15.6762 14.6797 15.7171 14.6948 15.7549 14.7341C15.8805 14.8611 16.0075 14.9866 16.1361 15.1106C16.174 15.1468 16.1906 15.1831 16.1906 15.236C16.1891 15.6095 16.1891 15.9814 16.1906 16.3548C16.1906 16.4077 16.174 16.444 16.1361 16.4803C16.006 16.6058 15.8759 16.7327 15.7489 16.8628C15.7095 16.9021 15.6702 16.9172 15.6157 16.9172C15.0908 16.9187 14.5673 16.9217 14.0424 16.9247C13.9335 16.9247 13.9335 16.9263 13.932 17.0321C13.9274 17.3087 13.9214 17.5854 13.9214 17.8636C13.9214 17.9362 13.8941 17.9513 13.8276 17.9498C13.578 17.9467 13.3283 17.9467 13.0787 17.9498C13.0061 17.9513 12.9834 17.9301 12.9849 17.856C12.991 17.3435 12.9895 16.8295 12.9895 16.3155ZM14.5568 16.2399C14.708 16.2399 14.8593 16.2444 15.0106 16.2384C15.1513 16.2323 15.2088 16.1734 15.2224 16.0328C15.2345 15.9073 15.2345 15.7818 15.2254 15.6548C15.2118 15.4779 15.1422 15.4129 14.9652 15.4099C14.7534 15.4069 14.5416 15.4069 14.3298 15.4084C14.2209 15.4084 14.1135 15.4129 14.0046 15.4159C13.9637 15.4175 13.935 15.4296 13.9304 15.481C13.9108 15.7032 13.9229 15.9239 13.9425 16.1446C13.9471 16.2006 13.9743 16.2217 14.0288 16.2278C14.2043 16.2505 14.3798 16.2369 14.5568 16.2399Z" fill="#0175FE"/>
<path d="M25.4053 14.6808C25.8773 14.6808 26.3478 14.6823 26.8198 14.6792C26.8954 14.6792 26.9197 14.6989 26.9181 14.776C26.9136 14.9846 26.9136 15.1948 26.9181 15.4034C26.9197 15.4714 26.897 15.4896 26.8319 15.4896C26.5475 15.4911 26.2631 15.4987 25.9772 15.4987C25.9076 15.4987 25.8819 15.5153 25.8819 15.5909C25.8803 16.3438 25.8743 17.0967 25.8698 17.8495C25.8698 17.9478 25.8698 17.9478 25.7699 17.9478C25.5248 17.9478 25.2813 17.9478 25.0362 17.9478C24.9318 17.9478 24.9318 17.9478 24.9318 17.8465C24.9318 17.2463 24.9318 16.6476 24.9288 16.0474C24.9288 15.9068 24.9212 15.7662 24.9152 15.6241C24.9106 15.5183 24.897 15.5062 24.7896 15.4987C24.5173 15.4805 24.245 15.485 23.9727 15.4881C23.9046 15.4881 23.8804 15.4699 23.8819 15.3989C23.8864 15.1872 23.8864 14.9756 23.8819 14.7639C23.8804 14.6974 23.9016 14.6777 23.9681 14.6777C24.4462 14.6823 24.9258 14.6808 25.4053 14.6808Z" fill="#0175FE"/>
<path d="M36.0662 11.9664C36.5321 11.9664 36.9981 11.9679 37.4655 11.9648C37.5381 11.9648 37.5608 11.9845 37.5593 12.0586C37.5472 12.5907 37.4458 13.1093 37.2946 13.6173C36.9996 14.6 36.4822 15.4617 35.8347 16.2494C34.9845 17.2804 33.9588 18.1089 32.8302 18.8164C31.564 19.6086 30.21 20.2164 28.8001 20.7002C28.5111 20.7984 28.2237 20.8982 27.9287 20.9753C27.8273 21.001 27.8092 20.9904 27.7729 20.8891C27.7683 20.877 27.7653 20.865 27.7608 20.8529C27.7154 20.6805 27.7275 20.6442 27.8863 20.5626C28.3599 20.3222 28.8334 20.0803 29.2887 19.8052C30.2645 19.2125 31.1631 18.5201 31.9513 17.6916C32.8499 16.7498 33.564 15.6885 34.0223 14.4639C34.2614 13.8259 34.4157 13.1683 34.4762 12.4894C34.4898 12.3413 34.5064 12.1946 34.5185 12.0465C34.5216 12.0057 34.5367 11.9875 34.5775 11.9875C34.626 11.986 34.6729 11.98 34.7213 11.98C35.1706 11.98 35.6184 11.98 36.0677 11.98C36.0662 11.9754 36.0662 11.9709 36.0662 11.9664Z" fill="#0175FE"/>
<path d="M36.0282 11.3154C35.5623 11.3154 35.0948 11.3154 34.6288 11.3154C34.5018 11.3154 34.5033 11.3154 34.4897 11.1854C34.4458 10.7515 34.3807 10.3206 34.2673 9.89884C33.9269 8.63949 33.3218 7.5162 32.5094 6.50177C31.7439 5.5463 30.8226 4.7662 29.806 4.09192C29.2069 3.69431 28.5761 3.35113 27.9331 3.02911C27.7183 2.92177 27.7001 2.86583 27.7833 2.63906C27.8075 2.57103 27.8454 2.54986 27.915 2.56951C28.2402 2.66022 28.5594 2.76908 28.8786 2.87793C29.9921 3.26042 31.0677 3.72455 32.0964 4.29904C33.2597 4.94913 34.3308 5.72167 35.2673 6.67563C35.8966 7.31815 36.4442 8.02266 36.8542 8.82544C37.2445 9.59043 37.479 10.4008 37.5561 11.2549C37.5622 11.3245 37.5319 11.3275 37.479 11.3275C36.9949 11.326 36.5108 11.3275 36.0267 11.3275C36.0282 11.3245 36.0282 11.32 36.0282 11.3154Z" fill="#0175FE"/>
<path d="M3.38469 11.9664C3.85669 11.9664 4.32718 11.9679 4.79918 11.9648C4.86877 11.9648 4.89902 11.9784 4.90659 12.0571C4.94592 12.5076 4.98525 12.9596 5.09115 13.4026C5.38161 14.6241 5.91564 15.7278 6.66448 16.7331C7.4814 17.8322 8.49046 18.7242 9.62961 19.4741C10.1909 19.843 10.7763 20.168 11.3769 20.4673C11.4465 20.5021 11.5146 20.5399 11.5796 20.5838C11.6613 20.6382 11.6749 20.682 11.6522 20.7773C11.6462 20.8045 11.6386 20.8302 11.6311 20.8574C11.5887 21.001 11.5736 21.0101 11.4268 20.9662C9.60087 20.4099 7.8581 19.6661 6.26207 18.6078C5.24243 17.9305 4.31507 17.1489 3.53597 16.1995C2.81889 15.3271 2.29092 14.3581 2.02013 13.2559C1.92331 12.8629 1.86431 12.4668 1.86279 12.0616C1.86279 11.9905 1.88246 11.9664 1.95659 11.9664C2.43161 11.9679 2.90815 11.9664 3.38469 11.9664Z" fill="#0175FE"/>
<path d="M3.58741 11.3148C2.94144 11.333 2.47549 11.3269 2.00954 11.3148C1.86582 11.3118 1.85977 11.3103 1.87793 11.1652C1.95205 10.5257 2.10334 9.90734 2.35446 9.31319C2.75536 8.36074 3.34233 7.53528 4.05639 6.79147C5.08662 5.71505 6.28477 4.86691 7.59033 4.16543C8.64325 3.60001 9.7461 3.15099 10.8792 2.77455C11.0819 2.70652 11.2877 2.64756 11.4919 2.58104C11.5615 2.55836 11.5963 2.57952 11.6235 2.64605C11.7082 2.86526 11.6991 2.90759 11.4934 3.01493C11.0078 3.2674 10.5222 3.51686 10.0562 3.80561C8.67351 4.66282 7.45418 5.69842 6.50715 7.03336C5.8521 7.95557 5.36951 8.95489 5.11082 10.06C5.0261 10.4259 4.9671 10.7963 4.93382 11.1697C4.93231 11.1894 4.92777 11.2105 4.92777 11.2302C4.92928 11.2967 4.90205 11.3179 4.83246 11.3179C4.35592 11.3133 3.88241 11.3148 3.58741 11.3148Z" fill="#0175FE"/>
</svg>
