<svg width="244" height="245" viewBox="0 0 244 245" fill="none" xmlns="http://www.w3.org/2000/svg">
<g clip-path="url(#clip0_3523_438)">
<path d="M2.44996 161.54C2.36996 161.67 2.28996 161.811 2.20996 161.941C2.27996 161.801 2.34996 161.661 2.41996 161.521C2.42996 161.521 2.44996 161.54 2.44996 161.54Z" fill="#E6E6E6"/>
<path d="M3.45006 165.52C3.32006 165.28 3.16006 165.05 3.07006 164.8C3.05006 164.75 3.31006 164.61 3.43006 164.51L3.46006 164.54C3.45006 164.87 3.45006 165.2 3.45006 165.52Z" fill="#E6E6E6"/>
<path d="M122.94 242.48C102.64 243.09 84.62 238.58 67.55 230.04C64.87 228.7 62.46 228.45 59.47 229.26C40.9 234.29 22.23 238.92 3.68 244C-1.41 245.39 0.110003 242.07 0.600003 240.15C2.7 231.79 5.11 223.5 7.41 215.19C10.15 205.28 12.79 195.34 15.69 185.47C16.32 183.33 16.1 181.67 15.12 179.81C4.61 159.64 -0.669997 138.24 0.490003 115.49C1.86 88.6201 11.18 64.7901 28.44 44.0301C45.73 23.2401 67.5 9.5101 93.72 3.4901C132.88 -5.4999 168.28 2.9101 199.57 28.2901C220.18 45.0201 233.56 66.5501 239.78 92.0601C246.41 119.25 244.25 146.09 232.24 171.71C214.15 210.3 183.71 233.07 142.17 241.28C135.5 242.59 128.65 242.97 122.94 242.48ZM222.65 114.46C221.43 82.3501 204.59 51.8501 169.99 33.0501C135.24 14.1701 100 15.9001 66.7 37.1901C20.99 66.4101 7.40001 126.92 35.47 173.46C37.94 177.56 38.48 181.01 37.06 185.5C34.31 194.21 32.18 203.13 29.66 211.91C28.7 215.24 29.51 216.06 32.87 215.14C42.81 212.42 52.84 209.99 62.76 207.19C65.58 206.39 67.73 206.72 70.23 208.22C84.17 216.59 99.35 221.27 115.55 222.28C173.56 225.89 222.56 179.76 222.65 114.46Z" fill="#FDFDFD"/>
<path d="M3.44006 77.5796C3.57006 77.6496 3.71006 77.7196 3.84006 77.7896C3.70006 77.7196 3.57006 77.6396 3.44006 77.5796Z" fill="#F6F6F6"/>
<path d="M240.31 77.5703C240.24 77.7003 240.17 77.8303 240.09 77.9603C240.17 77.8403 240.25 77.7103 240.31 77.5703Z" fill="#F6F6F6"/>
<path d="M0.440063 86.5703C0.570063 86.6403 0.710063 86.7103 0.840063 86.7803C0.710063 86.7103 0.580063 86.6403 0.440063 86.5703Z" fill="#F6F6F6"/>
<path d="M242.32 159.53C242.19 159.46 242.05 159.39 241.92 159.32C242.05 159.39 242.18 159.46 242.32 159.53Z" fill="#F6F6F6"/>
<path d="M3.44006 165.53C3.45006 165.2 3.45006 164.87 3.46006 164.54C3.58006 164.78 3.73006 165 3.80006 165.25C3.81006 165.31 3.56006 165.44 3.44006 165.53Z" fill="#F6F6F6"/>
<path d="M47.42 237.48C47.29 237.41 47.16 237.33 47.02 237.26C47.16 237.34 47.29 237.42 47.42 237.48Z" fill="#F6F6F6"/>
<path d="M155.2 181.05C137.51 178.61 120.92 173.05 106.21 162.66C88.68 150.28 75.33 134.04 65.02 115.44C55.29 97.8805 57.08 81.4005 69.05 68.8205C73.04 64.6305 81.29 62.7205 86.47 64.8005C88.5 65.6105 89.75 67.2405 90.56 69.1405C93.94 77.1105 97.26 85.1005 100.58 93.0905C101.5 95.3105 101.23 97.4205 99.85 99.3705C98.18 101.72 96.76 104.36 94.7 106.31C90.25 110.52 90.66 114.26 94 119.14C103.96 133.7 116.59 144.77 132.99 151.53C136.76 153.09 139.4 152.69 141.83 149.43C144.37 146.03 147.23 142.87 149.75 139.47C151.64 136.91 153.92 135.93 156.8 137.27C165.26 141.22 173.66 145.28 182.07 149.34C183.7 150.13 184.69 151.43 184.65 153.38C184.5 160.71 183.23 167.59 177.15 172.61C170.79 177.83 163.78 181.29 155.2 181.05Z" fill="#FDFDFD"/>
<path d="M224.73 114.32C224.63 180.96 174.63 228.05 115.42 224.36C98.89 223.33 83.39 218.55 69.17 210.01C66.62 208.48 64.43 208.15 61.55 208.96C51.42 211.82 41.19 214.3 31.04 217.08C27.61 218.02 26.79 217.18 27.76 213.78C30.33 204.81 32.5 195.72 35.31 186.82C36.76 182.24 36.21 178.72 33.69 174.53C5.03997 127.03 18.91 65.2803 65.57 35.4603C99.56 13.7303 135.52 11.9703 170.99 31.2403C206.3 50.4203 223.48 81.5503 224.73 114.32ZM155.2 181.05C163.78 181.29 170.79 177.83 177.14 172.59C183.23 167.57 184.49 160.69 184.64 153.36C184.68 151.41 183.69 150.11 182.06 149.32C173.66 145.26 165.25 141.2 156.79 137.25C153.91 135.91 151.64 136.89 149.74 139.45C147.22 142.86 144.35 146.02 141.82 149.41C139.39 152.67 136.75 153.06 132.98 151.51C116.58 144.74 103.96 133.67 93.99 119.12C90.65 114.24 90.24 110.5 94.69 106.29C96.75 104.34 98.17 101.71 99.84 99.3503C101.22 97.4103 101.5 95.2903 100.57 93.0703C97.24 85.0803 93.93 77.0903 90.55 69.1203C89.74 67.2203 88.49 65.5903 86.46 64.7803C81.28 62.7003 73.03 64.6103 69.04 68.8003C57.07 81.3803 55.28 97.8603 65.01 115.42C75.32 134.03 88.67 150.26 106.2 162.64C120.92 173.05 137.51 178.61 155.2 181.05Z" fill="#64B161"/>
</g>
<defs>
<clipPath id="clip0_3523_438">
<rect width="243.47" height="244.33" fill="white"/>
</clipPath>
</defs>
</svg>
