<svg width="192" height="191" viewBox="0 0 192 191" fill="none" xmlns="http://www.w3.org/2000/svg">
<path d="M155.853 144.22C153.977 122.427 144.577 105.01 125.216 94.244C118.77 90.648 118.921 88.7201 123.47 83.2828C136.341 67.729 134.358 46.673 119.589 33.1123C105.791 20.4397 84.2736 20.7863 70.8201 33.8705C56.5904 47.7345 55.2752 68.9421 68.5563 84.1493C73.2133 89.4783 71.5962 91.1463 66.5727 93.9624C47.5782 104.577 37.5312 120.932 36.0004 142.79C35.0087 156.979 42.1235 165.817 56.2023 166.164C69.2677 166.467 82.3332 166.229 95.3986 166.229V166.164C109.089 166.164 122.758 166.489 136.428 166.077C148.437 165.709 156.867 155.896 155.853 144.22ZM69.6989 59.9089C69.8714 46.6297 82.5057 34.1521 95.722 34.2604C109.715 34.3687 121.939 47.0846 121.422 61.057C120.883 75.051 109.068 86.2072 95.0537 85.9689C81.2552 85.6873 69.5264 73.6646 69.6989 59.9089ZM132.245 156.069C119.826 156.372 107.386 156.134 94.9459 156.156C83.4112 156.156 71.8765 156.307 60.3634 156.112C49.0228 155.939 44.9911 151.065 46.4572 139.93C49.7127 115.148 71.704 96.6702 97.3821 97.0818C121.551 97.4717 142.357 116.946 144.922 141.577C145.957 151.412 142.378 155.831 132.245 156.069Z" fill="#FCFCFC"/>
</svg>
