<svg width="191" height="191" viewBox="0 0 191 191" fill="none" xmlns="http://www.w3.org/2000/svg">
<path d="M129.787 113.652C129.727 120.72 123.659 126.788 115.67 127.529C114.889 127.609 114.108 127.609 113.026 127.649C105.177 127.208 97.8876 124.205 91.0591 120.039C78.3233 112.29 68.6513 101.597 62.6238 88.0398C59.2196 80.4103 60.0406 72.6807 66.2083 66.2327C68.6913 63.6295 71.8552 63.3291 75.1793 63.7296C76.8414 63.9299 77.6224 65.1714 78.2232 66.5932C79.6449 70.0375 80.9265 73.5418 82.5485 76.886C84.0704 80.0499 83.6098 82.6531 81.4671 85.2964C77.5022 90.2025 76.8614 89.2012 81.2869 95.489C86.3532 102.698 93.0416 108.005 101.172 111.529C103.615 112.59 105.237 112.07 106.718 110.007C107.92 108.345 109.282 106.783 110.523 105.141C111.765 103.499 113.166 102.998 115.109 103.96C119.234 106.002 123.419 107.964 127.564 109.927C129.126 110.688 129.787 111.829 129.787 113.652Z" fill="#383838"/>
<path d="M162.348 83.4316C155.76 43.6623 115.31 19.4323 78.8444 28.9441C36.2115 40.0578 14.865 86.7557 34.7096 125.964C36.0512 128.608 35.851 130.971 35.1101 133.594C32.5469 142.805 30.1239 152.057 27.5207 161.248C26.7998 163.791 27.4606 164.072 29.7635 163.431C39.4755 160.808 49.2276 158.364 58.9396 155.701C61.4828 155 63.6254 155.281 65.9683 156.402C75.0796 160.808 84.7516 163.03 94.8842 163.09C103.595 163.07 112.005 161.408 120.135 158.344C149.912 147.191 167.634 115.171 162.348 83.4316ZM102.013 151.416C89.878 153.038 78.4038 150.575 67.8107 144.507C65.2875 143.066 63.0047 142.865 60.3014 143.666C55.5354 145.068 50.7095 146.269 45.9035 147.531C44.1413 147.992 42.7796 148.252 43.6807 145.448C45.0024 141.363 45.7032 137.078 47.0649 133.013C48.3265 129.268 47.7658 126.084 45.9435 122.66C34.7096 101.534 35.9912 80.9085 49.7482 61.5244C59.6004 47.6272 73.5377 40.0178 90.679 38.576C92.321 38.4358 93.9831 38.2356 95.6251 38.0553C124.541 38.7562 148.01 59.9625 151.554 87.2964C155.68 119.016 133.832 147.191 102.013 151.416Z" fill="#383838"/>
<path d="M129.787 113.652C129.727 120.72 123.659 126.788 115.67 127.529C114.889 127.609 114.108 127.609 113.026 127.649C105.177 127.208 97.8876 124.205 91.0591 120.039C78.3233 112.29 68.6513 101.597 62.6238 88.0398C59.2196 80.4103 60.0406 72.6807 66.2083 66.2327C68.6913 63.6295 71.8552 63.3291 75.1793 63.7296C76.8414 63.9299 77.6224 65.1714 78.2232 66.5932C79.6449 70.0375 80.9265 73.5418 82.5485 76.886C84.0704 80.0499 83.6098 82.6531 81.4671 85.2964C77.5022 90.2025 76.8614 89.2012 81.2869 95.489C86.3532 102.698 93.0416 108.005 101.172 111.529C103.615 112.59 105.237 112.07 106.718 110.007C107.92 108.345 109.282 106.783 110.523 105.141C111.765 103.499 113.166 102.998 115.109 103.96C119.234 106.002 123.419 107.964 127.564 109.927C129.126 110.688 129.787 111.829 129.787 113.652Z" fill="#FEFEFE"/>
<path d="M162.348 83.4316C155.76 43.6623 115.31 19.4323 78.8444 28.9441C36.2115 40.0578 14.865 86.7557 34.7096 125.964C36.0512 128.608 35.851 130.971 35.1101 133.594C32.5469 142.805 30.1239 152.057 27.5207 161.248C26.7998 163.791 27.4606 164.072 29.7635 163.431C39.4755 160.808 49.2276 158.364 58.9396 155.701C61.4828 155 63.6254 155.281 65.9683 156.402C75.0796 160.808 84.7516 163.03 94.8842 163.09C103.595 163.07 112.005 161.408 120.135 158.344C149.912 147.191 167.634 115.171 162.348 83.4316ZM102.013 151.416C89.878 153.038 78.4038 150.575 67.8107 144.507C65.2875 143.066 63.0047 142.865 60.3014 143.666C55.5354 145.068 50.7095 146.269 45.9035 147.531C44.1413 147.992 42.7796 148.252 43.6807 145.448C45.0024 141.363 45.7032 137.078 47.0649 133.013C48.3265 129.268 47.7658 126.084 45.9435 122.66C34.7096 101.534 35.9912 80.9085 49.7482 61.5244C59.6004 47.6272 73.5377 40.0178 90.679 38.576C92.321 38.4358 93.9831 38.2356 95.6251 38.0553C124.541 38.7562 148.01 59.9625 151.554 87.2964C155.68 119.016 133.832 147.191 102.013 151.416Z" fill="#FEFEFE"/>
<path d="M129.787 113.652C129.727 120.72 123.659 126.788 115.67 127.529C114.889 127.609 114.108 127.609 113.026 127.649C105.177 127.208 97.8876 124.205 91.0591 120.039C78.3233 112.29 68.6513 101.597 62.6238 88.0398C59.2196 80.4103 60.0406 72.6807 66.2083 66.2327C68.6913 63.6295 71.8552 63.3291 75.1793 63.7296C76.8414 63.9299 77.6224 65.1714 78.2232 66.5932C79.6449 70.0375 80.9265 73.5418 82.5485 76.886C84.0704 80.0499 83.6098 82.6531 81.4671 85.2964C77.5022 90.2025 76.8614 89.2012 81.2869 95.489C86.3532 102.698 93.0416 108.005 101.172 111.529C103.615 112.59 105.237 112.07 106.718 110.007C107.92 108.345 109.282 106.783 110.523 105.141C111.765 103.499 113.166 102.998 115.109 103.96C119.234 106.002 123.419 107.964 127.564 109.927C129.126 110.688 129.787 111.829 129.787 113.652Z" fill="#383838"/>
<path d="M129.787 113.652C129.727 120.72 123.659 126.788 115.67 127.529C114.889 127.609 114.108 127.609 113.026 127.649C105.177 127.208 97.8876 124.205 91.0591 120.039C78.3233 112.29 68.6513 101.597 62.6238 88.0398C59.2196 80.4103 60.0406 72.6807 66.2083 66.2327C68.6913 63.6295 71.8552 63.3291 75.1793 63.7296C76.8414 63.9299 77.6224 65.1714 78.2232 66.5932C79.6449 70.0375 80.9265 73.5418 82.5485 76.886C84.0704 80.0499 83.6098 82.6531 81.4671 85.2964C77.5022 90.2025 76.8614 89.2012 81.2869 95.489C86.3532 102.698 93.0416 108.005 101.172 111.529C103.615 112.59 105.237 112.07 106.718 110.007C107.92 108.345 109.282 106.783 110.523 105.141C111.765 103.499 113.166 102.998 115.109 103.96C119.234 106.002 123.419 107.964 127.564 109.927C129.126 110.688 129.787 111.829 129.787 113.652Z" fill="#FEFEFE"/>
</svg>
