<svg width="192" height="191" viewBox="0 0 192 191" fill="none" xmlns="http://www.w3.org/2000/svg">
<path d="M151.753 55.384C151.736 44.705 146.542 39.6304 135.658 39.5962C122.621 39.562 109.584 39.5962 96.547 39.5962C82.895 39.5962 69.2429 39.5278 55.5909 39.6133C45.8175 39.6645 40.3327 45.2176 40.2986 55.0935C40.2473 82.0046 40.2302 108.899 40.3157 135.793C40.3328 145.173 46.0055 150.897 55.3005 150.999C67.0901 151.119 78.8967 150.794 90.6863 151.153C95.18 151.29 95.7268 149.445 95.6585 145.754C95.4705 136.664 95.5901 127.54 95.5901 118.433C95.5901 110.009 95.5901 109.753 87.2007 109.89C82.7241 109.958 81.1863 108.318 81.6476 104.08C81.8185 102.44 81.7502 100.783 81.6647 99.1252C81.528 96.1009 82.7412 94.6998 85.9363 94.4264C95.556 93.6063 95.5389 93.4866 95.5901 83.9183C95.6072 82.483 95.6072 81.0307 95.6585 79.5783C96.2736 64.5594 105.62 55.6403 120.587 55.4865C124.876 55.4353 127.952 55.777 127.217 61.3643C126.653 65.67 129.148 71.5648 120.81 70.5909C117.051 70.1637 112.967 70.6592 111.532 75.0334C109.567 81.0307 109.276 87.6773 111.361 93.2474C112.574 96.4768 118.537 93.948 122.33 94.4948C122.945 94.5802 123.578 94.5289 124.193 94.546C126.756 94.5631 127.132 96.0838 126.978 98.2708C126.26 107.634 124.398 109.65 115.222 109.667C111.873 109.685 110.507 110.368 110.592 114.059C110.831 125.028 110.797 135.998 110.609 146.95C110.541 150.35 111.754 151.136 114.898 151.051C122.125 150.846 129.37 151.068 136.615 150.965C146.439 150.811 151.719 145.395 151.736 135.4C151.787 108.762 151.77 82.0729 151.753 55.384ZM146.986 134.802C146.935 142.986 143.859 146.079 135.777 146.215C130.6 146.301 125.423 146.096 120.263 146.284C116.589 146.42 115.017 145.105 115.12 141.277C115.325 134.05 115.376 126.805 115.103 119.578C114.949 115.443 116.589 113.58 120.502 114.332C127.046 115.562 129.011 112.06 129.9 106.472C130.549 102.423 132.018 98.51 133.112 94.546C133.898 91.6926 133.676 89.6764 129.831 90.0352C127.371 90.2744 124.825 89.7789 122.399 90.1377C116.162 91.0262 114.812 88.207 114.966 82.4489C115.103 77.1179 116.829 74.7258 122.194 75.0846C124.039 75.2042 125.918 74.965 127.764 75.1017C131.113 75.3922 132.07 73.8031 131.984 70.6934C131.813 65.5162 131.95 60.3562 131.916 55.179C131.899 53.5729 132.172 51.9667 129.968 51.1979C117.529 46.7725 99.3492 54.188 93.7448 66.2339C91.1648 71.7699 90.4301 77.7843 90.8401 83.7987C91.1648 88.5658 89.7978 90.975 84.7061 90.001C78.4695 88.805 76.0433 91.2825 77.1026 97.5532C77.4444 99.5694 77.1539 101.671 77.1539 103.738C77.1539 113.409 77.1539 113.512 86.7906 114.195C89.2682 114.366 90.6693 114.998 90.6522 117.698C90.6009 125.968 90.5838 134.238 90.6522 142.525C90.6693 145.549 89.1657 146.335 86.3977 146.301C76.0604 146.181 65.7231 146.386 55.3688 146.181C48.7564 146.061 45.2708 142.866 45.2195 136.186C45.0145 108.899 45.0315 81.5945 45.2024 54.2905C45.2537 47.6951 48.7392 44.4146 55.4029 44.3804C82.4848 44.2437 109.584 44.2437 136.666 44.3633C143.859 44.3975 146.901 47.8318 146.969 55.384C147.089 68.6089 147.003 81.8508 147.003 95.0757C147.02 108.318 147.071 121.56 146.986 134.802Z" fill="#383838"/>
<path d="M151.753 55.384C151.736 44.705 146.542 39.6304 135.658 39.5962C122.621 39.562 109.584 39.5962 96.547 39.5962C82.895 39.5962 69.2429 39.5278 55.5909 39.6133C45.8175 39.6645 40.3327 45.2176 40.2986 55.0935C40.2473 82.0046 40.2302 108.899 40.3157 135.793C40.3328 145.173 46.0055 150.897 55.3005 150.999C67.0901 151.119 78.8967 150.794 90.6863 151.153C95.18 151.29 95.7268 149.445 95.6585 145.754C95.4705 136.664 95.5901 127.54 95.5901 118.433C95.5901 110.009 95.5901 109.753 87.2007 109.89C82.7241 109.958 81.1863 108.318 81.6476 104.08C81.8185 102.44 81.7502 100.783 81.6647 99.1252C81.528 96.1009 82.7412 94.6998 85.9363 94.4264C95.556 93.6063 95.5389 93.4866 95.5901 83.9183C95.6072 82.483 95.6072 81.0307 95.6585 79.5783C96.2736 64.5594 105.62 55.6403 120.587 55.4865C124.876 55.4353 127.952 55.777 127.217 61.3643C126.653 65.67 129.148 71.5648 120.81 70.5909C117.051 70.1637 112.967 70.6592 111.532 75.0334C109.567 81.0307 109.276 87.6773 111.361 93.2474C112.574 96.4768 118.537 93.948 122.33 94.4948C122.945 94.5802 123.578 94.5289 124.193 94.546C126.756 94.5631 127.132 96.0838 126.978 98.2708C126.26 107.634 124.398 109.65 115.222 109.667C111.873 109.685 110.507 110.368 110.592 114.059C110.831 125.028 110.797 135.998 110.609 146.95C110.541 150.35 111.754 151.136 114.898 151.051C122.125 150.846 129.37 151.068 136.615 150.965C146.439 150.811 151.719 145.395 151.736 135.4C151.787 108.762 151.77 82.0729 151.753 55.384ZM146.986 134.802C146.935 142.986 143.859 146.079 135.777 146.215C130.6 146.301 125.423 146.096 120.263 146.284C116.589 146.42 115.017 145.105 115.12 141.277C115.325 134.05 115.376 126.805 115.103 119.578C114.949 115.443 116.589 113.58 120.502 114.332C127.046 115.562 129.011 112.06 129.9 106.472C130.549 102.423 132.018 98.51 133.112 94.546C133.898 91.6926 133.676 89.6764 129.831 90.0352C127.371 90.2744 124.825 89.7789 122.399 90.1377C116.162 91.0262 114.812 88.207 114.966 82.4489C115.103 77.1179 116.829 74.7258 122.194 75.0846C124.039 75.2042 125.918 74.965 127.764 75.1017C131.113 75.3922 132.07 73.8031 131.984 70.6934C131.813 65.5162 131.95 60.3562 131.916 55.179C131.899 53.5729 132.172 51.9667 129.968 51.1979C117.529 46.7725 99.3492 54.188 93.7448 66.2339C91.1648 71.7699 90.4301 77.7843 90.8401 83.7987C91.1648 88.5658 89.7978 90.975 84.7061 90.001C78.4695 88.805 76.0433 91.2825 77.1026 97.5532C77.4444 99.5694 77.1539 101.671 77.1539 103.738C77.1539 113.409 77.1539 113.512 86.7906 114.195C89.2682 114.366 90.6693 114.998 90.6522 117.698C90.6009 125.968 90.5838 134.238 90.6522 142.525C90.6693 145.549 89.1657 146.335 86.3977 146.301C76.0604 146.181 65.7231 146.386 55.3688 146.181C48.7564 146.061 45.2708 142.866 45.2195 136.186C45.0145 108.899 45.0315 81.5945 45.2024 54.2905C45.2537 47.6951 48.7392 44.4146 55.4029 44.3804C82.4848 44.2437 109.584 44.2437 136.666 44.3633C143.859 44.3975 146.901 47.8318 146.969 55.384C147.089 68.6089 147.003 81.8508 147.003 95.0757C147.02 108.318 147.071 121.56 146.986 134.802Z" fill="#FCFCFC"/>
</svg>
