<svg width="41" height="41" viewBox="0 0 41 41" fill="none" xmlns="http://www.w3.org/2000/svg">
<path d="M20.4572 30.875C16.9843 30.875 13.5115 30.8801 10.0394 30.8725C8.46913 30.8691 7.30364 29.9186 7.04304 28.4462C7.00425 28.2269 7.00256 27.9984 7.00256 27.7749C7.00003 22.8835 6.99919 17.9913 7.00088 13.0999C7.00172 11.2218 8.20601 10.004 10.0824 10.0032C17.0282 9.99895 23.9731 9.99895 30.9189 10.0032C32.7936 10.004 33.9987 11.2226 33.9987 13.1008C34.0004 17.993 34.0004 22.8843 33.9987 27.7766C33.9979 29.6538 32.7919 30.8708 30.9172 30.8742C27.4308 30.8792 23.9436 30.8758 20.4572 30.875ZM20.5011 25.1782C17.8564 22.8262 15.2319 20.4918 12.5585 18.1144C12.5585 22.009 12.5585 25.8082 12.5585 29.6108C17.8707 29.6108 23.15 29.6108 28.4437 29.6108C28.4437 25.7854 28.4437 21.9862 28.4437 18.1144C25.7686 20.4935 23.1458 22.8262 20.5011 25.1782ZM20.5078 19.651C20.3653 19.5312 20.2573 19.4427 20.1528 19.3507C17.3234 16.8654 14.4779 14.397 11.6789 11.8779C11.1147 11.3702 10.5572 11.1425 9.8345 11.242C9.82101 11.2437 9.80667 11.2429 9.79233 11.2437C9.18513 11.2909 8.739 11.5853 8.4295 12.1081C8.23974 12.4286 8.25408 12.6546 8.56696 12.9304C12.1478 16.0938 15.7126 19.2748 19.2824 22.4509C19.6797 22.8042 20.0777 23.1551 20.491 23.5211C20.6191 23.4148 20.7271 23.3305 20.83 23.2394C22.7207 21.5586 24.6107 19.877 26.5006 18.1954C28.4951 16.4201 30.4921 14.6474 32.479 12.8638C32.5929 12.7617 32.7152 12.5543 32.6873 12.4269C32.4512 11.3306 30.6287 10.7571 29.7829 11.5001C28.1358 12.9464 26.4896 14.3944 24.8426 15.8416C23.4089 17.1032 21.9735 18.3632 20.5078 19.651ZM20.5011 18.0208C23.0623 15.7691 25.5932 13.5435 28.1864 11.264C23.0168 11.264 17.9626 11.264 12.8081 11.264C15.4065 13.546 17.9348 15.7674 20.5011 18.0208ZM8.25661 14.2915C8.24565 14.5353 8.233 14.6829 8.233 14.8313C8.23215 19.1298 8.23215 23.4291 8.233 27.7276C8.233 27.8676 8.23131 28.0093 8.24818 28.1485C8.33504 28.8611 8.71202 29.3924 9.40608 29.5408C10.0074 29.669 10.6441 29.6285 11.2741 29.664C11.2859 29.5012 11.296 29.4329 11.296 29.3637C11.2969 25.3317 11.2994 21.2997 11.2884 17.2677C11.2876 17.1117 11.1931 16.916 11.0776 16.8072C10.5463 16.3063 9.99305 15.829 9.44656 15.3432C9.07296 15.0126 8.69937 14.6829 8.25661 14.2915ZM29.7036 29.637C30.1084 29.637 30.4567 29.637 30.805 29.637C32.1501 29.6361 32.7675 29.0247 32.7675 27.6863C32.7683 23.4022 32.7683 19.1171 32.7666 14.833C32.7666 14.6854 32.7548 14.5378 32.7447 14.3177C32.5726 14.4577 32.4529 14.5462 32.3424 14.6449C31.575 15.3255 30.8168 16.0162 30.0392 16.6841C29.7955 16.8933 29.6943 17.1083 29.6952 17.4355C29.707 21.3267 29.7028 25.2179 29.7028 29.109C29.7036 29.2617 29.7036 29.4143 29.7036 29.637Z" fill="white"/>
</svg>
