<svg width="390" height="348" viewBox="0 0 390 348" fill="none" xmlns="http://www.w3.org/2000/svg">
<path d="M99.5028 85.0332C110.659 87.5125 121.816 89.3719 132.353 91.8512C155.286 96.8097 178.219 101.768 201.772 106.107C204.871 106.727 207.971 106.727 211.07 106.107C222.846 103.008 235.242 99.289 247.019 96.1899C263.134 91.8512 272.431 96.1899 276.15 112.305C278.01 120.363 281.729 123.462 289.786 125.321C316.438 130.28 342.471 136.478 369.123 142.056C370.982 142.676 372.842 142.676 375.321 143.296C374.081 150.734 372.222 158.171 370.982 165.609C367.263 183.584 362.925 202.178 359.206 220.153C356.107 233.789 347.429 239.367 333.793 236.888C326.355 235.648 318.918 233.789 309.62 231.93C311.48 239.367 313.959 246.185 315.199 253.003C316.438 257.342 317.058 261.681 317.058 265.4C315.818 274.697 309.62 279.036 300.943 281.515C260.655 292.672 220.367 303.828 180.699 314.985C143.51 325.522 105.701 335.439 68.512 345.976C54.876 349.695 45.5788 344.736 41.8599 330.48C28.2239 282.754 15.2078 235.029 1.57186 187.303C-2.14703 173.047 2.81149 163.75 17.6871 160.031C39.3806 153.833 61.0742 147.635 82.7677 142.056C86.4866 140.817 88.3461 139.577 88.9659 135.858C92.065 121.602 95.1641 106.727 98.2631 92.471C98.2631 89.3719 98.883 87.5125 99.5028 85.0332ZM33.8023 241.847C33.8023 243.086 33.8023 244.326 33.8023 244.946C41.2401 272.218 48.6779 299.489 56.7355 327.381C57.9751 331.72 60.4544 332.34 64.7931 331.1C88.9659 324.282 113.759 317.464 137.931 310.646C189.996 296.39 242.06 281.515 294.125 267.259C302.802 264.78 302.802 264.78 300.323 256.102C294.745 235.648 289.166 215.195 282.968 194.741C281.109 187.923 279.249 181.724 277.39 174.906C195.574 197.22 114.378 219.533 33.8023 241.847ZM268.093 141.436C265.613 132.139 263.134 124.082 261.275 116.024C260.035 110.446 257.556 109.206 251.977 111.065C194.335 127.181 136.072 143.296 78.429 159.411C59.2147 164.37 40.6203 169.948 21.406 174.906C18.3069 175.526 14.588 176.766 15.8276 180.485C18.3069 189.782 20.7862 199.079 23.8852 208.996C105.701 186.683 186.277 163.75 268.093 141.436ZM318.918 150.114C312.1 149.494 309.62 151.973 308.381 156.932C306.521 165.609 304.662 173.667 302.802 182.344C301.563 187.923 304.042 191.642 309.62 192.881C318.298 194.741 326.975 196.6 335.653 198.459C340.611 199.699 344.33 197.22 345.57 192.261C347.429 182.964 349.908 174.287 351.148 164.989C351.768 160.651 349.908 156.932 345.57 156.312C336.272 153.833 326.975 151.973 318.918 150.114Z" fill="white"/>
<path d="M385.861 101.779C293.509 82.5645 202.396 62.7304 109.424 43.5161C111.283 32.3594 112.523 21.2027 115.622 11.2857C118.101 1.98845 128.018 -1.73045 139.175 0.748814C157.149 4.46771 175.744 8.80642 193.719 12.5253C253.221 24.9216 313.343 37.9378 372.845 50.3341C385.861 52.8134 391.44 61.4908 389.58 74.5069C388.961 83.1843 387.101 91.8618 385.861 101.779Z" fill="white"/>
<path d="M71.6091 313.065C69.7496 311.206 66.0307 308.726 65.4109 306.247C62.3118 297.57 60.4524 288.892 57.9731 279.595C56.7335 274.017 59.2128 270.298 64.1713 269.058C72.8487 266.579 80.9063 264.1 89.5837 262.24C95.1621 261 98.881 262.86 100.74 268.438C103.22 277.116 105.699 285.173 107.558 293.851C109.418 300.049 107.558 303.768 100.74 305.627C91.4432 307.487 82.1459 309.966 71.6091 313.065Z" fill="white"/>
</svg>
