<svg width="191" height="191" viewBox="0 0 191 191" fill="none" xmlns="http://www.w3.org/2000/svg">
<path d="M68.5932 85.2961C69.0106 86.5482 68.0367 87.2021 67.2576 87.9117C66.8263 88.3012 66.4228 88.7325 65.9359 88.9968C60.0787 92.0158 58.924 96.8435 60.4683 102.812C60.8022 104.12 61.3587 105.831 59.7866 106.735C58.4092 107.528 57.2962 106.29 56.1972 105.594C48.9209 100.934 48.9209 100.934 40.8517 104.398C40.1561 104.704 39.4604 105.066 38.7092 105.205C36.9562 105.553 36.2188 104.843 36.358 102.895C37.0258 100.155 37.5823 97.2469 38.4727 94.4366C38.8761 93.1288 38.6674 92.3219 37.7909 91.3898C35.8989 89.3725 34.1041 87.2578 32.2955 85.1709C30.5982 83.2092 31.0156 82.138 33.5198 81.5119C35.6902 80.9693 37.8883 81.0806 40.0726 81.025C42.4934 80.9693 44.455 80.385 45.568 77.8808C46.4584 75.8913 47.7523 74.0687 48.8514 72.1766C49.3522 71.3419 49.8392 70.535 51.0078 70.5906C52.2043 70.6463 52.7469 71.4671 52.9277 72.4131C54.319 79.8702 58.8266 83.6127 66.3533 83.8909C67.3132 83.8909 68.2454 84.2527 68.5932 85.2961Z" fill="#383838"/>
<path d="M113.98 85.2093C114.314 86.2806 113.674 87.0318 112.909 87.6718C110.989 89.2578 109.138 90.9134 107.135 92.3881C105.549 93.5568 105.132 94.9759 105.368 96.8262C105.702 99.3861 105.897 101.96 106.133 104.311C106.092 106.857 104.853 107.525 102.753 106.273C100.457 104.895 98.1476 103.518 95.9494 102.002C94.6834 101.139 93.5982 101.139 92.2487 101.779C89.9253 102.892 87.5324 103.894 85.1255 104.826C82.4821 105.855 81.4526 105.007 81.9952 102.252C82.496 99.7339 82.8717 97.1323 83.776 94.7393C84.4716 92.889 83.7482 91.8595 82.6908 90.7047C81.0909 88.9239 79.5466 87.1014 77.9049 85.3623C77.1397 84.5554 76.4858 83.7763 76.8058 82.5937C77.1397 81.3416 78.2806 81.6755 79.1431 81.4112C81.8561 80.5764 84.6664 81.2303 87.4071 80.7434C88.7706 80.493 89.6192 80.0338 90.287 78.8235C91.5809 76.4723 93.0278 74.2323 94.3912 71.9229C94.9199 71.0325 95.5181 70.4203 96.6728 70.5455C97.758 70.6568 98.0363 71.4916 98.3563 72.2846C99.3301 74.6775 100.374 77.0427 101.194 79.4913C101.751 81.1747 102.822 81.8564 104.464 82.1625C106.996 82.6355 109.486 83.3033 111.99 83.8459C112.867 84.0267 113.702 84.2772 113.98 85.2093Z" fill="#383838"/>
<path d="M159.418 85.3853C159.654 86.4704 158.958 87.1661 158.193 87.7921C156.343 89.3086 154.59 90.9363 152.642 92.3276C151.028 93.4823 150.583 94.8736 150.806 96.7378C151.112 99.2004 151.307 101.677 151.529 104.153C151.613 105.113 151.71 106.157 150.667 106.685C149.846 107.103 148.955 106.977 148.26 106.337C142.667 101.176 136.782 100.578 130.354 104.849C129.005 105.739 127.294 105.711 127.182 103.179C127.85 100.272 128.448 97.2665 129.269 94.331C129.631 93.051 129.436 92.1885 128.546 91.2563C126.709 89.3086 124.942 87.2913 123.217 85.2601C121.381 83.1036 121.812 82.1576 124.469 81.4341C127.21 80.6968 129.993 81.2254 132.733 80.7802C134.222 80.5437 135.126 79.9733 135.822 78.6655C136.991 76.4813 138.34 74.3944 139.606 72.2519C140.149 71.3476 140.664 70.4154 141.985 70.5407C143.335 70.6798 143.557 71.7789 143.933 72.7249C144.865 75.0344 145.853 77.316 146.632 79.6672C147.119 81.1559 148.065 81.7819 149.456 82.088C152.058 82.6445 154.646 83.2845 157.261 83.8132C158.263 84.0079 159.181 84.2862 159.418 85.3853Z" fill="#383838"/>
<path d="M171.319 62.9998C171.306 53.3724 166.714 48.8091 157.059 48.8091C136.58 48.7952 116.101 48.7952 95.6078 48.7952C74.8364 48.7952 54.0651 48.8091 33.2938 48.7812C30.9704 48.7812 28.7444 49.0456 26.6019 49.9638C20.7447 52.5098 19.4787 57.6157 19.4369 63.1946C19.3256 78.0253 19.3813 92.8699 19.423 107.701C19.423 109.495 19.6178 111.346 20.0491 113.099C21.5238 119.053 26.0454 122.17 33.2381 122.183C51.0461 122.239 68.8402 122.337 86.6481 122.197C90.5297 122.17 93.6044 123.185 96.5816 125.689C102.425 130.614 108.519 135.247 114.501 140.005C115.572 140.854 116.741 141.731 118.146 141.23C119.69 140.673 119.621 139.073 119.662 137.793C119.802 133.494 119.913 129.181 119.788 124.883C119.718 122.754 120.275 122.114 122.473 122.142C134.062 122.253 145.637 122.211 157.226 122.183C166.645 122.17 171.333 117.481 171.347 108.062C171.333 93.0508 171.333 78.0253 171.319 62.9998ZM32.4868 53.4976C49.6131 53.4837 66.7394 53.4976 83.8656 53.4976C108.449 53.4976 133.046 53.4976 157.63 53.4976C162.04 53.4976 165.059 55.3619 166.005 58.5895C166.158 59.1182 166.547 59.7025 166.005 60.1756C165.574 60.5373 165.128 60.1338 164.711 59.9391C162.123 58.7148 159.369 58.5756 156.572 58.5756C117.339 58.5895 78.1059 58.6174 38.8866 58.5895C34.1981 58.5895 29.5652 59.0626 24.6263 59.9251C25.6419 55.4592 28.1462 53.4976 32.4868 53.4976ZM166.659 108.243C166.631 114.629 163.751 117.481 157.296 117.509C144.663 117.551 132.031 117.509 119.398 117.537C115.419 117.537 115.141 117.815 115.127 121.752C115.099 125.717 115.127 129.682 115.127 134.19C110.258 130.767 105.847 127.707 102.133 123.936C96.7625 118.483 90.3071 116.952 83.0448 117.258C66.2942 117.926 49.5575 117.509 32.8068 117.453C26.8245 117.425 24.4593 114.615 24.4454 108.591C24.4315 96.4454 24.4315 84.2859 24.4454 72.1264C24.4593 65.9493 26.9636 63.3337 33.1129 63.3337C74.6417 63.3059 116.184 63.3059 157.727 63.3337C163.848 63.3337 166.631 66.1301 166.659 72.3629C166.714 84.3137 166.701 96.2785 166.659 108.243Z" fill="#383838"/>
<path d="M68.5932 85.2961C69.0106 86.5482 68.0367 87.2021 67.2576 87.9117C66.8263 88.3012 66.4228 88.7325 65.9359 88.9968C60.0787 92.0158 58.924 96.8435 60.4683 102.812C60.8022 104.12 61.3587 105.831 59.7866 106.735C58.4092 107.528 57.2962 106.29 56.1972 105.594C48.9209 100.934 48.9209 100.934 40.8517 104.398C40.1561 104.704 39.4604 105.066 38.7092 105.205C36.9562 105.553 36.2188 104.843 36.358 102.895C37.0258 100.155 37.5823 97.2469 38.4727 94.4366C38.8761 93.1288 38.6674 92.3219 37.7909 91.3898C35.8989 89.3725 34.1041 87.2578 32.2955 85.1709C30.5982 83.2092 31.0156 82.138 33.5198 81.5119C35.6902 80.9693 37.8883 81.0806 40.0726 81.025C42.4934 80.9693 44.455 80.385 45.568 77.8808C46.4584 75.8913 47.7523 74.0687 48.8514 72.1766C49.3522 71.3419 49.8392 70.535 51.0078 70.5906C52.2043 70.6463 52.7469 71.4671 52.9277 72.4131C54.319 79.8702 58.8266 83.6127 66.3533 83.8909C67.3132 83.8909 68.2454 84.2527 68.5932 85.2961Z" fill="#FDFDFD"/>
<path d="M113.98 85.2093C114.314 86.2806 113.674 87.0318 112.909 87.6718C110.989 89.2578 109.138 90.9134 107.135 92.3881C105.549 93.5568 105.132 94.9759 105.368 96.8262C105.702 99.3861 105.897 101.96 106.133 104.311C106.092 106.857 104.853 107.525 102.753 106.273C100.457 104.895 98.1476 103.518 95.9494 102.002C94.6834 101.139 93.5982 101.139 92.2487 101.779C89.9253 102.892 87.5324 103.894 85.1255 104.826C82.4821 105.855 81.4526 105.007 81.9952 102.252C82.496 99.7339 82.8717 97.1323 83.776 94.7393C84.4716 92.889 83.7482 91.8595 82.6908 90.7047C81.0909 88.9239 79.5466 87.1014 77.9049 85.3623C77.1397 84.5554 76.4858 83.7763 76.8058 82.5937C77.1397 81.3416 78.2806 81.6755 79.1431 81.4112C81.8561 80.5764 84.6664 81.2303 87.4071 80.7434C88.7706 80.493 89.6192 80.0338 90.287 78.8235C91.5809 76.4723 93.0278 74.2323 94.3912 71.9229C94.9199 71.0325 95.5181 70.4203 96.6728 70.5455C97.758 70.6568 98.0363 71.4916 98.3563 72.2846C99.3301 74.6775 100.374 77.0427 101.194 79.4913C101.751 81.1747 102.822 81.8564 104.464 82.1625C106.996 82.6355 109.486 83.3033 111.99 83.8459C112.867 84.0267 113.702 84.2772 113.98 85.2093Z" fill="#FDFDFD"/>
<path d="M159.418 85.3853C159.654 86.4704 158.958 87.1661 158.193 87.7921C156.343 89.3086 154.59 90.9363 152.642 92.3276C151.028 93.4823 150.583 94.8736 150.806 96.7378C151.112 99.2004 151.307 101.677 151.529 104.153C151.613 105.113 151.71 106.157 150.667 106.685C149.846 107.103 148.955 106.977 148.26 106.337C142.667 101.176 136.782 100.578 130.354 104.849C129.005 105.739 127.294 105.711 127.182 103.179C127.85 100.272 128.448 97.2665 129.269 94.331C129.631 93.051 129.436 92.1885 128.546 91.2563C126.709 89.3086 124.942 87.2913 123.217 85.2601C121.381 83.1036 121.812 82.1576 124.469 81.4341C127.21 80.6968 129.993 81.2254 132.733 80.7802C134.222 80.5437 135.126 79.9733 135.822 78.6655C136.991 76.4813 138.34 74.3944 139.606 72.2519C140.149 71.3476 140.664 70.4154 141.985 70.5407C143.335 70.6798 143.557 71.7789 143.933 72.7249C144.865 75.0344 145.853 77.316 146.632 79.6672C147.119 81.1559 148.065 81.7819 149.456 82.088C152.058 82.6445 154.646 83.2845 157.261 83.8132C158.263 84.0079 159.181 84.2862 159.418 85.3853Z" fill="#FDFDFD"/>
<path d="M171.319 62.9998C171.306 53.3724 166.714 48.8091 157.059 48.8091C136.58 48.7952 116.101 48.7952 95.6078 48.7952C74.8364 48.7952 54.0651 48.8091 33.2938 48.7812C30.9704 48.7812 28.7444 49.0456 26.6019 49.9638C20.7447 52.5098 19.4787 57.6157 19.4369 63.1946C19.3256 78.0253 19.3813 92.8699 19.423 107.701C19.423 109.495 19.6178 111.346 20.0491 113.099C21.5238 119.053 26.0454 122.17 33.2381 122.183C51.0461 122.239 68.8402 122.337 86.6481 122.197C90.5297 122.17 93.6044 123.185 96.5816 125.689C102.425 130.614 108.519 135.247 114.501 140.005C115.572 140.854 116.741 141.731 118.146 141.23C119.69 140.673 119.621 139.073 119.662 137.793C119.802 133.494 119.913 129.181 119.788 124.883C119.718 122.754 120.275 122.114 122.473 122.142C134.062 122.253 145.637 122.211 157.226 122.183C166.645 122.17 171.333 117.481 171.347 108.062C171.333 93.0508 171.333 78.0253 171.319 62.9998ZM32.4868 53.4976C49.6131 53.4837 66.7394 53.4976 83.8656 53.4976C108.449 53.4976 133.046 53.4976 157.63 53.4976C162.04 53.4976 165.059 55.3619 166.005 58.5895C166.158 59.1182 166.547 59.7025 166.005 60.1756C165.574 60.5373 165.128 60.1338 164.711 59.9391C162.123 58.7148 159.369 58.5756 156.572 58.5756C117.339 58.5895 78.1059 58.6174 38.8866 58.5895C34.1981 58.5895 29.5652 59.0626 24.6263 59.9251C25.6419 55.4592 28.1462 53.4976 32.4868 53.4976ZM166.659 108.243C166.631 114.629 163.751 117.481 157.296 117.509C144.663 117.551 132.031 117.509 119.398 117.537C115.419 117.537 115.141 117.815 115.127 121.752C115.099 125.717 115.127 129.682 115.127 134.19C110.258 130.767 105.847 127.707 102.133 123.936C96.7625 118.483 90.3071 116.952 83.0448 117.258C66.2942 117.926 49.5575 117.509 32.8068 117.453C26.8245 117.425 24.4593 114.615 24.4454 108.591C24.4315 96.4454 24.4315 84.2859 24.4454 72.1264C24.4593 65.9493 26.9636 63.3337 33.1129 63.3337C74.6417 63.3059 116.184 63.3059 157.727 63.3337C163.848 63.3337 166.631 66.1301 166.659 72.3629C166.714 84.3137 166.701 96.2785 166.659 108.243Z" fill="#FDFDFD"/>
<path d="M68.5932 85.2961C69.0106 86.5482 68.0367 87.2021 67.2576 87.9117C66.8263 88.3012 66.4228 88.7325 65.9359 88.9968C60.0787 92.0158 58.924 96.8435 60.4683 102.812C60.8022 104.12 61.3587 105.831 59.7866 106.735C58.4092 107.528 57.2962 106.29 56.1972 105.594C48.9209 100.934 48.9209 100.934 40.8517 104.398C40.1561 104.704 39.4604 105.066 38.7092 105.205C36.9562 105.553 36.2188 104.843 36.358 102.895C37.0258 100.155 37.5823 97.2469 38.4727 94.4366C38.8761 93.1288 38.6674 92.3219 37.7909 91.3898C35.8989 89.3725 34.1041 87.2578 32.2955 85.1709C30.5982 83.2092 31.0156 82.138 33.5198 81.5119C35.6902 80.9693 37.8883 81.0806 40.0726 81.025C42.4934 80.9693 44.455 80.385 45.568 77.8808C46.4584 75.8913 47.7523 74.0687 48.8514 72.1766C49.3522 71.3419 49.8392 70.535 51.0078 70.5906C52.2043 70.6463 52.7469 71.4671 52.9277 72.4131C54.319 79.8702 58.8266 83.6127 66.3533 83.8909C67.3132 83.8909 68.2454 84.2527 68.5932 85.2961Z" fill="#383838"/>
<path d="M113.98 85.2093C114.314 86.2806 113.674 87.0318 112.909 87.6718C110.989 89.2578 109.138 90.9134 107.135 92.3881C105.549 93.5568 105.132 94.9759 105.368 96.8262C105.702 99.3861 105.897 101.96 106.133 104.311C106.092 106.857 104.853 107.525 102.753 106.273C100.457 104.895 98.1476 103.518 95.9494 102.002C94.6834 101.139 93.5982 101.139 92.2487 101.779C89.9253 102.892 87.5324 103.894 85.1255 104.826C82.4821 105.855 81.4526 105.007 81.9952 102.252C82.496 99.7339 82.8717 97.1323 83.776 94.7393C84.4716 92.889 83.7482 91.8595 82.6908 90.7047C81.0909 88.9239 79.5466 87.1014 77.9049 85.3623C77.1397 84.5554 76.4858 83.7763 76.8058 82.5937C77.1397 81.3416 78.2806 81.6755 79.1431 81.4112C81.8561 80.5764 84.6664 81.2303 87.4071 80.7434C88.7706 80.493 89.6192 80.0338 90.287 78.8235C91.5809 76.4723 93.0278 74.2323 94.3912 71.9229C94.9199 71.0325 95.5181 70.4203 96.6728 70.5455C97.758 70.6568 98.0363 71.4916 98.3563 72.2846C99.3301 74.6775 100.374 77.0427 101.194 79.4913C101.751 81.1747 102.822 81.8564 104.464 82.1625C106.996 82.6355 109.486 83.3033 111.99 83.8459C112.867 84.0267 113.702 84.2772 113.98 85.2093Z" fill="#383838"/>
<path d="M158.193 87.7921C156.343 89.3086 154.59 90.9363 152.642 92.3276C151.028 93.4823 150.583 94.8736 150.806 96.7378C151.112 99.2004 151.307 101.677 151.529 104.153C151.613 105.113 151.71 106.157 150.667 106.685C149.846 107.103 148.955 106.977 148.26 106.337C142.667 101.176 136.782 100.578 130.354 104.849C129.005 105.739 127.294 105.711 127.182 103.179C127.85 100.272 128.448 97.2665 129.269 94.331C129.631 93.051 129.436 92.1885 128.546 91.2563C126.709 89.3086 124.942 87.2913 123.217 85.2601C121.381 83.1036 121.812 82.1576 124.469 81.4341C127.21 80.6968 129.993 81.2254 132.733 80.7802C134.222 80.5437 135.126 79.9733 135.822 78.6655C136.991 76.4813 138.34 74.3944 139.606 72.2519C140.149 71.3476 140.664 70.4154 141.985 70.5407C143.335 70.6798 143.557 71.7789 143.933 72.7249C144.865 75.0344 145.853 77.316 146.632 79.6672C147.119 81.1559 148.065 81.7819 149.456 82.088C152.058 82.6445 154.646 83.2845 157.261 83.8132C158.249 84.0218 159.167 84.3001 159.418 85.3992C159.654 86.4704 158.958 87.1661 158.193 87.7921Z" fill="#383838"/>
<path d="M158.193 87.7921C156.343 89.3086 154.59 90.9363 152.642 92.3276C151.028 93.4823 150.583 94.8736 150.806 96.7378C151.112 99.2004 151.307 101.677 151.529 104.153C151.613 105.113 151.71 106.157 150.667 106.685C149.846 107.103 148.955 106.977 148.26 106.337C142.667 101.176 136.782 100.578 130.354 104.849C129.005 105.739 127.294 105.711 127.182 103.179C127.85 100.272 128.448 97.2665 129.269 94.331C129.631 93.051 129.436 92.1885 128.546 91.2563C126.709 89.3086 124.942 87.2913 123.217 85.2601C121.381 83.1036 121.812 82.1576 124.469 81.4341C127.21 80.6968 129.993 81.2254 132.733 80.7802C134.222 80.5437 135.126 79.9733 135.822 78.6655C136.991 76.4813 138.34 74.3944 139.606 72.2519C140.149 71.3476 140.664 70.4154 141.985 70.5407C143.335 70.6798 143.557 71.7789 143.933 72.7249C144.865 75.0344 145.853 77.316 146.632 79.6672C147.119 81.1559 148.065 81.7819 149.456 82.088C152.058 82.6445 154.646 83.2845 157.261 83.8132C158.249 84.0218 159.167 84.3001 159.418 85.3992C159.654 86.4704 158.958 87.1661 158.193 87.7921Z" fill="#FEFEFE"/>
<path d="M112.909 87.7304C110.989 89.3164 109.138 90.972 107.135 92.4467C105.549 93.6154 105.132 95.0344 105.368 96.8848C105.702 99.4447 105.897 102.019 106.133 104.37C106.092 106.916 104.853 107.583 102.753 106.331C100.457 104.954 98.1476 103.577 95.9494 102.06C94.6834 101.198 93.5982 101.198 92.2487 101.838C89.9253 102.951 87.5323 103.952 85.1255 104.884C82.4821 105.914 81.4526 105.065 81.9952 102.311C82.496 99.7925 82.8717 97.1909 83.776 94.7979C84.4716 92.9476 83.7482 91.918 82.6908 90.7633C81.0909 88.9825 79.5466 87.16 77.9049 85.4209C77.1397 84.614 76.4858 83.8349 76.8058 82.6523C77.1397 81.4002 78.2806 81.7341 79.1431 81.4698C81.8561 80.635 84.6664 81.2889 87.4071 80.802C88.7706 80.5516 89.6192 80.0924 90.287 78.8821C91.5809 76.5308 93.0278 74.2909 94.3912 71.9815C94.9199 71.0911 95.5181 70.4789 96.6728 70.6041C97.758 70.7154 98.0363 71.5502 98.3563 72.3432C99.3301 74.7361 100.374 77.1013 101.194 79.5499C101.751 81.2333 102.822 81.915 104.464 82.2211C106.996 82.6941 109.486 83.3619 111.99 83.9045C112.881 84.0992 113.716 84.3497 113.994 85.2957C114.314 86.3252 113.674 87.0904 112.909 87.7304Z" fill="#FEFEFE"/>
<path d="M67.2576 87.9117C66.8263 88.3012 66.4228 88.7325 65.9359 88.9968C60.0787 92.0158 58.924 96.8435 60.4683 102.812C60.8022 104.12 61.3587 105.831 59.7866 106.735C58.4092 107.528 57.2963 106.29 56.1972 105.594C48.9209 100.934 48.9209 100.934 40.8517 104.398C40.1561 104.704 39.4604 105.066 38.7092 105.205C36.9562 105.553 36.2188 104.843 36.358 102.895C37.0258 100.155 37.5823 97.2469 38.4727 94.4366C38.8761 93.1288 38.6674 92.3219 37.791 91.3898C35.8989 89.3725 34.1041 87.2578 32.2955 85.1709C30.5982 83.2092 31.0156 82.138 33.5198 81.5119C35.6902 80.9693 37.8883 81.0806 40.0726 81.025C42.4934 80.9693 44.455 80.385 45.568 77.8808C46.4584 75.8913 47.7523 74.0687 48.8514 72.1766C49.3522 71.3419 49.8392 70.535 51.0078 70.5906C52.2043 70.6463 52.7469 71.4671 52.9277 72.4131C54.319 79.8702 58.8266 83.6127 66.3533 83.8909C67.3411 83.9188 68.2871 84.2944 68.6349 85.3378C69.0106 86.5482 68.0367 87.2021 67.2576 87.9117Z" fill="#FEFEFE"/>
</svg>
