<svg width="578" height="645" viewBox="0 0 578 645" fill="none" xmlns="http://www.w3.org/2000/svg">
<path d="M464.689 227.171L440.767 140.119L490.014 127.251L527.601 263.963L390.968 299.619L376.747 250.108L464.689 227.171Z" fill="#04CB3A"/>
<path d="M277 118.809L252.69 31.5327L301.938 18.6649L339.559 155.398L202.926 191.054L189.059 141.746L277 118.809Z" fill="#04CB3A"/>
<path d="M152.477 515.852C147.648 487.146 154.297 456.645 172.833 424.541L199.373 378.571L96.286 319.054L131.218 258.549L423.652 427.386L360.896 536.083C343.216 566.705 320.554 586.973 292.89 596.92C265.411 607.444 236.631 603.764 206.749 586.511C175.774 568.628 157.491 545.136 152.477 515.852ZM306.778 497.829L331.566 454.893L255.75 411.121L230.737 454.444C215.216 481.327 215.023 510.098 240.424 524.763C266.954 540.081 290.605 525.841 306.778 497.829Z" fill="#04CB3A"/>
</svg>
