<svg width="568" height="568" viewBox="0 0 568 568" fill="none" xmlns="http://www.w3.org/2000/svg">
<path d="M476.772 383.822C475.851 421.944 461.977 438.519 426.618 455.708C400.466 468.415 373.21 465.959 346.26 458.531C269.832 437.475 208.198 394.196 158.473 333.115C140.364 310.892 122.561 288.363 109.056 262.887C96.5324 239.314 88.8588 214.39 90.3322 187.502C91.9282 157.851 104.329 132.682 126.981 113.959C139.995 103.216 156.754 101.128 173.391 105.364C180.082 107.083 184.256 112.547 187.019 118.747C197.823 143.118 208.321 167.735 217.529 192.781C220.291 200.148 218.45 207.023 214.889 213.653C209.18 224.212 201.077 232.991 193.71 242.322C188.001 249.504 187.387 255.582 191.93 263.132C222.685 314.392 265.043 352.268 320.845 374.491C332.08 378.972 336.561 377.867 344.173 368.475C352.583 358.1 360.994 347.725 369.404 337.289C377.814 326.853 382.602 325.441 394.45 330.966C418.821 342.385 443.07 354.171 467.441 365.774C475.728 369.825 477.754 376.762 476.772 383.822Z" fill="white"/>
</svg>
