<svg width="338" height="503" viewBox="0 0 338 503" fill="none" xmlns="http://www.w3.org/2000/svg">
<path d="M243.936 13.8505C252.98 4.80681 264.223 0.0405273 276.73 0.0405273C303.046 0.0405273 324.189 20.7352 324.189 46.6035C324.189 72.9199 303.046 93.1664 276.73 93.1664C264.223 93.1664 253.021 88.4001 243.936 79.3564C234.852 70.3127 230.574 59.5173 230.574 46.5627C230.574 34.1378 234.852 22.935 243.936 13.8505Z" fill="#04CB3A"/>
<path d="M27.4569 13.81C36.5007 4.76629 47.7441 0 60.2098 0C73.1643 0 84.3672 4.31817 93.4109 13.3619C102.455 22.4056 107.221 33.6492 107.221 46.5629C107.221 59.4767 102.495 70.2722 93.4109 79.3159C66.6871 109.502 11.0397 86.6486 13.6469 46.5629C13.6876 34.0973 18.4132 22.8945 27.4569 13.81Z" fill="#04CB3A"/>
<path d="M0 382.647V240.311H337.714V380.488C337.714 410.227 329.933 435.239 314.412 456.382C298.891 477.525 276.893 488.32 248.417 488.32C216.927 488.32 192.77 472.351 176.393 440.861H175.538C160.017 482.699 136.308 502.986 93.1666 502.986C24.6054 502.986 0 441.717 0 382.647ZM273.43 370.996V308.464H200.551V366.271C200.551 402.079 213.057 419.759 237.622 419.759C263.531 419.759 273.43 398.616 273.43 370.996ZM140.178 379.633V308.464H64.6911V381.792C64.6911 417.152 77.1975 434.832 102.21 434.832C127.671 434.832 140.178 416.296 140.178 379.633Z" fill="#04CB3A"/>
</svg>
