<svg width="192" height="191" viewBox="0 0 192 191" fill="none" xmlns="http://www.w3.org/2000/svg">
<path d="M96.3625 64.7385C79.7887 64.6702 65.9828 78.288 65.6753 94.9473C65.3848 111.624 79.5665 125.874 96.3453 125.771C112.919 125.652 126.691 111.812 126.725 95.2548C126.742 78.8006 112.817 64.8069 96.3625 64.7385ZM96.2429 121.089C82.7617 121.192 70.4253 108.89 70.4253 95.3573C70.4253 81.6199 82.3516 69.6423 96.1403 69.574C109.844 69.4886 121.821 81.449 121.872 95.2548C121.89 109.026 110.049 120.97 96.2429 121.089Z" fill="#FBFBFB"/>
<path d="M134.787 58.8778C134.547 62.2609 131.574 60.2618 129.934 60.9453C128.174 60.3814 125.065 62.0559 125.03 58.8266C125.013 55.1188 128.345 56.6566 130.276 56.5711C132.002 56.5028 135.009 55.3751 134.787 58.8778Z" fill="#FBFBFB"/>
<path d="M151.842 54.6875C151.791 45.2729 146.238 39.6173 136.909 39.6173C109.861 39.549 82.7788 39.566 55.714 39.6002C46.3165 39.6173 40.4217 45.1875 40.3705 54.4312C40.2509 81.7182 40.2509 108.988 40.3705 136.258C40.4046 145.177 46.2823 151.072 55.1672 151.106C82.4371 151.226 109.707 151.209 136.977 151.106C146.323 151.072 151.791 145.331 151.825 135.882C151.893 122.452 151.842 109.005 151.842 95.5923C151.859 81.9574 151.91 68.3224 151.842 54.6875ZM147.092 134.088C147.041 143.298 144.033 146.253 134.756 146.271C108.938 146.305 83.1205 146.305 57.303 146.253C48.4693 146.236 45.2743 143.127 45.2401 134.378C45.1717 108.356 45.1717 82.3333 45.2401 56.3107C45.2743 47.5112 48.4011 44.5211 57.3202 44.5211C83.3428 44.4869 109.365 44.4869 135.388 44.5211C143.931 44.5382 147.007 47.5283 147.075 56.0202C147.177 69.0401 147.092 82.0599 147.092 95.0626C147.092 108.065 147.16 121.068 147.092 134.088Z" fill="#FBFBFB"/>
<path d="M96.3625 64.7385C79.7887 64.6702 65.9828 78.288 65.6753 94.9473C65.3848 111.624 79.5665 125.874 96.3453 125.771C112.919 125.652 126.691 111.812 126.725 95.2548C126.742 78.8006 112.817 64.8069 96.3625 64.7385ZM96.2429 121.089C82.7617 121.192 70.4253 108.89 70.4253 95.3573C70.4253 81.6199 82.3516 69.6423 96.1403 69.574C109.844 69.4886 121.821 81.449 121.872 95.2548C121.89 109.026 110.049 120.97 96.2429 121.089Z" fill="#383838"/>
<path d="M134.787 58.8778C134.547 62.2609 131.574 60.2618 129.934 60.9453C128.174 60.3814 125.065 62.0559 125.03 58.8266C125.013 55.1188 128.345 56.6566 130.276 56.5711C132.002 56.5028 135.009 55.3751 134.787 58.8778Z" fill="#383838"/>
<path d="M96.3625 64.7385C79.7887 64.6702 65.9828 78.288 65.6753 94.9473C65.3848 111.624 79.5665 125.874 96.3453 125.771C112.919 125.652 126.691 111.812 126.725 95.2548C126.742 78.8006 112.817 64.8069 96.3625 64.7385ZM96.2429 121.089C82.7617 121.192 70.4253 108.89 70.4253 95.3573C70.4253 81.6199 82.3516 69.6423 96.1403 69.574C109.844 69.4886 121.821 81.449 121.872 95.2548C121.89 109.026 110.049 120.97 96.2429 121.089Z" fill="#FAFAFA"/>
<path d="M134.787 58.8778C134.547 62.2609 131.574 60.2618 129.934 60.9453C128.174 60.3814 125.065 62.0559 125.03 58.8266C125.013 55.1188 128.345 56.6566 130.276 56.5711C132.002 56.5028 135.009 55.3751 134.787 58.8778Z" fill="#F7F7F7"/>
</svg>
