<svg width="25" height="25" viewBox="0 0 25 25" fill="none" xmlns="http://www.w3.org/2000/svg">
<path d="M17.3524 17.3741C17.3502 16.6339 17.3524 15.8923 17.3524 15.1521H17.3428C17.3428 13.8554 17.3206 12.5572 17.348 11.2612C17.3753 9.95999 16.7884 9.30422 15.4709 9.31014C13.6176 9.31828 11.765 9.34048 9.9124 9.30718C8.65267 9.28497 8.06721 9.95333 8.04723 11.1028C8.00208 13.6341 8.0154 16.1669 8.03316 18.6989C8.04279 20.0601 8.71632 20.7144 10.1307 20.6441C11.4245 20.5804 12.7235 20.6315 14.0202 20.6315C17.3628 20.6293 17.3628 20.6293 17.3524 17.3741ZM15.8617 10.4492C16.4057 10.5366 16.2895 11.1242 16.3073 11.5284C16.3228 11.8888 16.2925 12.3455 15.7877 12.3248C15.1001 12.2974 15.4391 11.6942 15.317 11.3278C15.4028 10.9762 15.163 10.3352 15.8617 10.4492ZM13.8448 10.3256C14.4488 10.393 14.3052 10.9607 14.2971 11.3544C14.2889 11.8044 14.4229 12.4454 13.6383 12.3633C12.9811 12.2944 13.2949 11.7053 13.1683 11.4277C13.2483 10.8963 13.0677 10.2383 13.8448 10.3256ZM11.7006 10.3708C12.3246 10.3982 12.1158 10.9969 12.1854 11.387C12.1277 11.7748 12.3386 12.3818 11.6703 12.3418C11.0811 12.3055 11.2195 11.7186 11.1729 11.3204C11.1233 10.8844 11.087 10.3456 11.7006 10.3708ZM9.68148 19.5235C9.03385 19.5708 9.08862 19.0283 9.0975 18.6064C9.1049 18.209 8.93615 17.699 9.55935 17.5954C10.244 17.5998 10.1796 18.1046 10.1796 18.5176C10.1789 18.9203 10.3076 19.4783 9.68148 19.5235ZM12.1536 18.8433C12.198 19.2193 12.1144 19.5945 11.5555 19.5997C10.9464 19.3599 11.1751 18.8063 11.1692 18.3555C11.164 17.9936 11.1832 17.5273 11.7176 17.6331C12.4422 17.776 12.1025 18.414 12.1536 18.8433ZM13.8049 19.6367C13.3053 19.7537 13.1861 19.3525 13.2113 18.9573C13.2431 18.4606 12.9729 17.8396 13.5354 17.6065C14.2223 17.5302 14.3341 17.8707 14.3045 18.2697C14.2675 18.7685 14.5961 19.4517 13.8049 19.6367ZM14.3651 16.5051C13.8108 16.5007 13.2571 16.5051 12.7028 16.5059C9.1086 16.5088 9.1086 16.5088 9.09306 12.8392C9.09232 12.5934 9.04051 12.3344 9.09972 12.1027C9.24553 11.5343 8.67117 10.487 9.69406 10.5151C10.503 10.5366 10.1515 11.5002 10.1322 12.0517C10.096 13.0701 10.4742 13.5253 11.5282 13.455C12.4467 13.3936 13.3741 13.4528 14.2963 13.4283C15.4295 13.398 16.4035 13.2455 16.3835 15.0293C16.3658 16.7546 15.3962 16.514 14.3651 16.5051ZM16.405 18.4362C16.3658 18.9069 16.4376 19.5294 15.8232 19.6264C15.1386 19.7344 15.3103 19.1393 15.2918 18.7212C15.4324 18.3385 15.0165 17.6701 15.7907 17.5813C16.4146 17.5095 16.4428 17.9884 16.405 18.4362Z" fill="white"/>
<path d="M19.5035 8.46475C19.5264 7.131 19.0875 6.1614 18.2023 5.15924C16.8219 3.59752 15.2928 2.8248 13.1782 3.03353C11.6438 3.18452 10.0829 3.08534 8.53298 3.05869C6.83137 3.02983 6.0098 3.85361 6.00906 5.53524C6.00906 7.95183 6.00907 10.3684 6.00832 12.785C6.0061 15.1394 5.98908 17.4946 6.01129 19.8483C6.03349 22.1487 6.60415 22.7297 8.84384 22.743C11.384 22.76 13.925 22.7571 16.4652 22.7408C18.9069 22.7252 19.4761 22.1302 19.4813 19.6181C19.4879 15.9003 19.4398 12.1818 19.5035 8.46475ZM16.48 21.7097C14.0131 21.5987 11.5321 21.5906 9.06589 21.7105C7.37908 21.7919 6.91057 21.0695 6.95794 19.5381C7.02677 17.3147 6.9757 15.0884 6.9757 12.8642H6.99494C6.99494 10.7015 7.06748 8.53507 6.97052 6.37605C6.89651 4.74328 7.37612 3.94465 9.1547 4.11711C10.4403 4.24145 11.7475 4.14227 13.0457 4.14005C16.7968 4.13487 18.4132 5.73878 18.4044 9.43361C18.3977 12.8324 18.354 16.2334 18.4392 19.6299C18.4769 21.1058 18.0965 21.783 16.48 21.7097Z" fill="white"/>
<path d="M17.3524 17.3741C17.3502 16.6339 17.3524 15.8923 17.3524 15.1521H17.3428C17.3428 13.8554 17.3206 12.5572 17.348 11.2612C17.3753 9.95999 16.7884 9.30422 15.4709 9.31014C13.6176 9.31828 11.765 9.34048 9.9124 9.30718C8.65267 9.28497 8.06721 9.95333 8.04723 11.1028C8.00208 13.6341 8.0154 16.1669 8.03316 18.6989C8.04279 20.0601 8.71632 20.7144 10.1307 20.6441C11.4245 20.5804 12.7235 20.6315 14.0202 20.6315C17.3628 20.6293 17.3628 20.6293 17.3524 17.3741ZM15.8617 10.4492C16.4057 10.5366 16.2895 11.1242 16.3073 11.5284C16.3228 11.8888 16.2925 12.3455 15.7877 12.3248C15.1001 12.2974 15.4391 11.6942 15.317 11.3278C15.4028 10.9762 15.163 10.3352 15.8617 10.4492ZM13.8448 10.3256C14.4488 10.393 14.3052 10.9607 14.2971 11.3544C14.2889 11.8044 14.4229 12.4454 13.6383 12.3633C12.9811 12.2944 13.2949 11.7053 13.1683 11.4277C13.2483 10.8963 13.0677 10.2383 13.8448 10.3256ZM11.7006 10.3708C12.3246 10.3982 12.1158 10.9969 12.1854 11.387C12.1277 11.7748 12.3386 12.3818 11.6703 12.3418C11.0811 12.3055 11.2195 11.7186 11.1729 11.3204C11.1233 10.8844 11.087 10.3456 11.7006 10.3708ZM9.68148 19.5235C9.03385 19.5708 9.08862 19.0283 9.0975 18.6064C9.1049 18.209 8.93615 17.699 9.55935 17.5954C10.244 17.5998 10.1796 18.1046 10.1796 18.5176C10.1789 18.9203 10.3076 19.4783 9.68148 19.5235ZM12.1536 18.8433C12.198 19.2193 12.1144 19.5945 11.5555 19.5997C10.9464 19.3599 11.1751 18.8063 11.1692 18.3555C11.164 17.9936 11.1832 17.5273 11.7176 17.6331C12.4422 17.776 12.1025 18.414 12.1536 18.8433ZM13.8049 19.6367C13.3053 19.7537 13.1861 19.3525 13.2113 18.9573C13.2431 18.4606 12.9729 17.8396 13.5354 17.6065C14.2223 17.5302 14.3341 17.8707 14.3045 18.2697C14.2675 18.7685 14.5961 19.4517 13.8049 19.6367ZM14.3651 16.5051C13.8108 16.5007 13.2571 16.5051 12.7028 16.5059C9.1086 16.5088 9.1086 16.5088 9.09306 12.8392C9.09232 12.5934 9.04051 12.3344 9.09972 12.1027C9.24553 11.5343 8.67117 10.487 9.69406 10.5151C10.503 10.5366 10.1515 11.5002 10.1322 12.0517C10.096 13.0701 10.4742 13.5253 11.5282 13.455C12.4467 13.3936 13.3741 13.4528 14.2963 13.4283C15.4295 13.398 16.4035 13.2455 16.3835 15.0293C16.3658 16.7546 15.3962 16.514 14.3651 16.5051ZM16.405 18.4362C16.3658 18.9069 16.4376 19.5294 15.8232 19.6264C15.1386 19.7344 15.3103 19.1393 15.2918 18.7212C15.4324 18.3385 15.0165 17.6701 15.7907 17.5813C16.4146 17.5095 16.4428 17.9884 16.405 18.4362Z" fill="white"/>
</svg>
