<svg width="192" height="191" viewBox="0 0 192 191" fill="none" xmlns="http://www.w3.org/2000/svg">
<path d="M160.541 128.707C160.232 141.488 155.581 147.045 143.726 152.808C134.958 157.069 125.82 156.245 116.784 153.755C91.1602 146.695 70.4962 132.185 53.825 111.707C47.7534 104.256 41.7848 96.7026 37.2568 88.1612C33.0581 80.2578 30.4854 71.9017 30.9794 62.8869C31.5145 52.946 35.672 44.5075 43.2666 38.2301C47.6299 34.6283 53.2488 33.9285 58.8264 35.3487C61.0698 35.9249 62.4693 37.7567 63.3955 39.8355C67.0179 48.0064 70.5373 56.2596 73.6246 64.6569C74.5507 67.1267 73.9333 69.4319 72.7396 71.6547C70.8255 75.1947 68.1087 78.1379 65.6389 81.2663C63.7248 83.6744 63.519 85.712 65.042 88.2435C75.3534 105.429 89.5548 118.128 108.264 125.579C112.03 127.081 113.532 126.711 116.085 123.562C118.904 120.083 121.724 116.605 124.544 113.106C127.363 109.607 128.969 109.134 132.941 110.986C141.112 114.814 149.242 118.766 157.413 122.656C160.191 124.014 160.87 126.34 160.541 128.707Z" fill="white"/>
</svg>
