<svg width="192" height="191" viewBox="0 0 192 191" fill="none" xmlns="http://www.w3.org/2000/svg">
<path d="M168.546 55.9511C168.529 45.1696 162.156 38.916 151.409 38.916C132.973 38.916 114.536 38.916 96.083 38.916H41.1162C29.3779 38.916 23.2609 44.8621 23.2267 56.5663C23.1584 82.418 23.1755 108.287 23.2267 134.138C23.2438 145.074 29.6341 151.413 40.5182 151.43C77.3906 151.447 114.263 151.447 151.135 151.43C162.122 151.43 168.512 145.142 168.529 134.224C168.598 108.133 168.598 82.0421 168.546 55.9511ZM136.817 45.9214C132.067 50.1759 127.932 53.9349 123.729 57.6256C115.049 65.2632 106.301 72.8496 97.6721 80.5385C96.4419 81.632 95.7414 82.0079 94.3232 80.7606C81.6109 69.4836 68.8132 58.2578 56.0497 47.0321C55.8276 46.8441 55.725 46.5024 55.4003 45.9214H136.817ZM42.9444 144.681C41.6971 144.476 40.3815 144.647 39.1342 144.493C32.2313 143.638 29.8904 141.058 29.8562 134.036C29.8049 122.673 29.8392 111.328 29.8392 99.9657C29.8392 88.4836 29.8391 77.0187 29.8562 65.5537C29.8562 64.6994 29.3436 63.5033 30.4713 63.0933C31.2915 62.7857 31.8553 63.7425 32.4534 64.2722C36.2636 67.6553 40.0227 71.0897 43.85 74.4386C45.627 75.9764 46.4301 77.7021 46.413 80.1626C46.3275 100.564 46.3105 120.948 46.413 141.349C46.4301 144.066 45.7295 145.159 42.9444 144.681ZM33.7861 56.5492C29.1044 52.363 29.9417 48.5698 35.939 46.229C37.2888 45.6993 38.6557 45.6993 40.0226 45.6139C43.2178 45.5626 45.8149 46.9466 48.1386 48.997C63.2259 62.2902 78.3816 75.5492 93.4005 88.9279C95.3655 90.6878 96.4248 90.6365 98.3726 88.8937C113.682 75.2929 129.077 61.8289 144.506 48.3477C149.102 44.3324 153.459 44.1786 158.363 47.6301C161.985 50.1759 162.156 52.7218 158.876 55.6436C138.833 73.516 118.757 91.3371 98.7998 109.295C96.4418 111.414 95.0066 111.123 92.8537 109.175C79.458 97.0952 65.9427 85.1176 52.4786 73.123C46.2421 67.587 39.9884 62.0852 33.7861 56.5492ZM135.296 144.647C108.983 144.561 82.6531 144.578 56.3401 144.595C54.5631 144.595 53.0937 144.937 53.1108 142.101C53.2475 122.964 53.1791 103.844 53.1962 84.7075C53.1962 84.3829 53.3159 84.0583 53.4867 83.1185C58.1171 87.1851 62.5254 91.0124 66.8653 94.891C75.7844 102.819 84.7206 110.73 93.5372 118.778C95.485 120.555 96.5615 120.213 98.3556 118.59C111.17 107.039 124.088 95.6257 136.988 84.1608C137.33 83.8703 137.723 83.6482 138.748 82.9135V93.6095C138.748 109.5 138.679 125.373 138.816 141.263C138.833 144.083 137.945 144.647 135.296 144.647ZM161.934 133.335C161.917 142.289 154.775 147.397 146.283 144.629C144.728 144.134 145.292 142.989 145.275 142.101C145.223 134.326 145.241 126.569 145.241 118.812C145.241 105.946 145.258 93.0799 145.206 80.2309C145.206 78.2831 145.429 76.5402 146.949 75.1904C151.016 71.5852 155.082 67.98 159.217 64.4431C159.832 63.9134 160.396 62.6661 161.473 63.3325C162.344 63.8963 161.9 65.0411 161.9 65.9296C161.934 77.3946 161.917 88.8766 161.917 100.342C161.951 111.311 161.968 122.332 161.934 133.335Z" fill="#383838"/>
<path d="M168.546 55.9511C168.529 45.1696 162.156 38.916 151.409 38.916C132.973 38.916 114.536 38.916 96.083 38.916H41.1162C29.3779 38.916 23.2609 44.8621 23.2267 56.5663C23.1584 82.418 23.1755 108.287 23.2267 134.138C23.2438 145.074 29.6341 151.413 40.5182 151.43C77.3906 151.447 114.263 151.447 151.135 151.43C162.122 151.43 168.512 145.142 168.529 134.224C168.598 108.133 168.598 82.0421 168.546 55.9511ZM136.817 45.9214C132.067 50.1759 127.932 53.9349 123.729 57.6256C115.049 65.2632 106.301 72.8496 97.6721 80.5385C96.4419 81.632 95.7414 82.0079 94.3232 80.7606C81.6109 69.4836 68.8132 58.2578 56.0497 47.0321C55.8276 46.8441 55.725 46.5024 55.4003 45.9214H136.817ZM42.9444 144.681C41.6971 144.476 40.3815 144.647 39.1342 144.493C32.2313 143.638 29.8904 141.058 29.8562 134.036C29.8049 122.673 29.8392 111.328 29.8392 99.9657C29.8392 88.4836 29.8391 77.0187 29.8562 65.5537C29.8562 64.6994 29.3436 63.5033 30.4713 63.0933C31.2915 62.7857 31.8553 63.7425 32.4534 64.2722C36.2636 67.6553 40.0227 71.0897 43.85 74.4386C45.627 75.9764 46.4301 77.7021 46.413 80.1626C46.3275 100.564 46.3105 120.948 46.413 141.349C46.4301 144.066 45.7295 145.159 42.9444 144.681ZM33.7861 56.5492C29.1044 52.363 29.9417 48.5698 35.939 46.229C37.2888 45.6993 38.6557 45.6993 40.0226 45.6139C43.2178 45.5626 45.8149 46.9466 48.1386 48.997C63.2259 62.2902 78.3816 75.5492 93.4005 88.9279C95.3655 90.6878 96.4248 90.6365 98.3726 88.8937C113.682 75.2929 129.077 61.8289 144.506 48.3477C149.102 44.3324 153.459 44.1786 158.363 47.6301C161.985 50.1759 162.156 52.7218 158.876 55.6436C138.833 73.516 118.757 91.3371 98.7998 109.295C96.4418 111.414 95.0066 111.123 92.8537 109.175C79.458 97.0952 65.9427 85.1176 52.4786 73.123C46.2421 67.587 39.9884 62.0852 33.7861 56.5492ZM135.296 144.647C108.983 144.561 82.6531 144.578 56.3401 144.595C54.5631 144.595 53.0937 144.937 53.1108 142.101C53.2475 122.964 53.1791 103.844 53.1962 84.7075C53.1962 84.3829 53.3159 84.0583 53.4867 83.1185C58.1171 87.1851 62.5254 91.0124 66.8653 94.891C75.7844 102.819 84.7206 110.73 93.5372 118.778C95.485 120.555 96.5615 120.213 98.3556 118.59C111.17 107.039 124.088 95.6257 136.988 84.1608C137.33 83.8703 137.723 83.6482 138.748 82.9135V93.6095C138.748 109.5 138.679 125.373 138.816 141.263C138.833 144.083 137.945 144.647 135.296 144.647ZM161.934 133.335C161.917 142.289 154.775 147.397 146.283 144.629C144.728 144.134 145.292 142.989 145.275 142.101C145.223 134.326 145.241 126.569 145.241 118.812C145.241 105.946 145.258 93.0799 145.206 80.2309C145.206 78.2831 145.429 76.5402 146.949 75.1904C151.016 71.5852 155.082 67.98 159.217 64.4431C159.832 63.9134 160.396 62.6661 161.473 63.3325C162.344 63.8963 161.9 65.0411 161.9 65.9296C161.934 77.3946 161.917 88.8766 161.917 100.342C161.951 111.311 161.968 122.332 161.934 133.335Z" fill="#FEFEFE"/>
</svg>
