<svg width="191" height="191" viewBox="0 0 191 191" fill="none" xmlns="http://www.w3.org/2000/svg">
<path d="M160.582 154.602C148.152 141.969 135.766 129.247 122.817 117.109C117.854 112.479 117.245 109.287 120.944 103.353C132.518 84.787 130.442 61.0734 116.703 44.4627C103.032 27.9644 79.5471 21.2212 60.1456 28.2341C38.6009 35.9888 25.4936 54.4426 25.4936 77.0323C25.3808 83.2586 25.9674 89.3499 28.3136 95.2165C40.6087 126.033 75.8021 138.058 104.34 120.728C109.416 117.649 111.988 117.964 116.026 122.234C128.434 135.294 141.339 147.881 154.243 160.468C156.499 162.693 158.732 167.481 163.109 163.368C167.621 159.12 162.838 156.872 160.582 154.602ZM76.7271 119.897C52.8362 119.784 34.0213 100.813 34.0889 76.8525C34.1341 53.139 53.3325 34.3929 77.4039 34.5277C100.753 34.6626 119.659 53.6784 119.704 77.0773C119.726 100.836 100.505 120.009 76.7271 119.897Z" fill="#FDFDFD"/>
<path d="M110.657 75.0103C110.815 77.5278 110.86 80.6296 107.092 81.0792C103.663 81.4838 102.4 79.3934 102.084 75.9768C100.753 61.6363 91.9997 54.2413 78.3735 51.9486C75.2828 51.4316 72.2597 50.6674 72.7109 47.3183C73.1847 43.7668 76.501 43.07 79.9301 43.2049C95.1806 43.7893 110.566 59.456 110.657 75.0103Z" fill="#FBFBFB"/>
</svg>
