<svg width="191" height="191" viewBox="0 0 191 191" fill="none" xmlns="http://www.w3.org/2000/svg">
<path d="M150.066 71.5683C150.002 62.98 146.263 56.1862 138.914 51.7211C133.145 48.2174 127.142 45.0555 121.181 41.8509C116.439 39.3086 111.333 39.0095 106.141 40.0563C96.1214 42.0645 87.1699 51.5075 87.4263 63.6636C87.7681 78.4689 87.5331 93.2956 87.5331 108.122C87.5331 110.878 87.5117 110.9 85.0976 109.575C75.9751 104.554 66.8954 99.5125 57.7516 94.5774C56.0852 93.6801 55.5725 92.6333 55.5725 90.796C55.6579 78.6825 55.6152 66.5691 55.6152 54.4557C55.6152 51.2084 53.9488 50.247 51.0219 51.8066C48.4796 53.1525 46.0441 54.7121 43.4377 55.9085C40.8526 57.0835 39.8912 58.8353 39.934 61.6768C40.0622 71.5897 39.9767 81.5026 39.9767 91.4155H40.0622C40.0622 101.67 40.0622 111.925 40.0408 122.158C40.0408 123.782 40.3185 125.107 41.9208 125.961C44.9759 127.606 47.9455 129.422 50.9792 131.067C53.842 132.627 55.5725 131.623 55.5725 128.397C55.5938 123.398 55.6152 118.398 55.5725 113.399C55.5511 111.775 55.7647 111.177 57.5166 112.16C66.8954 117.394 76.317 122.543 85.7599 127.67C87.1913 128.439 87.5545 129.401 87.5331 130.918C87.469 136.686 87.5331 142.433 87.4904 148.201C87.469 150.231 88.3663 151.171 90.3745 151.149C93.2587 151.128 96.1428 151.149 99.0056 151.149C102.296 151.128 102.894 150.551 102.915 147.325C102.915 142.07 103.022 136.814 102.851 131.58C102.787 129.422 103.428 128.269 105.351 127.222C115.84 121.539 126.245 115.749 136.649 109.917C144.126 105.729 148.677 99.4484 149.703 90.8387C150.536 84.4295 150.108 77.9775 150.066 71.5683ZM134.641 87.0573C134.598 90.9028 132.974 94.0219 129.663 95.9233C121.374 100.666 112.999 105.238 104.667 109.895C102.744 110.964 102.979 109.554 102.979 108.464C102.958 100.837 102.979 93.2315 102.979 85.6045C102.979 78.4048 102.958 71.2265 102.979 64.0268C103.001 56.8485 109.025 53.1098 115.328 56.4212C120.412 59.0917 125.369 61.9972 130.389 64.7959C133.231 66.3768 134.641 68.8551 134.662 72.0597C134.684 77.0802 134.705 82.0794 134.641 87.0573Z" fill="#FEFEFE"/>
</svg>
