<svg width="192" height="191" viewBox="0 0 192 191" fill="none" xmlns="http://www.w3.org/2000/svg">
<path d="M54.8002 40.9115C46.6671 40.809 40.516 46.55 40.328 54.4439C40.123 62.4404 46.5475 69.1553 54.4414 69.1895C62.3524 69.2237 68.2813 63.2263 68.3497 55.1274C68.4351 46.6184 63.07 41.014 54.8002 40.9115ZM54.6123 64.5762C48.5124 64.5932 44.3434 60.5438 44.463 54.666C44.5826 49.3351 49.025 45.0293 54.4414 44.9781C59.8407 44.9097 64.9837 49.9502 64.83 55.1274C64.7104 60.2533 60.0457 64.5762 54.6123 64.5762Z" fill="#383838"/>
<path d="M68.8109 78.9849C68.828 75.3625 67.2219 74.457 63.8729 74.5595C57.8756 74.7645 51.8612 74.867 45.8809 74.5253C41.6264 74.2861 40.1399 75.4651 40.2766 79.9417C40.6013 90.6719 40.3792 101.436 40.3792 112.184C40.3792 123.153 40.4646 134.106 40.3108 145.058C40.2766 148.099 40.8917 149.552 44.3431 149.432C50.9556 149.176 57.5851 149.278 64.1976 149.415C67.1364 149.466 68.8109 148.851 68.7938 145.365C68.7254 123.239 68.7255 101.112 68.8109 78.9849ZM58.9008 145.571C44.4286 145.724 44.4457 145.861 44.4457 131.457V112.235C44.4457 102.735 44.5653 93.2178 44.3773 83.7178C44.309 80.1809 45.5392 79.207 49.0078 79.1215C64.9665 78.6773 64.9493 78.5577 64.9493 94.2259C64.9493 109.313 64.8127 124.4 65.0348 139.471C65.1202 144.135 63.4116 145.519 58.9008 145.571Z" fill="#383838"/>
<path d="M151.61 143.065C151.183 130.695 151.49 118.29 151.473 105.885C151.456 82.2207 133.874 69.7476 111.748 77.6245C110.552 78.0516 108.706 79.5552 108.211 77.3511C107.373 73.5579 104.64 74.6856 102.401 74.6343C97.0362 74.5318 91.6198 74.959 86.2888 74.4977C80.9921 74.0534 79.01 75.4716 79.2834 81.1784C79.7789 91.4815 79.4202 101.836 79.4202 112.156C79.4202 122.698 79.5398 133.241 79.3518 143.766C79.2835 147.508 79.9157 149.49 84.3923 149.216C90.5605 148.806 96.797 148.926 102.982 149.182C106.69 149.336 108.006 148.294 107.903 144.381C107.63 133.241 107.801 122.066 107.835 110.909C107.852 108.875 107.51 106.688 108.809 104.911C110.842 102.092 113.388 99.8368 117.147 100.964C121.453 102.28 123.332 105.629 123.366 109.952C123.452 121.109 123.691 132.267 123.281 143.424C123.076 148.516 124.836 149.763 129.534 149.421C134.66 149.046 139.889 149.011 145.015 149.421C150.004 149.814 151.798 148.43 151.61 143.065ZM142.008 145.543C127.194 145.731 127.211 145.867 127.211 131.071C127.194 123.638 127.399 116.188 126.954 108.756C126.476 100.794 121.709 96.2999 114.977 96.6416C108.228 96.9833 103.802 101.955 103.734 109.593C103.632 119.503 103.529 129.447 103.768 139.358C103.871 143.527 102.846 145.133 98.3177 145.133C83.2475 145.201 83.2475 145.389 83.2475 130.336C83.2475 115.044 83.35 99.7342 83.1792 84.4419C83.1279 80.4779 84.2727 78.5984 88.4417 79.1281C90.0649 79.3331 91.7394 79.1622 93.3968 79.1622C102.982 79.1622 102.982 79.1622 104.315 89.0382C117.984 72.7036 137.48 78.5813 144.366 91.2423C146.074 94.3862 147.253 97.5814 147.236 101.221C147.219 114.241 147.116 127.278 147.373 140.28C147.458 144.415 145.989 145.492 142.008 145.543Z" fill="#383838"/>
<path d="M151.61 143.065C151.183 130.695 151.49 118.29 151.473 105.885C151.456 82.2207 133.874 69.7476 111.748 77.6245C110.552 78.0516 108.706 79.5552 108.211 77.3511C107.373 73.5579 104.64 74.6856 102.401 74.6343C97.0362 74.5318 91.6198 74.959 86.2888 74.4977C80.9921 74.0534 79.01 75.4716 79.2834 81.1784C79.7789 91.4815 79.4202 101.836 79.4202 112.156C79.4202 122.698 79.5398 133.241 79.3518 143.766C79.2835 147.508 79.9157 149.49 84.3923 149.216C90.5605 148.806 96.797 148.926 102.982 149.182C106.69 149.336 108.006 148.294 107.903 144.381C107.63 133.241 107.801 122.066 107.835 110.909C107.852 108.875 107.51 106.688 108.809 104.911C110.842 102.092 113.388 99.8368 117.147 100.964C121.453 102.28 123.332 105.629 123.366 109.952C123.452 121.109 123.691 132.267 123.281 143.424C123.076 148.516 124.836 149.763 129.534 149.421C134.66 149.046 139.889 149.011 145.015 149.421C150.004 149.814 151.798 148.43 151.61 143.065ZM142.008 145.543C127.194 145.731 127.211 145.867 127.211 131.071C127.194 123.638 127.399 116.188 126.954 108.756C126.476 100.794 121.709 96.2999 114.977 96.6416C108.228 96.9833 103.802 101.955 103.734 109.593C103.632 119.503 103.529 129.447 103.768 139.358C103.871 143.527 102.846 145.133 98.3177 145.133C83.2475 145.201 83.2475 145.389 83.2475 130.336C83.2475 115.044 83.35 99.7342 83.1792 84.4419C83.1279 80.4779 84.2727 78.5984 88.4417 79.1281C90.0649 79.3331 91.7394 79.1622 93.3968 79.1622C102.982 79.1622 102.982 79.1622 104.315 89.0382C117.984 72.7036 137.48 78.5813 144.366 91.2423C146.074 94.3862 147.253 97.5814 147.236 101.221C147.219 114.241 147.116 127.278 147.373 140.28C147.458 144.415 145.989 145.492 142.008 145.543Z" fill="#FBFBFB"/>
<path d="M68.8109 78.9849C68.828 75.3625 67.2219 74.457 63.8729 74.5595C57.8756 74.7645 51.8612 74.867 45.8809 74.5253C41.6264 74.2861 40.1399 75.4651 40.2766 79.9417C40.6013 90.6719 40.3792 101.436 40.3792 112.184C40.3792 123.153 40.4646 134.106 40.3108 145.058C40.2766 148.099 40.8917 149.552 44.3431 149.432C50.9556 149.176 57.5851 149.278 64.1976 149.415C67.1364 149.466 68.8109 148.851 68.7938 145.365C68.7254 123.239 68.7255 101.112 68.8109 78.9849ZM58.9008 145.571C44.4286 145.724 44.4457 145.861 44.4457 131.457V112.235C44.4457 102.735 44.5653 93.2178 44.3773 83.7178C44.309 80.1809 45.5392 79.207 49.0078 79.1215C64.9665 78.6773 64.9493 78.5577 64.9493 94.2259C64.9493 109.313 64.8127 124.4 65.0348 139.471C65.1202 144.135 63.4116 145.519 58.9008 145.571Z" fill="#F9F9F9"/>
<path d="M54.8002 40.9115C46.6671 40.809 40.516 46.55 40.328 54.4439C40.123 62.4404 46.5475 69.1553 54.4414 69.1895C62.3524 69.2237 68.2813 63.2263 68.3497 55.1274C68.4351 46.6184 63.07 41.014 54.8002 40.9115ZM54.6123 64.5762C48.5124 64.5932 44.3434 60.5438 44.463 54.666C44.5826 49.3351 49.025 45.0293 54.4414 44.9781C59.8407 44.9097 64.9837 49.9502 64.83 55.1274C64.7104 60.2533 60.0457 64.5762 54.6123 64.5762Z" fill="#F5F5F5"/>
</svg>
