<svg width="191" height="191" viewBox="0 0 191 191" fill="none" xmlns="http://www.w3.org/2000/svg">
<path d="M81.9543 114.827C77.1011 114.788 73.2987 118.457 73.2796 123.196C73.2605 127.858 76.9483 131.545 81.6295 131.564C86.5401 131.584 90.0176 128.221 90.0749 123.387C90.1322 118.533 86.6356 114.865 81.9543 114.827ZM81.5722 126.96C79.6233 126.845 78.1711 125.144 78.2284 123.081C78.2857 120.979 79.8143 119.546 81.897 119.622C83.9033 119.699 85.5465 121.361 85.5083 123.291C85.4509 125.24 83.502 127.074 81.5722 126.96ZM81.9543 114.827C77.1011 114.788 73.2987 118.457 73.2796 123.196C73.2605 127.858 76.9483 131.545 81.6295 131.564C86.5401 131.584 90.0176 128.221 90.0749 123.387C90.1322 118.533 86.6356 114.865 81.9543 114.827ZM81.5722 126.96C79.6233 126.845 78.1711 125.144 78.2284 123.081C78.2857 120.979 79.8143 119.546 81.897 119.622C83.9033 119.699 85.5465 121.361 85.5083 123.291C85.4509 125.24 83.502 127.074 81.5722 126.96ZM81.9543 114.827C77.1011 114.788 73.2987 118.457 73.2796 123.196C73.2605 127.858 76.9483 131.545 81.6295 131.564C86.5401 131.584 90.0176 128.221 90.0749 123.387C90.1322 118.533 86.6356 114.865 81.9543 114.827ZM81.5722 126.96C79.6233 126.845 78.1711 125.144 78.2284 123.081C78.2857 120.979 79.8143 119.546 81.897 119.622C83.9033 119.699 85.5465 121.361 85.5083 123.291C85.4509 125.24 83.502 127.074 81.5722 126.96ZM81.9543 114.827C77.1011 114.788 73.2987 118.457 73.2796 123.196C73.2605 127.858 76.9483 131.545 81.6295 131.564C86.5401 131.584 90.0176 128.221 90.0749 123.387C90.1322 118.533 86.6356 114.865 81.9543 114.827ZM81.5722 126.96C79.6233 126.845 78.1711 125.144 78.2284 123.081C78.2857 120.979 79.8143 119.546 81.897 119.622C83.9033 119.699 85.5465 121.361 85.5083 123.291C85.4509 125.24 83.502 127.074 81.5722 126.96ZM168.3 119.451C167.746 114.33 167.306 109.19 166.064 104.146C156.874 66.5426 120.016 42.3911 80.7697 50.2632C53.9623 55.6324 35.7339 72.1219 26.0466 97.7447C23.448 104.604 21.9576 111.789 22.1487 119.24C22.1869 120.979 22.55 122.489 24.1167 123.482C29.3903 126.864 36.1734 123.731 36.7466 117.674C39.6127 88.1147 68.541 69.0456 96.9344 77.8732C99.3037 78.5993 98.463 79.1916 97.393 80.2807C92.9219 84.8473 88.4126 89.3948 83.9988 94.0188C77.6934 100.649 71.3307 107.279 66.2482 114.941C62.2739 120.922 62.4459 127.284 66.2864 133.265C70.1843 139.341 75.9738 142.169 83.2345 141.5C90.0558 140.851 94.6224 137.029 97.4503 130.934C100.355 124.667 102.839 118.247 105.342 111.808C108.399 103.974 111.303 96.0824 113.959 87.6561C116.787 89.8152 118.736 92.2227 120.57 94.7258C125.977 102.101 128.729 110.451 129.512 119.508C129.78 122.661 131.022 124.208 133.62 124.227C143.728 124.323 153.836 124.323 163.963 124.227C166.79 124.17 168.586 122.106 168.3 119.451ZM47.1601 85.4014C40.9693 92.3756 35.4473 99.7127 33.3838 109.075C32.7723 111.865 32.2946 114.655 32.0462 117.502C31.8934 119.374 30.5368 119.928 28.9318 119.852C27.6134 119.775 26.5434 119.221 26.9064 117.349C27.9191 102.158 33.4411 88.5923 43.6826 76.9751C44.9818 75.5039 45.727 75.351 47.1219 77.0325C50.714 81.3125 50.8478 81.2552 47.1601 85.4014ZM92.7881 62.6256C92.7881 64.8803 92.6735 67.1349 92.8263 69.3514C92.9601 71.1665 92.2722 71.606 90.6099 71.3767C85.7949 70.708 80.999 70.6506 76.1648 71.2812C69.6493 72.1028 63.5732 74.1664 57.9174 77.4146C56.1405 78.4273 54.803 78.5993 53.4463 76.8987C52.9113 76.23 52.2044 75.7141 51.5738 75.1217C48.2683 71.969 48.2683 71.969 51.9178 68.9883C63.1146 59.8933 75.9164 54.8872 90.3042 53.8172C92.2531 53.6643 92.9601 54.1611 92.8073 56.1674C92.6544 58.3074 92.7881 60.4665 92.7881 62.6256ZM112.239 76.956C110.539 81.7328 108.896 86.5096 107.214 91.2865C103.335 102.273 99.4374 113.241 95.5205 124.227C94.3931 127.418 92.9028 130.437 90.5144 132.902C87.9731 135.501 84.8013 136.666 81.897 136.723C73.6618 136.399 68.3882 131.049 68.0251 123.425C67.8914 120.654 69.6875 117.865 71.5982 115.553C83.139 101.547 95.6542 88.4395 108.819 75.9434C109.144 75.6567 109.411 75.2746 109.794 75.0835C110.462 74.7587 111.169 74.0135 111.895 74.5867C112.621 75.16 112.564 76.0389 112.239 76.956ZM121.888 88.4395C121.468 87.9045 120.971 87.3886 120.417 86.9873C116.672 84.4079 115.105 81.3698 117.265 76.765C118.43 74.2619 117.112 71.6633 114.953 70.2112C112.564 68.6253 109.774 68.7017 107.482 70.4978C106.545 71.243 105.666 72.1028 104.826 72.9626C103.297 74.4912 101.692 74.7205 99.6667 73.7842C97.7369 72.8862 97.3548 71.4914 97.4694 69.5997C97.584 67.4597 97.4885 65.2815 97.4885 63.1224C97.4885 60.7913 97.6222 58.4602 97.4503 56.1292C97.3165 54.142 97.9662 53.6261 99.9342 53.7599C112.984 54.7343 124.888 58.8424 135.474 66.5999C137.423 68.0139 140.422 69.294 140.69 71.3003C140.957 73.4021 137.843 74.816 136.219 76.5357C132.397 80.5291 128.442 84.3887 124.602 88.363C123.608 89.4139 122.863 89.6432 121.888 88.4395ZM160.6 119.833C152.403 119.374 144.206 119.718 136.009 119.584C134.423 119.565 133.983 118.552 133.888 117.215C133.391 109.954 131.27 103.209 127.563 96.9613C126.512 95.1843 126.665 93.7895 128.137 92.3565C133.448 87.1784 138.741 81.9621 144.015 76.7459C144.798 75.9625 145.333 75.3319 146.441 76.5548C156.95 88.2675 162.338 102.483 163.542 117.272C163.771 119.03 162.472 119.947 160.6 119.833ZM81.9543 114.827C77.1011 114.788 73.2987 118.457 73.2796 123.196C73.2605 127.858 76.9483 131.545 81.6295 131.564C86.5401 131.584 90.0176 128.221 90.0749 123.387C90.1322 118.533 86.6356 114.865 81.9543 114.827ZM81.5722 126.96C79.6233 126.845 78.1711 125.144 78.2284 123.081C78.2857 120.979 79.8143 119.546 81.897 119.622C83.9033 119.699 85.5465 121.361 85.5083 123.291C85.4509 125.24 83.502 127.074 81.5722 126.96ZM81.9543 114.827C77.1011 114.788 73.2987 118.457 73.2796 123.196C73.2605 127.858 76.9483 131.545 81.6295 131.564C86.5401 131.584 90.0176 128.221 90.0749 123.387C90.1322 118.533 86.6356 114.865 81.9543 114.827ZM81.5722 126.96C79.6233 126.845 78.1711 125.144 78.2284 123.081C78.2857 120.979 79.8143 119.546 81.897 119.622C83.9033 119.699 85.5465 121.361 85.5083 123.291C85.4509 125.24 83.502 127.074 81.5722 126.96ZM81.9543 114.827C77.1011 114.788 73.2987 118.457 73.2796 123.196C73.2605 127.858 76.9483 131.545 81.6295 131.564C86.5401 131.584 90.0176 128.221 90.0749 123.387C90.1322 118.533 86.6356 114.865 81.9543 114.827ZM81.5722 126.96C79.6233 126.845 78.1711 125.144 78.2284 123.081C78.2857 120.979 79.8143 119.546 81.897 119.622C83.9033 119.699 85.5465 121.361 85.5083 123.291C85.4509 125.24 83.502 127.074 81.5722 126.96Z" fill="#FEFEFE"/>
<path d="M81.9468 114.807C77.0935 114.769 73.2912 118.437 73.272 123.176C73.2529 127.838 76.9407 131.526 81.6219 131.545C86.5325 131.564 90.01 128.201 90.0673 123.367C90.1246 118.514 86.628 114.845 81.9468 114.807ZM81.5646 126.94C79.6157 126.825 78.1635 125.125 78.2208 123.061C78.2782 120.959 79.8067 119.526 81.8894 119.603C83.8957 119.679 85.5389 121.342 85.5007 123.271C85.4434 125.22 83.4944 127.055 81.5646 126.94Z" fill="#FDFDFD"/>
</svg>
