<svg width="41" height="41" viewBox="0 0 41 41" fill="none" xmlns="http://www.w3.org/2000/svg">
<path d="M28.1147 35.3988C26.4041 35.3418 24.6583 34.8608 22.9856 34.1179C15.8518 30.949 10.5528 25.8275 6.9674 18.9251C5.9598 16.9849 5.19603 14.944 5.02336 12.7248C4.87724 10.8567 5.40951 9.27318 6.82224 7.99518C7.57178 7.3168 8.23403 6.5407 8.99779 5.88035C10.3479 4.7124 11.8441 4.69343 13.1373 5.90217C14.6032 7.27221 16.0131 8.70581 17.3812 10.1736C18.4002 11.2666 18.3831 12.8017 17.3954 13.9298C16.699 14.7249 15.9362 15.464 15.1734 16.1983C14.9058 16.4554 14.8337 16.6386 15.0159 16.9906C15.9647 18.8264 17.2854 20.372 18.7342 21.816C20.1165 23.1946 21.6251 24.4119 23.369 25.3208C23.6555 25.4698 23.8206 25.4594 24.053 25.2203C24.7912 24.4612 25.5293 23.6975 26.3235 22.9982C27.5132 21.9517 29.0854 21.9688 30.2324 23.0637C31.6499 24.4176 33.038 25.8038 34.3909 27.2231C35.5304 28.4177 35.5741 30.0201 34.4905 31.2592C33.5977 32.2811 32.6366 33.2488 31.6508 34.1824C30.7097 35.0714 29.5275 35.3988 28.1147 35.3988ZM28.1821 33.8722C29.3197 33.8703 30.2049 33.5287 30.9269 32.7792C31.629 32.0505 32.3435 31.3352 33.0456 30.6074C33.9384 29.6833 33.9317 28.9471 33.019 28.0296C31.8264 26.8303 30.6281 25.6368 29.4279 24.4442C28.5759 23.5979 27.8851 23.596 27.017 24.447C26.2836 25.1662 25.5644 25.9005 24.8339 26.6235C24.2229 27.2288 23.775 27.2753 23.0008 26.8911C21.3727 26.0846 19.9088 25.0419 18.5786 23.8161C16.5102 21.9109 14.6326 19.8483 13.439 17.2543C13.0614 16.4346 13.1468 16.0171 13.7901 15.3919C14.5159 14.6869 15.2474 13.9877 15.9504 13.2609C16.7721 12.4108 16.7702 11.7172 15.9429 10.8738C14.7246 9.63277 13.495 8.40315 12.2559 7.18397C11.4162 6.35758 10.6743 6.36802 9.82323 7.1982C9.08793 7.91548 8.37065 8.65173 7.64104 9.37565C6.89435 10.1176 6.55089 11.0142 6.55089 12.0635C6.55184 13.8947 7.11731 15.5892 7.87728 17.2088C11.2198 24.3313 16.4713 29.5363 23.6697 32.7441C25.1356 33.3978 26.6707 33.8162 28.1821 33.8722Z" fill="white"/>
</svg>
