<svg width="112" height="100" viewBox="0 0 112 100" fill="none" xmlns="http://www.w3.org/2000/svg">
<path d="M33.8196 29.5781C36.3883 30.1489 38.9569 30.577 41.3829 31.1479C46.6629 32.2895 51.943 33.4311 57.3657 34.43C58.0792 34.5727 58.7927 34.5727 59.5062 34.43C62.2176 33.7165 65.0717 32.8603 67.783 32.1468C71.4933 31.1479 73.6339 32.1468 74.4901 35.8571C74.9182 37.7122 75.7744 38.4257 77.6296 38.8538C83.7658 39.9955 89.7594 41.4225 95.8956 42.7068C96.3237 42.8495 96.7519 42.8495 97.3227 42.9923C97.0373 44.7047 96.6092 46.4171 96.3237 48.1296C95.4675 52.268 94.4686 56.5491 93.6124 60.6875C92.8989 63.827 90.901 65.1113 87.7615 64.5405C86.0491 64.2551 84.3367 63.827 82.1961 63.3988C82.6242 65.1113 83.195 66.681 83.4804 68.2508C83.7658 69.2497 83.9085 70.2486 83.9085 71.1048C83.6231 73.2454 82.1961 74.2443 80.1982 74.8151C70.9225 77.3838 61.6468 79.9525 52.5138 82.5211C43.9516 84.9471 35.2467 87.2303 26.6844 89.6563C23.545 90.5125 21.4044 89.3709 20.5482 86.0887C17.4087 75.1005 14.4119 64.1124 11.2725 53.1242C10.4162 49.842 11.5579 47.7015 14.9828 46.8452C19.9774 45.4182 24.972 43.9912 29.9666 42.7068C30.8228 42.4214 31.251 42.136 31.3937 41.2798C32.1072 37.9976 32.8207 34.5727 33.5342 31.2906C33.5342 30.577 33.6769 30.1489 33.8196 29.5781ZM18.693 65.6821C18.693 65.9675 18.693 66.2529 18.693 66.3956C20.4055 72.6746 22.1179 78.9535 23.9731 85.3752C24.2585 86.3741 24.8293 86.5168 25.8282 86.2314C31.3937 84.6617 37.1018 83.0919 42.6672 81.5222C54.6543 78.24 66.6414 74.8151 78.6285 71.5329C80.6264 70.9621 80.6264 70.9621 80.0555 68.9643C78.7712 64.2551 77.4869 59.5459 76.0598 54.8366C75.6317 53.2669 75.2036 51.8399 74.7755 50.2701C55.9387 55.4075 37.2445 60.5448 18.693 65.6821ZM72.635 42.5641C72.0642 40.4236 71.4933 38.5684 71.0652 36.7133C70.7798 35.429 70.209 35.1436 68.9247 35.5717C55.6532 39.282 42.2391 42.9923 28.9677 46.7025C24.5439 47.8442 20.2628 49.1285 15.839 50.2701C15.1255 50.4128 14.2692 50.6982 14.5546 51.5545C15.1255 53.695 15.6963 55.8356 16.4098 58.1188C35.2467 52.9815 53.7981 47.7015 72.635 42.5641ZM84.3367 44.562C82.7669 44.4193 82.1961 44.9901 81.9107 46.1317C81.4826 48.1296 81.0545 49.9847 80.6264 51.9826C80.341 53.2669 80.9118 54.1231 82.1961 54.4085C84.1939 54.8366 86.1918 55.2647 88.1896 55.6929C89.3313 55.9783 90.1875 55.4075 90.4729 54.2658C90.901 52.1253 91.4718 50.1274 91.7572 47.9869C91.8999 46.9879 91.4718 46.1317 90.4729 45.989C88.3324 45.4182 86.1918 44.9901 84.3367 44.562Z" fill="white"/>
<path d="M99.7496 33.4331C78.4868 29.0093 57.5093 24.4428 36.1038 20.0189C36.5319 17.4503 36.8173 14.8816 37.5309 12.5984C38.1017 10.4578 40.3849 9.60159 42.9536 10.1724C47.092 11.0286 51.3731 12.0275 55.5115 12.8838C69.211 15.7378 83.0533 18.7346 96.7528 21.5887C99.7496 22.1595 101.034 24.1573 100.606 27.1541C100.463 29.152 100.035 31.1498 99.7496 33.4331Z" fill="white"/>
<path d="M27.3978 82.0792C26.9697 81.6511 26.1135 81.0802 25.9708 80.5094C25.2573 78.5116 24.8292 76.5137 24.2583 74.3732C23.9729 73.0888 24.5437 72.2326 25.6854 71.9472C27.6832 71.3764 29.5384 70.8056 31.5362 70.3775C32.8205 70.0921 33.6768 70.5202 34.1049 71.8045C34.6757 73.8024 35.2465 75.6575 35.6746 77.6554C36.1027 79.0824 35.6746 79.9386 34.1049 80.3667C31.9643 80.7948 29.8238 81.3656 27.3978 82.0792Z" fill="white"/>
</svg>
