<svg width="545" height="605" viewBox="0 0 545 605" fill="none" xmlns="http://www.w3.org/2000/svg">
<path d="M219.056 59.149C222.367 46.795 229.721 37.0455 240.552 30.7923C263.342 17.6341 292 24.9848 304.934 47.3874C318.092 70.1781 309.905 98.2835 287.114 111.442C276.284 117.695 264.199 119.169 251.809 115.879C239.42 112.589 230.318 105.378 223.841 94.1595C217.628 83.3992 215.731 71.5586 219.056 59.149Z" fill="#04CB3A"/>
<path d="M31.5597 167.353C34.8699 154.999 42.2239 145.25 53.0195 139.017C64.2384 132.54 76.0995 130.678 88.4535 133.988C100.807 137.298 110.557 144.653 117.014 155.836C123.471 167.02 124.776 178.732 121.43 191.106C113.38 230.61 53.7612 238.642 35.9763 202.623C29.7787 191.807 28.2698 179.743 31.5597 167.353Z" fill="#04CB3A"/>
<path d="M192.2 500.505L121.031 377.237L413.5 208.38L483.589 329.778C498.458 355.532 504.226 381.084 501.356 407.155C498.486 433.225 484.833 453.574 460.172 467.811C432.901 483.557 403.995 481.806 374.068 462.723L373.327 463.15C380.804 507.143 370.415 536.567 333.054 558.137C273.678 592.418 221.735 551.66 192.2 500.505ZM423.172 353.7L391.906 299.545L328.79 335.985L357.694 386.047C375.598 417.058 395.269 426.116 416.542 413.833C438.98 400.879 436.982 377.619 423.172 353.7ZM312.09 427.805L276.506 366.171L211.133 403.915L247.796 467.418C265.476 498.041 285.147 507.099 306.809 494.593C328.859 481.862 330.422 459.557 312.09 427.805Z" fill="#04CB3A"/>
</svg>
