<svg width="656" height="656" viewBox="0 0 656 656" fill="none" xmlns="http://www.w3.org/2000/svg">
<path d="M453.866 124.446L409.649 80.229L309.002 180.876L353.218 225.093L453.866 124.446Z" fill="#04CB3A"/>
<path d="M475.643 247.216C458.273 264.586 449.113 284.75 448.537 307.91C447.96 331.07 455.853 350.6 472.618 367.365C489.412 384.159 509.547 392.08 532.707 391.446C556.472 390.842 576.924 381.969 593.977 364.916C611.347 347.546 620.19 327.699 620.795 304.511C621.4 281.322 613.507 261.216 596.742 244.451C579.977 227.686 559.813 219.735 536.365 220.657C513.177 221.32 492.725 230.134 475.643 247.216ZM506.148 277.088C521.703 261.532 545.785 261.244 562.867 278.326C579.631 295.091 579.344 319.173 563.472 335.045C547.916 350.6 523.835 350.888 507.07 334.123C489.988 317.041 490.276 292.96 506.148 277.088Z" fill="#04CB3A"/>
<path d="M136.685 291.03L78.7279 348.987L307.158 577.417L365.115 519.46L402.332 556.677L303.528 655.48L0.664312 352.617L99.468 253.813L136.685 291.03Z" fill="#04CB3A"/>
</svg>
