<svg width="573" height="653" viewBox="0 0 573 653" fill="none" xmlns="http://www.w3.org/2000/svg">
<path d="M268.187 14.5406L214.032 45.8066L285.201 169.074L339.355 137.808L268.187 14.5406Z" fill="#04CB3A"/>
<path d="M80.5341 122.882L25.9916 154.372L97.16 277.639L151.702 246.149L80.5341 122.882Z" fill="#04CB3A"/>
<path d="M294.829 584.895C250.693 570.535 213.97 537.97 184.415 486.779L133.31 398.263L425.779 229.406L477.536 319.052C507.07 370.207 517.672 417.9 508.91 462.283C500.184 506.646 473.105 541.708 427.171 568.228C383.072 593.689 338.944 599.221 294.829 584.895ZM439.972 440.322C444.637 412.227 438.49 383.413 421.238 353.531L403.558 322.908L225.395 425.77L242.648 455.652C260.552 486.663 282.622 506.801 309.096 516.4C335.924 525.796 363.371 522.414 391.383 506.241C419.395 490.069 435.659 468.213 439.972 440.322Z" fill="#04CB3A"/>
</svg>
