<svg width="355" height="540" viewBox="0 0 355 540" fill="none" xmlns="http://www.w3.org/2000/svg">
<path d="M281.415 99.1958L217.172 35.7675L253.387 0L354.294 99.6032L253.795 198.799L216.724 163.031L281.415 99.1958Z" fill="#04CB3A"/>
<path d="M64.6911 99.1958L0 35.7675L36.2156 0L137.163 99.6032L36.6637 198.799L0 163.031L64.6911 99.1958Z" fill="#04CB3A"/>
<path d="M155.373 505.308C136.837 482.861 127.345 453.123 127.345 416.052V362.971H8.31055V293.106H345.984V418.618C345.984 453.978 336.492 482.861 317.508 505.308C298.972 528.161 272.208 539.364 237.703 539.364C201.936 539.364 174.357 528.161 155.373 505.308ZM279.989 412.548V362.971H192.444V412.996C192.444 444.038 206.661 469.051 235.992 469.051C266.627 469.051 279.989 444.894 279.989 412.548Z" fill="#04CB3A"/>
</svg>
