<svg width="429" height="498" viewBox="0 0 429 498" fill="none" xmlns="http://www.w3.org/2000/svg">
<path d="M159.121 16.1724H96.5886V158.509H159.121V16.1724Z" fill="#04CB3A"/>
<path d="M261.331 87.5856C261.331 112.15 269.112 132.886 285.081 149.67C301.05 166.453 320.441 174.682 344.15 174.682C367.9 174.682 387.739 166.046 403.668 149.221C420.044 131.989 428.233 111.254 428.233 87.1375C428.233 62.5728 420.452 42.2855 404.483 25.4609C388.513 8.63635 368.715 0 345.006 0C321.297 0 301.417 8.63637 285.488 25.8683C269.56 42.7337 261.331 63.4283 261.331 87.5856ZM304.024 87.1375C304.024 65.1392 320.848 47.9073 345.006 47.9073C368.715 47.9073 385.54 65.1392 385.54 87.5856C385.54 109.584 368.715 126.816 345.006 126.816C320.848 126.816 304.024 109.584 304.024 87.1375Z" fill="#04CB3A"/>
<path d="M52.6329 358.246V440.209H375.681V358.246H428.314V497.975H0V358.246H52.6329Z" fill="#04CB3A"/>
</svg>
