<svg width="338" height="559" viewBox="0 0 338 559" fill="none" xmlns="http://www.w3.org/2000/svg">
<path d="M308.668 0H246.135V142.337H308.668V0Z" fill="#04CB3A"/>
<path d="M91.9852 0H29.005V142.337H91.9852V0Z" fill="#04CB3A"/>
<path d="M46.5629 507.263C15.521 472.758 0 426.195 0 367.085V264.875H337.714V368.389C337.714 427.458 323.048 474.062 293.269 508.119C263.531 542.175 222.549 559 169.509 559C118.587 559 77.6049 541.727 46.5629 507.263ZM244.547 454.63C262.635 432.632 271.719 404.605 271.719 370.1V334.74H65.9947V369.244C65.9947 405.053 75.0384 433.528 93.1666 455.078C111.702 476.628 137.163 487.424 169.509 487.424C201.854 487.424 226.867 476.628 244.547 454.63Z" fill="#04CB3A"/>
</svg>
