<svg width="1319" height="1010" viewBox="0 0 1319 1010" fill="none" xmlns="http://www.w3.org/2000/svg">
<path d="M1302.97 640.777L1270.87 635.625L1257.69 708.318L1289.8 713.471L1302.97 640.777Z" fill="#04CB3A"/>
<path d="M1188.66 622.654L1156.28 617.457L1143.11 690.15L1175.49 695.348L1188.66 622.654Z" fill="#04CB3A"/>
<path d="M1120.84 877.847C1107.67 857.609 1103.8 832.559 1109.14 802.403L1118.39 750.172L1295.34 778.164L1285.97 831.074C1280.62 861.23 1268.74 883.857 1250.05 898.776C1231.37 913.695 1208.39 918.927 1180.59 914.53C1153.92 910.241 1134.03 898.017 1120.84 877.847ZM1229.34 867.36C1240.8 857.652 1248.07 844.071 1251.2 826.412L1254.4 808.345L1146.63 791.296L1143.5 808.955C1140.27 827.226 1142.43 842.51 1149.94 855.08C1157.75 867.625 1170.08 875.232 1187.01 877.91C1204.02 880.531 1218.09 877.101 1229.34 867.36Z" fill="#04CB3A"/>
<path d="M225.785 747.176L193.901 754.233L211.711 826.5L243.594 819.443L225.785 747.176Z" fill="#04CB3A"/>
<path d="M289.379 771.431C292.498 783.93 299.175 793.579 309.528 800.282C319.882 806.985 330.939 808.971 343.146 806.286C355.421 803.586 364.543 796.947 370.647 786.624C376.89 775.985 378.528 764.578 375.46 752.282C372.34 739.783 365.731 730.403 355.361 723.633C344.991 716.863 333.677 714.719 321.402 717.419C309.127 720.119 300.005 726.758 293.968 737.352C287.932 747.659 286.31 759.134 289.379 771.431ZM311.324 766.318C308.542 755.171 315.06 744.472 327.472 741.741C339.678 739.056 350.579 745.924 353.412 757.274C356.194 768.422 349.677 779.121 337.47 781.806C325.075 784.604 314.174 777.736 311.324 766.318Z" fill="#04CB3A"/>
<path d="M211.5 932.305L221.653 974.072L390.391 937.231L380.238 895.465L407.736 889.462L425.059 960.722L201.325 1009.57L184.002 938.309L211.5 932.305Z" fill="#04CB3A"/>
<path d="M880.653 19.537L855.885 12.7705L782.515 95.6309L814.652 104.411L856.62 54.8955L864.112 117.923L895.565 126.516L880.653 19.537Z" fill="#04CB3A"/>
<path d="M998.317 51.8015L973.625 45.0558L900.179 127.895L932.316 136.675L974.36 87.1806L981.852 150.208L1013.23 158.78L998.317 51.8015Z" fill="#04CB3A"/>
<path d="M962.308 332.749L731.492 270.005L757.707 184.333L795.194 194.524L780.763 241.685L974.092 294.239L962.308 332.749Z" fill="#04CB3A"/>
<path d="M124.323 125.73C127.455 120.114 132.269 116.287 138.449 114.614C151.465 111.092 164.988 118.372 168.806 130.944C172.702 143.774 165.241 156.452 152.224 159.975C146.044 161.647 139.814 160.809 133.94 157.63C128.065 154.451 124.367 149.771 122.439 143.421C120.694 137.441 121.191 131.346 124.323 125.73Z" fill="#04CB3A"/>
<path d="M15.6797 155.218C18.8775 149.584 23.691 145.757 29.8704 144.085C36.247 142.359 42.4645 142.92 48.2925 146.182C54.1008 149.379 58.1204 154.181 60.0489 160.532C61.9774 166.882 61.1852 172.706 58.0728 178.387C49.3265 196.672 18.3975 192.981 13.7693 173.056C11.8998 166.9 12.5477 160.834 15.6797 155.218Z" fill="#04CB3A"/>
<path d="M54.5617 337.752L33.8416 268.471L201.969 223.009L222.379 291.253C226.717 305.757 226.518 318.968 221.853 331.357C217.187 343.746 207.834 351.944 193.669 355.774C177.982 360.016 163.677 355.486 150.88 342.36L150.417 342.485C148.772 364.975 139.933 378.003 118.421 383.82C84.3321 393.037 63.1789 366.565 54.5617 337.752ZM189.034 295.301L179.932 264.87L143.659 274.678L152.083 302.843C157.292 320.261 166.089 327.19 178.335 323.878C191.157 320.341 193.042 308.704 189.034 295.301ZM123.883 317.397L113.522 282.757L75.9917 292.906L86.6809 328.647C91.8319 345.87 100.629 352.799 113.074 349.434C125.716 346.015 129.227 335.268 123.883 317.397Z" fill="#04CB3A"/>
</svg>
