<svg width="150" height="180" viewBox="0 0 150 180" fill="none" xmlns="http://www.w3.org/2000/svg">
<path d="M0.603935 144.859C0.603935 138.839 0.603935 133.08 0.603935 127.277C0.603935 100.402 0.603935 73.5276 0.603935 46.6527C0.603935 43.7297 0.691191 40.7193 0.560307 37.7526C0.473051 36.0948 1.38924 35.6149 2.69808 35.135C10.9874 32.1246 19.3203 29.0707 27.6096 26.0167C45.0608 19.5598 62.512 13.1029 79.9195 6.6023C85.3294 4.59542 90.6956 2.45765 96.1055 0.450764C96.7163 0.232624 97.5452 0.232624 98.156 0.407136C111.55 4.7263 124.987 9.04547 138.381 13.4083C141.479 14.4117 144.489 15.6333 147.63 16.5058C149.332 16.9858 149.637 17.8147 149.637 19.3853C149.593 33.7825 149.637 48.1361 149.637 62.5333C149.637 95.2106 149.593 127.844 149.724 160.522C149.724 163.052 149.026 164.056 146.539 164.797C131.095 169.334 115.738 174.003 100.381 178.758C98.1996 179.456 96.3236 179.413 94.1422 178.584C79.2215 173.087 64.2571 167.808 49.2927 162.441C35.2009 157.38 21.0654 152.276 6.97361 147.215C5.88292 146.822 4.83584 146.43 3.74515 146.037C3.78877 145.906 3.8324 145.732 3.87603 145.601C34.8955 149.353 65.915 153.105 97.1526 156.857C97.1526 114.232 97.1526 72.0442 97.1526 29.3761C94.2731 30.0305 91.6118 30.6413 88.9069 31.2521C78.0871 33.8261 67.311 36.4438 56.4913 38.9742C50.1653 40.4576 43.8392 41.8973 37.4695 43.2061C34.9827 43.7297 33.9357 44.6022 33.9357 47.4817C34.0666 74.182 33.9793 100.882 34.0666 127.539C34.0666 129.415 33.543 130.418 31.7543 131.204C21.4145 135.61 11.2055 140.191 0.603935 144.859Z" fill="url(#paint0_linear_3426_48)"/>
<defs>
<linearGradient id="paint0_linear_3426_48" x1="8.41706" y1="148.083" x2="153.404" y2="20.0232" gradientUnits="userSpaceOnUse">
<stop stop-color="#008D1E"/>
<stop offset="1" stop-color="#04CB3A"/>
</linearGradient>
</defs>
</svg>
