<svg width="200" height="200" viewBox="0 0 200 200" fill="none" xmlns="http://www.w3.org/2000/svg">
<path d="M154.333 99.7737C154.333 102.091 154.406 104.409 154.32 106.726C154.174 110.421 152.519 112.162 148.831 112.407C141.673 112.884 136.422 116.241 133.661 122.876C130.913 129.484 132.112 135.589 136.839 141.025C139.461 144.044 139.382 146.309 136.634 149.136C133.482 152.38 130.278 155.578 127.04 158.737C124.206 161.498 121.849 161.644 118.922 159.075C113.506 154.314 107.407 153.076 100.793 155.797C94.019 158.578 90.6554 163.935 90.2382 171.245C90.0396 174.708 88.1989 176.389 84.6697 176.456C79.9288 176.542 75.1813 176.542 70.4404 176.456C66.9311 176.396 65.183 174.787 64.9182 171.218C64.3818 163.954 61.1043 158.551 54.2909 155.797C47.5172 153.056 41.3726 154.433 35.9034 159.32C33.3343 161.617 30.8645 161.419 28.2888 158.942C25.19 155.956 22.1773 152.884 19.1513 149.825C15.642 146.282 15.5692 144.322 18.754 140.469C23.7532 134.417 24.2299 126.279 19.8863 119.889C16.7676 115.301 12.3578 112.917 6.85546 112.454C2.27348 112.07 0.863133 110.56 0.836647 105.984C0.810162 101.568 0.777055 97.1582 0.84989 92.7418C0.909482 89.0338 2.54496 87.299 6.26616 87.0408C13.4106 86.5442 18.6746 83.2269 21.4357 76.5724C24.1769 69.9643 23.0248 63.8594 18.2773 58.4299C15.7215 55.5099 15.8208 53.0732 18.5091 50.2922C21.5019 47.2001 24.561 44.1741 27.6267 41.1481C31.0565 37.7646 32.9701 37.7117 36.731 40.8171C45.7891 48.2926 59.1973 45.2269 63.5078 34.5798C64.3156 32.5801 64.554 30.3156 64.8718 28.1438C65.3949 24.6411 66.9642 23.052 70.5198 22.9924C75.2607 22.9195 80.0082 22.9063 84.7491 22.999C88.2386 23.0652 90.033 24.7868 90.2449 28.2828C90.6686 35.4472 93.9594 40.7244 100.581 43.5318C107.308 46.3856 113.486 45.1475 119.001 40.3006C121.796 37.8441 124.206 37.9633 126.874 40.5456C130.205 43.7702 133.482 47.0478 136.7 50.3783C139.329 53.0997 139.455 55.4172 136.972 58.2379C132.125 63.7535 130.86 69.9246 133.707 76.6519C136.508 83.2732 141.792 86.5707 148.943 87.0275C152.446 87.2527 154.141 89.0007 154.307 92.4835C154.426 94.9136 154.333 97.3436 154.333 99.7737ZM114.989 100.078C115.201 79.2408 98.5547 62.3895 77.5848 62.2107C57.3897 62.0385 40.3463 78.7575 40.0616 99.0188C39.7702 119.876 56.317 136.9 77.1942 137.224C97.7601 137.529 114.777 120.816 114.989 100.078Z" fill="url(#paint0_linear_3426_41)"/>
<path d="M136.535 41.4794C141.958 41.4794 146.885 41.592 151.798 41.4066C153.175 41.3536 154.857 40.7842 155.817 39.8505C162.776 33.0968 169.629 26.237 176.376 19.2714C177.124 18.4967 177.502 16.7552 177.21 15.6892C175.688 10.0346 177.548 4.68451 182.289 1.91678C186.732 -0.672174 192.334 0.0164476 196.022 3.61185C199.796 7.2867 200.577 13.0539 197.922 17.5895C195.154 22.3172 189.718 24.4095 184.189 22.4827C182.269 21.814 181.395 22.5291 180.263 23.6746C173.277 30.7131 166.186 37.6522 159.28 44.7702C157.419 46.6838 155.499 47.5843 152.877 47.3525C151.129 47.2002 149.315 47.0877 147.6 47.3724C142.687 48.1868 139.442 45.8826 136.535 41.4794Z" fill="url(#paint1_linear_3426_41)"/>
<path d="M136.37 157.956C139.402 154.261 141.905 152.09 146.719 151.851C153.996 151.487 159.18 153.679 163.875 159.148C168.96 165.067 174.866 170.278 180.349 175.86C181.541 177.072 182.474 177.529 184.315 176.887C189.645 175.026 195.022 177.085 197.816 181.667C200.57 186.183 199.895 191.924 196.174 195.665C192.433 199.426 186.712 200.147 182.19 197.433C177.581 194.665 175.469 189.262 177.277 183.971C177.879 182.203 177.641 181.224 176.376 179.979C169.543 173.258 162.842 166.392 155.956 159.731C154.923 158.731 153.135 158.102 151.665 158.036C146.825 157.824 141.978 157.956 136.37 157.956Z" fill="url(#paint2_linear_3426_41)"/>
<path d="M160.252 102.204C160.252 100.449 160.252 98.8471 160.252 96.8673C165.04 96.8673 169.641 96.8077 174.243 96.8938C175.958 96.9269 176.951 96.5296 177.799 94.808C180.394 89.5507 185.711 87.22 191.035 88.6502C195.955 89.9744 199.464 94.5299 199.497 99.635C199.53 104.872 195.922 109.554 190.876 110.832C185.658 112.149 180.368 109.839 177.872 104.773C176.971 102.939 175.899 102.509 174.071 102.542C169.774 102.621 165.47 102.535 161.173 102.509C160.967 102.502 160.762 102.37 160.252 102.204Z" fill="url(#paint3_linear_3426_41)"/>
<path d="M51.7155 99.7064C51.689 85.3646 63.2433 73.797 77.5587 73.8301C91.9005 73.8633 103.448 85.4109 103.461 99.713C103.468 113.995 91.8542 125.603 77.5587 125.589C63.2036 125.583 51.742 114.101 51.7155 99.7064Z" fill="url(#paint4_linear_3426_41)"/>
<defs>
<linearGradient id="paint0_linear_3426_41" x1="28.951" y1="173.398" x2="157.667" y2="26.7849" gradientUnits="userSpaceOnUse">
<stop stop-color="#008A30"/>
<stop offset="1" stop-color="#04CC3A"/>
</linearGradient>
<linearGradient id="paint1_linear_3426_41" x1="148.073" y1="46.5754" x2="184.686" y2="-9.08375" gradientUnits="userSpaceOnUse">
<stop stop-color="#008A30"/>
<stop offset="1" stop-color="#04CC3A"/>
</linearGradient>
<linearGradient id="paint2_linear_3426_41" x1="147.941" y1="198.106" x2="184.597" y2="142.314" gradientUnits="userSpaceOnUse">
<stop stop-color="#008A30"/>
<stop offset="1" stop-color="#04CC3A"/>
</linearGradient>
<linearGradient id="paint3_linear_3426_41" x1="167.445" y1="110.729" x2="183.216" y2="80.0183" gradientUnits="userSpaceOnUse">
<stop stop-color="#008A30"/>
<stop offset="1" stop-color="#04CC3A"/>
</linearGradient>
<linearGradient id="paint4_linear_3426_41" x1="61.1996" y1="124.537" x2="104.578" y2="75.132" gradientUnits="userSpaceOnUse">
<stop stop-color="#008A30"/>
<stop offset="1" stop-color="#04CC3A"/>
</linearGradient>
</defs>
</svg>
