<svg width="108" height="153" viewBox="0 0 108 153" fill="none" xmlns="http://www.w3.org/2000/svg">
<path d="M106.696 31.2496C106.714 22.9798 102.242 15.3401 95.0167 11.3174L80.005 2.944C72.7969 -1.07006 64.2509 -0.975105 57.1378 3.20297C50.0247 7.38105 45.7776 14.8049 45.7776 23.0575L45.7948 69.0249L15.2707 52.2177L15.2448 20.0102L15.2707 13.7345C15.2707 11.7404 13.1212 10.4801 11.3775 11.4555L1.36392 17.0493C0.535208 17.5068 0.0258972 18.3873 0.0258972 19.3283V20.0189H0L0.0345296 61.1781L0.0258972 81.3088C0.0258972 82.2584 0.535208 83.1302 1.36392 83.5878L11.3775 89.1815C13.1212 90.157 15.2707 88.8967 15.2707 86.9026V69.6119L45.7948 86.4192L45.8121 105.704C45.8121 107.146 46.9257 108.32 48.3673 108.32H58.3808C59.8225 108.32 61.0483 107.154 61.0483 105.704L61.0396 86.4019L93.8168 68.2566C101.776 63.8455 106.714 55.4548 106.705 46.3563L106.696 31.2496ZM86.4361 54.9369L61.031 68.9904L61.0224 23.0488C61.0224 19.0348 63.707 17.0234 64.8551 16.3415C66.0119 15.6595 69.0677 14.2956 72.5811 16.2551L87.5928 24.6286C89.9754 25.9579 91.4602 28.4786 91.4515 31.2237L91.4429 38.4576V38.5526V38.6907L91.4602 46.3908C91.4688 49.9387 89.5438 53.2104 86.4361 54.9369Z" fill="url(#paint0_linear_3426_223)"/>
<path d="M6.7595 152.628H0.20752V130.9H6.7595V138.756H13.0611V130.9H19.6131V152.628H13.0611V144.496H6.7595V152.628Z" fill="white"/>
<path d="M36.2819 152.628H29.4019L37.6458 130.9H44.7502L52.9942 152.628H46.0278L44.8884 149.52H37.3695L36.2819 152.628ZM41.1678 138.169L39.0011 144.445H43.3345L41.1678 138.169Z" fill="white"/>
<path d="M65.8308 144.583L58.312 130.9H65.5287L69.1888 138.255L72.7972 130.9H79.9879L72.4087 144.496V152.628H65.8308V144.583Z" fill="white"/>
<path d="M104.815 143.643C103.148 144.895 100.956 145.533 98.2367 145.533H96.7087V152.638H90.1309V130.91H98.4093C101.077 130.91 103.209 131.523 104.849 132.74C106.489 133.957 107.318 135.762 107.318 138.127C107.318 140.535 106.481 142.365 104.815 143.643ZM98.2367 136.262H96.7087V140.483H98.2108C99.9027 140.483 100.818 139.568 100.818 138.377C100.818 137.039 99.9286 136.262 98.2367 136.262Z" fill="white"/>
<defs>
<linearGradient id="paint0_linear_3426_223" x1="0" y1="54.1634" x2="106.703" y2="54.1634" gradientUnits="userSpaceOnUse">
<stop stop-color="#008C1E"/>
<stop offset="1" stop-color="#04CB3A"/>
</linearGradient>
</defs>
</svg>
