<svg width="56" height="33" viewBox="0 0 56 33" fill="none" xmlns="http://www.w3.org/2000/svg">
<path d="M1.20535 27.8199L1.02827 27.5219L0.746745 27.6892L0.897735 27.9797L1.20535 27.8199ZM5.21128 25.4396L5.51686 25.2759L5.34574 24.9564L5.0342 25.1415L5.21128 25.4396ZM6.22728 22.5948L6.09635 22.9158L6.30592 23.0012L6.46849 22.8438L6.22728 22.5948ZM1.81495 20.795L1.4718 20.7457L1.43332 21.0137L1.68402 21.116L1.81495 20.795ZM3.46957 9.2707V8.92403H3.16913L3.12643 9.22143L3.46957 9.2707ZM16.8517 9.2707H17.1984V8.92403H16.8517V9.2707ZM16.8517 13.5379V13.8846H17.1984V13.5379H16.8517ZM7.21425 13.5379V13.1912H6.91334L6.87103 13.4891L7.21425 13.5379ZM6.48854 18.6469L6.14532 18.5981L6.02082 19.4746L6.70738 18.9158L6.48854 18.6469ZM15.7776 19.0533L15.5407 19.3064L15.5463 19.3115L15.7776 19.0533ZM17.521 24.3945C17.521 26.7172 16.7418 28.5344 15.2277 29.8833L15.6889 30.401C17.368 28.9051 18.2144 26.8906 18.2144 24.3945H17.521ZM15.2277 29.8833C13.7051 31.2399 11.7598 31.9146 9.39138 31.9146V32.6079C11.8998 32.6079 14.0185 31.8892 15.6889 30.401L15.2277 29.8833ZM9.39138 31.9146C7.47486 31.9146 5.87303 31.5526 4.57106 30.8462C3.27216 30.1415 2.25282 29.0839 1.51297 27.6601L0.897735 27.9797C1.69639 29.5168 2.81064 30.6799 4.24042 31.4556C5.66713 32.2297 7.38906 32.6079 9.39138 32.6079V31.9146ZM1.38244 28.1179L5.38837 25.7376L5.0342 25.1415L1.02827 27.5219L1.38244 28.1179ZM4.9057 25.6033C5.36795 26.4661 5.98483 27.127 6.76351 27.5697C7.54074 28.0116 8.45885 28.2246 9.5075 28.2246V27.5313C8.55319 27.5313 7.75861 27.3379 7.10618 26.967C6.45521 26.5969 5.92547 26.0386 5.51686 25.2759L4.9057 25.6033ZM9.5075 28.2246C10.6355 28.2246 11.6311 27.8841 12.3489 27.2352C13.0706 26.5828 13.4827 25.6442 13.4827 24.5107H12.7894C12.7894 25.4672 12.4467 26.2122 11.884 26.7209C11.3173 27.2332 10.4986 27.5313 9.5075 27.5313V28.2246ZM13.4827 24.5107C13.4827 23.4463 13.0825 22.5348 12.3436 21.8938C11.6094 21.257 10.5712 20.9128 9.33333 20.9128V21.6061C10.4467 21.6061 11.3099 21.915 11.8893 22.4176C12.4639 22.916 12.7894 23.6301 12.7894 24.5107H13.4827ZM9.33333 20.9128C8.10219 20.9128 6.9729 21.3898 5.98607 22.3458L6.46849 22.8438C7.33949 22 8.30024 21.6061 9.33333 21.6061V20.9128ZM6.35821 22.2738L1.94588 20.474L1.68402 21.116L6.09635 22.9158L6.35821 22.2738ZM2.1581 20.8443L3.81272 9.31997L3.12643 9.22143L1.4718 20.7457L2.1581 20.8443ZM3.46957 9.61737H16.8517V8.92403H3.46957V9.61737ZM16.505 9.2707V13.5379H17.1984V9.2707H16.505ZM16.8517 13.1912H7.21425V13.8846H16.8517V13.1912ZM6.87103 13.4891L6.14532 18.5981L6.83176 18.6957L7.55747 13.5866L6.87103 13.4891ZM6.70738 18.9158C7.89769 17.9469 9.18574 17.4841 10.5816 17.4841V16.7908C9.01646 16.7908 7.57583 17.3149 6.2697 18.378L6.70738 18.9158ZM10.5816 17.4841C12.5956 17.4841 14.2489 18.097 15.5407 19.3064L16.0146 18.8002C14.5778 17.4551 12.7476 16.7908 10.5816 16.7908V17.4841ZM15.5463 19.3115C16.8492 20.4786 17.521 22.1742 17.521 24.3945H18.2144C18.2144 22.0284 17.4929 20.1244 16.009 18.7951L15.5463 19.3115ZM27.2201 25.7589L27.4754 25.5244L27.4754 25.5244L27.2201 25.7589ZM38.1058 24.0462L38.4418 24.1313L38.5511 23.6995H38.1058V24.0462ZM31.197 24.0462H30.8503V24.3929H31.197V24.0462ZM31.197 19.779V19.4323H30.8503V19.779H31.197ZM43.0116 19.779H43.3582V19.4323H43.0116V19.779ZM41.444 27.4716L41.1495 27.2887L41.1491 27.2894L41.444 27.4716ZM23.7367 28.981L23.4868 29.2213L23.4899 29.2246L23.7367 28.981ZM23.9108 12.3187L23.6688 12.0705L23.6673 12.072L23.9108 12.3187ZM38.9186 10.8963L39.1244 10.6173L39.1244 10.6173L38.9186 10.8963ZM42.4891 15.3377L42.6415 15.649L42.9225 15.5114L42.8144 15.2178L42.4891 15.3377ZM38.338 17.3696L38.0167 17.4999L38.1564 17.8445L38.4904 17.681L38.338 17.3696ZM36.1899 14.5829L35.9694 14.8507L35.9781 14.8574L36.1899 14.5829ZM27.2781 15.4538L27.0304 15.2112L27.0304 15.2112L27.2781 15.4538ZM24.8995 20.6208C24.8995 22.7089 25.5986 24.5058 26.9648 25.9934L27.4754 25.5244C26.229 24.1672 25.5928 22.5387 25.5928 20.6208H24.8995ZM26.9648 25.9934C28.3422 27.4932 30.1214 28.2246 32.242 28.2246V27.5313C30.2986 27.5313 28.7105 26.8693 27.4754 25.5244L26.9648 25.9934ZM32.242 28.2246C35.372 28.2246 37.8117 26.6202 38.4418 24.1313L37.7697 23.9611C37.2387 26.0587 35.1499 27.5313 32.242 27.5313V28.2246ZM38.1058 23.6995H31.197V24.3929H38.1058V23.6995ZM31.5437 24.0462V19.779H30.8503V24.0462H31.5437ZM31.197 20.1257H43.0116V19.4323H31.197V20.1257ZM42.6649 19.779V21.5497H43.3582V19.779H42.6649ZM42.6649 21.5497C42.6649 23.7588 42.1558 25.6675 41.1495 27.2887L41.7386 27.6544C42.8223 25.9083 43.3582 23.8692 43.3582 21.5497H42.6649ZM41.1491 27.2894C39.1609 30.5098 35.9442 32.0017 32.242 32.0017V32.695C36.1453 32.695 39.6052 31.1099 41.739 27.6537L41.1491 27.2894ZM32.242 32.0017C28.8709 32.0017 26.118 30.9002 23.9834 28.7375L23.4899 29.2246C25.7676 31.5322 28.7044 32.695 32.242 32.695V32.0017ZM23.9866 28.7408C21.874 26.5437 20.8031 23.8442 20.8031 20.6499H20.1098C20.1098 24.016 21.245 26.8899 23.4868 29.2213L23.9866 28.7408ZM20.8031 20.6499C20.8031 17.4612 21.928 14.7636 24.1544 12.5654L23.6673 12.072C21.3072 14.4022 20.1098 17.2781 20.1098 20.6499H20.8031ZM24.1528 12.5669C26.4099 10.3663 29.1096 9.26903 32.3001 9.26903V8.57569C28.9301 8.57569 26.0563 9.74265 23.6688 12.0705L24.1528 12.5669ZM32.3001 9.26903C34.8812 9.26903 37.0117 9.92042 38.7128 11.1753L39.1244 10.6173C37.2839 9.25961 35.0021 8.57569 32.3001 8.57569V9.26903ZM38.7128 11.1753C40.4425 12.4513 41.5828 13.8806 42.1638 15.4575L42.8144 15.2178C42.1761 13.4855 40.9361 11.9538 39.1244 10.6173L38.7128 11.1753ZM42.3367 15.0263L38.1856 17.0583L38.4904 17.681L42.6415 15.649L42.3367 15.0263ZM38.6593 17.2394C38.2 16.1067 37.4647 15.1285 36.4016 14.3084L35.9781 14.8574C36.947 15.6048 37.6051 16.4845 38.0167 17.4999L38.6593 17.2394ZM36.4103 14.3153C35.3454 13.4384 33.9539 13.017 32.242 13.017V13.7104C33.8394 13.7104 35.0604 14.1018 35.9695 14.8505L36.4103 14.3153ZM32.242 13.017C30.2036 13.017 28.4598 13.7515 27.0304 15.2112L27.5258 15.6963C28.8252 14.3693 30.3906 13.7104 32.242 13.7104V13.017ZM27.0304 15.2112C25.598 16.6741 24.8995 18.476 24.8995 20.6208H25.5928C25.5928 18.6436 26.2296 17.0201 27.5258 15.6963L27.0304 15.2112Z" fill="#04CB3A"/>
<path d="M52.3038 4.08213C54.6003 6.70955 55.6653 9.89011 55.4656 13.5547C55.4324 14.3498 54.8666 14.8684 54.1343 14.8338C53.4354 14.7992 52.9029 14.2115 52.9362 13.4164C53.0027 11.8952 52.8363 10.4087 52.3371 8.99125C50.9725 5.29212 47.6109 2.803 43.8167 2.66471C43.4173 2.66471 43.0512 2.66472 42.6518 2.63015C41.9529 2.561 41.4536 1.97329 41.4869 1.24729C41.5202 0.555865 42.0194 0.00272304 42.7184 0.00272304C46.4127 -0.0664195 49.6412 1.17815 52.3038 4.08213Z" fill="#04CB3A"/>
<path d="M49.1083 7.50562C50.4729 9.02675 51.0387 11.1356 50.839 13.521C50.7725 14.3161 50.1401 14.8693 49.4079 14.8347C48.6757 14.8001 48.1432 14.2124 48.1099 13.4519C48.1099 13.1062 48.1099 12.7259 48.1099 12.3802C48.0433 9.9256 46.2793 8.02418 43.9162 7.85132C43.4503 7.81675 43.0177 7.85132 42.5517 7.78218C41.8528 7.67846 41.3535 7.05618 41.3535 6.36476C41.3535 5.63876 41.8528 4.98191 42.5517 4.94734C44.9813 4.77448 47.1447 5.3622 49.1083 7.50562Z" fill="#04CB3A"/>
<path d="M19.2007 23.0615C19.2007 25.4709 18.3879 27.3868 16.7913 28.8092C15.1948 30.2316 13.1628 30.9282 10.7244 30.9282C6.80555 30.9282 4.07687 29.4478 2.53836 26.4869L6.54429 24.1066C7.41515 25.7322 8.83754 26.5449 10.8405 26.5449C12.9596 26.5449 14.4691 25.2677 14.4691 23.1776C14.4691 21.2327 13.0176 19.9265 10.6663 19.9265C9.53422 19.9265 8.4892 20.3619 7.56029 21.2618L3.14796 19.462L4.80258 7.93769H18.1847V12.2049H8.54726L7.82154 17.3139C9.06977 16.2979 10.4341 15.8044 11.9146 15.8044C14.0046 15.8044 15.7463 16.443 17.1107 17.7203C18.504 18.9685 19.2007 20.7683 19.2007 23.0615ZM26.5792 19.2878C26.5792 21.2908 27.2468 23.0035 28.5531 24.4259C29.8594 25.8483 31.543 26.5449 33.575 26.5449C36.594 26.5449 38.8582 25.0064 39.4388 22.7132H32.53V18.446H44.3446V20.2167C44.3446 22.481 43.8221 24.4549 42.777 26.1385C40.716 29.4768 37.3778 31.0153 33.575 31.0153C30.1206 31.0153 27.2758 29.8832 25.0697 27.648C22.8925 25.3838 21.7895 22.5971 21.7895 19.3169C21.7895 16.0366 22.9506 13.2499 25.2438 10.9857C27.5661 8.72146 30.3529 7.58935 33.6331 7.58935C36.2747 7.58935 38.4808 8.25701 40.2516 9.56329C42.0223 10.8696 43.2125 12.35 43.8221 14.0046L39.671 16.0366C39.2356 14.9626 38.5389 14.0337 37.5229 13.2499C36.5359 12.4371 35.2296 12.0307 33.575 12.0307C31.6301 12.0307 29.9755 12.7274 28.6112 14.1208C27.2468 15.5141 26.5792 17.2268 26.5792 19.2878Z" fill="white"/>
</svg>
