<svg width="29" height="29" viewBox="0 0 29 29" fill="none" xmlns="http://www.w3.org/2000/svg">
<circle cx="14.0274" cy="14.0274" r="14.0274" fill="white" fill-opacity="0.25"/>
<path d="M17.5224 17.3341C17.5207 16.7815 17.5224 16.2278 17.5224 15.6751H17.5152C17.5152 14.7069 17.4986 13.7376 17.519 12.7699C17.5395 11.7984 17.1013 11.3087 16.1176 11.3132C14.7338 11.3192 13.3505 11.3358 11.9673 11.3109C11.0267 11.2944 10.5895 11.7934 10.5746 12.6516C10.5409 14.5417 10.5509 16.4328 10.5641 18.3233C10.5713 19.3396 11.0742 19.8282 12.1303 19.7757C13.0963 19.7281 14.0662 19.7663 15.0344 19.7663C17.5301 19.7646 17.5301 19.7646 17.5224 17.3341ZM16.4094 12.1637C16.8155 12.2289 16.7288 12.6677 16.742 12.9694C16.7536 13.2385 16.731 13.5795 16.3541 13.564C15.8407 13.5436 16.0938 13.0932 16.0026 12.8196C16.0667 12.5571 15.8877 12.0786 16.4094 12.1637ZM14.9034 12.0714C15.3544 12.1217 15.2472 12.5455 15.2411 12.8395C15.235 13.1755 15.335 13.6541 14.7492 13.5928C14.2585 13.5414 14.4928 13.1015 14.3983 12.8943C14.458 12.4975 14.3232 12.0062 14.9034 12.0714ZM13.3024 12.1051C13.7683 12.1255 13.6125 12.5726 13.6644 12.8639C13.6213 13.1534 13.7788 13.6066 13.2798 13.5768C12.8399 13.5497 12.9432 13.1114 12.9084 12.8141C12.8714 12.4886 12.8443 12.0863 13.3024 12.1051ZM11.7948 18.939C11.3113 18.9744 11.3522 18.5693 11.3588 18.2543C11.3643 17.9575 11.2383 17.5767 11.7037 17.4994C12.2148 17.5027 12.1668 17.8796 12.1668 18.1879C12.1662 18.4886 12.2624 18.9053 11.7948 18.939ZM13.6406 18.4311C13.6738 18.7118 13.6114 18.992 13.1941 18.9959C12.7393 18.8168 12.9101 18.4035 12.9056 18.0669C12.9018 17.7967 12.9161 17.4485 13.3151 17.5275C13.8562 17.6342 13.6025 18.1106 13.6406 18.4311ZM14.8736 19.0235C14.5005 19.1109 14.4116 18.8113 14.4304 18.5162C14.4541 18.1454 14.2524 17.6817 14.6724 17.5077C15.1853 17.4507 15.2687 17.7049 15.2466 18.0028C15.219 18.3753 15.4643 18.8854 14.8736 19.0235ZM15.2919 16.6853C14.878 16.682 14.4646 16.6853 14.0507 16.6859C11.3671 16.6881 11.3671 16.6881 11.3555 13.9481C11.3549 13.7647 11.3163 13.5712 11.3605 13.3983C11.4693 12.9738 11.0405 12.1918 11.8042 12.2128C12.4083 12.2289 12.1458 12.9484 12.1314 13.3601C12.1043 14.1205 12.3867 14.4604 13.1737 14.4079C13.8595 14.3621 14.5519 14.4063 15.2405 14.388C16.0866 14.3654 16.8139 14.2515 16.799 15.5834C16.7857 16.8716 16.0617 16.692 15.2919 16.6853ZM16.815 18.1272C16.7857 18.4786 16.8393 18.9434 16.3806 19.0158C15.8694 19.0965 15.9976 18.6522 15.9838 18.3399C16.0888 18.0542 15.7782 17.5552 16.3563 17.4889C16.8222 17.4353 16.8432 17.7928 16.815 18.1272Z" fill="white"/>
<path d="M19.1283 10.6818C19.1455 9.68599 18.8177 8.96203 18.1568 8.21377C17.1261 7.0477 15.9844 6.47075 14.4055 6.6266C13.2599 6.73933 12.0944 6.66528 10.9372 6.64538C9.66664 6.62383 9.05322 7.23892 9.05267 8.49451C9.05267 10.2989 9.05267 12.1032 9.05211 13.9076C9.05046 15.6655 9.03775 17.424 9.05433 19.1814C9.0709 20.899 9.49699 21.3328 11.1693 21.3427C13.0659 21.3555 14.9631 21.3532 16.8598 21.3411C18.6829 21.3295 19.1079 20.8852 19.1117 19.0095C19.1167 16.2336 19.0808 13.4572 19.1283 10.6818ZM16.8708 20.5713C15.0289 20.4884 13.1764 20.4823 11.3351 20.5718C10.0756 20.6326 9.72578 20.0932 9.76115 18.9498C9.81254 17.2897 9.77441 15.6274 9.77441 13.9667H9.78878C9.78878 12.3519 9.84294 10.7343 9.77054 9.1223C9.71528 7.90319 10.0734 7.30689 11.4014 7.43566C12.3613 7.5285 13.3373 7.45444 14.3066 7.45279C17.1073 7.44892 18.3143 8.64648 18.3077 11.4052C18.3027 13.9429 18.2701 16.4823 18.3336 19.0183C18.3618 20.1203 18.0778 20.626 16.8708 20.5713Z" fill="white"/>
<path d="M17.5224 17.3341C17.5207 16.7815 17.5224 16.2278 17.5224 15.6751H17.5152C17.5152 14.7069 17.4986 13.7376 17.519 12.7699C17.5395 11.7984 17.1013 11.3087 16.1176 11.3132C14.7338 11.3192 13.3505 11.3358 11.9673 11.3109C11.0267 11.2944 10.5895 11.7934 10.5746 12.6516C10.5409 14.5417 10.5509 16.4328 10.5641 18.3233C10.5713 19.3396 11.0742 19.8282 12.1303 19.7757C13.0963 19.7281 14.0662 19.7663 15.0344 19.7663C17.5301 19.7646 17.5301 19.7646 17.5224 17.3341ZM16.4094 12.1637C16.8155 12.2289 16.7288 12.6677 16.742 12.9694C16.7536 13.2385 16.731 13.5795 16.3541 13.564C15.8407 13.5436 16.0938 13.0932 16.0026 12.8196C16.0667 12.5571 15.8877 12.0786 16.4094 12.1637ZM14.9034 12.0714C15.3544 12.1217 15.2472 12.5455 15.2411 12.8395C15.235 13.1755 15.335 13.6541 14.7492 13.5928C14.2585 13.5414 14.4928 13.1015 14.3983 12.8943C14.458 12.4975 14.3232 12.0062 14.9034 12.0714ZM13.3024 12.1051C13.7683 12.1255 13.6125 12.5726 13.6644 12.8639C13.6213 13.1534 13.7788 13.6066 13.2798 13.5768C12.8399 13.5497 12.9432 13.1114 12.9084 12.8141C12.8714 12.4886 12.8443 12.0863 13.3024 12.1051ZM11.7948 18.939C11.3113 18.9744 11.3522 18.5693 11.3588 18.2543C11.3643 17.9575 11.2383 17.5767 11.7037 17.4994C12.2148 17.5027 12.1668 17.8796 12.1668 18.1879C12.1662 18.4886 12.2624 18.9053 11.7948 18.939ZM13.6406 18.4311C13.6738 18.7118 13.6114 18.992 13.1941 18.9959C12.7393 18.8168 12.9101 18.4035 12.9056 18.0669C12.9018 17.7967 12.9161 17.4485 13.3151 17.5275C13.8562 17.6342 13.6025 18.1106 13.6406 18.4311ZM14.8736 19.0235C14.5005 19.1109 14.4116 18.8113 14.4304 18.5162C14.4541 18.1454 14.2524 17.6817 14.6724 17.5077C15.1853 17.4507 15.2687 17.7049 15.2466 18.0028C15.219 18.3753 15.4643 18.8854 14.8736 19.0235ZM15.2919 16.6853C14.878 16.682 14.4646 16.6853 14.0507 16.6859C11.3671 16.6881 11.3671 16.6881 11.3555 13.9481C11.3549 13.7647 11.3163 13.5712 11.3605 13.3983C11.4693 12.9738 11.0405 12.1918 11.8042 12.2128C12.4083 12.2289 12.1458 12.9484 12.1314 13.3601C12.1043 14.1205 12.3867 14.4604 13.1737 14.4079C13.8595 14.3621 14.5519 14.4063 15.2405 14.388C16.0866 14.3654 16.8139 14.2515 16.799 15.5834C16.7857 16.8716 16.0617 16.692 15.2919 16.6853ZM16.815 18.1272C16.7857 18.4786 16.8393 18.9434 16.3806 19.0158C15.8694 19.0965 15.9976 18.6522 15.9838 18.3399C16.0888 18.0542 15.7782 17.5552 16.3563 17.4889C16.8222 17.4353 16.8432 17.7928 16.815 18.1272Z" fill="white"/>
</svg>
