<svg width="288" height="251" viewBox="0 0 288 251" fill="none" xmlns="http://www.w3.org/2000/svg">
<g opacity="0.55">
<path d="M157.656 47.6941C159.239 48.9919 159.239 48.9919 162.715 47.6572C162.293 49.224 161.929 50.6009 161.56 51.9725C161.681 51.9936 161.797 52.02 161.919 52.0411C163.264 50.4215 164.578 48.7756 165.96 47.1877C166.45 46.6232 167.11 46.2117 167.669 45.7053C168.276 45.1514 169.093 44.6766 169.41 43.9802C170.808 40.9468 173.055 39.5488 176.226 40.6303C179.576 41.7751 182.741 43.4685 185.975 44.9509C186.94 45.394 187.858 45.9427 189.151 46.6285C193.482 44.8243 192.326 50.6695 194.658 51.4766C193.793 53.3125 192.996 55.0006 192.205 56.6835C192.522 56.8418 192.833 57.0053 193.149 57.1636C193.877 55.755 194.6 54.3412 195.492 52.6161C195.676 53.3494 195.798 53.8084 195.93 54.3254C199.749 52.5897 203.22 51.9778 207.172 54.8107C209.303 56.3406 212.89 56.7943 215.602 56.3722C222.492 55.2961 227.166 58.8517 231.866 62.8083C234.214 64.7866 236.582 66.8704 238.703 68.9437C241.647 71.8293 244.722 72.2303 248.236 72.2461C250.267 72.2567 251.274 73.0796 251.649 75.0737C252.05 77.2156 252.435 79.4207 253.279 81.399C255.405 86.3791 253.364 91.0848 252.419 95.7799C252.045 97.6422 250.383 99.4411 248.906 100.855C245.957 103.683 242.623 106.115 239.663 108.932C238.297 110.235 237.463 112.081 236.334 113.643C234.166 116.639 231.956 119.609 229.455 123.017C228.743 121.635 228.379 120.923 227.693 119.588C226.875 121.682 225.931 123.26 225.667 124.943C225.203 127.902 224.829 130.951 225.013 133.927C225.324 138.991 224.027 143.686 223.024 148.556C222.465 151.283 221.885 153.267 219.917 155.25C218.915 156.263 219.221 158.516 218.767 160.162C218.35 161.665 217.812 163.158 217.132 164.556C216.504 165.843 215.639 167.025 214.832 168.217C213.286 170.486 211.698 172.733 210.131 174.991C210.084 175.06 209.999 175.149 210.01 175.218C210.548 178.884 208.258 180.177 205.288 181.037C204.745 181.195 203.985 182.065 204.027 182.54C204.275 185.32 202.434 185.067 200.762 184.867C194.758 184.144 189.198 185.837 183.564 187.816C183.706 188.433 183.833 188.966 183.96 189.504C183.659 189.578 183.443 189.709 183.342 189.646C180.298 187.879 177.893 189.124 175.45 191.065C173.873 192.321 171.91 193.08 170.238 194.231C169.278 194.89 168.582 195.919 167.727 196.742C167.046 197.401 166.313 198.008 165.121 198.367C164.33 202.603 161.76 206.987 164.324 211.666C164.472 211.935 164.483 212.426 164.335 212.689C162.874 215.248 162.731 218.366 159.835 220.386C157.609 221.937 155.905 224.596 154.66 227.107C152.497 231.475 148.303 237.32 144.768 239.42C147.142 236.487 149.189 234.007 151.157 231.47C151.6 230.9 151.769 230.114 152.064 229.423C151.399 229.307 150.708 229.26 150.07 229.054C149.215 228.774 148.398 228.363 147.216 227.862C148.524 231.57 146.646 233.353 144.188 235.369C142.943 236.387 141.366 238.597 142.843 240.834C141.988 242.053 141.154 243.24 140.326 244.421C140.184 243.72 140.015 242.902 139.83 242C137.266 244.047 137.182 244.616 138.992 246.806C137.921 248.135 136.844 249.475 135.61 251C134.692 248.948 132.941 247.212 135.842 245.492C136.196 245.281 136.174 243.841 135.847 243.229C135.283 242.169 134.476 241.119 133.521 240.396C131.205 238.634 128.752 237.057 126.341 235.427C125.85 235.094 125.318 234.825 124.79 234.556C124.004 234.16 123.202 233.786 122.268 233.659C119.219 229.064 115.948 227.313 112.614 228.948C113.084 227.988 113.4 226.907 114.049 226.089C116.297 223.246 118.433 220.26 121.034 217.77C123.835 215.09 126.784 212.093 130.261 210.716C134.74 208.944 135.816 203.441 132.656 199.67C132.329 199.279 131.595 199.126 131.026 199.058C128.293 198.731 128.393 198.678 129.438 196.035C130.129 194.289 130.472 192.31 130.514 190.427C130.561 188.211 129.485 187.668 127.454 188.449C125.006 189.393 124.326 189.008 124.015 186.497C123.809 184.861 123.651 183.215 123.413 181.585C123.023 178.889 119.161 176.932 116.581 177.386C114.355 177.782 111.944 177.27 109.644 176.948C109.264 176.895 108.668 175.65 108.805 175.123C109.66 171.863 109.449 168.882 108.098 165.674C107.37 163.949 107.93 161.523 108.368 159.518C108.848 157.334 109.919 155.287 110.636 153.151C111.274 151.257 109.855 148.134 108.056 147.247C105.635 146.055 104.727 143.855 105.577 141.291C105.677 140.991 105.688 140.653 105.788 140.052C102.079 140.052 98.5393 140.052 95.3002 140.052C94.5036 137.53 93.7387 135.103 93.1425 133.215C93.3008 131.584 93.8073 130.229 93.4644 129.142C92.7363 126.826 93.1689 123.582 89.7082 122.98C88.2206 122.722 86.659 122.875 85.1344 122.796C84.5541 122.764 83.9158 122.716 83.4252 122.458C80.0172 120.654 76.6462 118.781 73.2488 116.966C72.8004 116.729 72.2412 116.571 71.7347 116.586C66.8549 116.718 64.2383 113.289 61.4581 110.113C61.2946 109.929 61.0783 109.538 61.1522 109.443C62.9986 106.98 60.9517 104.416 61.379 101.905C61.743 99.7787 60.5349 98.4493 58.525 99.1087C56.0244 99.9317 53.6821 101.293 51.3345 102.538C49.256 103.64 47.2619 104.912 45.2256 106.099C44.9301 106.273 44.4184 106.268 44.2865 106.505C42.5667 109.512 40.0029 108.758 37.3124 108.383C35.5609 108.14 33.6829 108.62 31.8892 108.921C30.0375 109.232 28.8189 108.879 28.6764 106.737C28.534 104.495 28.3283 102.258 28.1172 99.6152C27.4156 100.095 26.5821 100.364 26.2761 100.918C24.8095 103.603 22.3301 103.081 20.0089 103.034C19.5446 103.023 18.8008 102.775 18.6689 102.443C17.6824 99.9897 15.625 99.4991 13.098 99.4675C14.1637 95.59 10.1332 94.556 9.09922 91.8075C8.6297 90.5519 7.55351 89.5338 6.86242 88.3468C6.37181 87.5027 7.78563 82.9184 8.69301 82.4277C10.2756 81.5626 10.6344 80.5919 10.7768 78.5819C10.9615 76.0339 12.6918 73.4331 14.227 71.1805C16.4532 67.9097 20.4678 67.6881 23.7439 66.153C26.0967 65.0504 27.9906 64.5967 30.6125 65.7309C30.9396 64.6178 31.33 63.684 31.4777 62.7081C32.306 57.1477 33.3294 51.6032 33.7198 46.0112C33.8411 44.2492 32.517 42.1338 31.3195 40.6039C30.1166 39.0635 28.6712 35.5078 29.9478 34.4949C31.2667 33.4451 33.2397 33.2183 35.0439 32.5852C34.7749 30.6966 34.1524 30.3431 30.7814 30.7599C30.1219 26.8983 30.3804 26.5554 34.0574 26.4921C35.466 26.4657 36.8956 26.6187 38.2672 26.4076C39.5861 26.2072 40.8522 25.6374 42.6089 25.0835C42.6089 25.0835 43.0415 25.5741 43.6376 26.2441C44.4923 25.2681 45.3363 24.3133 46.613 22.8573C47.4835 25.1363 48.2115 27.0354 49.0239 29.1562C50.1001 29.7945 51.4928 31.0923 53.0807 31.4193C54.5526 31.7253 56.2407 30.992 58.0607 30.6808C58.1979 31.0659 58.4459 31.7622 58.7466 32.6221C59.1369 32.3531 59.6487 32.1948 59.7753 31.8783C60.9992 28.8766 63.7688 28.3754 66.4118 27.5682C66.9974 27.3889 67.8204 26.6081 67.8098 26.128C67.7623 24.3819 68.0103 23.3426 70.1627 23.5483C70.7799 23.6064 71.4921 22.6621 72.1093 22.2137C71.988 21.8919 71.9616 21.7389 71.9247 21.7389C67.4985 21.3749 68.1052 17.4341 66.9288 14.7489C66.6017 13.9998 66.1428 13.2718 65.6047 12.6651C65.0613 12.0531 64.3333 11.6047 63.8743 10.4547C64.9188 10.4547 66.6228 10.0748 66.8813 10.5232C67.7887 12.0953 69.2342 11.7577 70.2734 11.5889C72.5366 11.2143 74.1403 12.0795 75.7494 14.2319C76.2822 10.4336 78.0758 9.23075 81.2042 9.84798C81.8953 9.98514 82.7974 9.64751 83.4463 9.2624C85.3771 8.11763 87.234 6.84625 89.1121 5.61706C90.5998 4.6411 90.5945 4.63055 89.8401 2.86855C94.9098 2.50982 95.0575 2.65226 93.9128 5.75423C94.9784 7.51095 95.9174 8.75069 96.4872 10.1434C96.7615 10.8134 96.4714 11.8157 96.2023 12.5859C95.6115 14.2794 94.5775 15.8726 94.2979 17.6029C94.1238 18.6896 94.9573 19.9505 95.3899 21.1164C95.5534 21.5595 96.0177 21.9235 96.081 22.3561C96.7035 26.6978 100.354 28.5495 104.094 26.529C105.376 25.8379 106.911 25.6163 108.325 25.1626C108.974 24.9569 109.797 24.8936 110.23 24.4557C111.385 23.2793 112.198 22.9628 114.028 23.7119C115.7 24.3977 117.985 23.6064 120.158 23.4534C119.916 22.5671 119.583 21.3801 119.304 20.3567C121.635 20.1035 123.582 19.6762 125.502 19.7606C126.784 19.8186 128.161 20.4147 129.269 21.1164C130.72 22.0396 131.833 22.5091 133.563 21.5015C134.645 20.8684 136.707 20.5624 137.567 21.1744C140.379 23.1843 141.186 20.8631 142.183 19.3333C143.666 17.0648 144.763 14.5484 146.229 12.2641C147.058 10.9717 148.292 9.93239 149.717 8.3814C150.471 9.53673 151.479 10.5443 151.853 11.7524C152.66 14.3796 153.151 17.107 153.758 19.7975C153.969 20.726 154.137 21.665 154.37 22.7887C155.082 22.6462 155.688 22.5249 156.569 22.3455C156.295 23.2107 156.105 23.8121 155.921 24.4082C159.418 25.5425 159.186 26.0436 158.611 29.6943C158.126 32.7698 156.279 34.4685 154.322 36.1672C152.85 37.4439 150.872 38.1297 149.01 39.1426C153.056 41.2317 148.72 42.635 148.73 44.3917C151.167 44.4655 154.09 42.0758 154.464 39.7124C154.876 37.1432 155.678 36.4943 157.994 37.3067C159.956 37.9978 161.65 38.4251 163.781 37.465C164.994 36.9216 166.825 37.6444 168.339 37.9767C168.634 38.04 169.041 39.0529 168.888 39.4275C168.123 41.3319 167.326 43.2469 166.25 44.9825C165.854 45.6209 164.709 45.8846 163.85 46.1326C161.803 46.734 159.724 47.2299 157.661 47.7627C156.306 46.8289 155.045 46.0957 153.515 47.6836C153.146 48.0687 151.885 47.7944 151.125 47.5517C149.479 47.0241 148.545 47.5464 147.992 49.0552C149.463 49.0552 150.809 49.224 152.096 49.0183C153.995 48.7123 155.815 48.1478 157.656 47.6941Z" fill="url(#paint0_linear_3921_23)"/>
<path d="M156.374 35.2505C158.199 34.591 159.624 34.074 161.074 33.5518C160.879 36.2475 159.344 36.965 156.374 35.2505Z" fill="url(#paint1_linear_3921_23)"/>
</g>
<path d="M92.7107 125.817C92.7107 138.37 88.476 148.352 80.1577 155.763C71.8395 163.174 61.2526 166.804 48.5484 166.804C28.1308 166.804 13.9142 159.09 5.8984 143.664L26.7697 131.262C31.3069 139.731 38.7177 143.966 49.1533 143.966C60.1939 143.966 68.0584 137.312 68.0584 126.422C68.0584 116.289 60.4964 109.483 48.2459 109.483C42.3475 109.483 36.9028 111.752 32.0631 116.44L9.07446 107.063L17.6952 47.0207H87.4173V69.2531H37.2053L33.4243 95.8715C39.9276 90.5781 47.0359 88.007 54.7492 88.007C65.6386 88.007 74.713 91.3343 81.8214 97.9889C89.0809 104.492 92.7107 113.869 92.7107 125.817ZM131.153 106.156C131.153 116.592 134.632 125.515 141.437 132.926C148.243 140.336 157.015 143.966 167.602 143.966C183.331 143.966 195.128 135.95 198.153 124.002H162.158V101.77H223.713V110.996C223.713 122.792 220.99 133.077 215.546 141.849C204.807 159.242 187.415 167.257 167.602 167.257C149.605 167.257 134.783 161.359 123.289 149.713C111.946 137.917 106.198 123.397 106.198 106.307C106.198 89.2169 112.248 74.6978 124.196 62.901C136.295 51.1042 150.814 45.2058 167.905 45.2058C181.668 45.2058 193.162 48.6843 202.388 55.4902C211.613 62.296 217.814 70.0093 220.99 78.6301L199.363 89.2169C197.094 83.621 193.464 78.7813 188.171 74.6978C183.029 70.463 176.223 68.3457 167.602 68.3457C157.469 68.3457 148.848 71.9755 141.74 79.235C134.632 86.4946 131.153 95.4178 131.153 106.156Z" fill="#04CB3A"/>
<path d="M9.22164 136.406L8.93871 135.93L8.48893 136.197L8.73017 136.661L9.22164 136.406ZM30.0929 124.004L30.5811 123.743L30.3077 123.232L29.81 123.528L30.0929 124.004ZM35.3863 109.182L35.1771 109.695L35.512 109.832L35.7717 109.58L35.3863 109.182ZM12.3977 99.8055L11.8495 99.7268L11.788 100.155L12.1885 100.318L12.3977 99.8055ZM21.0184 39.7629V39.209H20.5384L20.4702 39.6842L21.0184 39.7629ZM90.7405 39.7629H91.2944V39.209H90.7405V39.7629ZM90.7405 61.9953V62.5492H91.2944V61.9953H90.7405ZM40.5285 61.9953V61.4414H40.0478L39.9802 61.9174L40.5285 61.9953ZM36.7475 88.6137L36.1991 88.5358L36.0002 89.9361L37.0971 89.0433L36.7475 88.6137ZM85.1446 90.7311L84.766 91.1355L84.7751 91.1436L85.1446 90.7311ZM95.4801 118.559C95.4801 130.974 91.299 140.798 83.1125 148.092L83.8494 148.919C92.2994 141.39 96.5878 131.251 96.5878 118.559H95.4801ZM83.1125 148.092C74.9123 155.397 64.464 158.992 51.8716 158.992V160.1C64.6877 160.1 75.4131 156.435 83.8494 148.919L83.1125 148.092ZM51.8716 158.992C41.7314 158.992 33.1688 157.077 26.1601 153.274C19.1563 149.474 13.674 143.773 9.71311 136.15L8.73017 136.661C12.785 144.465 18.419 150.334 25.6318 154.248C32.8398 158.158 41.5943 160.1 51.8716 160.1V158.992ZM9.50457 136.882L30.3758 124.48L29.81 123.528L8.93871 135.93L9.50457 136.882ZM29.6047 124.266C31.9162 128.58 34.9728 131.838 38.7991 134.014C42.6231 136.188 47.1834 137.262 52.4766 137.262V136.154C47.3341 136.154 42.9712 135.112 39.3466 133.051C35.7243 130.991 32.8069 127.897 30.5811 123.743L29.6047 124.266ZM52.4766 137.262C58.1063 137.262 62.9738 135.565 66.4408 132.431C69.914 129.291 71.9355 124.75 71.9355 119.164H70.8278C70.8278 124.468 68.9172 128.699 65.6979 131.609C62.4725 134.525 57.8875 136.154 52.4766 136.154V137.262ZM71.9355 119.164C71.9355 113.951 69.9854 109.559 66.4323 106.477C62.8868 103.401 57.7938 101.672 51.5691 101.672V102.779C57.5949 102.779 62.4083 104.453 65.7064 107.313C68.997 110.168 70.8278 114.245 70.8278 119.164H71.9355ZM51.5691 101.672C45.5125 101.672 39.9332 104.007 35.001 108.785L35.7717 109.58C40.5189 104.981 45.8289 102.779 51.5691 102.779V101.672ZM35.5955 108.67L12.6069 99.2927L12.1885 100.318L35.1771 109.695L35.5955 108.67ZM12.9459 99.8843L21.5667 39.8416L20.4702 39.6842L11.8495 99.7268L12.9459 99.8843ZM21.0184 40.3167H90.7405V39.209H21.0184V40.3167ZM90.1867 39.7629V61.9953H91.2944V39.7629H90.1867ZM90.7405 61.4414H40.5285V62.5492H90.7405V61.4414ZM39.9802 61.9174L36.1991 88.5358L37.2959 88.6916L41.0769 62.0732L39.9802 61.9174ZM37.0971 89.0433C43.508 83.8251 50.4944 81.303 58.0725 81.303V80.1953C50.224 80.1953 42.9937 82.8154 36.3979 88.1842L37.0971 89.0433ZM58.0725 81.303C68.8404 81.303 77.7736 84.5892 84.7661 91.1354L85.5231 90.3268C78.299 83.5638 69.0833 80.1953 58.0725 80.1953V81.303ZM84.7751 91.1436C91.89 97.5174 95.4801 106.728 95.4801 118.559H96.5878C96.5878 106.495 92.9184 96.9515 85.5142 90.3186L84.7751 91.1436ZM144.761 125.668L145.169 125.293L144.761 125.668ZM201.476 116.745L202.013 116.88L202.188 116.191H201.476V116.745ZM165.481 116.745H164.927V117.298H165.481V116.745ZM165.481 94.5121V93.9583H164.927V94.5121H165.481ZM227.036 94.5121H227.59V93.9583H227.036V94.5121ZM218.869 134.591L218.398 134.299L218.398 134.3L218.869 134.591ZM126.612 142.456L126.213 142.839L126.218 142.845L126.612 142.456ZM127.519 55.6432L127.133 55.2466L127.13 55.2491L127.519 55.6432ZM205.711 48.2324L206.04 47.7867L205.711 48.2324ZM224.314 71.3722L224.557 71.8697L225.006 71.6499L224.833 71.1808L224.314 71.3722ZM202.686 81.9591L202.173 82.1672L202.396 82.7178L202.93 82.4566L202.686 81.9591ZM191.494 67.44L191.142 67.8675L191.149 67.8731L191.156 67.8785L191.494 67.44ZM145.063 71.9772L144.667 71.5897L145.063 71.9772ZM133.922 98.8981C133.922 109.47 137.451 118.527 144.353 126.042L145.169 125.293C138.458 117.986 135.03 109.198 135.03 98.8981H133.922ZM144.353 126.042C151.272 133.577 160.197 137.262 170.925 137.262V136.154C160.48 136.154 151.861 132.58 145.169 125.293L144.353 126.042ZM170.925 137.262C186.832 137.262 198.909 129.141 202.013 116.88L200.939 116.609C197.993 128.244 186.477 136.154 170.925 136.154V137.262ZM201.476 116.191H165.481V117.298H201.476V116.191ZM166.035 116.745V94.5121H164.927V116.745H166.035ZM165.481 95.066H227.036V93.9583H165.481V95.066ZM226.482 94.5121V103.738H227.59V94.5121H226.482ZM226.482 103.738C226.482 115.446 223.781 125.627 218.398 134.299L219.339 134.883C224.846 126.011 227.59 115.623 227.59 103.738H226.482ZM218.398 134.3C207.776 151.504 190.577 159.446 170.925 159.446V160.553C190.899 160.553 208.486 152.463 219.34 134.882L218.398 134.3ZM170.925 159.446C153.061 159.446 138.386 153.596 127.006 142.066L126.218 142.845C137.826 154.606 152.795 160.553 170.925 160.553V159.446ZM127.011 142.072C115.771 130.382 110.075 116.002 110.075 99.0493H108.968C108.968 116.277 114.766 130.935 126.213 142.839L127.011 142.072ZM110.075 99.0493C110.075 82.1053 116.067 67.7287 127.908 56.0373L127.13 55.2491C115.075 67.1513 108.968 81.8129 108.968 99.0493H110.075ZM127.906 56.0397C139.901 44.3446 154.281 38.5018 171.228 38.5018V37.3941C153.994 37.3941 139.336 43.3482 127.133 55.2466L127.906 56.0397ZM171.228 38.5018C184.894 38.5018 196.268 41.9544 205.382 48.6781L206.04 47.7867C196.703 40.8986 185.087 37.3941 171.228 37.3941V38.5018ZM205.382 48.6781C214.542 55.4356 220.663 63.0671 223.794 71.5637L224.833 71.1808C221.611 62.4359 215.331 54.6408 206.04 47.7867L205.382 48.6781ZM224.07 70.8748L202.443 81.4617L202.93 82.4566L224.557 71.8697L224.07 70.8748ZM203.199 81.751C200.893 76.0613 197.201 71.143 191.833 67.0014L191.156 67.8785C196.374 71.9039 199.942 76.6651 202.173 82.1672L203.199 81.751ZM191.846 67.0124C186.58 62.6753 179.638 60.534 170.925 60.534V61.6417C179.455 61.6417 186.124 63.7352 191.142 67.8675L191.846 67.0124ZM170.925 60.534C160.643 60.534 151.88 64.2241 144.667 71.5897L145.459 72.3647C152.463 65.2112 160.942 61.6417 170.925 61.6417V60.534ZM144.667 71.5897C137.45 78.9604 133.922 88.0261 133.922 98.8981H135.03C135.03 88.2939 138.459 79.5132 145.459 72.3647L144.667 71.5897Z" fill="white"/>
<path d="M264.898 23.7988C276.863 36.9776 282.412 52.931 281.372 71.312C281.198 75.3003 278.251 77.9014 274.436 77.728C270.794 77.5546 268.02 74.6067 268.193 70.6183C268.54 62.9885 267.673 55.532 265.072 48.4224C257.962 29.8679 240.448 17.3828 220.68 16.6891C218.599 16.6891 216.692 16.6892 214.611 16.5158C210.969 16.169 208.368 13.221 208.541 9.57952C208.715 6.1114 211.316 3.3369 214.957 3.3369C234.205 2.99009 251.026 9.2327 264.898 23.7988Z" fill="#04CB3A"/>
<path d="M248.25 40.9696C255.36 48.5994 258.308 59.1771 257.267 71.1421C256.92 75.1305 253.626 77.905 249.811 77.7316C245.996 77.5582 243.221 74.6102 243.048 70.7953C243.048 69.0612 243.048 67.1538 243.048 65.4198C242.701 53.108 233.511 43.5706 221.199 42.7036C218.771 42.5302 216.517 42.7036 214.089 42.3568C210.448 41.8366 207.847 38.7153 207.847 35.2471C207.847 31.6056 210.448 28.3109 214.089 28.1375C226.748 27.2705 238.019 30.2184 248.25 40.9696Z" fill="#04CB3A"/>
<path d="M286.763 67.9574L286.763 67.9647C286.603 71.6455 283.915 74.011 280.405 73.8514C277.078 73.6924 274.531 71.0122 274.691 67.3202C275.04 59.632 274.167 52.1001 271.536 44.9088L271.536 44.9088L271.533 44.9009C264.344 26.1391 246.634 13.5138 226.643 12.8124L226.634 12.812H226.624C224.542 12.812 222.657 12.8118 220.604 12.6409C217.253 12.3201 214.88 9.62203 215.039 6.28328C215.199 3.08447 217.581 0.567519 220.902 0.567519V0.567609L220.912 0.56743C240.015 0.223222 256.681 6.41117 270.437 20.8527C282.296 33.917 287.795 49.7219 286.763 67.9574Z" stroke="white" stroke-width="1.10772"/>
<path d="M249.545 62.0965V62.0887L249.545 62.0809C249.19 49.4825 239.775 39.7148 227.181 38.8279C226.194 38.7574 225.233 38.7432 224.295 38.7294C224.061 38.7259 223.829 38.7225 223.598 38.7182C222.432 38.6966 221.29 38.6536 220.111 38.4852C216.744 38.0042 214.344 35.118 214.344 31.9239C214.344 28.518 216.769 25.5242 220.059 25.3675L220.059 25.3676L220.071 25.3668C232.595 24.509 243.693 27.4168 253.79 38.026C260.767 45.5152 263.689 55.9242 262.659 67.7709C262.338 71.4605 259.3 74.0151 255.779 73.855C252.272 73.6956 249.712 71 249.545 67.4592V67.4517V67.4416V67.4314V67.4212V67.411V67.4008V67.3907V67.3805V67.3703V67.3601V67.3499V67.3396V67.3294V67.3192V67.309V67.2988V67.2885V67.2783V67.2681V67.2578V67.2476V67.2374V67.2271V67.2169V67.2066V67.1963V67.1861V67.1758V67.1655V67.1553V67.145V67.1347V67.1244V67.1141V67.1038V67.0935V67.0832V67.0729V67.0626V67.0523V67.042V67.0317V67.0214V67.0111V67.0007V66.9904V66.9801V66.9697V66.9594V66.9491V66.9387V66.9284V66.918V66.9077V66.8973V66.8869V66.8766V66.8662V66.8558V66.8455V66.8351V66.8247V66.8143V66.804V66.7936V66.7832V66.7728V66.7624V66.752V66.7416V66.7312V66.7208V66.7104V66.7V66.6895V66.6791V66.6687V66.6583V66.6478V66.6374V66.627V66.6166V66.6061V66.5957V66.5852V66.5748V66.5643V66.5539V66.5434V66.533V66.5225V66.5121V66.5016V66.4911V66.4807V66.4702V66.4597V66.4492V66.4388V66.4283V66.4178V66.4073V66.3968V66.3863V66.3758V66.3653V66.3548V66.3443V66.3338V66.3233V66.3128V66.3023V66.2918V66.2813V66.2708V66.2603V66.2497V66.2392V66.2287V66.2182V66.2076V66.1971V66.1866V66.176V66.1655V66.155V66.1444V66.1339V66.1233V66.1128V66.1022V66.0917V66.0811V66.0706V66.06V66.0495V66.0389V66.0284V66.0178V66.0072V65.9967V65.9861V65.9755V65.965V65.9544V65.9438V65.9332V65.9226V65.9121V65.9015V65.8909V65.8803V65.8697V65.8591V65.8485V65.838V65.8274V65.8168V65.8062V65.7956V65.785V65.7744V65.7638V65.7532V65.7426V65.732V65.7214V65.7107V65.7001V65.6895V65.6789V65.6683V65.6577V65.6471V65.6364V65.6258V65.6152V65.6046V65.594V65.5833V65.5727V65.5621V65.5515V65.5408V65.5302V65.5196V65.5089V65.4983V65.4877V65.477V65.4664V65.4558V65.4451V65.4345V65.4238V65.4132V65.4026V65.3919V65.3813V65.3706V65.36V65.3493V65.3387V65.328V65.3174V65.3067V65.2961V65.2854V65.2748V65.2641V65.2535V65.2428V65.2322V65.2215V65.2109V65.2002V65.1895V65.1789V65.1682V65.1576V65.1469V65.1363V65.1256V65.1149V65.1043V65.0936V65.083V65.0723V65.0616V65.051V65.0403V65.0296V65.019V65.0083V64.9976V64.987V64.9763V64.9656V64.955V64.9443V64.9336V64.923V64.9123V64.9016V64.891V64.8803V64.8696V64.859V64.8483V64.8376V64.827V64.8163V64.8056V64.795V64.7843V64.7736V64.763V64.7523V64.7416V64.7309V64.7203V64.7096V64.6989V64.6883V64.6776V64.6669V64.6563V64.6456V64.6349V64.6243V64.6136V64.6029V64.5923V64.5816V64.5709V64.5603V64.5496V64.539V64.5283V64.5176V64.507V64.4963V64.4856V64.475V64.4643V64.4537V64.443V64.4323V64.4217V64.411V64.4004V64.3897V64.379V64.3684V64.3577V64.3471V64.3364V64.3258V64.3151V64.3045V64.2938V64.2831V64.2725V64.2618V64.2512V64.2405V64.2299V64.2193V64.2086V64.198V64.1873V64.1767V64.166V64.1554V64.1447V64.1341V64.1235V64.1128V64.1022V64.0916V64.0809V64.0703V64.0597V64.049V64.0384V64.0278V64.0171V64.0065V63.9959V63.9853V63.9746V63.964V63.9534V63.9428V63.9321V63.9215V63.9109V63.9003V63.8897V63.8791V63.8685V63.8578V63.8472V63.8366V63.826V63.8154V63.8048V63.7942V63.7836V63.773V63.7624V63.7518V63.7412V63.7306V63.72V63.7094V63.6989V63.6883V63.6777V63.6671V63.6565V63.6459V63.6354V63.6248V63.6142V63.6036V63.5931V63.5825V63.5719V63.5614V63.5508V63.5402V63.5297V63.5191V63.5085V63.498V63.4874V63.4769V63.4663V63.4558V63.4452V63.4347V63.4242V63.4136V63.4031V63.3925V63.382V63.3715V63.3609V63.3504V63.3399V63.3294V63.3188V63.3083V63.2978V63.2873V63.2768V63.2663V63.2558V63.2453V63.2347V63.2242V63.2137V63.2032V63.1928V63.1823V63.1718V63.1613V63.1508V63.1403V63.1298V63.1194V63.1089V63.0984V63.0879V63.0775V63.067V63.0565V63.0461V63.0356V63.0252V63.0147V63.0043V62.9938V62.9834V62.9729V62.9625V62.952V62.9416V62.9312V62.9207V62.9103V62.8999V62.8895V62.879V62.8686V62.8582V62.8478V62.8374V62.827V62.8166V62.8062V62.7958V62.7854V62.775V62.7646V62.7542V62.7439V62.7335V62.7231V62.7127V62.7024V62.692V62.6816V62.6713V62.6609V62.6506V62.6402V62.6299V62.6195V62.6092V62.5989V62.5885V62.5782V62.5679V62.5575V62.5472V62.5369V62.5266V62.5163V62.506V62.4957V62.4853V62.4751V62.4648V62.4545V62.4442V62.4339V62.4236V62.4133V62.4031V62.3928V62.3825V62.3723V62.362V62.3517V62.3415V62.3312V62.321V62.3107V62.3005V62.2903V62.28V62.2698V62.2596V62.2494V62.2392V62.2289V62.2187V62.2085V62.1983V62.1881V62.1779V62.1677V62.1576V62.1474V62.1372V62.127V62.1169V62.1067V62.0965Z" stroke="white" stroke-width="1.10772"/>
<defs>
<linearGradient id="paint0_linear_3921_23" x1="42.9323" y1="235.288" x2="253.58" y2="47.2967" gradientUnits="userSpaceOnUse">
<stop stop-color="#008D1E"/>
<stop offset="1" stop-color="#04CB3A"/>
</linearGradient>
<linearGradient id="paint1_linear_3921_23" x1="157.061" y1="36.0117" x2="159.076" y2="32.7834" gradientUnits="userSpaceOnUse">
<stop stop-color="#008D1E"/>
<stop offset="1" stop-color="#04CB3A"/>
</linearGradient>
</defs>
</svg>
