<svg width="54" height="45" viewBox="0 0 54 45" fill="none" xmlns="http://www.w3.org/2000/svg">
<path d="M17.4677 23.5713C17.4677 25.9364 16.6698 27.8171 15.1026 29.2134C13.5353 30.6097 11.5406 31.2936 9.14703 31.2936C5.30015 31.2936 2.62158 29.8403 1.11132 26.9338L5.04369 24.5971C5.89855 26.1929 7.29483 26.9908 9.26101 26.9908C11.3412 26.9908 12.8229 25.737 12.8229 23.6853C12.8229 21.7761 11.3982 20.4938 9.09004 20.4938C7.97872 20.4938 6.95288 20.9212 6.04103 21.8046L1.70972 20.0379L3.33396 8.7252H16.4703V12.914H7.00987L6.29749 17.9292C7.52279 16.9319 8.86207 16.4475 10.3153 16.4475C12.367 16.4475 14.0767 17.0744 15.416 18.3282C16.7838 19.5535 17.4677 21.3202 17.4677 23.5713ZM24.7106 19.8669C24.7106 21.8331 25.366 23.5143 26.6483 24.9106C27.9306 26.3069 29.5834 26.9908 31.578 26.9908C34.5416 26.9908 36.7642 25.4805 37.3341 23.2294H30.5522V19.0405H42.1498V20.7788C42.1498 23.0014 41.6369 24.9391 40.6111 26.5918C38.5879 29.8688 35.3109 31.3791 31.578 31.3791C28.1871 31.3791 25.3945 30.2677 23.2289 28.0736C21.0917 25.8509 20.0089 23.1154 20.0089 19.8954C20.0089 16.6754 21.1487 13.9399 23.3999 11.7172C25.6795 9.49458 28.415 8.38326 31.635 8.38326C34.2281 8.38326 36.3938 9.03865 38.132 10.3209C39.8702 11.6032 41.0385 13.0565 41.6369 14.6807L37.5621 16.6754C37.1346 15.6211 36.4508 14.7092 35.4534 13.9399C34.4846 13.142 33.2023 12.7431 31.578 12.7431C29.6688 12.7431 28.0446 13.4269 26.7053 14.7947C25.366 16.1625 24.7106 17.8437 24.7106 19.8669Z" fill="#04CB3A"/>
<path d="M1.11132 26.9338L0.964871 26.6873L0.732054 26.8256L0.856922 27.066L1.11132 26.9338ZM5.04369 24.5971L5.2964 24.4618L5.15488 24.1976L4.89724 24.3507L5.04369 24.5971ZM6.04103 21.8046L5.93275 22.0701L6.10607 22.1407L6.24051 22.0105L6.04103 21.8046ZM1.70972 20.0379L1.42594 19.9971L1.39412 20.2188L1.60145 20.3033L1.70972 20.0379ZM3.33396 8.7252V8.43851H3.08549L3.05018 8.68445L3.33396 8.7252ZM16.4703 8.7252H16.757V8.43851H16.4703V8.7252ZM16.4703 12.914V13.2007H16.757V12.914H16.4703ZM7.00987 12.914V12.6273H6.76102L6.72603 12.8737L7.00987 12.914ZM6.29749 17.9292L6.01364 17.8889L5.91069 18.6137L6.47847 18.1516L6.29749 17.9292ZM15.416 18.3282L15.22 18.5375L15.2247 18.5417L15.416 18.3282ZM17.181 23.5713C17.181 25.8648 16.4109 27.6638 14.9119 28.9993L15.2933 29.4275C16.9287 27.9704 17.7544 26.0081 17.7544 23.5713H17.181ZM14.9119 28.9993C13.4057 30.3412 11.4828 31.0069 9.14703 31.0069V31.5803C11.5985 31.5803 13.6649 30.8782 15.2933 29.4275L14.9119 28.9993ZM9.14703 31.0069C7.25906 31.0069 5.67737 30.6503 4.38966 29.9516C3.10449 29.2544 2.09653 28.2081 1.36572 26.8016L0.856922 27.066C1.63637 28.566 2.72282 29.6996 4.11622 30.4556C5.50708 31.2102 7.18811 31.5803 9.14703 31.5803V31.0069ZM1.25777 27.1802L5.19014 24.8436L4.89724 24.3507L0.964871 26.6873L1.25777 27.1802ZM4.79097 24.7325C5.24059 25.5718 5.8394 26.2126 6.59391 26.6416C7.34721 27.0699 8.23891 27.2775 9.26101 27.2775V26.7041C8.31693 26.7041 7.52739 26.5127 6.8773 26.1431C6.2284 25.7742 5.70165 25.2182 5.2964 24.4618L4.79097 24.7325ZM9.26101 27.2775C10.3577 27.2775 11.3213 26.9465 12.0143 26.3201C12.7105 25.6908 13.1096 24.7843 13.1096 23.6853H12.5362C12.5362 24.6379 12.1945 25.3842 11.6298 25.8947C11.0618 26.4081 10.2445 26.7041 9.26101 26.7041V27.2775ZM13.1096 23.6853C13.1096 22.6547 12.7226 21.7752 12.0099 21.157C11.3012 20.5423 10.2956 20.2071 9.09004 20.2071V20.7805C10.1926 20.7805 11.0535 21.0865 11.6342 21.5902C12.2109 22.0904 12.5362 22.8067 12.5362 23.6853H13.1096ZM9.09004 20.2071C7.89682 20.2071 6.8013 20.6689 5.84155 21.5987L6.24051 22.0105C7.10447 21.1735 8.06061 20.7805 9.09004 20.7805V20.2071ZM6.14931 21.5391L1.818 19.7724L1.60145 20.3033L5.93275 22.0701L6.14931 21.5391ZM1.99351 20.0786L3.61775 8.76594L3.05018 8.68445L1.42594 19.9971L1.99351 20.0786ZM3.33396 9.01189H16.4703V8.43851H3.33396V9.01189ZM16.1837 8.7252V12.914H16.757V8.7252H16.1837ZM16.4703 12.6273H7.00987V13.2007H16.4703V12.6273ZM6.72603 12.8737L6.01364 17.8889L6.58133 17.9695L7.29372 12.9543L6.72603 12.8737ZM6.47847 18.1516C7.65588 17.1932 8.93207 16.7341 10.3153 16.7341V16.1608C8.79208 16.1608 7.3897 16.6706 6.11651 17.7069L6.47847 18.1516ZM10.3153 16.7341C12.3042 16.7341 13.9407 17.3398 15.2201 18.5374L15.612 18.1189C14.2127 16.809 12.4299 16.1608 10.3153 16.1608V16.7341ZM15.2247 18.5417C16.5176 19.6999 17.181 21.3805 17.181 23.5713H17.7544C17.7544 21.2599 17.05 19.407 15.6073 18.1146L15.2247 18.5417ZM26.6483 24.9106L26.8595 24.7167L26.6483 24.9106ZM37.3341 23.2294L37.612 23.2997L37.7024 22.9427H37.3341V23.2294ZM30.5522 23.2294H30.2655V23.5161H30.5522V23.2294ZM30.5522 19.0405V18.7538H30.2655V19.0405H30.5522ZM42.1498 19.0405H42.4365V18.7538H42.1498V19.0405ZM40.6111 26.5918L40.3675 26.4406L40.3671 26.4412L40.6111 26.5918ZM23.2289 28.0736L23.0222 28.2723L23.0248 28.275L23.2289 28.0736ZM23.3999 11.7172L23.1997 11.5119L23.1984 11.5132L23.3999 11.7172ZM38.132 10.3209L38.3022 10.0902L38.132 10.3209ZM41.6369 14.6807L41.763 14.9382L41.9954 14.8245L41.9059 14.5816L41.6369 14.6807ZM37.5621 16.6754L37.2964 16.7831L37.4119 17.0681L37.6881 16.9329L37.5621 16.6754ZM35.4534 13.9399L35.2711 14.1613L35.2783 14.1669L35.4534 13.9399ZM26.7053 14.7947L26.5005 14.5941L26.7053 14.7947ZM24.424 19.8669C24.424 21.9035 25.1054 23.6543 26.4372 25.1045L26.8595 24.7167C25.6267 23.3743 24.9973 21.7627 24.9973 19.8669H24.424ZM26.4372 25.1045C27.7783 26.5649 29.5101 27.2775 31.578 27.2775V26.7041C29.6567 26.7041 28.0829 26.0489 26.8595 24.7167L26.4372 25.1045ZM31.578 27.2775C34.6334 27.2775 37.0012 25.7127 37.612 23.2997L37.0562 23.159C36.5272 25.2484 34.4497 26.7041 31.578 26.7041V27.2775ZM37.3341 22.9427H30.5522V23.5161H37.3341V22.9427ZM30.8389 23.2294V19.0405H30.2655V23.2294H30.8389ZM30.5522 19.3272H42.1498V18.7538H30.5522V19.3272ZM41.8631 19.0405V20.7788H42.4365V19.0405H41.8631ZM41.8631 20.7788C41.8631 22.9558 41.3613 24.8395 40.3675 26.4406L40.8547 26.743C41.9125 25.0387 42.4365 23.047 42.4365 20.7788H41.8631ZM40.3671 26.4412C38.4042 29.6206 35.2278 31.0924 31.578 31.0924V31.6657C35.3941 31.6657 38.7716 30.117 40.855 26.7424L40.3671 26.4412ZM31.578 31.0924C28.2559 31.0924 25.5394 30.0064 23.4329 27.8722L23.0248 28.275C25.2496 30.5291 28.1183 31.6657 31.578 31.6657V31.0924ZM23.4355 27.8749C21.3518 25.7078 20.2956 23.0444 20.2956 19.8954H19.7222C19.7222 23.1864 20.8316 25.9941 23.0222 28.2723L23.4355 27.8749ZM20.2956 19.8954C20.2956 16.7511 21.4054 14.0893 23.6013 11.9212L23.1984 11.5132C20.892 13.7904 19.7222 16.5997 19.7222 19.8954H20.2956ZM23.6 11.9225C25.8257 9.75245 28.4893 8.66995 31.635 8.66995V8.09656C28.3408 8.09656 25.5333 9.2367 23.1997 11.5119L23.6 11.9225ZM31.635 8.66995C34.1781 8.66995 36.2812 9.31189 37.9618 10.5517L38.3022 10.0902C36.5063 8.76541 34.2781 8.09656 31.635 8.09656V8.66995ZM37.9618 10.5517C39.6661 11.8089 40.7932 13.2199 41.3679 14.7799L41.9059 14.5816C41.2839 12.8931 40.0743 11.3975 38.3022 10.0902L37.9618 10.5517ZM41.5109 14.4232L37.436 16.4179L37.6881 16.9329L41.763 14.9382L41.5109 14.4232ZM37.8278 16.5677C37.3807 15.4648 36.6648 14.5123 35.6285 13.7129L35.2783 14.1669C36.2367 14.9062 36.8886 15.7773 37.2964 16.7831L37.8278 16.5677ZM35.6357 13.7186C34.6024 12.8677 33.2496 12.4564 31.578 12.4564V13.0297C33.1549 13.0297 34.3667 13.4163 35.2712 14.1612L35.6357 13.7186ZM31.578 12.4564C29.5915 12.4564 27.8935 13.1715 26.5005 14.5941L26.9102 14.9953C28.1957 13.6824 29.7462 13.0297 31.578 13.0297V12.4564ZM26.5005 14.5941C25.1049 16.0194 24.424 17.7744 24.424 19.8669H24.9973C24.9973 17.9131 25.6272 16.3056 26.9102 14.9953L26.5005 14.5941Z" fill="#3EA938"/>
<path d="M49.9108 3.85781C52.1651 6.34084 53.2106 9.34662 53.0146 12.8098C52.9819 13.5612 52.4265 14.0513 51.7077 14.0186C51.0216 13.986 50.4989 13.4306 50.5316 12.6791C50.5969 11.2416 50.4335 9.83669 49.9434 8.49715C48.6039 5.00131 45.3041 2.64897 41.5796 2.51828C41.1875 2.51828 40.8281 2.51828 40.4361 2.48561C39.75 2.42027 39.2599 1.86485 39.2926 1.17875C39.3252 0.525319 39.8153 0.0025734 40.5014 0.0025734C44.1279 -0.0627696 47.2971 1.1134 49.9108 3.85781Z" fill="#04CB3A"/>
<path d="M46.7735 7.09296C48.1131 8.53051 48.6685 10.5235 48.4725 12.7778C48.4071 13.5292 47.7864 14.052 47.0676 14.0193C46.3489 13.9866 45.8261 13.4312 45.7934 12.7124C45.7934 12.3857 45.7934 12.0264 45.7934 11.6996C45.7281 9.37997 43.9965 7.58303 41.6768 7.41967C41.2194 7.387 40.7947 7.41967 40.3373 7.35433C39.6512 7.25631 39.1611 6.66823 39.1611 6.0148C39.1611 5.3287 39.6512 4.70794 40.3373 4.67527C42.7223 4.51191 44.8459 5.06733 46.7735 7.09296Z" fill="#04CB3A"/>
</svg>
