<svg width="64" height="37" viewBox="0 0 64 37" fill="none" xmlns="http://www.w3.org/2000/svg">
<circle cx="46.3354" cy="17.9291" r="17.6655" fill="url(#paint0_linear_4019_203)"/>
<circle cx="18.1225" cy="18.8793" r="17.6655" fill="white" fill-opacity="0.25"/>
<path d="M17.7968 11.9492C21.0803 12.008 24.1915 13.2656 26.7661 15.8111C27.1754 16.2156 27.2427 16.6515 26.9789 17.0645C26.6387 17.5962 25.9742 17.6763 25.4885 17.2488C25.0719 16.8819 24.6699 16.4945 24.2266 16.1628C19.7796 12.8297 13.5941 13.208 9.57641 17.0487C9.50365 17.1184 9.4327 17.1912 9.35691 17.2579C8.93367 17.6308 8.37461 17.615 7.99988 17.2203C7.62697 16.8274 7.62515 16.2926 8.01746 15.8893C8.77541 15.1114 9.62674 14.4462 10.5569 13.8859C12.6828 12.6047 14.99 11.9638 17.7968 11.9492Z" fill="white"/>
<path d="M17.3329 15.8252C20.013 15.867 22.1777 16.7566 23.9671 18.5374C24.4643 19.0322 24.4303 19.6725 23.9034 20.0539C23.5184 20.3329 23.0848 20.288 22.6816 19.9709C22.1674 19.5664 21.6678 19.1268 21.1032 18.8061C18.2521 17.1871 14.7553 17.6206 12.3656 19.8914C11.6828 20.5402 10.8285 20.1576 10.6678 19.4906C10.5841 19.1432 10.6842 18.8473 10.9237 18.6023C12.3699 17.1234 14.1192 16.2296 16.1651 15.9289C16.6034 15.864 17.0491 15.8494 17.3329 15.8252Z" fill="white"/>
<path d="M20.6304 23.1515C20.3079 23.1618 20.0829 22.9824 19.8591 22.7829C18.8581 21.8915 17.7096 21.5914 16.4375 22.0589C16.0154 22.2141 15.6268 22.5058 15.2781 22.7998C14.7857 23.2146 14.257 23.2722 13.8489 22.8726C13.4463 22.4779 13.4463 21.8448 13.8483 21.3985C15.8414 19.1835 19.345 19.1896 21.3102 21.4119C21.6127 21.7539 21.694 22.1419 21.5066 22.5634C21.3405 22.9369 21.0415 23.1333 20.6304 23.1515Z" fill="white"/>
<path d="M17.5199 27.2301C16.5066 27.2289 15.6832 26.4133 15.6778 25.405C15.6729 24.3826 16.5012 23.5562 17.5296 23.5586C18.544 23.5604 19.3632 24.3735 19.3693 25.385C19.3753 26.4091 18.5519 27.2313 17.5199 27.2301Z" fill="white"/>
<path d="M50.7365 22.0936C50.7344 21.3977 50.7365 20.7003 50.7365 20.0043H50.7274C50.7274 18.785 50.7065 17.5643 50.7323 16.3457C50.758 15.1222 50.2061 14.5055 48.9673 14.5111C47.2246 14.5188 45.4826 14.5396 43.7406 14.5083C42.5561 14.4874 42.0056 15.1159 41.9868 16.1967C41.9444 18.5769 41.9569 20.9585 41.9736 23.3394C41.9826 24.6193 42.616 25.2345 43.9459 25.1684C45.1625 25.1085 46.3839 25.1566 47.6032 25.1566C50.7462 25.1545 50.7462 25.1545 50.7365 22.0936ZM49.3348 15.5822C49.8463 15.6643 49.7371 16.2169 49.7538 16.5969C49.7684 16.9358 49.7398 17.3653 49.2652 17.3458C48.6186 17.32 48.9374 16.7528 48.8226 16.4083C48.9033 16.0777 48.6778 15.475 49.3348 15.5822ZM47.4383 15.466C48.0062 15.5293 47.8712 16.0631 47.8635 16.4334C47.8559 16.8565 47.9818 17.4592 47.2441 17.382C46.6261 17.3172 46.9212 16.7632 46.8022 16.5023C46.8773 16.0026 46.7075 15.3838 47.4383 15.466ZM45.4221 15.5084C46.0088 15.5342 45.8125 16.0972 45.8779 16.464C45.8237 16.8287 46.022 17.3994 45.3935 17.3618C44.8396 17.3277 44.9697 16.7758 44.9259 16.4013C44.8792 15.9914 44.8451 15.4848 45.4221 15.5084ZM43.5235 24.1147C42.9145 24.1593 42.966 23.6491 42.9744 23.2524C42.9813 22.8787 42.8227 22.3992 43.4087 22.3017C44.0524 22.3059 43.9919 22.7805 43.9919 23.1689C43.9912 23.5475 44.1123 24.0723 43.5235 24.1147ZM45.848 23.4751C45.8898 23.8287 45.8111 24.1815 45.2857 24.1864C44.7129 23.9609 44.9279 23.4403 44.9224 23.0165C44.9175 22.6762 44.9356 22.2377 45.4381 22.3372C46.1194 22.4715 45.8 23.0715 45.848 23.4751ZM47.4007 24.2212C46.9309 24.3312 46.8189 23.9539 46.8425 23.5823C46.8725 23.1153 46.6184 22.5314 47.1474 22.3122C47.7932 22.2405 47.8983 22.5606 47.8705 22.9358C47.8357 23.4048 48.1447 24.0472 47.4007 24.2212ZM47.9276 21.2766C47.4063 21.2724 46.8857 21.2766 46.3644 21.2773C42.9848 21.2801 42.9848 21.2801 42.9702 17.8295C42.9695 17.5984 42.9208 17.3548 42.9765 17.137C43.1136 16.6025 42.5735 15.6177 43.5353 15.6441C44.296 15.6643 43.9654 16.5705 43.9473 17.089C43.9132 18.0466 44.2689 18.4746 45.2599 18.4085C46.1236 18.3507 46.9957 18.4064 47.8628 18.3834C48.9284 18.3549 49.8442 18.2115 49.8254 19.8888C49.8087 21.5111 48.897 21.2849 47.9276 21.2766ZM49.8456 23.0923C49.8087 23.535 49.8763 24.1203 49.2986 24.2115C48.6548 24.3131 48.8163 23.7535 48.7989 23.3603C48.9311 23.0005 48.54 22.372 49.268 22.2885C49.8547 22.221 49.8811 22.6713 49.8456 23.0923Z" fill="white"/>
<path d="M52.7589 13.7157C52.7804 12.4615 52.3677 11.5498 51.5354 10.6075C50.2374 9.139 48.7995 8.41241 46.8112 8.60867C45.3684 8.75065 43.9006 8.65739 42.4433 8.63234C40.8433 8.60519 40.0707 9.3798 40.07 10.961C40.07 13.2334 40.07 15.5057 40.0694 17.778C40.0673 19.9919 40.0513 22.2064 40.0721 24.4196C40.093 26.5826 40.6296 27.129 42.7356 27.1415C45.1241 27.1575 47.5134 27.1547 49.9019 27.1394C52.1979 27.1248 52.7331 26.5652 52.738 24.2031C52.7443 20.7073 52.699 17.2108 52.7589 13.7157ZM49.9159 26.1699C47.5962 26.0655 45.2633 26.0579 42.9444 26.1706C41.3583 26.2472 40.9177 25.5679 40.9623 24.128C41.027 22.0373 40.979 19.9438 40.979 17.8525H40.9971C40.9971 15.8189 41.0653 13.7818 40.9741 11.7517C40.9045 10.2164 41.3555 9.46541 43.0279 9.62757C44.2368 9.74449 45.4659 9.65123 46.6866 9.64914C50.2137 9.64427 51.7337 11.1524 51.7254 14.6267C51.7191 17.8225 51.678 21.0205 51.7581 24.2143C51.7936 25.602 51.4358 26.2388 49.9159 26.1699Z" fill="white"/>
<path d="M50.7365 22.0936C50.7344 21.3977 50.7365 20.7003 50.7365 20.0043H50.7274C50.7274 18.785 50.7065 17.5643 50.7323 16.3457C50.758 15.1222 50.2061 14.5055 48.9673 14.5111C47.2246 14.5188 45.4826 14.5396 43.7406 14.5083C42.5561 14.4874 42.0056 15.1159 41.9868 16.1967C41.9444 18.5769 41.9569 20.9585 41.9736 23.3394C41.9826 24.6193 42.616 25.2345 43.9459 25.1684C45.1625 25.1085 46.3839 25.1566 47.6032 25.1566C50.7462 25.1545 50.7462 25.1545 50.7365 22.0936ZM49.3348 15.5822C49.8463 15.6643 49.7371 16.2169 49.7538 16.5969C49.7684 16.9358 49.7398 17.3653 49.2652 17.3458C48.6186 17.32 48.9374 16.7528 48.8226 16.4083C48.9033 16.0777 48.6778 15.475 49.3348 15.5822ZM47.4383 15.466C48.0062 15.5293 47.8712 16.0631 47.8635 16.4334C47.8559 16.8565 47.9818 17.4592 47.2441 17.382C46.6261 17.3172 46.9212 16.7632 46.8022 16.5023C46.8773 16.0026 46.7075 15.3838 47.4383 15.466ZM45.4221 15.5084C46.0088 15.5342 45.8125 16.0972 45.8779 16.464C45.8237 16.8287 46.022 17.3994 45.3935 17.3618C44.8396 17.3277 44.9697 16.7758 44.9259 16.4013C44.8792 15.9914 44.8451 15.4848 45.4221 15.5084ZM43.5235 24.1147C42.9145 24.1593 42.966 23.6491 42.9744 23.2524C42.9813 22.8787 42.8227 22.3992 43.4087 22.3017C44.0524 22.3059 43.9919 22.7805 43.9919 23.1689C43.9912 23.5475 44.1123 24.0723 43.5235 24.1147ZM45.848 23.4751C45.8898 23.8287 45.8111 24.1815 45.2857 24.1864C44.7129 23.9609 44.9279 23.4403 44.9224 23.0165C44.9175 22.6762 44.9356 22.2377 45.4381 22.3372C46.1194 22.4715 45.8 23.0715 45.848 23.4751ZM47.4007 24.2212C46.9309 24.3312 46.8189 23.9539 46.8425 23.5823C46.8725 23.1153 46.6184 22.5314 47.1474 22.3122C47.7932 22.2405 47.8983 22.5606 47.8705 22.9358C47.8357 23.4048 48.1447 24.0472 47.4007 24.2212ZM47.9276 21.2766C47.4063 21.2724 46.8857 21.2766 46.3644 21.2773C42.9848 21.2801 42.9848 21.2801 42.9702 17.8295C42.9695 17.5984 42.9208 17.3548 42.9765 17.137C43.1136 16.6025 42.5735 15.6177 43.5353 15.6441C44.296 15.6643 43.9654 16.5705 43.9473 17.089C43.9132 18.0466 44.2689 18.4746 45.2599 18.4085C46.1236 18.3507 46.9957 18.4064 47.8628 18.3834C48.9284 18.3549 49.8442 18.2115 49.8254 19.8888C49.8087 21.5111 48.897 21.2849 47.9276 21.2766ZM49.8456 23.0923C49.8087 23.535 49.8763 24.1203 49.2986 24.2115C48.6548 24.3131 48.8163 23.7535 48.7989 23.3603C48.9311 23.0005 48.54 22.372 49.268 22.2885C49.8547 22.221 49.8811 22.6713 49.8456 23.0923Z" fill="white"/>
<defs>
<linearGradient id="paint0_linear_4019_203" x1="33.8343" y1="33.3587" x2="63.8225" y2="6.50743" gradientUnits="userSpaceOnUse">
<stop stop-color="#008D1E"/>
<stop offset="1" stop-color="#04CB3A"/>
</linearGradient>
</defs>
</svg>
