<svg width="19" height="12" viewBox="0 0 19 12" fill="none" xmlns="http://www.w3.org/2000/svg">
<path d="M9.47683 8.62824C9.28813 8.4299 9.14975 8.28114 9.01137 8.11998C6.86022 5.64064 4.70907 3.1613 2.54535 0.694359C2.30633 0.421632 1.99184 0.173698 1.65218 0.0621277C1.09867 -0.136219 0.494836 0.161301 0.192921 0.657169C-0.121575 1.19023 -0.0586765 1.74808 0.431936 2.30593C3.0108 5.29353 5.60224 8.26874 8.19368 11.2439C9.08685 12.2605 9.84164 12.2605 10.7348 11.2316C13.2382 8.38031 15.729 5.50428 18.2324 2.64064C19.0375 1.71089 19.0878 0.942294 18.3833 0.372046C17.704 -0.173409 16.9744 0.00014486 16.1944 0.905104C13.9678 3.45882 11.7538 6.01254 9.47683 8.62824Z" fill="#04CB3A"/>
</svg>
