<svg width="71" height="71" viewBox="0 0 71 71" fill="none" xmlns="http://www.w3.org/2000/svg">
<path d="M24.7544 46.976C24.7172 46.7744 24.6117 46.5852 24.5807 46.3835C24.4287 45.4063 23.8455 45.2357 23.011 45.5211C18.3205 47.1249 18.7207 45.7197 20.1973 50.9003C20.2377 51.0461 20.2687 51.2043 20.3369 51.3377C20.5169 51.6913 20.7898 51.893 21.3606 51.7751C22.5984 51.2787 24.4039 51.409 25.3438 50.3171C26.0945 49.4423 24.9653 48.1176 24.7544 46.976ZM24.7544 46.976C24.7172 46.7744 24.6117 46.5852 24.5807 46.3835C24.4287 45.4063 23.8455 45.2357 23.011 45.5211C18.3205 47.1249 18.7207 45.7197 20.1973 50.9003C20.2377 51.0461 20.2687 51.2043 20.3369 51.3377C20.5169 51.6913 20.7898 51.893 21.3606 51.7751C22.5984 51.2787 24.4039 51.409 25.3438 50.3171C26.0945 49.4423 24.9653 48.1176 24.7544 46.976ZM24.7544 46.976C24.7172 46.7744 24.6117 46.5852 24.5807 46.3835C24.4287 45.4063 23.8455 45.2357 23.011 45.5211C18.3205 47.1249 18.7207 45.7197 20.1973 50.9003C20.2377 51.0461 20.2687 51.2043 20.3369 51.3377C20.5169 51.6913 20.7898 51.893 21.3606 51.7751C22.5984 51.2787 24.4039 51.409 25.3438 50.3171C26.0945 49.4423 24.9653 48.1176 24.7544 46.976ZM24.7544 46.976C24.7172 46.7744 24.6117 46.5852 24.5807 46.3835C24.4287 45.4063 23.8455 45.2357 23.011 45.5211C18.3205 47.1249 18.7207 45.7197 20.1973 50.9003C20.2377 51.0461 20.2687 51.2043 20.3369 51.3377C20.5169 51.6913 20.7898 51.893 21.3606 51.7751C22.5984 51.2787 24.4039 51.409 25.3438 50.3171C26.0945 49.4423 24.9653 48.1176 24.7544 46.976ZM54.0201 31.9306C51.4361 31.4466 48.8861 30.7952 46.2989 30.333C45.0828 30.1158 44.3476 29.6257 44.056 28.3786C43.7458 27.0478 42.7717 26.5638 41.4688 26.8089C40.6592 26.9609 39.8464 27.1502 39.0833 27.4449C37.222 28.1615 35.3855 28.0901 33.4777 27.631C30.875 26.9981 28.2381 26.5111 25.6261 25.9124C24.6117 25.6828 23.9789 25.7201 23.8672 27.0106C23.7679 28.1304 23.3305 29.2193 23.1909 30.3392C23.042 31.5366 22.4681 32.1291 21.2955 32.4021C19.338 32.8519 17.4116 33.432 15.4758 33.9718C13.0996 34.6357 12.6157 35.4701 13.2609 37.8061C14.66 42.8719 16.0653 47.9377 17.4736 53.0004C18.1065 55.2867 18.9068 55.7365 21.2148 55.1006C25.6881 53.869 30.1522 52.6189 34.6255 51.3842C38.5466 50.2984 42.4739 49.2282 46.3981 48.1393C48.6782 47.5096 49.1529 46.6689 48.5572 44.4012C48.4921 44.1531 48.4611 43.8925 48.368 43.6536C47.9958 42.7013 48.1788 42.2856 49.2832 42.6144C49.8757 42.7881 50.493 42.8719 50.7008 42.9153C52.5745 43.089 53.3067 42.2732 53.5921 40.961C54.1287 38.4916 54.5878 36.0068 55.1679 33.5499C55.4254 32.4548 55.0346 32.1229 54.0201 31.9306ZM15.3331 38.5847C15.2804 38.2807 15.2215 37.9674 15.1005 37.6882C14.6041 36.5466 14.8492 35.9727 16.1676 35.6283C21.2024 34.313 26.2062 32.8767 31.2193 31.487C34.2501 30.6494 37.2809 29.8149 40.3117 28.9835C42.263 28.4469 42.2661 28.4531 42.7965 30.3671C42.9051 30.7642 43.0168 31.1612 43.1347 31.5738C43.1347 32.3214 42.477 32.2594 42.0396 32.3835C34.9915 34.3565 27.9403 36.3077 20.8891 38.2652C19.549 38.6374 18.1964 38.9725 16.878 39.4068C16.0001 39.6984 15.5007 39.5278 15.3331 38.5847ZM45.9018 46.3959C37.5508 48.6822 29.2184 51.0244 20.8798 53.3479C20.7216 53.3913 20.5603 53.4285 20.5262 53.4378C19.459 53.6395 19.3815 53.0439 19.2264 52.4793C18.516 49.8952 17.8366 47.3018 17.0393 44.7456C16.726 43.7405 16.9866 43.4086 17.9545 43.1511C22.7349 41.873 27.4936 40.5267 32.2585 39.202C35.8322 38.2062 39.409 37.2291 42.9734 36.1929C43.9381 35.9137 44.4252 36.0068 44.6951 37.1236C45.3093 39.6767 46.0569 42.1987 46.7859 44.7208C47.0465 45.6142 46.9534 46.1105 45.9018 46.3959ZM52.6025 35.0451C52.3202 37.7688 51.7525 38.8732 50.7474 38.4668C49.5406 37.9767 47.1023 38.8794 47.3319 36.6365C47.6483 33.5096 47.8375 33.0287 49.1467 33.1342C51.6625 33.3421 52.7172 33.9253 52.6025 35.0451ZM24.5807 46.3835C24.4287 45.4063 23.8455 45.2357 23.011 45.5211C18.3205 47.1249 18.7207 45.7197 20.1973 50.9003C20.2377 51.0461 20.2687 51.2043 20.3369 51.3377C20.5169 51.6913 20.7898 51.893 21.3606 51.7751C22.5984 51.2787 24.4039 51.409 25.3438 50.3171C26.0945 49.4423 24.9653 48.1176 24.7544 46.976C24.7172 46.7744 24.6117 46.5852 24.5807 46.3835ZM24.7544 46.976C24.7172 46.7744 24.6117 46.5852 24.5807 46.3835C24.4287 45.4063 23.8455 45.2357 23.011 45.5211C18.3205 47.1249 18.7207 45.7197 20.1973 50.9003C20.2377 51.0461 20.2687 51.2043 20.3369 51.3377C20.5169 51.6913 20.7898 51.893 21.3606 51.7751C22.5984 51.2787 24.4039 51.409 25.3438 50.3171C26.0945 49.4423 24.9653 48.1176 24.7544 46.976ZM24.7544 46.976C24.7172 46.7744 24.6117 46.5852 24.5807 46.3835C24.4287 45.4063 23.8455 45.2357 23.011 45.5211C18.3205 47.1249 18.7207 45.7197 20.1973 50.9003C20.2377 51.0461 20.2687 51.2043 20.3369 51.3377C20.5169 51.6913 20.7898 51.893 21.3606 51.7751C22.5984 51.2787 24.4039 51.409 25.3438 50.3171C26.0945 49.4423 24.9653 48.1176 24.7544 46.976Z" fill="black"/>
<path d="M57.1008 23.9858C56.986 27.6587 56.9022 27.696 53.4805 26.9638C44.568 25.0591 35.6524 23.1575 26.7213 21.3272C25.558 21.0884 25.254 20.6292 25.5208 19.5714C25.6449 19.072 25.6945 18.5539 25.8031 18.0513C26.1847 16.311 27.0377 15.734 28.8308 16.1094C36.1891 17.6574 43.5412 19.2271 50.8964 20.7874C52.3079 21.0853 53.7256 21.3551 55.1309 21.6778C56.44 21.9818 57.259 22.7108 57.1008 23.9858Z" fill="black"/>
<path d="M25.3428 50.317C24.4028 51.4089 22.5974 51.2786 21.3596 51.775C20.7888 51.8929 20.5158 51.6912 20.3359 51.3376C20.2677 51.2042 20.2366 51.046 20.1963 50.9002C18.7197 45.7196 18.3195 47.1248 23.01 45.521C23.8444 45.2356 24.4276 45.4063 24.5797 46.3834C24.6107 46.5851 24.7161 46.7743 24.7534 46.9759C24.9643 48.1175 26.0935 49.4422 25.3428 50.317Z" fill="black"/>
<path d="M25.3428 50.317C24.4028 51.4089 22.5974 51.2786 21.3596 51.775C20.7888 51.8929 20.5158 51.6912 20.3359 51.3376C20.2677 51.2042 20.2366 51.046 20.1963 50.9002C18.7197 45.7196 18.3195 47.1248 23.01 45.521C23.8444 45.2356 24.4276 45.4063 24.5797 46.3834C24.6107 46.5851 24.7161 46.7743 24.7534 46.9759C24.9643 48.1175 26.0935 49.4422 25.3428 50.317Z" fill="black"/>
</svg>
