<svg width="71" height="71" viewBox="0 0 71 71" fill="none" xmlns="http://www.w3.org/2000/svg">
<path d="M24.7544 46.976C24.7171 46.7743 24.6117 46.5851 24.5806 46.3835C24.4286 45.4063 23.8454 45.2357 23.011 45.5211C18.3205 47.1249 18.7207 45.7196 20.1973 50.9002C20.2376 51.046 20.2687 51.2042 20.3369 51.3376C20.5168 51.6912 20.7898 51.8929 21.3606 51.775C22.5984 51.2786 24.4038 51.4089 25.3438 50.317C26.0945 49.4422 24.9653 48.1176 24.7544 46.976ZM24.7544 46.976C24.7171 46.7743 24.6117 46.5851 24.5806 46.3835C24.4286 45.4063 23.8454 45.2357 23.011 45.5211C18.3205 47.1249 18.7207 45.7196 20.1973 50.9002C20.2376 51.046 20.2687 51.2042 20.3369 51.3376C20.5168 51.6912 20.7898 51.8929 21.3606 51.775C22.5984 51.2786 24.4038 51.4089 25.3438 50.317C26.0945 49.4422 24.9653 48.1176 24.7544 46.976ZM24.7544 46.976C24.7171 46.7743 24.6117 46.5851 24.5806 46.3835C24.4286 45.4063 23.8454 45.2357 23.011 45.5211C18.3205 47.1249 18.7207 45.7196 20.1973 50.9002C20.2376 51.046 20.2687 51.2042 20.3369 51.3376C20.5168 51.6912 20.7898 51.8929 21.3606 51.775C22.5984 51.2786 24.4038 51.4089 25.3438 50.317C26.0945 49.4422 24.9653 48.1176 24.7544 46.976ZM24.7544 46.976C24.7171 46.7743 24.6117 46.5851 24.5806 46.3835C24.4286 45.4063 23.8454 45.2357 23.011 45.5211C18.3205 47.1249 18.7207 45.7196 20.1973 50.9002C20.2376 51.046 20.2687 51.2042 20.3369 51.3376C20.5168 51.6912 20.7898 51.8929 21.3606 51.775C22.5984 51.2786 24.4038 51.4089 25.3438 50.317C26.0945 49.4422 24.9653 48.1176 24.7544 46.976ZM54.02 31.9306C51.4359 31.4466 48.886 30.7952 46.2988 30.333C45.0827 30.1158 44.3475 29.6257 44.0559 28.3786C43.7457 27.0478 42.7716 26.5638 41.4687 26.8089C40.6591 26.9609 39.8463 27.1501 39.0832 27.4449C37.2219 28.1614 35.3854 28.0901 33.4776 27.631C30.8749 26.9981 28.2381 26.5111 25.6261 25.9124C24.6117 25.6828 23.9788 25.7201 23.8671 27.0106C23.7679 28.1304 23.3305 29.2193 23.1909 30.3392C23.042 31.5366 22.4681 32.1291 21.2955 32.4021C19.338 32.8519 17.4116 33.432 15.4758 33.9718C13.0996 34.6356 12.6157 35.4701 13.2609 37.806C14.66 42.8718 16.0652 47.9376 17.4736 53.0003C18.1065 55.2866 18.9068 55.7364 21.2148 55.1005C25.6881 53.8689 30.1521 52.6188 34.6254 51.3841C38.5465 50.2984 42.4738 49.2281 46.398 48.1393C48.6781 47.5095 49.1527 46.6689 48.5571 44.4012C48.492 44.153 48.461 43.8924 48.3679 43.6536C47.9956 42.7012 48.1787 42.2855 49.283 42.6143C49.8755 42.7881 50.4929 42.8718 50.7007 42.9153C52.5744 43.089 53.3065 42.2731 53.5919 40.9609C54.1286 38.4916 54.5877 36.0068 55.1678 33.5499C55.4253 32.4548 55.0344 32.1229 54.02 31.9306ZM15.3331 38.5847C15.2804 38.2807 15.2215 37.9673 15.1005 37.6881C14.6041 36.5466 14.8492 35.9727 16.1676 35.6283C21.2024 34.313 26.2062 32.8767 31.2192 31.4869C34.25 30.6494 37.2808 29.8149 40.3116 28.9835C42.2629 28.4468 42.266 28.4531 42.7964 30.3671C42.905 30.7641 43.0167 31.1612 43.1346 31.5738C43.1346 32.3214 42.4769 32.2594 42.0395 32.3835C34.9914 34.3564 27.9403 36.3077 20.8891 38.2651C19.549 38.6374 18.1964 38.9724 16.878 39.4067C16.0001 39.6983 15.5007 39.5277 15.3331 38.5847ZM45.9017 46.3959C37.5507 48.6821 29.2184 51.0243 20.8798 53.3478C20.7216 53.3912 20.5603 53.4284 20.5261 53.4377C19.459 53.6394 19.3814 53.0438 19.2263 52.4792C18.5159 49.8951 17.8366 47.3017 17.0393 44.7455C16.726 43.7404 16.9866 43.4085 17.9545 43.151C22.7349 41.8729 27.4936 40.5266 32.2585 39.202C35.8321 38.2062 39.4089 37.229 42.9733 36.1929C43.938 35.9137 44.4251 36.0068 44.695 37.1235C45.3092 39.6766 46.0568 42.1987 46.7858 44.7207C47.0464 45.6141 46.9533 46.1105 45.9017 46.3959ZM52.6023 35.0451C52.32 37.7688 51.7523 38.8732 50.7473 38.4668C49.5405 37.9766 47.1022 38.8794 47.3318 36.6365C47.6482 33.5095 47.8374 33.0287 49.1465 33.1342C51.6624 33.342 52.7171 33.9252 52.6023 35.0451ZM24.5806 46.3835C24.4286 45.4063 23.8454 45.2357 23.011 45.5211C18.3205 47.1249 18.7207 45.7196 20.1973 50.9002C20.2376 51.046 20.2687 51.2042 20.3369 51.3376C20.5168 51.6912 20.7898 51.8929 21.3606 51.775C22.5984 51.2786 24.4038 51.4089 25.3438 50.317C26.0945 49.4422 24.9653 48.1176 24.7544 46.976C24.7171 46.7743 24.6117 46.5851 24.5806 46.3835ZM24.7544 46.976C24.7171 46.7743 24.6117 46.5851 24.5806 46.3835C24.4286 45.4063 23.8454 45.2357 23.011 45.5211C18.3205 47.1249 18.7207 45.7196 20.1973 50.9002C20.2376 51.046 20.2687 51.2042 20.3369 51.3376C20.5168 51.6912 20.7898 51.8929 21.3606 51.775C22.5984 51.2786 24.4038 51.4089 25.3438 50.317C26.0945 49.4422 24.9653 48.1176 24.7544 46.976ZM24.7544 46.976C24.7171 46.7743 24.6117 46.5851 24.5806 46.3835C24.4286 45.4063 23.8454 45.2357 23.011 45.5211C18.3205 47.1249 18.7207 45.7196 20.1973 50.9002C20.2376 51.046 20.2687 51.2042 20.3369 51.3376C20.5168 51.6912 20.7898 51.8929 21.3606 51.775C22.5984 51.2786 24.4038 51.4089 25.3438 50.317C26.0945 49.4422 24.9653 48.1176 24.7544 46.976Z" fill="white"/>
<path d="M57.1002 23.9857C56.9854 27.6587 56.9017 27.6959 53.48 26.9638C44.5675 25.0591 35.6519 23.1575 26.7208 21.3272C25.5575 21.0883 25.2535 20.6292 25.5203 19.5714C25.6444 19.0719 25.694 18.5539 25.8026 18.0513C26.1842 16.311 27.0373 15.734 28.8303 16.1094C36.1886 17.6574 43.5407 19.2271 50.8959 20.7874C52.3074 21.0852 53.7251 21.3551 55.1303 21.6777C56.4394 21.9818 57.2584 22.7108 57.1002 23.9857Z" fill="white"/>
<path d="M25.3423 50.317C24.4023 51.4089 22.5969 51.2786 21.3591 51.775C20.7883 51.8928 20.5153 51.6912 20.3354 51.3376C20.2672 51.2042 20.2361 51.046 20.1958 50.9002C18.7192 45.7196 18.319 47.1248 23.0095 45.521C23.8439 45.2356 24.4271 45.4063 24.5791 46.3834C24.6102 46.5851 24.7156 46.7743 24.7529 46.9759C24.9638 48.1175 26.093 49.4421 25.3423 50.317Z" fill="#FEFEFE"/>
<path d="M25.3423 50.317C24.4023 51.4089 22.5969 51.2786 21.3591 51.775C20.7883 51.8928 20.5153 51.6912 20.3354 51.3376C20.2672 51.2042 20.2361 51.046 20.1958 50.9002C18.7192 45.7196 18.319 47.1248 23.0095 45.521C23.8439 45.2356 24.4271 45.4063 24.5791 46.3834C24.6102 46.5851 24.7156 46.7743 24.7529 46.9759C24.9638 48.1175 26.093 49.4421 25.3423 50.317Z" fill="url(#paint0_linear_3541_232)"/>
<defs>
<linearGradient id="paint0_linear_3541_232" x1="22.397" y1="45.3962" x2="22.397" y2="51.8087" gradientUnits="userSpaceOnUse">
<stop stop-color="#008D1E"/>
<stop offset="1" stop-color="#04CB3A"/>
</linearGradient>
</defs>
</svg>
