<svg width="71" height="71" viewBox="0 0 71 71" fill="none" xmlns="http://www.w3.org/2000/svg">
<path d="M29.9218 24.7555C30.2329 24.3129 30.8262 24.0532 30.5568 23.2739C30.3901 22.7928 31.009 22.5811 31.2271 22.9082C31.6408 23.5176 32.1379 23.4663 32.728 23.4983C33.3726 23.5336 34.3412 23.4919 34.2802 24.4027C34.2225 25.243 33.4432 25.5028 32.5516 25.0955C32.5741 26.3655 33.1161 26.8081 34.2482 26.699C35.1782 26.6092 35.9415 27.0069 36.32 27.8824C36.7016 28.7676 36.6407 29.6624 36.0185 30.4481C35.6465 30.9163 35.0018 31.2178 35.3001 32.0324C35.3771 32.2441 34.7902 32.5167 34.7324 32.4108C34.0942 31.2659 32.9333 32.1447 32.1379 31.6892C31.7274 31.4551 30.9096 31.4904 31.1726 30.7335C31.3778 30.1434 31.8236 29.5886 32.6446 30.06C32.805 30.1531 33.0359 30.1242 33.3823 30.1723C33.2187 28.9376 32.789 28.4533 31.6087 28.418C29.5626 28.3539 28.7448 26.436 29.9218 24.7555Z" fill="black"/>
<path d="M26.7577 38.7C26.267 38.8475 25.7635 39.0175 25.5647 38.3825C25.3787 37.7763 25.8629 37.5198 26.3376 37.369C27.9604 36.8559 29.5928 36.3588 31.2252 35.8649C35.6606 34.5211 40.1024 33.187 44.5346 31.8336C45.16 31.6412 45.7661 31.3493 46.0676 32.1607C46.0836 32.8085 45.6859 32.9753 45.2658 33.1004C39.0986 34.9669 32.9249 36.827 26.7577 38.7Z" fill="black"/>
<path d="M28.4535 42.2438C28.0975 42.3529 27.7447 42.4619 27.4496 42.5517C27.0391 42.5485 26.712 42.4651 26.6447 42.0899C26.5517 41.5831 26.8692 41.2881 27.3085 41.147C28.6266 40.7269 29.948 40.3196 31.2693 39.9187C35.9003 38.514 40.5314 37.1157 45.1624 35.7174C45.4671 35.6244 45.7717 35.5218 46.0828 35.4608C46.4581 35.3903 46.8621 35.3742 47.0353 35.8136C47.247 36.3524 46.8654 36.6154 46.4516 36.7597C45.4991 37.0932 44.5338 37.3915 43.5685 37.6833C38.5333 39.2067 33.4918 40.7237 28.4535 42.2438Z" fill="black"/>
<path d="M31.6031 45.3776C30.6859 45.6534 29.7751 45.9581 28.8515 46.2275C28.4089 46.359 27.9503 46.3333 27.8124 45.8041C27.7065 45.3936 27.9823 45.0986 28.364 44.9382C28.659 44.8164 28.9605 44.7009 29.2652 44.6079C35.0796 42.8376 40.8941 41.0641 46.7149 39.3098C47.2794 39.1398 47.9625 38.7999 48.3217 39.6369C48.2672 40.5926 47.4654 40.5702 46.9138 40.7402C41.8177 42.3084 36.7088 43.835 31.6031 45.3776Z" fill="black"/>
<path d="M49.4891 43.4335C49.3865 44.1807 48.7547 44.2417 48.2127 44.4084C42.7638 46.0665 37.315 47.7214 31.8662 49.3762C31.2055 49.5751 30.5352 49.7515 29.8746 49.9503C29.464 50.0722 29.092 50.0048 28.9349 49.5975C28.7681 49.171 29.092 48.8952 29.4256 48.7156C29.7527 48.5424 30.1087 48.4173 30.4647 48.3115C36.2695 46.5508 42.0775 44.7933 47.8855 43.0422C48.4821 42.8626 49.1299 42.5131 49.4891 43.4335Z" fill="black"/>
<path d="M55.5794 44.4274C52.584 34.4694 49.5565 24.521 46.5098 14.5759C45.7721 12.177 44.3546 11.5484 41.9333 12.2988C37.097 13.803 32.2446 15.2654 27.4052 16.7599C26.6387 16.994 26.0453 17.0261 25.4488 16.2724C24.2526 14.7619 22.5625 14.4412 20.8114 14.9768C19.0988 15.5027 18.0693 16.7663 17.8416 18.5943C17.7839 19.0786 17.7967 19.6078 17.2387 19.797C15.199 20.4833 14.9937 22.1253 15.0001 23.9277C15.0162 28.9468 15.0033 33.9691 15.0033 38.9882C15.0066 44.1677 14.9905 49.3503 15.0098 54.5297C15.0194 56.887 16.1002 58.0672 18.3868 58.0768C27.0909 58.1121 35.7949 58.1121 44.4989 58.0864C46.3173 58.08 47.4013 56.9735 47.6034 55.277C47.7862 53.7216 46.9523 51.7396 48.1133 50.7005C49.1973 49.7319 51.067 49.6389 52.5936 49.1611C52.7443 49.113 52.8951 49.0585 53.049 49.0104C55.6275 48.1733 56.3459 46.9771 55.5794 44.4274ZM19.195 19.0594C19.2527 17.8535 19.8364 16.9299 20.9814 16.4328C21.9948 15.9934 22.9601 16.1153 23.8709 16.7182C24.1339 16.8914 24.4835 17.0902 24.352 17.4494C24.1788 17.9176 23.7523 17.7605 23.3963 17.6739C20.8563 17.0549 20.2566 17.5039 20.2117 20.1177C20.186 21.8752 20.2052 23.6359 20.2181 25.3966C20.2213 25.8712 20.2052 26.4581 20.8627 26.4902C21.6164 26.5255 21.6452 25.9129 21.6484 25.3645C21.6581 23.6038 21.642 21.8431 21.6613 20.0824C21.6677 19.6302 21.5073 18.9279 22.1263 18.8926C22.7709 18.8573 22.6651 19.5533 22.6683 20.0087C22.6779 22.1959 22.6843 24.3831 22.6651 26.5704C22.6555 27.7762 22.2225 28.7255 20.837 28.6838C19.5414 28.6454 19.1822 27.7089 19.1758 26.58C19.1661 25.3517 19.1726 24.1266 19.1726 22.8983H19.1822C19.1822 21.6186 19.1341 20.3358 19.195 19.0594ZM17.4183 21.4807C17.9859 21.5032 17.7582 22.1574 17.7679 22.5391C17.7999 23.6808 17.7775 24.8225 17.7775 25.9642C16.9757 24.9283 16.5684 23.8187 16.5203 22.6064C16.4946 22.0163 16.8506 21.4583 17.4183 21.4807ZM18.1655 56.6336C17.0366 56.6336 16.5299 55.9826 16.4594 54.937C16.4113 54.1962 16.4273 53.4458 16.4273 52.7017C16.4241 45.4024 16.4209 38.1031 16.4337 30.8037C16.4337 30.2425 16.2669 29.646 16.7512 28.8891C17.3894 30.9641 17.9795 32.8659 18.5568 34.7709C20.4586 41.0343 22.37 47.2946 24.243 53.5612C24.5701 54.6548 25.0672 55.6041 26.257 56.6336H18.1655ZM46.2468 55.1968C46.0351 55.9826 45.5573 56.6336 44.5631 56.6304C39.451 56.6208 34.3389 56.6272 29.23 56.6272C29.2139 56.5053 29.2011 56.3834 29.1851 56.2616C34.573 54.6324 39.9577 53.0032 45.3456 51.3772C45.7016 51.2714 46.1538 51.1174 46.1826 51.7011C46.2404 52.8685 46.5547 54.0519 46.2468 55.1968ZM52.8309 47.6056C44.608 50.0751 36.3946 52.567 28.1877 55.075C26.6066 55.556 26.055 54.6388 25.6797 53.3944C23.7074 46.8616 21.7318 40.3288 19.7595 33.7959C19.3329 32.3784 18.9064 30.9577 18.3932 29.2611C22.014 30.9865 23.9511 29.8352 24.0441 26.1759C24.0922 24.3607 24.1083 22.5455 24.0313 20.7335C23.9832 19.6399 24.3777 19.0947 25.4328 18.7836C31.1093 17.1095 36.7634 15.3712 42.4336 13.6747C44.0692 13.184 44.7106 13.5015 45.2045 15.1147C48.232 25.0598 51.2274 35.0146 54.2581 44.9598C54.6878 46.3773 54.2517 47.1791 52.8309 47.6056Z" fill="black"/>
<path d="M29.9218 24.7555C30.2329 24.3129 30.8262 24.0532 30.5568 23.2739C30.3901 22.7928 31.009 22.5811 31.2271 22.9082C31.6408 23.5176 32.1379 23.4663 32.728 23.4983C33.3726 23.5336 34.3412 23.4919 34.2802 24.4027C34.2225 25.243 33.4432 25.5028 32.5516 25.0955C32.5741 26.3655 33.1161 26.8081 34.2482 26.699C35.1782 26.6092 35.9415 27.0069 36.32 27.8824C36.7016 28.7676 36.6407 29.6624 36.0185 30.4481C35.6465 30.9163 35.0018 31.2178 35.3001 32.0324C35.3771 32.2441 34.7902 32.5167 34.7324 32.4108C34.0942 31.2659 32.9333 32.1447 32.1379 31.6892C31.7274 31.4551 30.9096 31.4904 31.1726 30.7335C31.3778 30.1434 31.8236 29.5886 32.6446 30.06C32.805 30.1531 33.0359 30.1242 33.3823 30.1723C33.2187 28.9376 32.789 28.4533 31.6087 28.418C29.5626 28.3539 28.7448 26.436 29.9218 24.7555Z" fill="black"/>
<path d="M26.7577 38.7C26.267 38.8475 25.7635 39.0175 25.5647 38.3825C25.3787 37.7763 25.8629 37.5198 26.3376 37.369C27.9604 36.8559 29.5928 36.3588 31.2252 35.8649C35.6606 34.5211 40.1024 33.187 44.5346 31.8336C45.16 31.6412 45.7661 31.3493 46.0676 32.1607C46.0836 32.8085 45.6859 32.9753 45.2658 33.1004C39.0986 34.9669 32.9249 36.827 26.7577 38.7Z" fill="black"/>
<path d="M28.4535 42.2438C28.0975 42.3529 27.7447 42.4619 27.4496 42.5517C27.0391 42.5485 26.712 42.4651 26.6447 42.0899C26.5517 41.5831 26.8692 41.2881 27.3085 41.147C28.6266 40.7269 29.948 40.3196 31.2693 39.9187C35.9003 38.514 40.5314 37.1157 45.1624 35.7174C45.4671 35.6244 45.7717 35.5218 46.0828 35.4608C46.4581 35.3903 46.8621 35.3742 47.0353 35.8136C47.247 36.3524 46.8654 36.6154 46.4516 36.7597C45.4991 37.0932 44.5338 37.3915 43.5685 37.6833C38.5333 39.2067 33.4918 40.7237 28.4535 42.2438Z" fill="black"/>
<path d="M31.6031 45.3776C30.6859 45.6534 29.7751 45.9581 28.8515 46.2275C28.4089 46.359 27.9503 46.3333 27.8124 45.8041C27.7065 45.3936 27.9823 45.0986 28.364 44.9382C28.659 44.8164 28.9605 44.7009 29.2652 44.6079C35.0796 42.8376 40.8941 41.0641 46.7149 39.3098C47.2794 39.1398 47.9625 38.7999 48.3217 39.6369C48.2672 40.5926 47.4654 40.5702 46.9138 40.7402C41.8177 42.3084 36.7088 43.835 31.6031 45.3776Z" fill="black"/>
<path d="M49.4891 43.4335C49.3865 44.1807 48.7547 44.2417 48.2127 44.4084C42.7638 46.0665 37.315 47.7214 31.8662 49.3762C31.2055 49.5751 30.5352 49.7515 29.8746 49.9503C29.464 50.0722 29.092 50.0048 28.9349 49.5975C28.7681 49.171 29.092 48.8952 29.4256 48.7156C29.7527 48.5424 30.1087 48.4173 30.4647 48.3115C36.2695 46.5508 42.0775 44.7933 47.8855 43.0422C48.4821 42.8626 49.1299 42.5131 49.4891 43.4335Z" fill="black"/>
<path d="M36.0185 30.4481C35.6465 30.9163 35.0018 31.2178 35.3001 32.0324C35.3771 32.2441 34.7902 32.5167 34.7324 32.4108C34.0942 31.2659 32.9333 32.1447 32.1379 31.6892C31.7274 31.4551 30.9096 31.4904 31.1726 30.7335C31.3778 30.1434 31.8236 29.5886 32.6446 30.06C32.805 30.1531 33.0359 30.1242 33.3823 30.1723C33.2187 28.9376 32.789 28.4533 31.6087 28.418C29.5626 28.3539 28.7448 26.436 29.9218 24.7555C30.2329 24.3129 30.8262 24.0532 30.5568 23.2739C30.3901 22.7928 31.009 22.5811 31.2271 22.9082C31.6408 23.5176 32.1379 23.4663 32.728 23.4983C33.3726 23.5336 34.3412 23.4919 34.2802 24.4027C34.2225 25.243 33.4432 25.5028 32.5516 25.0955C32.5741 26.3655 33.1161 26.8081 34.2482 26.699C35.1782 26.6092 35.9415 27.0069 36.32 27.8824C36.7016 28.7676 36.6407 29.6624 36.0185 30.4481Z" fill="black"/>
<path d="M49.4891 43.4335C49.3865 44.1807 48.7547 44.2417 48.2127 44.4084C42.7638 46.0665 37.315 47.7214 31.8662 49.3762C31.2055 49.5751 30.5352 49.7515 29.8746 49.9503C29.464 50.0722 29.092 50.0048 28.9349 49.5975C28.7681 49.171 29.092 48.8952 29.4256 48.7156C29.7527 48.5424 30.1087 48.4173 30.4647 48.3115C36.2695 46.5508 42.0775 44.7933 47.8855 43.0422C48.4821 42.8626 49.1299 42.5131 49.4891 43.4335Z" fill="black"/>
<path d="M46.0676 32.1607C46.0836 32.8085 45.6859 32.9753 45.2658 33.1004C39.0986 34.9669 32.9249 36.827 26.7577 38.7C26.267 38.8475 25.7635 39.0175 25.5647 38.3825C25.3787 37.7763 25.8629 37.5198 26.3376 37.369C27.9604 36.8559 29.5928 36.3588 31.2252 35.8649C35.6606 34.5211 40.1024 33.187 44.5346 31.8336C45.16 31.6412 45.7661 31.3493 46.0676 32.1607Z" fill="black"/>
<path d="M46.4516 36.7597C45.4991 37.0932 44.5338 37.3915 43.5685 37.6833C38.5333 39.2067 33.4918 40.7237 28.4535 42.2438C28.0975 42.3529 27.7447 42.4619 27.4496 42.5517C27.0391 42.5485 26.712 42.4651 26.6447 42.0899C26.5517 41.5831 26.8692 41.2881 27.3085 41.147C28.6266 40.7269 29.948 40.3196 31.2693 39.9187C35.9003 38.514 40.5314 37.1157 45.1624 35.7174C45.4671 35.6244 45.7717 35.5218 46.0828 35.4608C46.4581 35.3903 46.8621 35.3742 47.0353 35.8136C47.247 36.3524 46.8654 36.6154 46.4516 36.7597Z" fill="black"/>
<path d="M48.3217 39.6369C48.2672 40.5926 47.4654 40.5702 46.9138 40.7402C41.8177 42.3084 36.7088 43.835 31.6031 45.3776C30.6859 45.6534 29.7751 45.9581 28.8515 46.2275C28.4089 46.359 27.9503 46.3333 27.8124 45.8041C27.7065 45.3936 27.9823 45.0986 28.364 44.9382C28.659 44.8164 28.9605 44.7009 29.2652 44.6079C35.0796 42.8376 40.8941 41.0641 46.7149 39.3098C47.2794 39.1398 47.9625 38.7999 48.3217 39.6369Z" fill="black"/>
</svg>
