<svg width="71" height="71" viewBox="0 0 71 71" fill="none" xmlns="http://www.w3.org/2000/svg">
<path d="M29.9228 24.755C30.2339 24.3125 30.8272 24.0527 30.5578 23.2734C30.391 22.7923 31.01 22.5806 31.2281 22.9078C31.6418 23.5171 32.1389 23.4658 32.729 23.4979C33.3736 23.5331 34.3421 23.4914 34.2812 24.4023C34.2235 25.2425 33.4442 25.5023 32.5526 25.095C32.575 26.365 33.117 26.8076 34.2492 26.6985C35.1792 26.6087 35.9425 27.0064 36.3209 27.8819C36.7026 28.7671 36.6416 29.6619 36.0195 30.4476C35.6474 30.9158 35.0028 31.2173 35.3011 32.0319C35.3781 32.2436 34.7912 32.5162 34.7334 32.4104C34.0952 31.2654 32.9343 32.1442 32.1389 31.6888C31.7284 31.4546 30.9106 31.4899 31.1736 30.733C31.3788 30.1429 31.8246 29.5881 32.6456 30.0596C32.806 30.1526 33.0369 30.1237 33.3833 30.1718C33.2197 28.9371 32.7899 28.4528 31.6097 28.4175C29.5636 28.3534 28.7458 26.4355 29.9228 24.755Z" fill="#FEFEFE"/>
<path d="M26.7577 38.6997C26.267 38.8472 25.7635 39.0172 25.5647 38.3822C25.3787 37.7761 25.8629 37.5195 26.3376 37.3688C27.9603 36.8556 29.5928 36.3585 31.2252 35.8647C35.6606 34.5209 40.1024 33.1867 44.5346 31.8333C45.1599 31.6409 45.7661 31.3491 46.0676 32.1605C46.0836 32.8083 45.6859 32.9751 45.2658 33.1001C39.0986 34.9667 32.9249 36.8268 26.7577 38.6997Z" fill="#FEFEFE"/>
<path d="M28.4535 42.2433C28.0975 42.3524 27.7447 42.4614 27.4497 42.5512C27.0391 42.548 26.712 42.4646 26.6447 42.0894C26.5517 41.5827 26.8691 41.2876 27.3085 41.1465C28.6266 40.7264 29.9479 40.3191 31.2693 39.9182C35.9003 38.5135 40.5313 37.1152 45.1624 35.7169C45.4671 35.6239 45.7717 35.5213 46.0828 35.4603C46.458 35.3898 46.8621 35.3737 47.0353 35.8131C47.247 36.3519 46.8653 36.6149 46.4516 36.7592C45.4991 37.0927 44.5338 37.391 43.5685 37.6828C38.5333 39.2062 33.4918 40.7232 28.4535 42.2433Z" fill="#FEFEFE"/>
<path d="M31.6031 45.3769C30.6859 45.6527 29.7751 45.9573 28.8515 46.2267C28.4089 46.3582 27.9503 46.3326 27.8124 45.8034C27.7065 45.3929 27.9823 45.0978 28.364 44.9375C28.659 44.8156 28.9605 44.7002 29.2651 44.6072C35.0796 42.8369 40.894 41.0633 46.7149 39.3091C47.2794 39.1391 47.9625 38.7991 48.3217 39.6362C48.2671 40.5919 47.4654 40.5694 46.9137 40.7394C41.8177 42.3077 36.7088 43.8343 31.6031 45.3769Z" fill="#FEFEFE"/>
<path d="M49.4896 43.4332C49.3869 44.1805 48.7552 44.2414 48.2132 44.4082C42.7643 46.0663 37.3154 47.7211 31.8666 49.376C31.2059 49.5748 30.5357 49.7512 29.875 49.95C29.4645 50.0719 29.0925 50.0046 28.9354 49.5973C28.7686 49.1707 29.0925 48.8949 29.426 48.7153C29.7531 48.5421 30.1091 48.4171 30.4651 48.3112C36.2699 46.5505 42.078 44.793 47.886 43.042C48.4825 42.8624 49.1304 42.5128 49.4896 43.4332Z" fill="#FEFEFE"/>
<path d="M55.5794 44.4274C52.584 34.4694 49.5565 24.521 46.5098 14.5759C45.7721 12.177 44.3546 11.5484 41.9332 12.2988C37.097 13.803 32.2447 15.2654 27.4052 16.7599C26.6387 16.994 26.0454 17.0261 25.4489 16.2724C24.2526 14.7619 22.5624 14.4412 20.8114 14.9768C19.0988 15.5027 18.0693 16.7663 17.8416 18.5943C17.7839 19.0786 17.7967 19.6078 17.2387 19.797C15.199 20.4833 14.9937 22.1253 15.0001 23.9277C15.0162 28.9468 15.0034 33.9691 15.0034 38.9882C15.0066 44.1676 14.9905 49.3503 15.0098 54.5297C15.0194 56.8869 16.1002 58.0672 18.3868 58.0768C27.0909 58.1121 35.7949 58.1121 44.4989 58.0864C46.3173 58.08 47.4013 56.9735 47.6034 55.277C47.7862 53.7216 46.9523 51.7396 48.1133 50.7005C49.1973 49.7319 51.067 49.6389 52.5936 49.1611C52.7443 49.113 52.8951 49.0585 53.049 49.0103C55.6275 48.1733 56.3459 46.9771 55.5794 44.4274ZM19.195 19.0594C19.2528 17.8535 19.8364 16.9299 20.9814 16.4328C21.9948 15.9934 22.9601 16.1153 23.871 16.7182C24.1339 16.8914 24.4835 17.0902 24.352 17.4494C24.1788 17.9176 23.7523 17.7605 23.3963 17.6739C20.8563 17.0549 20.2566 17.5039 20.2117 20.1177C20.186 21.8752 20.2052 23.6359 20.2181 25.3966C20.2213 25.8712 20.2053 26.4581 20.8627 26.4902C21.6164 26.5255 21.6452 25.9129 21.6484 25.3645C21.658 23.6038 21.642 21.8431 21.6613 20.0824C21.6677 19.6302 21.5073 18.9279 22.1263 18.8926C22.7709 18.8573 22.6651 19.5533 22.6683 20.0087C22.6779 22.1959 22.6843 24.3831 22.6651 26.5704C22.6555 27.7762 22.2225 28.7255 20.8371 28.6838C19.5414 28.6454 19.1822 27.7089 19.1758 26.58C19.1662 25.3517 19.1726 24.1266 19.1726 22.8983H19.1822C19.1822 21.6186 19.1341 20.3358 19.195 19.0594ZM17.4183 21.4807C17.9859 21.5032 17.7582 22.1574 17.7679 22.5391C17.7999 23.6808 17.7775 24.8225 17.7775 25.9642C16.9757 24.9283 16.5684 23.8187 16.5203 22.6064C16.4946 22.0163 16.8506 21.4583 17.4183 21.4807ZM52.8309 47.6056C44.6079 50.0751 36.3946 52.567 28.1877 55.0749C26.6066 55.556 26.055 54.6388 25.6798 53.3944C23.7074 46.8616 21.7318 40.3288 19.7594 33.7959C19.3329 32.3784 18.9064 30.9577 18.3933 29.2611C22.0141 30.9865 23.9511 29.8352 24.0441 26.1759C24.0923 24.3607 24.1083 22.5455 24.0313 20.7335C23.9832 19.6399 24.3777 19.0946 25.4328 18.7836C31.1093 17.1095 36.7634 15.3712 42.4336 13.6747C44.0692 13.184 44.7106 13.5015 45.2045 15.1147C48.232 25.0598 51.2274 35.0146 54.2581 44.9598C54.6878 46.3773 54.2516 47.1791 52.8309 47.6056Z" fill="#FEFEFE"/>
<path d="M29.9228 24.755C30.2339 24.3125 30.8272 24.0527 30.5578 23.2734C30.391 22.7923 31.01 22.5806 31.2281 22.9078C31.6418 23.5171 32.1389 23.4658 32.729 23.4979C33.3736 23.5331 34.3421 23.4914 34.2812 24.4023C34.2235 25.2425 33.4442 25.5023 32.5526 25.095C32.575 26.365 33.117 26.8076 34.2492 26.6985C35.1792 26.6087 35.9425 27.0064 36.3209 27.8819C36.7026 28.7671 36.6416 29.6619 36.0195 30.4476C35.6474 30.9158 35.0028 31.2173 35.3011 32.0319C35.3781 32.2436 34.7912 32.5162 34.7334 32.4104C34.0952 31.2654 32.9343 32.1442 32.1389 31.6888C31.7284 31.4546 30.9106 31.4899 31.1736 30.733C31.3788 30.1429 31.8246 29.5881 32.6456 30.0596C32.806 30.1526 33.0369 30.1237 33.3833 30.1718C33.2197 28.9371 32.7899 28.4528 31.6097 28.4175C29.5636 28.3534 28.7458 26.4355 29.9228 24.755Z" fill="#FEFEFE"/>
<path d="M26.7577 38.6997C26.267 38.8472 25.7635 39.0172 25.5647 38.3822C25.3787 37.7761 25.8629 37.5195 26.3376 37.3688C27.9603 36.8556 29.5928 36.3585 31.2252 35.8647C35.6606 34.5209 40.1024 33.1867 44.5346 31.8333C45.1599 31.6409 45.7661 31.3491 46.0676 32.1605C46.0836 32.8083 45.6859 32.9751 45.2658 33.1001C39.0986 34.9667 32.9249 36.8268 26.7577 38.6997Z" fill="#FEFEFE"/>
<path d="M28.4535 42.2433C28.0975 42.3524 27.7447 42.4614 27.4497 42.5512C27.0391 42.548 26.712 42.4646 26.6447 42.0894C26.5517 41.5827 26.8691 41.2876 27.3085 41.1465C28.6266 40.7264 29.9479 40.3191 31.2693 39.9182C35.9003 38.5135 40.5313 37.1152 45.1624 35.7169C45.4671 35.6239 45.7717 35.5213 46.0828 35.4603C46.458 35.3898 46.8621 35.3737 47.0353 35.8131C47.247 36.3519 46.8653 36.6149 46.4516 36.7592C45.4991 37.0927 44.5338 37.391 43.5685 37.6828C38.5333 39.2062 33.4918 40.7232 28.4535 42.2433Z" fill="#FEFEFE"/>
<path d="M31.6031 45.3769C30.6859 45.6527 29.7751 45.9573 28.8515 46.2267C28.4089 46.3582 27.9503 46.3326 27.8124 45.8034C27.7065 45.3929 27.9823 45.0978 28.364 44.9375C28.659 44.8156 28.9605 44.7002 29.2651 44.6072C35.0796 42.8369 40.894 41.0633 46.7149 39.3091C47.2794 39.1391 47.9625 38.7991 48.3217 39.6362C48.2671 40.5919 47.4654 40.5694 46.9137 40.7394C41.8177 42.3077 36.7088 43.8343 31.6031 45.3769Z" fill="#FEFEFE"/>
<path d="M49.4896 43.4332C49.3869 44.1805 48.7552 44.2414 48.2132 44.4082C42.7643 46.0663 37.3154 47.7211 31.8666 49.376C31.2059 49.5748 30.5357 49.7512 29.875 49.95C29.4645 50.0719 29.0925 50.0046 28.9354 49.5973C28.7686 49.1707 29.0925 48.8949 29.426 48.7153C29.7531 48.5421 30.1091 48.4171 30.4651 48.3112C36.2699 46.5505 42.078 44.793 47.886 43.042C48.4825 42.8624 49.1304 42.5128 49.4896 43.4332Z" fill="#FEFEFE"/>
<path d="M26.2602 56.6337C23.2744 56.6337 20.7216 56.6337 18.1687 56.6337C17.0398 56.6337 16.5299 55.9826 16.4626 54.9371C16.4113 54.1931 16.4305 53.4458 16.4305 52.7018C16.4273 45.4024 16.4241 38.1031 16.4369 30.8038C16.4369 30.2426 16.2669 29.646 16.7544 28.8892C17.3926 30.9641 17.9827 32.8659 18.56 34.771C20.4618 41.0312 22.37 47.2914 24.2462 53.5613C24.5701 54.6549 25.0704 55.6042 26.2602 56.6337Z" fill="#04CB3A"/>
<path d="M29.1885 56.2617C34.5764 54.6325 39.9611 53.0033 45.349 51.3805C45.705 51.2747 46.154 51.1208 46.186 51.7044C46.2438 52.8718 46.5581 54.052 46.2502 55.2002C46.0385 55.9859 45.5575 56.6369 44.5665 56.6337C39.4544 56.6241 34.3455 56.6273 29.2334 56.6273C29.2173 56.5055 29.2013 56.3836 29.1885 56.2617Z" fill="#04CB3A"/>
<path d="M36.0195 30.4476C35.6474 30.9158 35.0028 31.2173 35.3011 32.0319C35.3781 32.2436 34.7912 32.5162 34.7334 32.4104C34.0952 31.2654 32.9343 32.1442 32.1389 31.6888C31.7284 31.4546 30.9106 31.4899 31.1736 30.733C31.3788 30.1429 31.8246 29.5881 32.6456 30.0596C32.806 30.1526 33.0369 30.1237 33.3833 30.1718C33.2197 28.9371 32.7899 28.4528 31.6097 28.4175C29.5636 28.3534 28.7458 26.4355 29.9228 24.755C30.2339 24.3125 30.8272 24.0527 30.5578 23.2734C30.391 22.7923 31.01 22.5806 31.2281 22.9078C31.6418 23.5171 32.1389 23.4658 32.729 23.4979C33.3736 23.5331 34.3421 23.4914 34.2812 24.4023C34.2235 25.2425 33.4442 25.5023 32.5526 25.095C32.575 26.365 33.117 26.8076 34.2492 26.6985C35.1792 26.6087 35.9425 27.0064 36.3209 27.8819C36.7026 28.7671 36.6416 29.6619 36.0195 30.4476Z" fill="#FEFEFE"/>
<path d="M49.4896 43.4332C49.3869 44.1805 48.7552 44.2414 48.2132 44.4082C42.7643 46.0663 37.3154 47.7211 31.8666 49.376C31.2059 49.5748 30.5357 49.7512 29.875 49.95C29.4645 50.0719 29.0925 50.0046 28.9354 49.5973C28.7686 49.1707 29.0925 48.8949 29.426 48.7153C29.7531 48.5421 30.1091 48.4171 30.4651 48.3112C36.2699 46.5505 42.078 44.793 47.886 43.042C48.4825 42.8624 49.1304 42.5128 49.4896 43.4332Z" fill="#FEFEFE"/>
<path d="M46.0676 32.1605C46.0836 32.8083 45.6859 32.9751 45.2658 33.1001C39.0986 34.9667 32.9249 36.8268 26.7577 38.6997C26.267 38.8472 25.7635 39.0172 25.5647 38.3822C25.3787 37.7761 25.8629 37.5195 26.3376 37.3688C27.9603 36.8556 29.5928 36.3585 31.2252 35.8647C35.6606 34.5209 40.1024 33.1867 44.5346 31.8333C45.1599 31.6409 45.7661 31.3491 46.0676 32.1605Z" fill="#FEFEFE"/>
<path d="M46.4516 36.7592C45.4991 37.0927 44.5338 37.391 43.5685 37.6828C38.5333 39.2062 33.4918 40.7232 28.4535 42.2433C28.0975 42.3524 27.7447 42.4614 27.4497 42.5512C27.0391 42.548 26.712 42.4646 26.6447 42.0894C26.5517 41.5827 26.8691 41.2876 27.3085 41.1465C28.6266 40.7264 29.9479 40.3191 31.2693 39.9182C35.9003 38.5135 40.5313 37.1152 45.1624 35.7169C45.4671 35.6239 45.7717 35.5213 46.0828 35.4603C46.458 35.3898 46.8621 35.3737 47.0353 35.8131C47.247 36.3519 46.8653 36.6149 46.4516 36.7592Z" fill="#FEFEFE"/>
<path d="M48.3217 39.6362C48.2671 40.5919 47.4654 40.5694 46.9137 40.7394C41.8177 42.3077 36.7088 43.8343 31.6031 45.3769C30.6859 45.6527 29.7751 45.9573 28.8515 46.2267C28.4089 46.3582 27.9503 46.3326 27.8124 45.8034C27.7065 45.3929 27.9823 45.0978 28.364 44.9375C28.659 44.8156 28.9605 44.7002 29.2651 44.6072C35.0796 42.8369 40.894 41.0633 46.7149 39.3091C47.2794 39.1391 47.9625 38.7991 48.3217 39.6362Z" fill="#FEFEFE"/>
</svg>
