<svg width="71" height="71" viewBox="0 0 71 71" fill="none" xmlns="http://www.w3.org/2000/svg">
<path d="M48.2226 56.8461C39.4859 56.8461 31.0276 56.8461 22.4625 56.8461C22.4172 56.3832 22.3427 55.9688 22.3427 55.5577C22.3266 49.7311 22.3524 43.9077 22.2845 38.0811C22.2715 36.8705 22.6923 36.2684 23.7767 35.7634C27.0979 34.2194 30.377 32.5814 33.6399 30.9144C34.7437 30.3511 35.6857 30.2832 36.8284 30.8723C40.2758 32.6494 43.7912 34.297 47.2515 36.0483C47.6594 36.2554 48.1805 36.7798 48.1838 37.1618C48.2388 43.6747 48.2226 50.1875 48.2226 56.8461ZM47.2062 55.001C47.2062 51.4694 47.1447 48.132 47.2353 44.7979C47.2709 43.4837 46.9116 42.7554 45.6265 42.2633C42.4607 41.0527 39.3629 39.664 36.2166 38.408C35.7213 38.2106 35.0286 38.1394 34.5527 38.3271C31.1539 39.6802 27.7744 41.0883 24.4209 42.5514C23.9645 42.7521 23.3721 43.3413 23.3624 43.7621C23.2782 47.4652 23.3138 51.1748 23.3138 54.9912C25.9099 54.9912 28.3474 54.9912 31.0017 54.9912C31.0017 51.9452 31.0017 49.019 31.0017 46.0862C33.9798 46.0862 36.741 46.0862 39.6575 46.0862C39.6575 49.1128 39.6575 52.0067 39.6575 55.0042C42.2083 55.001 44.6037 55.001 47.2062 55.001ZM46.1574 40.7808C46.6915 37.5761 46.63 37.4564 44.0469 36.2846C41.5511 35.1516 39.0813 33.9474 36.537 32.9343C35.7957 32.6397 34.734 32.6397 33.9927 32.9407C31.3513 34.0057 28.7876 35.2584 26.1948 36.4367C23.9386 37.4628 23.6246 38.2268 24.5148 40.7452C27.3989 39.4245 30.3123 38.1847 33.1349 36.7669C34.6207 36.0191 35.8637 35.99 37.3689 36.7539C40.2304 38.2009 43.1955 39.4374 46.1574 40.7808ZM32.8468 47.899C32.8468 50.3267 32.8468 52.6444 32.8468 54.9718C34.5495 54.9718 36.1227 54.9718 37.6959 54.9718C37.6959 52.5505 37.6959 50.2685 37.6959 47.899C36.0677 47.899 34.5333 47.899 32.8468 47.899Z" fill="white"/>
<path d="M23.4955 21.2811C22.942 20.6952 22.4661 20.1967 22 19.7015C27.2893 12.6577 41.6778 11.5669 48.66 19.6853C48.1615 20.2453 47.6468 20.8215 47.1321 21.4009C40.2859 15.1502 30.782 14.8686 23.4955 21.2811Z" fill="white"/>
<path d="M27.1477 24.9521C26.5747 24.308 26.1118 23.7933 25.6489 23.2689C28.491 18.8989 38.9239 16.6945 45.0418 23.1944C44.4657 23.6994 43.883 24.2076 43.2226 24.787C37.9172 20.5498 32.5923 20.6178 27.1477 24.9521Z" fill="white"/>
<path d="M41.5287 26.9812C40.9428 27.5023 40.4281 27.962 39.7645 28.5544C36.9159 26.6283 33.8764 25.9486 30.8207 28.6547C30.2542 27.9782 29.7751 27.4085 29.2896 26.829C31.7529 23.3752 38.0068 23.3331 41.5287 26.9812Z" fill="white"/>
</svg>
