<svg width="71" height="71" viewBox="0 0 71 71" fill="none" xmlns="http://www.w3.org/2000/svg">
<path d="M48.2231 56.846C39.4864 56.846 31.0281 56.846 22.463 56.846C22.4177 56.3832 22.3432 55.9688 22.3432 55.5577C22.327 49.7311 22.3529 43.9077 22.285 38.0811C22.272 36.8705 22.6928 36.2684 23.7772 35.7634C27.0984 34.2194 30.3775 32.5814 33.6404 30.9144C34.7442 30.3511 35.6862 30.2832 36.8288 30.8723C40.2763 32.6494 43.7916 34.297 47.252 36.0483C47.6599 36.2554 48.181 36.7798 48.1843 37.1618C48.2393 43.6747 48.2231 50.1875 48.2231 56.846ZM47.2067 55.001C47.2067 51.4694 47.1452 48.132 47.2358 44.7979C47.2714 43.4837 46.9121 42.7553 45.627 42.2633C42.4612 41.0527 39.3634 39.664 36.217 38.408C35.7218 38.2106 35.0291 38.1394 34.5532 38.3271C31.1544 39.6802 27.7749 41.0883 24.4214 42.5514C23.965 42.7521 23.3726 43.3412 23.3629 43.7621C23.2787 47.4652 23.3143 51.1748 23.3143 54.9912C25.9104 54.9912 28.3479 54.9912 31.0022 54.9912C31.0022 51.9452 31.0022 49.019 31.0022 46.0862C33.9803 46.0862 36.7414 46.0862 39.658 46.0862C39.658 49.1128 39.658 52.0067 39.658 55.0042C42.2088 55.001 44.6041 55.001 47.2067 55.001ZM46.1579 40.7808C46.692 37.5761 46.6305 37.4564 44.0474 36.2846C41.5516 35.1516 39.0818 33.9474 36.5375 32.9343C35.7962 32.6397 34.7345 32.6397 33.9932 32.9407C31.3518 34.0057 28.7881 35.2584 26.1953 36.4367C23.9391 37.4628 23.6251 38.2268 24.5153 40.7452C27.3994 39.4245 30.3127 38.1847 33.1354 36.7669C34.6212 36.0191 35.8642 35.99 37.3694 36.7539C40.2309 38.2009 43.196 39.4374 46.1579 40.7808ZM32.8473 47.899C32.8473 50.3267 32.8473 52.6444 32.8473 54.9718C34.55 54.9718 36.1232 54.9718 37.6964 54.9718C37.6964 52.5505 37.6964 50.2684 37.6964 47.899C36.0681 47.899 34.5338 47.899 32.8473 47.899Z" fill="black"/>
<path d="M23.4955 21.2811C22.942 20.6952 22.4661 20.1967 22 19.7015C27.2893 12.6577 41.6778 11.5669 48.66 19.6853C48.1615 20.2453 47.6468 20.8215 47.1321 21.4009C40.2859 15.1502 30.782 14.8686 23.4955 21.2811Z" fill="url(#paint0_linear_3544_413)"/>
<path d="M27.1467 24.9519C26.5737 24.3077 26.1108 23.793 25.6479 23.2686C28.49 18.8987 38.9229 16.6943 45.0409 23.1942C44.4647 23.6992 43.882 24.2074 43.2217 24.7868C37.9162 20.5496 32.5913 20.6175 27.1467 24.9519Z" fill="url(#paint1_linear_3544_413)"/>
<path d="M41.5287 26.9814C40.9428 27.5026 40.4281 27.9622 39.7645 28.5546C36.9159 26.6286 33.8764 25.9488 30.8207 28.655C30.2542 27.9784 29.7751 27.4087 29.2896 26.8293C31.7529 23.3754 38.0068 23.3333 41.5287 26.9814Z" fill="url(#paint2_linear_3544_413)"/>
<defs>
<linearGradient id="paint0_linear_3544_413" x1="35.33" y1="14" x2="35.33" y2="21.4009" gradientUnits="userSpaceOnUse">
<stop stop-color="#008D1E"/>
<stop offset="1" stop-color="#04CB3A"/>
</linearGradient>
<linearGradient id="paint1_linear_3544_413" x1="35.3444" y1="19.1113" x2="35.3444" y2="24.9519" gradientUnits="userSpaceOnUse">
<stop stop-color="#008D1E"/>
<stop offset="1" stop-color="#04CB3A"/>
</linearGradient>
<linearGradient id="paint2_linear_3544_413" x1="35.4091" y1="24.2419" x2="35.4091" y2="28.655" gradientUnits="userSpaceOnUse">
<stop stop-color="#008D1E"/>
<stop offset="1" stop-color="#04CB3A"/>
</linearGradient>
</defs>
</svg>
