<svg width="71" height="71" viewBox="0 0 71 71" fill="none" xmlns="http://www.w3.org/2000/svg">
<path d="M52.783 51.6851C52.6368 49.175 51.2769 47.6053 48.8557 46.919C46.8762 46.3566 44.9062 45.7466 42.9331 45.1651C40.7026 44.5042 40.0067 41.5556 41.7448 39.9574C43.2222 38.5975 44.3185 37.0152 44.7792 35.0515C44.9412 34.362 45.2335 34.0157 45.9643 33.8092C47.9915 33.2373 48.484 31.4198 47.1431 29.7676C46.174 28.5729 46.2916 27.124 47.4831 26.1009C47.9407 25.7132 47.9057 25.2748 47.499 25.0714C46.4028 24.5249 46.568 23.5749 46.4886 22.6344C46.3774 21.249 45.9325 19.9463 45.1604 18.777C44.776 18.1924 44.49 17.5887 44.3883 16.8928C44.0706 14.6591 43.1651 14.173 40.8964 14.6846C39.5873 14.9769 38.2147 14.9356 37.1948 13.7186C36.4926 12.8862 34.3796 12.7178 33.7378 13.528C32.5113 15.069 30.9862 14.9705 29.3562 14.5829C27.8755 14.2302 26.468 14.9197 26.3631 16.3209C26.2741 17.5029 25.788 18.4212 25.2701 19.3966C24.6982 20.4801 24.3328 21.6398 24.3169 22.8822C24.3042 23.7496 24.2406 24.544 23.3351 25.0492C22.8171 25.3383 22.8553 25.7831 23.3859 26.1739C24.552 27.0287 24.6537 28.6332 23.6528 29.812C22.2675 31.4516 22.7663 33.1896 24.8189 33.8537C25.2478 33.9935 25.7721 33.9395 25.8833 34.5972C26.2424 36.7197 27.4339 38.3083 28.9336 39.8271C30.8495 41.7653 30.0234 44.5169 27.4688 45.2827C25.4448 45.8896 23.4113 46.4615 21.3969 47.097C19.446 47.7134 18.2449 49.0606 18.0892 51.1132C17.9526 52.902 18.0225 54.7068 18.0002 56.5052C17.9939 56.9627 18.1083 57.4361 18.5976 57.4774C19.2267 57.5283 19.3252 56.9818 19.3316 56.4893C19.3443 54.9546 19.3157 53.4199 19.3443 51.8853C19.376 50.2489 20.0878 49.0479 21.6924 48.4823C22.4803 48.2027 23.2747 47.9421 24.2914 47.5958C24.2914 50.6906 24.2946 53.5439 24.2883 56.4003C24.2883 56.9087 24.3677 57.4584 24.946 57.4679C25.5306 57.4806 25.6291 56.9341 25.6259 56.4226C25.6196 55.2596 25.6196 54.0967 25.6196 52.9306C25.6196 51.3451 25.6323 49.7564 25.6164 48.1709C25.6069 47.4814 25.8325 47.0016 26.5855 47.0334C27.3862 47.0684 27.0558 47.7293 27.0685 48.1233C27.113 49.391 27.0653 50.662 27.0939 51.9329C27.1257 53.3151 27.8056 54.1126 29.245 54.1158C33.3692 54.1253 37.4966 54.1158 41.624 54.119C42.663 54.119 43.4447 53.6138 43.6131 52.6478C43.8005 51.5675 43.6893 50.4364 43.6925 49.3243C43.6957 48.9716 43.5177 48.7142 43.1365 48.6825C42.6916 48.6475 42.4247 48.8763 42.4057 49.3211C42.3802 50.0074 42.3707 50.6969 42.393 51.3832C42.4247 52.346 42.1102 52.8226 41.0235 52.8099C37.2679 52.759 33.509 52.7718 29.7534 52.8035C28.8128 52.8131 28.3871 52.5112 28.4316 51.5294C28.4824 50.4205 28.4411 49.3052 28.4443 48.1963C28.4506 46.1946 28.4602 46.1787 30.1378 47.1287C33.42 48.9939 36.7309 49.2131 40.0925 47.3639C40.9441 46.8968 41.8401 46.6235 42.8187 46.668C44.795 46.7602 45.1795 47.1605 45.1795 49.14C45.1827 51.5739 45.1763 54.0109 45.1859 56.4448C45.189 56.9119 45.17 57.5092 45.834 57.4902C46.4123 57.4743 46.5585 56.9722 46.5458 56.4512C46.5394 56.1334 46.5458 55.8157 46.5458 55.4979C46.5458 53.2229 46.5331 50.9479 46.5617 48.6729C46.5648 48.352 46.2725 47.8023 47.0732 47.8182C49.488 47.8627 51.3659 49.6929 51.4008 52.149C51.4199 53.5756 51.3945 55.0054 51.4135 56.4353C51.4199 56.896 51.3849 57.4902 52.0267 57.5442C52.783 57.6045 52.8243 56.9786 52.8274 56.4448C52.8338 54.8593 52.8751 53.2674 52.783 51.6851ZM45.2113 27.7118C45.0556 28.1566 45.5671 28.9859 44.6076 29.0304C43.5368 29.0781 43.7179 28.2106 43.702 27.5561C43.6925 27.0064 43.54 26.2788 44.4233 26.2788C45.4242 26.2788 45.1477 27.0954 45.2113 27.7118ZM25.699 22.4088C25.8801 21.4142 26.128 20.4388 26.7317 19.6095C27.3322 18.777 27.8279 17.9223 27.7643 16.8484C27.7325 16.2987 27.92 15.9174 28.5428 15.8888C29.2291 15.8602 29.0956 16.3559 29.1147 16.7626C29.1338 17.2423 29.1115 17.7793 29.7661 17.8429C30.4619 17.9096 30.4238 17.3694 30.5159 16.8897C30.6875 15.9841 31.485 16.0445 32.1459 15.9682C32.6289 15.911 33.2358 15.6664 33.347 16.5243C33.3946 16.896 33.5916 17.2582 34.0778 17.1852C34.6052 17.1025 34.6973 16.68 34.7387 16.2415C34.7545 16.0858 34.71 15.9174 34.7514 15.768C34.8848 15.2978 34.3415 14.4907 35.3551 14.4431C36.5275 14.3891 35.9492 15.3073 36.0541 15.8125C36.1589 16.3114 35.9588 16.9691 36.6133 17.1566C37.2647 17.3472 37.2837 16.7626 37.4807 16.3177C37.8016 15.6092 39.8256 15.9333 40.2037 16.7848C40.4007 17.2265 40.4802 17.8365 41.0267 17.7761C41.6685 17.6999 41.7003 17.0581 41.6908 16.5116C41.6844 16.1525 41.7797 15.8824 42.2055 15.8888C42.6122 15.8951 43.0538 16.0508 43.0062 16.4702C42.8155 18.1161 43.9117 19.2314 44.5631 20.5309C44.6108 20.6231 44.6362 20.7279 44.6711 20.8264C44.9603 21.6748 45.4909 22.7329 45.0079 23.3842C44.5154 24.0483 43.5749 23.219 42.8473 23.0379C39.0504 22.0942 35.2184 21.9417 31.3548 22.4215C30.821 22.4882 29.8423 22.2976 29.9726 23.2762C30.1029 24.2389 30.9449 23.8036 31.5232 23.7464C35.4345 23.3493 39.3109 23.3842 43.1365 24.8395H27.5292C27.7834 24.3692 28.7271 24.2739 28.2377 23.5208C27.8374 22.9044 27.2782 23.2222 26.8175 23.416C25.6768 23.8926 25.5274 23.3429 25.699 22.4088ZM25.6196 27.7817C25.5719 27.1272 25.4321 26.2915 26.5093 26.3265C27.3608 26.3582 27.024 27.0636 27.1193 27.537C27.0303 28.1598 27.2845 29.0304 26.2392 29.059C25.2288 29.0876 25.6514 28.2583 25.6196 27.7817ZM27.1225 33.5899C27.0018 32.5922 27.1511 31.1084 25.4162 32.4747C25.1017 32.7225 24.6982 32.4238 24.4567 32.1315C24.2374 31.8678 24.2279 31.5342 24.4122 31.2419C24.7045 30.7684 25.1207 30.5365 25.7054 30.4698C28.0058 30.1997 28.3998 29.8025 28.4157 27.5116C28.422 26.6156 28.6667 26.336 29.5627 26.3646C31.5136 26.4281 33.4709 26.3868 35.425 26.3868C37.3791 26.3868 39.3331 26.4091 41.2841 26.3741C42.0244 26.3614 42.3866 26.4472 42.3961 27.3782C42.4216 29.9804 42.698 30.2315 45.2589 30.5047C46.0501 30.5873 46.6792 30.832 46.4727 31.7375C46.2979 32.5001 45.7355 32.6717 45.0016 32.2936C43.6544 31.6009 43.7688 32.7352 43.6734 33.447C43.2763 36.367 41.8687 38.5975 39.2505 39.9892C34.1 42.7185 27.8247 39.3918 27.1225 33.5899ZM39.6223 46.1215C37.5951 47.51 33.2103 47.4941 31.1228 46.1056C31.0815 46.077 31.0307 46.0548 30.9862 46.0262C30.9417 45.9976 31.1927 41.8416 31.2562 41.778C31.7837 41.2665 32.2127 41.8193 32.6638 41.9369C34.9357 42.5247 37.1598 42.3786 39.4761 41.4317C39.6795 42.8266 39.3522 44.0912 40.1052 45.1747C40.4897 45.7339 39.9368 45.9054 39.6223 46.1215Z" fill="black"/>
<path d="M52.783 51.6851C52.6368 49.175 51.2769 47.6053 48.8557 46.919C46.8762 46.3566 44.9062 45.7466 42.9331 45.1651C40.7026 44.5042 40.0067 41.5556 41.7448 39.9574C43.2222 38.5975 44.3185 37.0152 44.7792 35.0515C44.9412 34.362 45.2335 34.0157 45.9643 33.8092C47.9915 33.2373 48.484 31.4198 47.1431 29.7676C46.174 28.5729 46.2916 27.124 47.4831 26.1009C47.9407 25.7132 47.9057 25.2748 47.499 25.0714C46.4028 24.5249 46.568 23.5749 46.4886 22.6344C46.3774 21.249 45.9325 19.9463 45.1604 18.777C44.776 18.1924 44.49 17.5887 44.3883 16.8928C44.0706 14.6591 43.1651 14.173 40.8964 14.6846C39.5873 14.9769 38.2147 14.9356 37.1948 13.7186C36.4926 12.8862 34.3796 12.7178 33.7378 13.528C32.5113 15.069 30.9862 14.9705 29.3562 14.5829C27.8755 14.2302 26.468 14.9197 26.3631 16.3209C26.2741 17.5029 25.788 18.4212 25.2701 19.3966C24.6982 20.4801 24.3328 21.6398 24.3169 22.8822C24.3042 23.7496 24.2406 24.544 23.3351 25.0492C22.8171 25.3383 22.8553 25.7831 23.3859 26.1739C24.552 27.0287 24.6537 28.6332 23.6528 29.812C22.2675 31.4516 22.7663 33.1896 24.8189 33.8537C25.2478 33.9935 25.7721 33.9395 25.8833 34.5972C26.2424 36.7197 27.4339 38.3083 28.9336 39.8271C30.8495 41.7653 30.0234 44.5169 27.4688 45.2827C25.4448 45.8896 23.4113 46.4615 21.3969 47.097C19.446 47.7134 18.2449 49.0606 18.0892 51.1132C17.9526 52.902 18.0225 54.7068 18.0002 56.5052C17.9939 56.9627 18.1083 57.4361 18.5976 57.4774C19.2267 57.5283 19.3252 56.9818 19.3316 56.4893C19.3443 54.9546 19.3157 53.4199 19.3443 51.8853C19.376 50.2489 20.0878 49.0479 21.6924 48.4823C22.4803 48.2027 23.2747 47.9421 24.2914 47.5958C24.2914 50.6906 24.2946 53.5439 24.2883 56.4003C24.2883 56.9087 24.3677 57.4584 24.946 57.4679C25.5306 57.4806 25.6291 56.9341 25.6259 56.4226C25.6196 55.2596 25.6196 54.0967 25.6196 52.9306C25.6196 51.3451 25.6323 49.7564 25.6164 48.1709C25.6069 47.4814 25.8325 47.0016 26.5855 47.0334C27.3862 47.0684 27.0558 47.7293 27.0685 48.1233C27.113 49.391 27.0653 50.662 27.0939 51.9329C27.1257 53.3151 27.8056 54.1126 29.245 54.1158C33.3692 54.1253 37.4966 54.1158 41.624 54.119C42.663 54.119 43.4447 53.6138 43.6131 52.6478C43.8005 51.5675 43.6893 50.4364 43.6925 49.3243C43.6957 48.9716 43.5177 48.7142 43.1365 48.6825C42.6916 48.6475 42.4247 48.8763 42.4057 49.3211C42.3802 50.0074 42.3707 50.6969 42.393 51.3832C42.4247 52.346 42.1102 52.8226 41.0235 52.8099C37.2679 52.759 33.509 52.7718 29.7534 52.8035C28.8128 52.8131 28.3871 52.5112 28.4316 51.5294C28.4824 50.4205 28.4411 49.3052 28.4443 48.1963C28.4506 46.1946 28.4602 46.1787 30.1378 47.1287C33.42 48.9939 36.7309 49.2131 40.0925 47.3639C40.9441 46.8968 41.8401 46.6235 42.8187 46.668C44.795 46.7602 45.1795 47.1605 45.1795 49.14C45.1827 51.5739 45.1763 54.0109 45.1859 56.4448C45.189 56.9119 45.17 57.5092 45.834 57.4902C46.4123 57.4743 46.5585 56.9722 46.5458 56.4512C46.5394 56.1334 46.5458 55.8157 46.5458 55.4979C46.5458 53.2229 46.5331 50.9479 46.5617 48.6729C46.5648 48.352 46.2725 47.8023 47.0732 47.8182C49.488 47.8627 51.3659 49.6929 51.4008 52.149C51.4199 53.5756 51.3945 55.0054 51.4135 56.4353C51.4199 56.896 51.3849 57.4902 52.0267 57.5442C52.783 57.6045 52.8243 56.9786 52.8274 56.4448C52.8338 54.8593 52.8751 53.2674 52.783 51.6851ZM45.2113 27.7118C45.0556 28.1566 45.5671 28.9859 44.6076 29.0304C43.5368 29.0781 43.7179 28.2106 43.702 27.5561C43.6925 27.0064 43.54 26.2788 44.4233 26.2788C45.4242 26.2788 45.1477 27.0954 45.2113 27.7118ZM25.699 22.4088C25.8801 21.4142 26.128 20.4388 26.7317 19.6095C27.3322 18.777 27.8279 17.9223 27.7643 16.8484C27.7325 16.2987 27.92 15.9174 28.5428 15.8888C29.2291 15.8602 29.0956 16.3559 29.1147 16.7626C29.1338 17.2423 29.1115 17.7793 29.7661 17.8429C30.4619 17.9096 30.4238 17.3694 30.5159 16.8897C30.6875 15.9841 31.485 16.0445 32.1459 15.9682C32.6289 15.911 33.2358 15.6664 33.347 16.5243C33.3946 16.896 33.5916 17.2582 34.0778 17.1852C34.6052 17.1025 34.6973 16.68 34.7387 16.2415C34.7545 16.0858 34.71 15.9174 34.7514 15.768C34.8848 15.2978 34.3415 14.4907 35.3551 14.4431C36.5275 14.3891 35.9492 15.3073 36.0541 15.8125C36.1589 16.3114 35.9588 16.9691 36.6133 17.1566C37.2647 17.3472 37.2837 16.7626 37.4807 16.3177C37.8016 15.6092 39.8256 15.9333 40.2037 16.7848C40.4007 17.2265 40.4802 17.8365 41.0267 17.7761C41.6685 17.6999 41.7003 17.0581 41.6908 16.5116C41.6844 16.1525 41.7797 15.8824 42.2055 15.8888C42.6122 15.8951 43.0538 16.0508 43.0062 16.4702C42.8155 18.1161 43.9117 19.2314 44.5631 20.5309C44.6108 20.6231 44.6362 20.7279 44.6711 20.8264C44.9603 21.6748 45.4909 22.7329 45.0079 23.3842C44.5154 24.0483 43.5749 23.219 42.8473 23.0379C39.0504 22.0942 35.2184 21.9417 31.3548 22.4215C30.821 22.4882 29.8423 22.2976 29.9726 23.2762C30.1029 24.2389 30.9449 23.8036 31.5232 23.7464C35.4345 23.3493 39.3109 23.3842 43.1365 24.8395H27.5292C27.7834 24.3692 28.7271 24.2739 28.2377 23.5208C27.8374 22.9044 27.2782 23.2222 26.8175 23.416C25.6768 23.8926 25.5274 23.3429 25.699 22.4088ZM25.6196 27.7817C25.5719 27.1272 25.4321 26.2915 26.5093 26.3265C27.3608 26.3582 27.024 27.0636 27.1193 27.537C27.0303 28.1598 27.2845 29.0304 26.2392 29.059C25.2288 29.0876 25.6514 28.2583 25.6196 27.7817ZM27.1225 33.5899C27.0018 32.5922 27.1511 31.1084 25.4162 32.4747C25.1017 32.7225 24.6982 32.4238 24.4567 32.1315C24.2374 31.8678 24.2279 31.5342 24.4122 31.2419C24.7045 30.7684 25.1207 30.5365 25.7054 30.4698C28.0058 30.1997 28.3998 29.8025 28.4157 27.5116C28.422 26.6156 28.6667 26.336 29.5627 26.3646C31.5136 26.4281 33.4709 26.3868 35.425 26.3868C37.3791 26.3868 39.3331 26.4091 41.2841 26.3741C42.0244 26.3614 42.3866 26.4472 42.3961 27.3782C42.4216 29.9804 42.698 30.2315 45.2589 30.5047C46.0501 30.5873 46.6792 30.832 46.4727 31.7375C46.2979 32.5001 45.7355 32.6717 45.0016 32.2936C43.6544 31.6009 43.7688 32.7352 43.6734 33.447C43.2763 36.367 41.8687 38.5975 39.2505 39.9892C34.1 42.7185 27.8247 39.3918 27.1225 33.5899ZM39.6223 46.1215C37.5951 47.51 33.2103 47.4941 31.1228 46.1056C31.0815 46.077 31.0307 46.0548 30.9862 46.0262C30.9417 45.9976 31.1927 41.8416 31.2562 41.778C31.7837 41.2665 32.2127 41.8193 32.6638 41.9369C34.9357 42.5247 37.1598 42.3786 39.4761 41.4317C39.6795 42.8266 39.3522 44.0912 40.1052 45.1747C40.4897 45.7339 39.9368 45.9054 39.6223 46.1215Z" fill="black"/>
</svg>
