<svg width="71" height="71" viewBox="0 0 71 71" fill="none" xmlns="http://www.w3.org/2000/svg">
<path d="M28.3638 15.396L29.8638 16.396H30.3638C30.6971 16.2293 31.4638 15.896 31.8638 15.896H33.3638C33.7638 15.896 33.8638 15.2293 33.8638 14.896L35.3638 14.396H35.8638L36.8638 15.396L37.8638 15.896H38.8638H41.3638H42.8638L43.3638 16.896V18.396L43.8638 19.396L44.8638 20.896L45.3638 22.396V23.896L43.8638 25.396H33.3638L27.8638 24.896L26.8638 23.896H25.8638L25.3638 22.396L25.8638 20.396L26.8638 19.396L27.3638 17.896V16.396L28.3638 15.396Z" fill="url(#paint0_linear_3544_401)"/>
<path d="M52.7808 51.6827C52.6347 49.1727 51.2748 47.6032 48.8538 46.9169C46.8744 46.3546 44.9046 45.7446 42.9316 45.1631C40.7012 44.5023 40.0054 41.5539 41.7433 39.9557C43.2207 38.5959 44.3168 37.0137 44.7775 35.0502C44.9396 34.3607 45.2318 34.0144 45.9626 33.8079C47.9896 33.236 48.4821 31.4187 47.1413 29.7665C46.1723 28.5719 46.2899 27.1231 47.4813 26.1001C47.9388 25.7124 47.9038 25.274 47.4972 25.0707C46.401 24.5242 46.5663 23.5742 46.4868 22.6338C46.3756 21.2485 45.9308 19.9459 45.1588 18.7767C44.7743 18.1921 44.4884 17.5884 44.3867 16.8926C44.069 14.659 43.1635 14.1729 40.895 14.6845C39.586 14.9768 38.2134 14.9355 37.1936 13.7186C36.4914 12.8862 34.3786 12.7178 33.7368 13.528C32.5104 15.0689 30.9854 14.9704 29.3555 14.5828C27.8749 14.2301 26.4674 14.9196 26.3626 16.3207C26.2736 17.5026 25.7875 18.4208 25.2696 19.3962C24.6977 20.4796 24.3324 21.6393 24.3165 22.8816C24.3038 23.7489 24.2402 24.5432 23.3347 25.0484C22.8168 25.3375 22.855 25.7823 23.3856 26.1731C24.5516 27.0278 24.6533 28.6323 23.6524 29.811C22.2672 31.4504 22.766 33.1883 24.8185 33.8524C25.2474 33.9922 25.7716 33.9382 25.8828 34.5958C26.2418 36.7182 27.4333 38.3068 28.9329 39.8255C30.8487 41.7636 30.0227 44.515 27.4682 45.2807C25.4444 45.8875 23.411 46.4594 21.3967 47.0949C19.4459 47.7112 18.2449 49.0584 18.0892 51.1108C17.9526 52.8996 18.0225 54.7042 18.0002 56.5025C17.9939 56.96 18.1083 57.4334 18.5976 57.4747C19.2266 57.5255 19.3251 56.9791 19.3315 56.4866C19.3442 54.952 19.3156 53.4174 19.3442 51.8829C19.376 50.2466 20.0877 49.0456 21.6921 48.4801C22.4801 48.2005 23.2744 47.94 24.2911 47.5937C24.2911 50.6882 24.2942 53.5414 24.2879 56.3976C24.2879 56.906 24.3673 57.4556 24.9456 57.4652C25.5302 57.4779 25.6287 56.9314 25.6255 56.4199C25.6191 55.257 25.6191 54.0942 25.6191 52.9282C25.6191 51.3427 25.6318 49.7542 25.6159 48.1687C25.6064 47.4793 25.832 46.9995 26.585 47.0313C27.3856 47.0663 27.0552 47.7271 27.0679 48.1211C27.1124 49.3888 27.0647 50.6597 27.0933 51.9305C27.1251 53.3126 27.805 54.1101 29.2443 54.1132C33.3683 54.1228 37.4954 54.1132 41.6226 54.1164C42.6615 54.1164 43.4431 53.6113 43.6115 52.6454C43.7989 51.5652 43.6877 50.4341 43.6909 49.3221C43.6941 48.9694 43.5162 48.712 43.1349 48.6803C42.6901 48.6453 42.4232 48.8741 42.4042 49.3189C42.3787 50.0052 42.3692 50.6946 42.3915 51.3809C42.4232 52.3436 42.1087 52.8201 41.0221 52.8074C37.2667 52.7566 33.5081 52.7693 29.7526 52.8011C28.8122 52.8106 28.3864 52.5088 28.4309 51.527C28.4818 50.4182 28.4405 49.303 28.4436 48.1942C28.45 46.1925 28.4595 46.1767 30.1371 47.1266C33.4191 48.9916 36.7297 49.2109 40.0912 47.3617C40.9427 46.8947 41.8386 46.6215 42.8172 46.6659C44.7934 46.7581 45.1778 47.1584 45.1778 49.1378C45.181 51.5715 45.1747 54.0084 45.1842 56.4421C45.1874 56.9092 45.1683 57.5065 45.8323 57.4874C46.4106 57.4715 46.5567 56.9695 46.544 56.4485C46.5377 56.1308 46.544 55.813 46.544 55.4953C46.544 53.2205 46.5313 50.9456 46.5599 48.6707C46.5631 48.3498 46.2708 47.8002 47.0714 47.8161C49.4861 47.8606 51.3638 49.6906 51.3987 52.1466C51.4178 53.5731 51.3924 55.0029 51.4115 56.4326C51.4178 56.8933 51.3829 57.4874 52.0246 57.5414C52.7808 57.6018 52.8221 56.9759 52.8253 56.4421C52.8317 54.8567 52.873 53.2649 52.7808 51.6827ZM45.2096 27.7109C45.0539 28.1557 45.5654 28.9849 44.6059 29.0294C43.5352 29.0771 43.7163 28.2097 43.7005 27.5552C43.6909 27.0056 43.5384 26.278 44.4217 26.278C45.4225 26.278 45.1461 27.0945 45.2096 27.7109ZM25.6985 22.4082C25.8796 21.4137 26.1275 20.4383 26.7311 19.6091C27.3316 18.7767 27.8273 17.922 27.7637 16.8481C27.7319 16.2985 27.9194 15.9172 28.5421 15.8886C29.2284 15.86 29.0949 16.3557 29.114 16.7623C29.1331 17.2421 29.1108 17.779 29.7653 17.8426C30.4612 17.9093 30.423 17.3692 30.5152 16.8894C30.6867 15.9839 31.4842 16.0443 32.1451 15.968C32.628 15.9109 33.2348 15.6662 33.346 16.524C33.3937 16.8958 33.5907 17.258 34.0768 17.1849C34.6042 17.1023 34.6963 16.6797 34.7376 16.2413C34.7535 16.0856 34.709 15.9172 34.7503 15.7679C34.8838 15.2977 34.3405 14.4907 35.354 14.443C36.5264 14.389 35.9481 15.3072 36.053 15.8124C36.1578 16.3112 35.9577 16.9689 36.6122 17.1563C37.2635 17.3469 37.2825 16.7623 37.4795 16.3175C37.8004 15.609 39.8243 15.9331 40.2024 16.7846C40.3994 17.2262 40.4788 17.8362 41.0253 17.7759C41.667 17.6996 41.6988 17.0578 41.6893 16.5113C41.6829 16.1523 41.7783 15.8823 42.204 15.8886C42.6107 15.895 43.0523 16.0506 43.0046 16.47C42.814 18.1158 43.9101 19.231 44.5615 20.5305C44.6091 20.6226 44.6345 20.7275 44.6695 20.8259C44.9586 21.6743 45.4892 22.7323 45.0063 23.3836C44.5138 24.0476 43.5734 23.2184 42.8458 23.0373C39.0491 22.0936 35.2174 21.9411 31.3539 22.4209C30.8202 22.4876 29.8416 22.297 29.9719 23.2756C30.1021 24.2382 30.9441 23.803 31.5223 23.7458C35.4334 23.3486 39.3096 23.3836 43.1349 24.8387H27.5286C27.7828 24.3685 28.7264 24.2732 28.2371 23.5202C27.8368 22.9038 27.2776 23.2215 26.8169 23.4153C25.6763 23.8919 25.527 23.3423 25.6985 22.4082ZM25.6191 27.7808C25.5715 27.1263 25.4317 26.2907 26.5087 26.3256C27.3602 26.3574 27.0234 27.0627 27.1188 27.5361C27.0298 28.1589 27.284 29.0294 26.2387 29.058C25.2283 29.0866 25.6509 28.2574 25.6191 27.7808ZM27.1219 33.5887C27.0012 32.591 27.1505 31.1073 25.4158 32.4735C25.1012 32.7213 24.6977 32.4226 24.4563 32.1303C24.2371 31.8666 24.2275 31.533 24.4118 31.2407C24.7041 30.7673 25.1203 30.5354 25.7049 30.4687C28.0052 30.1986 28.3992 29.8015 28.415 27.5107C28.4214 26.6148 28.666 26.3352 29.562 26.3638C31.5128 26.4273 33.4699 26.386 35.4239 26.386C37.3779 26.386 39.3318 26.4082 41.2826 26.3733C42.0229 26.3606 42.3851 26.4464 42.3946 27.3773C42.4201 29.9794 42.6965 30.2304 45.2573 30.5036C46.0484 30.5862 46.6775 30.8309 46.4709 31.7364C46.2962 32.4989 45.7338 32.6705 44.9999 32.2924C43.6528 31.5998 43.7672 32.734 43.6718 33.4457C43.2747 36.3655 41.8672 38.5959 39.2492 39.9875C34.099 42.7167 27.8241 39.3902 27.1219 33.5887ZM39.6209 46.1195C37.5939 47.5079 33.2094 47.492 31.122 46.1036C31.0807 46.075 31.0299 46.0527 30.9854 46.0242C30.9409 45.9956 31.1919 41.8398 31.2554 41.7763C31.7828 41.2647 32.2118 41.8176 32.6629 41.9351C34.9346 42.5229 37.1586 42.3768 39.4748 41.43C39.6781 42.8247 39.3509 44.0893 40.1039 45.1727C40.4883 45.7319 39.9355 45.9034 39.6209 46.1195Z" fill="black"/>
<path d="M52.7808 51.6827C52.6347 49.1727 51.2748 47.6032 48.8538 46.9169C46.8744 46.3546 44.9046 45.7446 42.9316 45.1631C40.7012 44.5023 40.0054 41.5539 41.7433 39.9557C43.2207 38.5959 44.3168 37.0137 44.7775 35.0502C44.9396 34.3607 45.2318 34.0144 45.9626 33.8079C47.9896 33.236 48.4821 31.4187 47.1413 29.7665C46.1723 28.5719 46.2899 27.1231 47.4813 26.1001C47.9388 25.7124 47.9038 25.274 47.4972 25.0707C46.401 24.5242 46.5663 23.5742 46.4868 22.6338C46.3756 21.2485 45.9308 19.9459 45.1588 18.7767C44.7743 18.1921 44.4884 17.5884 44.3867 16.8926C44.069 14.659 43.1635 14.1729 40.895 14.6845C39.586 14.9768 38.2134 14.9355 37.1936 13.7186C36.4914 12.8862 34.3786 12.7178 33.7368 13.528C32.5104 15.0689 30.9854 14.9704 29.3555 14.5828C27.8749 14.2301 26.4674 14.9196 26.3626 16.3207C26.2736 17.5026 25.7875 18.4208 25.2696 19.3962C24.6977 20.4796 24.3324 21.6393 24.3165 22.8816C24.3038 23.7489 24.2402 24.5432 23.3347 25.0484C22.8168 25.3375 22.855 25.7823 23.3856 26.1731C24.5516 27.0278 24.6533 28.6323 23.6524 29.811C22.2672 31.4504 22.766 33.1883 24.8185 33.8524C25.2474 33.9922 25.7716 33.9382 25.8828 34.5958C26.2418 36.7182 27.4333 38.3068 28.9329 39.8255C30.8487 41.7636 30.0227 44.515 27.4682 45.2807C25.4444 45.8875 23.411 46.4594 21.3967 47.0949C19.4459 47.7112 18.2449 49.0584 18.0892 51.1108C17.9526 52.8996 18.0225 54.7042 18.0002 56.5025C17.9939 56.96 18.1083 57.4334 18.5976 57.4747C19.2266 57.5255 19.3251 56.9791 19.3315 56.4866C19.3442 54.952 19.3156 53.4174 19.3442 51.8829C19.376 50.2466 20.0877 49.0456 21.6921 48.4801C22.4801 48.2005 23.2744 47.94 24.2911 47.5937C24.2911 50.6882 24.2942 53.5414 24.2879 56.3976C24.2879 56.906 24.3673 57.4556 24.9456 57.4652C25.5302 57.4779 25.6287 56.9314 25.6255 56.4199C25.6191 55.257 25.6191 54.0942 25.6191 52.9282C25.6191 51.3427 25.6318 49.7542 25.6159 48.1687C25.6064 47.4793 25.832 46.9995 26.585 47.0313C27.3856 47.0663 27.0552 47.7271 27.0679 48.1211C27.1124 49.3888 27.0647 50.6597 27.0933 51.9305C27.1251 53.3126 27.805 54.1101 29.2443 54.1132C33.3683 54.1228 37.4954 54.1132 41.6226 54.1164C42.6615 54.1164 43.4431 53.6113 43.6115 52.6454C43.7989 51.5652 43.6877 50.4341 43.6909 49.3221C43.6941 48.9694 43.5162 48.712 43.1349 48.6803C42.6901 48.6453 42.4232 48.8741 42.4042 49.3189C42.3787 50.0052 42.3692 50.6946 42.3915 51.3809C42.4232 52.3436 42.1087 52.8201 41.0221 52.8074C37.2667 52.7566 33.5081 52.7693 29.7526 52.8011C28.8122 52.8106 28.3864 52.5088 28.4309 51.527C28.4818 50.4182 28.4405 49.303 28.4436 48.1942C28.45 46.1925 28.4595 46.1767 30.1371 47.1266C33.4191 48.9916 36.7297 49.2109 40.0912 47.3617C40.9427 46.8947 41.8386 46.6215 42.8172 46.6659C44.7934 46.7581 45.1778 47.1584 45.1778 49.1378C45.181 51.5715 45.1747 54.0084 45.1842 56.4421C45.1874 56.9092 45.1683 57.5065 45.8323 57.4874C46.4106 57.4715 46.5567 56.9695 46.544 56.4485C46.5377 56.1308 46.544 55.813 46.544 55.4953C46.544 53.2205 46.5313 50.9456 46.5599 48.6707C46.5631 48.3498 46.2708 47.8002 47.0714 47.8161C49.4861 47.8606 51.3638 49.6906 51.3987 52.1466C51.4178 53.5731 51.3924 55.0029 51.4115 56.4326C51.4178 56.8933 51.3829 57.4874 52.0246 57.5414C52.7808 57.6018 52.8221 56.9759 52.8253 56.4421C52.8317 54.8567 52.873 53.2649 52.7808 51.6827ZM45.2096 27.7109C45.0539 28.1557 45.5654 28.9849 44.6059 29.0294C43.5352 29.0771 43.7163 28.2097 43.7005 27.5552C43.6909 27.0056 43.5384 26.278 44.4217 26.278C45.4225 26.278 45.1461 27.0945 45.2096 27.7109ZM25.6985 22.4082C25.8796 21.4137 26.1275 20.4383 26.7311 19.6091C27.3316 18.7767 27.8273 17.922 27.7637 16.8481C27.7319 16.2985 27.9194 15.9172 28.5421 15.8886C29.2284 15.86 29.0949 16.3557 29.114 16.7623C29.1331 17.2421 29.1108 17.779 29.7653 17.8426C30.4612 17.9093 30.423 17.3692 30.5152 16.8894C30.6867 15.9839 31.4842 16.0443 32.1451 15.968C32.628 15.9109 33.2348 15.6662 33.346 16.524C33.3937 16.8958 33.5907 17.258 34.0768 17.1849C34.6042 17.1023 34.6963 16.6797 34.7376 16.2413C34.7535 16.0856 34.709 15.9172 34.7503 15.7679C34.8838 15.2977 34.3405 14.4907 35.354 14.443C36.5264 14.389 35.9481 15.3072 36.053 15.8124C36.1578 16.3112 35.9577 16.9689 36.6122 17.1563C37.2635 17.3469 37.2825 16.7623 37.4795 16.3175C37.8004 15.609 39.8243 15.9331 40.2024 16.7846C40.3994 17.2262 40.4788 17.8362 41.0253 17.7759C41.667 17.6996 41.6988 17.0578 41.6893 16.5113C41.6829 16.1523 41.7783 15.8823 42.204 15.8886C42.6107 15.895 43.0523 16.0506 43.0046 16.47C42.814 18.1158 43.9101 19.231 44.5615 20.5305C44.6091 20.6226 44.6345 20.7275 44.6695 20.8259C44.9586 21.6743 45.4892 22.7323 45.0063 23.3836C44.5138 24.0476 43.5734 23.2184 42.8458 23.0373C39.0491 22.0936 35.2174 21.9411 31.3539 22.4209C30.8202 22.4876 29.8416 22.297 29.9719 23.2756C30.1021 24.2382 30.9441 23.803 31.5223 23.7458C35.4334 23.3486 39.3096 23.3836 43.1349 24.8387H27.5286C27.7828 24.3685 28.7264 24.2732 28.2371 23.5202C27.8368 22.9038 27.2776 23.2215 26.8169 23.4153C25.6763 23.8919 25.527 23.3423 25.6985 22.4082ZM25.6191 27.7808C25.5715 27.1263 25.4317 26.2907 26.5087 26.3256C27.3602 26.3574 27.0234 27.0627 27.1188 27.5361C27.0298 28.1589 27.284 29.0294 26.2387 29.058C25.2283 29.0866 25.6509 28.2574 25.6191 27.7808ZM27.1219 33.5887C27.0012 32.591 27.1505 31.1073 25.4158 32.4735C25.1012 32.7213 24.6977 32.4226 24.4563 32.1303C24.2371 31.8666 24.2275 31.533 24.4118 31.2407C24.7041 30.7673 25.1203 30.5354 25.7049 30.4687C28.0052 30.1986 28.3992 29.8015 28.415 27.5107C28.4214 26.6148 28.666 26.3352 29.562 26.3638C31.5128 26.4273 33.4699 26.386 35.4239 26.386C37.3779 26.386 39.3318 26.4082 41.2826 26.3733C42.0229 26.3606 42.3851 26.4464 42.3946 27.3773C42.4201 29.9794 42.6965 30.2304 45.2573 30.5036C46.0484 30.5862 46.6775 30.8309 46.4709 31.7364C46.2962 32.4989 45.7338 32.6705 44.9999 32.2924C43.6528 31.5998 43.7672 32.734 43.6718 33.4457C43.2747 36.3655 41.8672 38.5959 39.2492 39.9875C34.099 42.7167 27.8241 39.3902 27.1219 33.5887ZM39.6209 46.1195C37.5939 47.5079 33.2094 47.492 31.122 46.1036C31.0807 46.075 31.0299 46.0527 30.9854 46.0242C30.9409 45.9956 31.1919 41.8398 31.2554 41.7763C31.7828 41.2647 32.2118 41.8176 32.6629 41.9351C34.9346 42.5229 37.1586 42.3768 39.4748 41.43C39.6781 42.8247 39.3509 44.0893 40.1039 45.1727C40.4883 45.7319 39.9355 45.9034 39.6209 46.1195Z" fill="black"/>
<defs>
<linearGradient id="paint0_linear_3544_401" x1="35.3638" y1="14.396" x2="35.3638" y2="25.396" gradientUnits="userSpaceOnUse">
<stop stop-color="#008D1E"/>
<stop offset="1" stop-color="#04CB3A"/>
</linearGradient>
</defs>
</svg>
