<svg width="71" height="71" viewBox="0 0 71 71" fill="none" xmlns="http://www.w3.org/2000/svg">
<path d="M22.1412 40.3453C22.5872 43.1935 23.6976 45.731 25.7214 47.8163C26.555 48.6776 26.6042 49.4742 25.7337 50.3292C24.6388 51.4027 23.5653 52.4976 22.4857 53.5865C21.6245 54.4538 20.8371 54.3923 19.9975 53.5126C16.6326 49.9909 14.6825 45.8202 14.1381 40.9851C13.7998 38.1277 13.8952 38.017 16.7033 38.0016C17.5707 37.9985 18.438 37.9647 19.3023 38.0078C21.9967 38.14 21.8367 37.7279 22.1412 40.3453Z" fill="#333333"/>
<path d="M47.0516 45.5617C48.6171 43.9685 48.8632 41.8769 49.1985 39.8223C49.2723 39.3702 49.2415 38.9027 49.2569 38.4444C50.847 37.5893 52.5602 38.1153 54.215 38.0292C55.2054 37.9769 56.2727 37.7708 57.1739 38.469C57.3215 44.1591 55.3407 49.0404 51.5299 53.2049C50.278 54.5736 49.789 54.549 48.5095 53.2911C47.599 52.396 46.704 51.4825 45.7936 50.5844C45.2246 50.0215 44.8155 49.4033 44.9508 48.5513C45.6306 48.2314 46.0981 48.7789 46.6517 48.9696C47.1192 49.1326 47.5621 49.1634 47.9035 48.742C48.2019 48.3729 48.0727 47.9854 47.922 47.5886C47.6544 46.9027 46.8639 46.4414 47.0516 45.5617Z" fill="#CACACA"/>
<path d="M22.1411 40.3455C22.0488 38.5123 20.8862 38.3493 19.4006 38.4847C18.1949 38.5954 16.9646 38.5831 15.7589 38.4877C14.504 38.3862 13.9503 38.7799 14.2026 40.0871C14.2579 40.3732 14.1625 40.6869 14.1379 40.9883C13.5874 35.861 14.6793 31.1152 17.5151 26.7999C18.321 25.5757 19.1207 24.3208 20.3079 23.4012C20.6401 23.2843 20.9169 23.4319 21.1384 23.638C22.6916 25.0928 24.1957 26.5969 25.6505 28.1501C25.8596 28.3716 26.0042 28.6484 25.8935 28.9806C22.9469 32.2101 21.6981 35.9995 22.1411 40.3455Z" fill="#808080"/>
<path d="M47.0519 45.5619C47.4794 46.1863 47.9039 46.8137 48.3345 47.4381C48.7189 47.9948 48.8235 48.5731 48.3621 49.1205C47.8577 49.7172 47.2303 49.7234 46.569 49.3881C46.0276 49.1113 45.4894 48.8345 44.9511 48.5546C41.7585 46.6599 38.5597 44.7745 35.3763 42.8583C34.7242 42.4677 34.0876 42.0217 33.5278 41.5081C31.7992 39.921 31.7192 37.4511 33.2879 35.7749C34.8073 34.1539 37.1848 34.074 38.9042 35.658C40.9742 37.568 42.5551 39.9025 44.3022 42.0924C45.2218 43.2459 46.1353 44.4054 47.0519 45.5619Z" fill="black"/>
<path d="M25.8903 28.9805C24.1248 27.0243 22.3009 25.1235 20.3047 23.398C24.54 19.0888 29.6796 16.9666 35.7173 17.0004C36.0925 17.4095 36.1848 17.9231 36.1479 18.4337C35.9941 20.599 36.6216 22.8136 35.7358 24.9328C31.9095 24.9574 28.6707 26.4091 25.8903 28.9805Z" fill="#CACACA"/>
<path d="M57.1737 38.469C54.5347 38.4597 51.8957 38.4505 49.2567 38.4413C49.2351 34.8088 47.6972 31.7823 45.5104 29.011C45.3228 28.6911 45.4643 28.3989 45.6488 28.1621C47.1252 26.2767 48.703 24.4927 50.7176 23.1548C54.9868 27.3686 57.1829 32.4559 57.1737 38.469Z" fill="#808080"/>
<path d="M50.7179 23.1581C49.5614 24.7759 47.9774 25.9847 46.6548 27.4426C46.2181 27.9224 45.7229 28.3684 45.5076 29.0143C42.6779 26.6244 39.5314 24.9974 35.7328 24.9359C35.7267 22.2938 35.7205 19.6486 35.7144 17.0066C41.5798 16.9543 46.5595 19.0581 50.7179 23.1581Z" fill="#333333"/>
</svg>
