<svg width="71" height="71" viewBox="0 0 71 71" fill="none" xmlns="http://www.w3.org/2000/svg">
<path d="M22.1407 40.3445C22.5867 43.1926 23.697 45.73 25.7207 47.8153C26.5542 48.6764 26.6035 49.473 25.7331 50.328C24.6381 51.4014 23.5647 52.4964 22.4852 53.5852C21.624 54.4525 20.8366 54.391 19.997 53.5113C16.6322 49.9897 14.6823 45.8192 14.1379 40.9843C13.7996 38.127 13.8949 38.0163 16.703 38.0009C17.5703 37.9978 18.4376 37.964 19.3019 38.007C21.9961 38.1393 21.8362 37.7272 22.1407 40.3445Z" fill="#B5B5B5"/>
<path d="M47.0505 45.5609C48.616 43.9677 48.8621 41.8763 49.1973 39.8218C49.2711 39.3697 49.2404 38.9022 49.2557 38.4439C50.8459 37.5889 52.559 38.1148 54.2137 38.0287C55.204 37.9764 56.2713 37.7703 57.1724 38.4685C57.3201 44.1584 55.3394 49.0395 51.5286 53.2039C50.2769 54.5725 49.7878 54.5479 48.5083 53.29C47.598 52.395 46.703 51.4815 45.7926 50.5834C45.2236 50.0206 44.8145 49.4024 44.9499 48.5504C45.6296 48.2306 46.0971 48.778 46.6507 48.9687C47.1182 49.1317 47.5611 49.1625 47.9025 48.7411C48.2008 48.3721 48.0716 47.9845 47.9209 47.5878C47.6533 46.9019 46.8629 46.4406 47.0505 45.5609Z" fill="url(#paint0_linear_3541_227)"/>
<path d="M22.1408 40.3446C22.0485 38.5115 20.8859 38.3485 19.4004 38.4839C18.1947 38.5946 16.9645 38.5823 15.7588 38.4869C14.5039 38.3854 13.9503 38.7791 14.2025 40.0863C14.2579 40.3723 14.1625 40.686 14.1379 40.9874C13.5874 35.8603 14.6793 31.1146 17.515 26.7995C18.3208 25.5754 19.1205 24.3205 20.3077 23.4009C20.6399 23.284 20.9166 23.4317 21.1381 23.6377C22.6913 25.0925 24.1953 26.5965 25.6501 28.1497C25.8592 28.3712 26.0038 28.648 25.8931 28.9801C22.9466 32.2096 21.6979 35.9987 22.1408 40.3446Z" fill="#D1D1D1"/>
<path d="M47.0503 45.5608C47.4778 46.1851 47.9023 46.8125 48.3329 47.4369C48.7173 47.9936 48.8219 48.5718 48.3606 49.1193C47.8562 49.7159 47.2287 49.7221 46.5675 49.3869C46.0262 49.11 45.4879 48.8332 44.9497 48.5534C41.7572 46.6588 38.5585 44.7734 35.3752 42.8573C34.7232 42.4667 34.0865 42.0207 33.5268 41.5071C31.7982 39.92 31.7183 37.4503 33.2868 35.7741C34.8062 34.1532 37.1837 34.0732 38.903 35.6572C40.9729 37.5672 42.5538 39.9016 44.3007 42.0914C45.2203 43.2448 46.1338 44.4043 47.0503 45.5608Z" fill="white"/>
<path d="M25.8901 28.98C24.1246 27.0239 22.3008 25.1232 20.3047 23.3977C24.5398 19.0888 29.6792 16.9666 35.7167 17.0004C36.0919 17.4095 36.1842 17.9231 36.1473 18.4336C35.9935 20.5989 36.621 22.8134 35.7352 24.9325C31.9091 24.9571 28.6704 26.4088 25.8901 28.98Z" fill="white"/>
<path d="M57.1722 38.4684C54.5333 38.4592 51.8944 38.4499 49.2555 38.4407C49.234 34.8084 47.6962 31.782 45.5094 29.0108C45.3218 28.6909 45.4633 28.3988 45.6478 28.1619C47.1241 26.2766 48.7019 24.4927 50.7165 23.1548C54.9855 27.3684 57.1815 32.4555 57.1722 38.4684Z" fill="#008C1E"/>
<path d="M50.7166 23.1578C49.5602 24.7756 47.9762 25.9844 46.6537 27.4422C46.217 27.922 45.7218 28.368 45.5065 29.0139C42.6769 26.6241 39.5305 24.9971 35.7321 24.9356C35.7259 22.2936 35.7198 19.6485 35.7136 17.0066C41.5789 16.9543 46.5583 19.058 50.7166 23.1578Z" fill="#04CB3A"/>
<defs>
<linearGradient id="paint0_linear_3541_227" x1="48.7549" y1="37.9145" x2="49.8313" y2="53.1389" gradientUnits="userSpaceOnUse">
<stop stop-color="#04CB3A"/>
<stop offset="1" stop-color="#008D1E"/>
</linearGradient>
</defs>
</svg>
