<svg width="52" height="30" viewBox="0 0 52 30" fill="none" xmlns="http://www.w3.org/2000/svg">
<path d="M28.8952 0.00848567C29.4489 0.199413 30.0153 0.37337 30.5475 0.623697C32.4058 1.48924 34.0022 2.70269 35.4013 4.17495C35.4313 4.20465 35.4571 4.23859 35.4871 4.26829C35.7017 4.45922 35.809 4.78592 36.0879 4.86653C36.3583 4.9429 36.6759 4.9429 36.9591 4.90048C37.4398 4.82835 37.6501 5.06595 37.8561 5.45205C38.3797 6.4279 39.032 7.31889 39.8817 8.0529C40.5426 8.62144 41.2808 9.04149 42.1906 9.02876C43.2764 9.01603 44.1304 8.56629 44.6153 7.58195C45.1132 6.57215 44.9587 5.60479 44.2677 4.72652C43.6197 3.89917 42.7356 3.38578 41.7958 2.95726C40.7357 2.47357 39.6199 2.15536 38.4483 1.93473C38.7101 1.49772 38.9676 1.07768 39.2208 0.65764C39.2637 0.585511 39.3281 0.602483 39.3925 0.610968C41.1477 0.924938 42.8558 1.37468 44.4008 2.29962C45.5766 3.00393 46.5337 3.91614 47.01 5.22293C47.8211 7.46315 47.1946 9.55063 45.0659 10.8956C43.9458 11.5999 42.7056 11.9521 41.3923 12.0454C39.3538 12.1939 37.3625 11.9478 35.4313 11.2732C35.1781 11.1841 34.9335 11.0653 34.6846 10.9592C34.6202 10.9338 34.5644 10.8786 34.47 10.9126C34.8005 11.2817 35.1352 11.6466 35.4571 12.0157C36.7145 13.4625 37.869 14.9857 38.8646 16.6234C38.9461 16.7592 38.9547 16.8356 38.8303 16.9544C38.0878 17.6757 37.354 18.4054 36.6201 19.1394C36.5171 19.2413 36.4656 19.254 36.354 19.1437C33.9894 16.8356 31.1526 15.393 27.9168 14.7184C25.8396 14.2856 23.7539 14.2729 21.6639 14.6548C18.2907 15.27 15.3896 16.7762 12.9348 19.1352C12.7031 19.3558 12.4842 19.5849 12.2653 19.8183C12.1838 19.9074 12.1366 19.9074 12.0508 19.8183C11.3555 19.1267 10.656 18.4394 9.96075 17.752C9.89638 17.6926 9.85346 17.6417 9.89209 17.5356C10.4285 16.0125 10.9779 14.4978 11.7418 13.0637C12.4327 11.7654 13.3211 10.6198 14.3596 9.58033C14.4111 9.52941 14.454 9.47425 14.5013 9.42334C14.5055 9.41061 14.5141 9.39364 14.5184 9.38091C14.5013 9.38091 14.4841 9.38091 14.4669 9.38091C13.4412 9.90702 12.4928 10.5392 11.6774 11.3538C11.5658 11.4684 11.5444 11.426 11.4757 11.3199C11.3255 11.0908 11.2954 10.9083 11.4671 10.641C12.6215 8.88874 14.1665 7.57346 16.0419 6.6358C18.4023 5.45629 20.9172 5.01928 23.5479 5.15505C25.3633 5.24839 27.1057 5.61752 28.7493 6.40244C29.1871 6.61034 29.6076 6.8437 30.0282 7.11099C30.0454 7.00917 29.9724 6.96674 29.9252 6.91582C29.6205 6.55943 29.2643 6.25394 28.9081 5.94846C28.8309 5.88057 28.7922 5.82117 28.7922 5.71934C28.7965 3.81431 28.7965 1.90928 28.7965 0C28.8395 0.00848567 28.8695 0.00848567 28.8952 0.00848567Z" fill="#0175FE"/>
<path d="M0 26.1451C0.0557907 26.1281 0.0429159 26.0772 0.0514991 26.039C0.381951 24.5455 2.15867 24.0831 3.11569 25.0801C3.12428 25.0717 3.14573 25.0674 3.14573 25.0589C3.18007 24.694 3.18007 24.694 3.56202 24.694C3.78518 24.694 4.00405 24.6983 4.22721 24.694C4.32592 24.694 4.37742 24.6983 4.37742 24.8256C4.37313 25.9669 4.37313 27.1082 4.37742 28.2495C4.37742 28.3726 4.32592 28.3853 4.22292 28.3853C3.93539 28.3811 3.65214 28.3768 3.36461 28.3853C3.20582 28.3938 3.11999 28.3599 3.15003 28.1817C3.15861 28.1265 3.14573 28.0713 3.14144 27.9992C3.00411 28.0968 2.88395 28.1944 2.75091 28.2708C1.72093 28.8605 0.411993 28.292 0.0858318 27.1125C0.0643738 27.0403 0.072957 26.9597 0 26.9088C0 26.65 0 26.3997 0 26.1451ZM1.28319 26.5354C1.28319 27.0658 1.6823 27.4561 2.23163 27.4604C2.76807 27.4646 3.18007 27.0615 3.18436 26.5312C3.18436 26.039 2.74233 25.5808 2.26167 25.5723C1.72093 25.5638 1.28319 25.9924 1.28319 26.5354Z" fill="white"/>
<path d="M13.3082 25.1398C14.1194 24.2912 15.4197 24.4312 15.8145 25.144C16.1579 24.7494 16.6085 24.5882 17.1149 24.55C18.0805 24.4737 18.6899 25.021 18.6899 25.9799C18.6899 26.7224 18.6856 27.4606 18.6942 28.2031C18.6942 28.3516 18.6556 28.394 18.5054 28.3898C18.235 28.3771 17.9603 28.3686 17.69 28.3898C17.4797 28.4068 17.4453 28.3219 17.4496 28.1395C17.4625 27.5752 17.4539 27.0109 17.4539 26.4466C17.4539 26.2981 17.4496 26.1538 17.4024 26.0096C17.3252 25.772 17.1964 25.5895 16.9346 25.5429C16.6771 25.4962 16.454 25.5726 16.278 25.7635C16.0634 25.9926 15.9948 26.2811 15.9905 26.5823C15.9862 27.1254 15.9862 27.6685 15.9948 28.2116C15.9948 28.3474 15.9647 28.394 15.8188 28.3898C15.5184 28.3771 15.218 28.3813 14.9176 28.3898C14.7846 28.394 14.7502 28.3516 14.7502 28.2243C14.7588 27.6176 14.7545 27.0109 14.7502 26.4041C14.7502 26.2938 14.7373 26.1793 14.7202 26.069C14.6773 25.8314 14.5614 25.6362 14.3168 25.5726C14.0378 25.5004 13.776 25.5556 13.5743 25.7762C13.364 26.0053 13.3082 26.2854 13.3082 26.5823C13.3082 27.1169 13.304 27.6558 13.3125 28.1904C13.3168 28.3389 13.2911 28.4025 13.1151 28.394C12.8233 28.3771 12.5315 28.3856 12.2353 28.394C12.1195 28.3983 12.0723 28.3686 12.0723 28.2413C12.0766 27.1042 12.0766 25.9671 12.0723 24.8301C12.0723 24.7282 12.1023 24.6985 12.2053 24.6985C12.5057 24.7028 12.8061 24.7113 13.1065 24.6985C13.261 24.69 13.334 24.7282 13.3082 24.8937C13.2997 24.9531 13.3082 25.021 13.3082 25.1398Z" fill="white"/>
<path d="M29.3629 25.1215C29.9552 24.519 30.6332 24.4045 31.3628 24.6972C32.101 24.9985 32.4529 25.601 32.5001 26.3689C32.5645 27.3872 31.9679 28.223 31.0581 28.4479C30.4745 28.5922 29.9595 28.4564 29.5003 28.0873C29.4659 28.0576 29.4316 28.0279 29.3629 27.9685C29.3629 28.5412 29.3543 29.0716 29.3672 29.6019C29.3715 29.7844 29.3329 29.8438 29.1398 29.8311C28.8565 29.8141 28.569 29.8183 28.2814 29.8311C28.157 29.8353 28.127 29.7929 28.127 29.6741C28.1312 28.066 28.1312 26.458 28.127 24.85C28.127 24.71 28.1742 24.6845 28.2986 24.6887C28.5776 24.6972 28.8565 24.7057 29.1355 24.6845C29.3243 24.6718 29.393 24.7269 29.3629 24.9136C29.3543 24.9688 29.3629 25.0282 29.3629 25.1215ZM30.2513 27.4593C30.8092 27.4678 31.2341 27.0732 31.2384 26.5386C31.2426 26.0167 30.8092 25.5755 30.2856 25.567C29.8007 25.5585 29.3329 26.021 29.3286 26.5174C29.32 27.035 29.7277 27.4466 30.2513 27.4593Z" fill="white"/>
<path d="M37.9204 25.0921C37.9461 24.6932 37.9461 24.6932 38.3452 24.6932C38.5684 24.6932 38.7873 24.7017 39.0104 24.689C39.1263 24.6847 39.152 24.7272 39.152 24.8332C39.1478 25.9703 39.1478 27.1032 39.152 28.2402C39.152 28.3506 39.122 28.3845 39.0104 28.3845C38.7272 28.376 38.4396 28.3718 38.1564 28.3845C37.9762 28.393 37.9075 28.3421 37.9375 28.1639C37.9461 28.1172 37.9375 28.0663 37.9375 27.9729C37.4955 28.3463 37.0277 28.5712 36.4612 28.4948C35.9033 28.4184 35.4527 28.1596 35.1394 27.6929C34.5772 26.8613 34.6802 25.7115 35.3754 25.0496C35.7317 24.7102 36.1651 24.5575 36.6543 24.549C37.0663 24.5447 37.2723 24.6338 37.9204 25.0921ZM36.0535 26.5346C36.0535 27.065 36.4612 27.4553 37.0105 27.4596C37.547 27.4638 37.959 27.0607 37.959 26.5261C37.959 26.0255 37.4998 25.563 37.0105 25.5715C36.4784 25.58 36.0535 26.0085 36.0535 26.5346Z" fill="white"/>
<path d="M22.3207 25.1132C22.3507 24.6932 22.3507 24.6932 22.767 24.6932C22.973 24.6932 23.1833 24.6974 23.3893 24.6889C23.5052 24.6847 23.5481 24.7101 23.5481 24.8374C23.5438 25.966 23.5438 27.0946 23.5481 28.2232C23.5481 28.3632 23.4966 28.3844 23.3721 28.3802C23.1018 28.3717 22.8271 28.3632 22.5567 28.3802C22.3722 28.3929 22.2906 28.342 22.325 28.1511C22.3336 28.1044 22.325 28.0535 22.325 27.9771C22.2048 28.0662 22.1061 28.1511 21.9945 28.219C20.9517 28.8724 19.5784 28.3166 19.2479 27.1073C18.9861 26.157 19.3595 25.1981 20.1577 24.7695C20.7457 24.4641 21.6254 24.3962 22.3207 25.1132ZM21.4194 27.4595C21.943 27.4595 22.3636 27.0522 22.3679 26.5431C22.3722 26.0509 21.9087 25.5757 21.428 25.5714C20.8959 25.5714 20.4538 26.0085 20.4538 26.5431C20.4538 27.0607 20.8744 27.4595 21.4194 27.4595Z" fill="white"/>
<path d="M6.47642 25.157C6.92703 24.669 7.44632 24.4866 8.06431 24.5672C8.678 24.6478 9.05137 25.0127 9.13291 25.6237C9.20587 26.1922 9.15437 26.765 9.16724 27.3378C9.17154 27.6433 9.16295 27.9445 9.17154 28.25C9.17154 28.3518 9.14149 28.3858 9.0385 28.3815C8.72521 28.3773 8.40763 28.373 8.09435 28.3815C7.95702 28.3858 7.93127 28.3391 7.93127 28.216C7.93556 27.639 7.93556 27.0578 7.93127 26.4807C7.93127 26.3492 7.92697 26.2134 7.90123 26.0819C7.84543 25.8146 7.72956 25.6025 7.42915 25.5473C7.11586 25.4879 6.81975 25.6194 6.65666 25.8825C6.51504 26.1074 6.48071 26.3577 6.47642 26.6123C6.47642 27.1426 6.46783 27.673 6.48071 28.1991C6.485 28.3476 6.43779 28.39 6.29188 28.3858C6.00005 28.373 5.70393 28.3773 5.4121 28.3858C5.29194 28.39 5.24902 28.3561 5.24902 28.233C5.25332 27.1002 5.25332 25.9673 5.24902 24.8387C5.24902 24.7072 5.30481 24.6902 5.4121 24.6945C5.70393 24.6987 6.00005 24.703 6.29188 24.6945C6.43779 24.6902 6.50217 24.7242 6.48071 24.8769C6.46783 24.9491 6.47642 25.0254 6.47642 25.157Z" fill="white"/>
<path d="M47.0529 26.865C46.6623 26.865 46.2675 26.8693 45.877 26.865C45.7439 26.865 45.7096 26.8862 45.774 27.0178C45.9242 27.336 46.1902 27.493 46.525 27.5439C46.8941 27.599 47.2503 27.5396 47.5893 27.3911C47.7138 27.336 47.7695 27.3572 47.8039 27.4887C47.8554 27.6924 47.9197 27.8918 47.9841 28.0955C48.0056 28.1591 48.0228 28.2058 47.9326 28.2397C47.07 28.5664 46.2074 28.6428 45.3705 28.2015C44.744 27.8706 44.4607 27.3063 44.4393 26.6189C44.4178 25.8468 44.6624 25.1806 45.3877 24.8073C46.1302 24.4254 46.9069 24.4254 47.6279 24.8794C48.1644 25.2188 48.3446 25.7704 48.4047 26.3644C48.4562 26.8608 48.4433 26.8608 47.9369 26.8608C47.6365 26.865 47.3447 26.865 47.0529 26.865ZM46.4864 26.131C46.7009 26.131 46.9155 26.1268 47.1258 26.1353C47.2503 26.1395 47.2932 26.1141 47.2503 25.9825C47.1516 25.6686 46.8254 25.4267 46.4949 25.431C46.1473 25.4352 45.8126 25.6855 45.7225 25.9953C45.6924 26.0971 45.7096 26.1353 45.8255 26.131C46.0443 26.1268 46.2675 26.131 46.4864 26.131Z" fill="white"/>
<path d="M41.255 25.1564C41.5855 24.8042 41.9417 24.6091 42.3794 24.5581C43.2892 24.4606 43.8772 24.9061 43.9244 25.8055C43.9673 26.6202 43.9373 27.4433 43.9416 28.2621C43.9416 28.3555 43.9072 28.3852 43.8171 28.3809C43.4866 28.3767 43.1605 28.3725 42.83 28.3809C42.6755 28.3852 42.7013 28.2876 42.7013 28.1985C42.7013 27.5706 42.7013 26.9426 42.697 26.3147C42.697 26.2298 42.6841 26.145 42.667 26.0643C42.6197 25.8013 42.491 25.5976 42.2035 25.5467C41.9073 25.4916 41.6541 25.5807 41.4653 25.8225C41.2936 26.0474 41.2507 26.3104 41.2464 26.582C41.2421 27.1251 41.2421 27.6681 41.2464 28.2112C41.2464 28.3385 41.2164 28.3852 41.0834 28.3767C40.7829 28.364 40.4825 28.3724 40.1821 28.3767C40.0748 28.3767 40.019 28.3725 40.019 28.2324C40.0276 27.0954 40.0233 25.9625 40.019 24.8254C40.019 24.7066 40.0577 24.6854 40.165 24.6854C40.4654 24.6897 40.7658 24.6982 41.0662 24.6854C41.225 24.6769 41.2679 24.7321 41.2464 24.8764C41.2464 24.9527 41.255 25.0291 41.255 25.1564Z" fill="white"/>
<path d="M49.233 26.5703C49.233 26.2818 49.2287 26.0442 49.2373 25.8024C49.2416 25.6793 49.2201 25.6284 49.0785 25.6327C48.688 25.6327 48.688 25.6284 48.688 25.2381C48.688 25.2084 48.688 25.1829 48.688 25.1532C48.6923 25.0132 48.6451 24.8393 48.7094 24.7417C48.7824 24.6271 48.9712 24.7035 49.1086 24.6993C49.2159 24.695 49.2416 24.6526 49.2373 24.5592C49.233 24.3556 49.2416 24.1519 49.233 23.944C49.2287 23.8422 49.2674 23.8125 49.3661 23.8125C49.6922 23.8167 50.0227 23.8167 50.3488 23.8125C50.4518 23.8125 50.4905 23.8464 50.4776 23.944C50.4733 23.9907 50.4733 24.0416 50.4776 24.0925C50.4905 24.2877 50.3917 24.538 50.5162 24.6611C50.6321 24.7756 50.8853 24.6865 51.0741 24.695C51.117 24.695 51.1599 24.6993 51.2029 24.695C51.2973 24.6865 51.3359 24.7205 51.323 24.8138C51.3187 24.8435 51.323 24.869 51.323 24.8987C51.3187 25.1363 51.4046 25.446 51.2887 25.5987C51.1771 25.743 50.8509 25.6412 50.6149 25.6369C50.4776 25.6369 50.469 25.6963 50.469 25.7981C50.4733 26.2139 50.469 26.6297 50.4733 27.0455C50.4776 27.4529 50.6106 27.5759 51.0226 27.5504C51.3316 27.5335 51.3316 27.5335 51.3745 27.8305C51.3874 27.9196 51.396 28.0129 51.4089 28.102C51.4432 28.399 51.4432 28.4117 51.1471 28.4542C50.808 28.5051 50.4647 28.5136 50.1257 28.4287C49.6236 28.2972 49.3231 27.962 49.2502 27.4529C49.2158 27.1431 49.2459 26.8334 49.233 26.5703Z" fill="white"/>
<path d="M25.6727 25.8052C25.6727 26.6029 25.6684 27.4005 25.677 28.1982C25.677 28.3424 25.6426 28.3933 25.4881 28.3849C25.1877 28.3721 24.8873 28.3764 24.5869 28.3849C24.4753 28.3891 24.4238 28.3636 24.4238 28.2364C24.4281 26.6071 24.4281 24.9779 24.4238 23.3486C24.4238 23.2468 24.4539 23.2171 24.5569 23.2171C24.8702 23.2213 25.1834 23.2256 25.501 23.2171C25.6426 23.2128 25.677 23.2553 25.677 23.3953C25.6684 24.1929 25.6727 24.9991 25.6727 25.8052Z" fill="white"/>
<path d="M34.2515 25.8265C34.2515 26.6157 34.2472 27.4091 34.2557 28.1982C34.2557 28.3467 34.2128 28.3934 34.0626 28.3849C33.7837 28.3722 33.5047 28.3722 33.2258 28.3849C33.0498 28.3934 32.9983 28.351 32.9983 28.1685C33.0069 27.1333 33.0026 26.0938 33.0026 25.0585C33.0026 24.5027 33.0069 23.9427 32.9983 23.3869C32.994 23.2468 33.0412 23.2129 33.1743 23.2171C33.4747 23.2256 33.7751 23.2299 34.0755 23.2171C34.2214 23.2129 34.2472 23.2638 34.2472 23.3953C34.2515 24.2015 34.2515 25.0161 34.2515 25.8265Z" fill="white"/>
<path d="M11.2098 26.5479C11.2098 27.1037 11.2055 27.6595 11.2141 28.2153C11.2141 28.3426 11.184 28.3893 11.0467 28.385C10.742 28.3765 10.433 28.3765 10.1283 28.385C10.0167 28.385 9.96094 28.368 9.96094 28.2365C9.96523 27.1037 9.96523 25.9666 9.96094 24.8338C9.96094 24.7192 9.99956 24.6895 10.1069 24.6937C10.4201 24.698 10.7334 24.7022 11.0467 24.6937C11.184 24.6895 11.2141 24.7319 11.2098 24.8592C11.2055 25.4193 11.2098 25.9836 11.2098 26.5479Z" fill="white"/>
<path d="M10.5918 24.0309C10.1841 24.0267 9.86219 23.6957 9.87077 23.3011C9.88365 22.9108 10.2141 22.6011 10.6132 22.6095C11.008 22.6138 11.3256 22.9405 11.3213 23.3351C11.317 23.7254 10.9952 24.0351 10.5918 24.0309Z" fill="white"/>
</svg>
