<svg width="30" height="35" viewBox="0 0 30 35" fill="none" xmlns="http://www.w3.org/2000/svg">
<path d="M13.3979 16.4454C13.3979 16.6397 13.3979 16.834 13.3979 17.0272C13.3979 22.2685 13.3988 27.5098 13.3979 32.7511C13.3979 33.6111 13.6979 34.2767 14.3239 34.704C14.9201 35.1109 15.5362 35.0959 16.1217 34.6739C16.7387 34.2295 17.0062 33.5467 17.0053 32.691C17.0008 28.7552 17.0035 24.8194 17.0035 20.8847C17.0035 19.4042 17.0035 17.9226 17.0035 16.3219C17.1854 16.5194 17.3043 16.6397 17.4142 16.7707C18.3491 17.8818 19.2804 18.9984 20.2172 20.1074C21.0044 21.0393 22.1023 21.0929 22.8328 20.2459C23.5912 19.3655 23.5786 18.0536 22.7779 17.0949C20.7036 14.6095 18.6238 12.1295 16.5387 9.65701C15.7254 8.69292 14.676 8.69506 13.8618 9.66023C11.7767 12.1327 9.69696 14.6127 7.62264 17.0981C6.83363 18.0429 6.81021 19.3237 7.54068 20.2105C8.26935 21.0929 9.38532 21.0532 10.1878 20.1052C11.1147 19.0102 12.0379 17.9087 12.9557 16.8018C13.0701 16.6644 13.144 16.4797 13.2367 16.3176C13.2899 16.3605 13.3439 16.4035 13.3979 16.4454Z" fill="black"/>
<path d="M15.147 0.637674C10.9758 0.637674 6.80377 0.636601 2.63262 0.638748C1.85081 0.639821 1.27706 1.07034 0.950107 1.91096C0.635761 2.71723 0.745648 3.487 1.21581 4.16766C1.5806 4.69586 2.06698 4.93635 2.64163 4.93528C3.82695 4.93206 5.01228 4.93528 6.1976 4.93528C13.3402 4.93528 20.4827 4.93635 27.6244 4.93421C28.7602 4.93421 29.5663 4.09573 29.6051 2.88793C29.6447 1.67262 28.8656 0.662368 27.8397 0.644117C26.6246 0.622645 25.4087 0.637675 24.1936 0.637675C21.179 0.637675 18.1625 0.637675 15.147 0.637674Z" fill="black"/>
</svg>
