<svg width="161" height="178" viewBox="0 0 161 178" fill="none" xmlns="http://www.w3.org/2000/svg">
<g clip-path="url(#clip0_3631_2)">
<path d="M64.7389 4.12891L63.8345 4.67594C62.396 5.54615 61.0407 6.51911 59.7761 7.58224L62.3847 5.74736H84.525L88.55 36.2247L68.425 56.3497L48.3 70.3382V86.4684C48.3 97.7344 54.1882 108.181 63.826 114.015L85.0124 126.839L40.25 152.951H31.6168L15.5259 143.211C5.88801 137.377 0 126.93 0 115.664V61.4237C0 50.1541 5.89175 39.7043 15.5346 33.8717L63.8345 4.65614C64.1339 4.4751 64.4354 4.29937 64.7389 4.12891Z" fill="url(#paint0_radial_3631_2)"/>
<path d="M64.7389 4.12891L63.8345 4.67594C62.396 5.54615 61.0407 6.51911 59.7761 7.58224L62.3847 5.74736H84.525L88.55 36.2247L68.425 56.3497L48.3 70.3382V86.4684C48.3 97.7344 54.1882 108.181 63.826 114.015L85.0124 126.839L40.25 152.951H31.6168L15.5259 143.211C5.88801 137.377 0 126.93 0 115.664V61.4237C0 50.1541 5.89175 39.7043 15.5346 33.8717L63.8345 4.65614C64.1339 4.4751 64.4354 4.29937 64.7389 4.12891Z" fill="url(#paint1_linear_3631_2)"/>
<path d="M112.701 68.4199V86.4531C112.701 97.7191 106.813 108.166 97.1749 114L48.8749 143.236C38.9944 149.217 26.7008 149.432 16.6464 143.883L63.8266 172.442C74.0767 178.647 86.9245 178.647 97.1749 172.442L145.475 143.206C155.113 137.372 161.001 126.925 161.001 115.659V102.632L156.976 96.5949L112.701 68.4199Z" fill="url(#paint2_radial_3631_2)"/>
<path d="M112.701 68.4199V86.4531C112.701 97.7191 106.813 108.166 97.1749 114L48.8749 143.236C38.9944 149.217 26.7008 149.432 16.6464 143.883L63.8266 172.442C74.0767 178.647 86.9245 178.647 97.1749 172.442L145.475 143.206C155.113 137.372 161.001 126.925 161.001 115.659V102.632L156.976 96.5949L112.701 68.4199Z" fill="url(#paint3_linear_3631_2)"/>
<path d="M145.466 33.8637L97.1663 4.64818C87.2378 -1.3574 74.8742 -1.54344 64.7948 4.09003L63.8353 4.67044C54.1926 10.5031 48.3008 20.9526 48.3008 32.2223V70.395L63.8353 60.9983C74.0813 54.801 86.9202 54.801 97.1663 60.9983L145.466 90.2137C154.808 95.8644 160.629 105.847 160.983 116.711C160.995 116.36 161.001 116.009 161.001 115.656V61.4157C161.001 50.1461 155.109 39.6964 145.466 33.8637Z" fill="url(#paint4_radial_3631_2)"/>
<path d="M145.466 33.8637L97.1663 4.64818C87.2378 -1.3574 74.8742 -1.54344 64.7948 4.09003L63.8353 4.67044C54.1926 10.5031 48.3008 20.9526 48.3008 32.2223V70.395L63.8353 60.9983C74.0813 54.801 86.9202 54.801 97.1663 60.9983L145.466 90.2137C154.808 95.8644 160.629 105.847 160.983 116.711C160.995 116.36 161.001 116.009 161.001 115.656V61.4157C161.001 50.1461 155.109 39.6964 145.466 33.8637Z" fill="url(#paint5_linear_3631_2)"/>
</g>
<defs>
<radialGradient id="paint0_radial_3631_2" cx="0" cy="0" r="1" gradientUnits="userSpaceOnUse" gradientTransform="translate(54.0099 34.7689) rotate(110.528) scale(134.297 234.241)">
<stop offset="0.06441" stop-color="#AE7FE2"/>
<stop offset="1" stop-color="#0078D4"/>
</radialGradient>
<linearGradient id="paint1_linear_3631_2" x1="54.3854" y1="144.37" x2="35.224" y2="111.229" gradientUnits="userSpaceOnUse">
<stop stop-color="#114A8B"/>
<stop offset="1" stop-color="#0078D4" stop-opacity="0"/>
</linearGradient>
<radialGradient id="paint2_radial_3631_2" cx="0" cy="0" r="1" gradientUnits="userSpaceOnUse" gradientTransform="translate(25.8813 138.258) rotate(-8.36717) scale(124.977 82.556)">
<stop offset="0.133928" stop-color="#D59DFF"/>
<stop offset="1" stop-color="#5E438F"/>
</radialGradient>
<linearGradient id="paint3_linear_3631_2" x1="146.336" y1="94.0865" x2="125.803" y2="123.529" gradientUnits="userSpaceOnUse">
<stop stop-color="#493474"/>
<stop offset="1" stop-color="#8C66BA" stop-opacity="0"/>
</linearGradient>
<radialGradient id="paint4_radial_3631_2" cx="0" cy="0" r="1" gradientUnits="userSpaceOnUse" gradientTransform="translate(149.148 98.6207) rotate(-165.772) scale(100.314 168.87)">
<stop offset="0.0584996" stop-color="#50E6FF"/>
<stop offset="1" stop-color="#436DCD"/>
</radialGradient>
<linearGradient id="paint5_linear_3631_2" x1="52.2284" y1="4.24475" x2="82.4602" y2="4.24475" gradientUnits="userSpaceOnUse">
<stop stop-color="#2D3F80"/>
<stop offset="1" stop-color="#436DCD" stop-opacity="0"/>
</linearGradient>
<clipPath id="clip0_3631_2">
<rect width="161" height="177.1" fill="white"/>
</clipPath>
</defs>
</svg>
