<svg width="20" height="20" viewBox="0 0 20 20" fill="none" xmlns="http://www.w3.org/2000/svg">
<path d="M5.0888 4.90234C5.66162 5.04514 6.23443 5.15223 6.77542 5.29503C7.95287 5.58062 9.13033 5.86621 10.3396 6.1161C10.4987 6.1518 10.6578 6.1518 10.8169 6.1161C11.4216 5.93761 12.058 5.72341 12.6627 5.54492C13.4901 5.29503 13.9674 5.54492 14.1584 6.47309C14.2538 6.93717 14.4448 7.11566 14.8585 7.22276C16.2269 7.50835 17.5634 7.86534 18.9318 8.18663C19.0273 8.22232 19.1228 8.22233 19.2501 8.25802C19.1864 8.68641 19.0909 9.11479 19.0273 9.54318C18.8364 10.5784 18.6136 11.6494 18.4227 12.6847C18.2635 13.47 17.818 13.7913 17.1179 13.6485C16.736 13.5771 16.3542 13.47 15.8768 13.3629C15.9723 13.7913 16.0996 14.184 16.1632 14.5767C16.2269 14.8266 16.2587 15.0765 16.2587 15.2907C16.195 15.8262 15.8768 16.076 15.4313 16.2188C13.3628 16.8614 11.2943 17.504 9.25762 18.1466C7.34824 18.7534 5.40703 19.3246 3.49765 19.9315C2.79754 20.1457 2.3202 19.8601 2.12926 19.039C1.42915 16.2902 0.760868 13.5414 0.0607607 10.7926C-0.130178 9.97156 0.124407 9.43608 0.88816 9.22189C2.00197 8.8649 3.11577 8.50791 4.22958 8.18663C4.42052 8.11523 4.51599 8.04383 4.54781 7.82964C4.70693 7.00857 4.86604 6.1518 5.02516 5.33073C5.02516 5.15223 5.05698 5.04514 5.0888 4.90234ZM1.71556 13.9341C1.71556 14.0055 1.71556 14.0769 1.71556 14.1126C2.09744 15.6834 2.47931 17.2541 2.89301 18.8605C2.95666 19.1104 3.08395 19.1461 3.30671 19.0747C4.54781 18.6821 5.82073 18.2894 7.06183 17.8967C9.73497 17.0756 12.4081 16.2188 15.0812 15.3978C15.5268 15.255 15.5268 15.255 15.3995 14.7552C15.1131 13.5771 14.8267 12.3991 14.5084 11.221C14.413 10.8283 14.3175 10.4713 14.222 10.0787C10.0214 11.3638 5.85255 12.649 1.71556 13.9341ZM13.7447 8.15093C13.6174 7.61545 13.4901 7.15136 13.3946 6.68728C13.331 6.36599 13.2037 6.29459 12.9173 6.40169C9.95773 7.32986 6.96636 8.25802 4.00682 9.18619C3.0203 9.47178 2.06561 9.79307 1.0791 10.0787C0.919983 10.1144 0.729045 10.1858 0.792691 10.3999C0.919983 10.9354 1.04728 11.4709 1.20639 12.0421C5.40703 10.7569 9.54403 9.43608 13.7447 8.15093ZM16.3542 8.65071C16.0041 8.61501 15.8768 8.75781 15.8132 9.0434C15.7177 9.54318 15.6222 10.0073 15.5268 10.507C15.4631 10.8283 15.5904 11.0425 15.8768 11.1139C16.3223 11.221 16.7679 11.3281 17.2134 11.4352C17.468 11.5066 17.6589 11.3638 17.7225 11.0782C17.818 10.5427 17.9453 10.043 18.009 9.50748C18.0408 9.25759 17.9453 9.0434 17.7225 9.0077C17.2452 8.8649 16.7679 8.75781 16.3542 8.65071Z" fill="black"/>
<path d="M19.7912 5.86202C15.0495 4.75536 10.3715 3.613 5.59808 2.50634C5.69355 1.86376 5.7572 1.22119 5.91631 0.650007C6.04361 0.114526 6.55277 -0.0996665 7.12559 0.0431284C8.04846 0.257321 9.00315 0.507212 9.92602 0.721404C12.981 1.43538 16.0679 2.18505 19.1229 2.89903C19.7912 3.04182 20.0776 3.5416 19.9821 4.29128C19.9503 4.79106 19.8548 5.29084 19.7912 5.86202Z" fill="black"/>
<path d="M3.65682 18.0266C3.56135 17.9195 3.37041 17.7767 3.33859 17.6339C3.17947 17.1341 3.084 16.6343 2.95671 16.0988C2.89306 15.7775 3.02036 15.5633 3.27494 15.492C3.72046 15.3492 4.13416 15.2064 4.57968 15.0993C4.86609 15.0279 5.05703 15.135 5.1525 15.4563C5.27979 15.956 5.40708 16.4201 5.50255 16.9199C5.59802 17.2769 5.50255 17.4911 5.1525 17.5982C4.67515 17.7053 4.19781 17.8481 3.65682 18.0266Z" fill="#04CB3A"/>
</svg>
