<svg width="344" height="274" viewBox="0 0 344 274" fill="none" xmlns="http://www.w3.org/2000/svg">
<path d="M198.777 273.996C198.777 246.474 198.777 219.745 198.777 192.663C180.507 192.663 162.763 192.663 144.473 192.663C144.473 219.659 144.473 246.377 144.473 273.61C142.275 273.76 140.581 273.974 138.876 273.974C114.399 273.996 89.9326 274.017 65.4556 273.974C54.0051 273.953 49.0946 269.085 49.0839 257.71C49.0517 225.739 49.0196 193.756 49.1911 161.785C49.2018 159.459 50.2525 156.328 51.9358 154.923C91.0905 122.395 130.395 90.048 169.689 57.6799C170.225 57.2404 170.847 56.9187 171.812 56.2969C176.755 60.371 181.687 64.4452 186.619 68.5086C221.077 96.9097 255.504 125.343 290.038 153.658C292.911 156.017 294.208 158.386 294.187 162.193C294.037 193.992 294.122 225.792 294.09 257.592C294.08 269.032 289.212 273.953 277.837 273.974C253.36 274.017 228.893 273.985 204.416 273.985C202.829 273.996 201.243 273.996 198.777 273.996Z" fill="url(#paint0_linear_3426_79)"/>
<path d="M239.701 49.6448C239.701 38.4409 239.701 28.3198 239.701 18.2095C239.701 16.9551 239.701 15.7114 239.701 14.457C239.712 2.55619 240.677 1.56982 252.438 1.56982C263.16 1.56982 273.871 1.52693 284.592 1.59126C292.054 1.63415 294.08 3.68194 294.091 11.2084C294.123 37.4652 294.177 63.7327 294.027 89.9895C294.005 93.7421 295.067 96.2187 298.005 98.6096C311.589 109.642 325.001 120.889 338.446 132.103C344.428 137.089 344.643 139.93 339.647 145.988C336.58 149.708 333.482 153.407 330.362 157.084C325.451 162.852 322.321 163.121 316.403 158.178C275.65 124.212 234.909 90.2361 194.167 56.2706C186.77 50.1058 179.372 43.9517 171.717 37.5831C170.055 38.8804 168.511 40.0276 167.031 41.2499C120.661 79.9007 74.2909 118.573 27.9207 157.234C20.4049 163.496 18.0033 163.26 11.6884 155.723C8.933 152.442 6.15615 149.172 3.4329 145.859C-1.48824 139.876 -1.20948 137.067 4.85886 131.996C21.4449 118.144 38.0632 104.324 54.6707 90.4935C87.1888 63.3789 119.707 36.2751 152.236 9.18204C165.638 -1.97898 177.656 -1.90393 191.187 9.40719C205.714 21.5439 220.242 33.6913 234.78 45.8172C236.077 46.9108 237.45 47.9079 239.701 49.6448Z" fill="url(#paint1_linear_3426_79)"/>
<defs>
<linearGradient id="paint0_linear_3426_79" x1="85.4346" y1="283.605" x2="292.311" y2="87.1007" gradientUnits="userSpaceOnUse">
<stop stop-color="#008D1E"/>
<stop offset="1" stop-color="#04CB3A"/>
</linearGradient>
<linearGradient id="paint1_linear_3426_79" x1="50.9268" y1="168.77" x2="180.83" y2="-65.0986" gradientUnits="userSpaceOnUse">
<stop stop-color="#008D1E"/>
<stop offset="1" stop-color="#04CB3A"/>
</linearGradient>
</defs>
</svg>
