<svg width="1880" height="1000" viewBox="0 0 1880 1000" fill="none" xmlns="http://www.w3.org/2000/svg">
<circle cx="936.775" cy="350.494" r="350.494" fill="url(#paint0_linear_3426_93)"/>
<circle cx="1529.43" cy="350.494" r="350.494" fill="white" fill-opacity="0.25"/>
<circle cx="350.494" cy="350.494" r="350.494" fill="white" fill-opacity="0.25"/>
<path d="M647.834 379V359.118H667.207V344.231H647.834V324.451H632.642V344.231H612.76V359.118H632.642V379H647.834Z" fill="white"/>
<path d="M1246.86 404.477V384.594H1266.23V369.708H1246.86V349.927H1231.66V369.708H1211.78V384.594H1231.66V404.477H1246.86Z" fill="white"/>
<path d="M942.035 194.969C1007.18 196.136 1068.91 221.087 1119.99 271.591C1128.11 279.616 1129.45 288.266 1124.21 296.458C1117.46 307.009 1104.28 308.597 1094.64 300.116C1086.38 292.837 1078.4 285.15 1069.61 278.569C981.375 212.437 858.652 219.944 778.937 296.146C777.494 297.529 776.086 298.973 774.582 300.296C766.185 307.695 755.093 307.382 747.658 299.55C740.259 291.754 740.223 281.143 748.007 273.143C763.045 257.708 779.936 244.51 798.391 233.394C840.57 207.974 886.346 195.257 942.035 194.969Z" fill="white"/>
<path d="M932.834 271.877C986.009 272.707 1028.96 290.356 1064.46 325.69C1074.33 335.506 1073.65 348.211 1063.2 355.778C1055.56 361.312 1046.96 360.422 1038.96 354.13C1028.75 346.105 1018.84 337.383 1007.64 331.019C951.073 298.898 881.693 307.499 834.28 352.554C820.734 365.426 803.783 357.835 800.595 344.602C798.935 337.708 800.92 331.837 805.672 326.977C834.364 297.634 869.073 279.901 909.664 273.934C918.362 272.647 927.204 272.358 932.834 271.877Z" fill="white"/>
<path d="M998.275 417.247C991.874 417.451 987.411 413.89 982.972 409.932C963.109 392.247 940.323 386.292 915.083 395.568C906.71 398.648 898.999 404.434 892.081 410.269C882.312 418.498 871.822 419.641 863.725 411.713C855.737 403.881 855.737 391.321 863.713 382.467C903.257 338.519 972.77 338.639 1011.76 382.731C1017.76 389.516 1019.38 397.216 1015.66 405.577C1012.36 412.988 1006.43 416.886 998.275 417.247Z" fill="white"/>
<path d="M936.544 498.159C916.441 498.135 900.103 481.954 899.995 461.948C899.899 441.664 916.333 425.266 936.736 425.315C956.864 425.351 973.117 441.484 973.237 461.551C973.357 481.87 957.02 498.184 936.544 498.159Z" fill="white"/>
<path d="M305.117 433.593C301.622 433.593 299.068 433.593 296.38 433.593C267.748 433.593 238.982 433.593 210.35 433.593C191.262 433.593 182.39 424.83 182.39 406.111C182.39 346.766 182.39 287.554 182.39 228.209C182.39 210.153 191.262 201.258 209.543 201.258C306.327 201.258 403.111 201.258 499.761 201.258C517.505 201.258 526.511 210.286 526.511 227.943C526.511 287.686 526.511 347.43 526.511 407.173C526.511 424.565 517.236 433.593 499.492 433.725C470.591 433.858 441.69 433.725 412.79 433.725C410.101 433.725 407.413 433.725 403.783 433.725C403.783 442.089 403.514 449.922 404.052 457.755C404.187 459.216 407.009 461.207 409.026 461.871C433.491 470.501 458.09 478.732 482.42 487.361C485.781 488.556 489.679 490.946 490.889 493.867C492.099 496.655 491.292 502.098 489.276 503.957C486.587 506.214 481.345 507.409 477.85 506.479C468.575 504.222 459.569 500.505 450.562 497.319C424.619 488.424 398.541 479.528 372.597 470.368C360.499 466.119 348.67 465.987 336.572 470.235C302.832 482.051 268.958 493.601 235.218 505.284C225.405 508.736 219.759 507.409 217.474 501.036C215.055 494.398 218.415 489.884 228.766 486.299C252.424 478.201 276.082 469.837 299.741 462.004C303.773 460.676 305.521 458.95 305.252 454.569C304.849 448.064 305.117 441.426 305.117 433.593ZM354.45 221.172C306.865 221.172 259.414 221.172 211.963 221.172C202.553 221.172 202.553 221.172 202.553 230.2C202.553 288.35 202.553 346.5 202.553 404.65C202.553 413.545 202.553 413.678 211.425 413.678C306.865 413.678 402.17 413.678 497.61 413.678C506.213 413.678 506.348 413.545 506.348 405.181C506.348 346.766 506.348 288.35 506.348 230.067C506.348 221.305 506.348 221.172 497.476 221.172C449.756 221.172 402.036 221.172 354.45 221.172ZM325.953 433.991C325.953 440.629 325.953 446.603 325.953 453.374C345.31 444.877 363.994 445.408 383.082 453.109C383.082 446.205 383.082 440.231 383.082 433.991C363.86 433.991 345.175 433.991 325.953 433.991Z" fill="white"/>
<path d="M311.032 254.629C308.881 258.214 307.805 261.134 305.655 263.259C285.895 283.04 266 302.689 245.971 322.338C240.998 327.25 235.352 327.383 231.05 323.4C226.614 319.284 226.883 313.177 231.857 308.265C251.751 288.483 271.646 268.835 291.675 249.186C295.17 245.734 299.337 243.875 303.773 246.53C306.596 248.256 308.477 251.708 311.032 254.629Z" fill="#04CC3A"/>
<path d="M229.035 281.451C226.75 279.725 222.852 278.265 221.776 275.609C220.567 272.689 220.432 267.511 222.314 265.387C230.38 256.359 239.117 247.862 248.258 239.631C252.156 236.046 257.13 236.975 260.893 240.693C264.388 244.277 265.464 249.057 262.238 252.641C253.635 261.935 244.494 270.564 235.353 279.327C234.143 280.389 231.993 280.522 229.035 281.451Z" fill="#04CC3A"/>
<path d="M1371.09 281.107C1370.72 272.748 1375.15 261.36 1385.48 252.153C1392.61 245.732 1399.13 238.706 1406.02 232.164C1417.58 221.261 1429.27 221.139 1440.71 231.922C1452.88 243.552 1464.94 255.424 1476.74 267.539C1488.43 279.411 1488.18 290.557 1476.37 302.429C1469.61 309.213 1462.84 315.997 1455.83 322.539C1452.51 325.689 1452.02 328.597 1453.99 332.716C1465.55 356.46 1483.14 375.48 1502.45 393.168C1515.24 404.919 1529.38 414.853 1545.13 422.485C1549.31 424.545 1552.14 424.181 1555.34 420.91C1562.1 413.884 1569.11 407.1 1576.12 400.315C1587.81 389.049 1599.49 389.049 1611.18 400.315C1623.23 411.824 1635.16 423.576 1646.84 435.448C1658.65 447.32 1658.53 458.95 1646.6 470.944C1640.57 477.001 1634.18 482.695 1628.52 488.995C1616.46 502.442 1601.46 506.076 1584.12 503.896C1561.73 501.109 1541.44 492.75 1522 482.089C1456.94 446.472 1408.85 395.712 1380.44 327.385C1375.15 314.18 1371.46 300.491 1371.09 281.107Z" fill="white"/>
<path d="M1685.83 339.739C1677.84 341.072 1670.21 342.283 1661.97 343.737C1655.7 310.906 1640.94 282.921 1616.83 259.903C1592.85 237.007 1564.19 223.317 1530.37 218.229C1531.48 210.233 1532.58 202.601 1533.57 194.969C1600.72 201.147 1671.94 257.359 1685.83 339.739Z" fill="#008D1E"/>
<path d="M1527.17 279.645C1528.28 272.012 1529.26 264.501 1530.37 256.99C1566.41 258.565 1613.88 292.123 1621.88 343.731C1617.94 344.458 1614.01 345.064 1610.07 345.791C1606.26 346.396 1602.44 347.123 1598.39 347.729C1589.41 310.174 1565.79 287.519 1527.17 279.645Z" fill="#008D1E"/>
<path d="M313.236 929.145V866.151H289.588V850.352H353.085V866.151H329.437V929.145H313.236ZM347.256 875.409H363.86L377.143 911.233L390.426 875.409H407.03L384.992 929.145H368.992L347.256 875.409Z" fill="white"/>
<path d="M755.559 840.137V918.93H739.258V840.137H755.559ZM822.35 918.93H806.752V889.144C806.752 882.804 803.532 878.678 797.394 878.678C791.054 878.678 787.733 883.206 787.733 889.144V918.93H772.035V865.194H787.633V872.238H787.733C789.041 870.024 790.752 868.313 793.066 867.005C797.796 864.288 800.614 864.188 802.928 864.188C809.368 864.188 814.199 866.2 817.419 870.326C820.739 874.452 822.35 879.483 822.35 885.521V918.93ZM868.922 905.647V918.628C866.607 919.332 864.192 919.634 861.576 919.634C847.589 919.634 840.243 911.986 840.243 899.408V878.779H830.582V865.194H840.444V848.389H855.941V865.194H869.224V878.779H855.941V897.496C855.941 903.634 859.161 906.049 865.299 906.049C866.607 906.049 867.815 905.949 868.922 905.647ZM932.052 896.389H893.008C893.914 902.93 899.549 906.955 906.291 906.955C911.021 906.955 915.851 904.439 918.266 900.515L929.637 907.961C925.109 916.112 917.461 920.137 906.493 920.137C898.14 920.137 891.197 917.521 885.461 912.288C879.826 906.955 877.008 900.213 877.008 891.961C877.008 884.213 879.826 877.672 885.361 872.137C890.996 866.603 897.738 863.886 905.486 863.886C913.436 863.886 919.876 866.401 924.807 871.332C929.738 876.263 932.254 882.804 932.254 890.754C932.254 893.269 932.153 895.181 932.052 896.389ZM893.411 886.024H916.555C916.153 881.294 912.228 876.666 905.084 876.666C901.864 876.666 899.147 877.672 897.033 879.785C894.92 881.798 893.713 883.911 893.411 886.024ZM977.431 864.993V880.489C976.224 880.288 975.016 880.188 973.708 880.188C963.544 880.188 959.117 886.527 959.117 896.188V918.93H943.419V865.194H959.016V873.445H959.117C961.431 868.515 967.167 864.59 974.312 864.59C975.62 864.59 976.626 864.691 977.431 864.993ZM1036.48 918.93H1020.88V889.144C1020.88 882.804 1017.66 878.678 1011.52 878.678C1005.19 878.678 1001.86 883.206 1001.86 889.144V918.93H986.166V865.194H1001.76V872.238H1001.86C1003.17 870.024 1004.88 868.313 1007.2 867.005C1011.93 864.288 1014.74 864.188 1017.06 864.188C1023.5 864.188 1028.33 866.2 1031.55 870.326C1034.87 874.452 1036.48 879.483 1036.48 885.521V918.93ZM1102.16 896.389H1063.11C1064.02 902.93 1069.66 906.955 1076.4 906.955C1081.13 906.955 1085.96 904.439 1088.37 900.515L1099.74 907.961C1095.22 916.112 1087.57 920.137 1076.6 920.137C1068.25 920.137 1061.3 917.521 1055.57 912.288C1049.93 906.955 1047.11 900.213 1047.11 891.961C1047.11 884.213 1049.93 877.672 1055.47 872.137C1061.1 866.603 1067.84 863.886 1075.59 863.886C1083.54 863.886 1089.98 866.401 1094.91 871.332C1099.84 876.263 1102.36 882.804 1102.36 890.754C1102.36 893.269 1102.26 895.181 1102.16 896.389ZM1063.52 886.024H1086.66C1086.26 881.294 1082.33 876.666 1075.19 876.666C1071.97 876.666 1069.25 877.672 1067.14 879.785C1065.03 881.798 1063.82 883.911 1063.52 886.024ZM1145.55 905.647V918.628C1143.24 919.332 1140.82 919.634 1138.21 919.634C1124.22 919.634 1116.87 911.986 1116.87 899.408V878.779H1107.21V865.194H1117.08V848.389H1132.57V865.194H1145.86V878.779H1132.57V897.496C1132.57 903.634 1135.79 906.049 1141.93 906.049C1143.24 906.049 1144.45 905.949 1145.55 905.647Z" fill="white"/>
<path d="M1521.56 783.949H1549.47V797.509H1521.56V824.717H1507.29V755.773H1552.73V769.333H1521.56V783.949ZM1569.58 752.78C1574.42 752.78 1578.21 756.478 1578.21 761.321C1578.21 765.987 1574.42 769.773 1569.58 769.773C1565 769.773 1561.13 765.987 1561.13 761.321C1561.13 756.654 1565 752.78 1569.58 752.78ZM1576.63 824.717H1562.8V777.698H1576.63V824.717ZM1599.15 824.717H1583.91L1600.82 801.031L1584.44 777.698H1599.85L1608.3 790.994L1617.02 777.698H1632.17L1615.61 800.767L1632.61 824.717H1617.2L1608.22 810.893L1599.15 824.717ZM1634.62 801.295C1634.62 794.339 1637.08 788.44 1642.1 783.773C1647.12 779.019 1653.29 776.641 1660.42 776.641C1667.55 776.641 1673.63 779.019 1678.56 783.685C1683.49 788.352 1685.95 794.075 1685.95 801.031C1685.95 808.075 1683.49 813.975 1678.47 818.729C1673.45 823.396 1667.37 825.773 1660.24 825.773C1653.02 825.773 1646.95 823.484 1642.01 818.817C1637.08 814.151 1634.62 808.339 1634.62 801.295ZM1648.71 801.119C1648.71 804.641 1649.85 807.547 1652.05 809.836C1654.25 812.038 1657.07 813.182 1660.33 813.182C1666.93 813.182 1671.86 808.163 1671.86 801.119C1671.86 797.685 1670.72 794.78 1668.52 792.578C1666.32 790.289 1663.5 789.144 1660.24 789.144C1656.98 789.144 1654.25 790.289 1652.05 792.578C1649.85 794.78 1648.71 797.685 1648.71 801.119ZM1413.69 849.773V918.717H1399.42V849.773H1413.69ZM1441.93 846.956V918.717H1428.1V846.956H1441.93ZM1461.37 846.78C1466.21 846.78 1470 850.478 1470 855.321C1470 859.987 1466.21 863.773 1461.37 863.773C1456.79 863.773 1452.91 859.987 1452.91 855.321C1452.91 850.654 1456.79 846.78 1461.37 846.78ZM1468.41 918.717H1454.59V871.698H1468.41V918.717ZM1532.93 883.497C1527.56 883.497 1524.48 886.931 1524.48 892.478V918.717H1510.83V892.654C1510.83 886.578 1508.28 883.497 1503.17 883.497C1497.63 883.497 1494.81 887.107 1494.81 892.654V918.717H1481.07V871.698H1494.54V877.861H1494.72C1497.27 873.283 1502.82 870.641 1508.46 870.641C1514.97 870.641 1519.55 873.107 1522.19 878.126C1526.77 872.931 1531.17 870.641 1537.78 870.641C1548.78 870.641 1554.33 878.038 1554.33 889.396V918.717H1540.59V892.478C1540.59 886.49 1538.04 883.497 1532.93 883.497ZM1573.32 846.78C1578.17 846.78 1581.95 850.478 1581.95 855.321C1581.95 859.987 1578.17 863.773 1573.32 863.773C1568.74 863.773 1564.87 859.987 1564.87 855.321C1564.87 850.654 1568.74 846.78 1573.32 846.78ZM1580.37 918.717H1566.54V871.698H1580.37V918.717ZM1622.08 907.094V918.453C1620.06 919.069 1617.94 919.333 1615.66 919.333C1603.42 919.333 1596.99 912.641 1596.99 901.635V883.585H1588.54V871.698H1597.16V856.994H1610.72V871.698H1622.35V883.585H1610.72V899.962C1610.72 905.333 1613.54 907.446 1618.91 907.446C1620.06 907.446 1621.11 907.358 1622.08 907.094ZM1645.87 919.597C1641.47 919.597 1637.69 918.365 1634.6 915.811C1631.52 913.258 1630.02 909.824 1630.02 905.597V905.421C1630.02 899.874 1632.75 895.824 1636.98 893.799C1641.3 891.773 1645.7 890.981 1650.98 890.981H1655.65C1658.11 890.981 1659.35 889.836 1659.35 887.547C1659.35 884.289 1656.7 881.736 1651.77 881.736C1647.11 881.736 1643.67 883.849 1641.3 888.075L1630.82 881.824C1634.87 874.339 1642.09 870.641 1652.39 870.641C1664.8 870.641 1672.82 877.245 1672.82 889.572V918.717H1660.14V912.905L1659.96 912.817C1656.79 917.308 1652.13 919.597 1645.87 919.597ZM1649.84 909.56C1655.74 909.56 1659.26 905.685 1659.26 900.49V899.434H1650.98C1647.02 899.434 1643.85 901.283 1643.85 904.805C1643.85 907.975 1646.31 909.56 1649.84 909.56ZM1719.37 918.717V912.729H1719.2C1716.11 917.308 1711.18 919.597 1704.58 919.597C1697.98 919.597 1692.6 917.22 1688.47 912.377C1684.33 907.534 1682.21 901.723 1682.21 895.119C1682.21 888.868 1684.33 883.233 1688.64 878.302C1692.96 873.283 1698.33 870.817 1704.76 870.817C1710.65 870.817 1715.32 872.931 1718.84 877.069H1719.02V847.044H1732.67V918.717H1719.37ZM1719.37 895.119C1719.37 888.163 1714.35 883.233 1707.75 883.233C1701.15 883.233 1696.13 888.163 1696.13 895.119C1696.13 898.641 1697.27 901.547 1699.47 903.836C1701.67 906.038 1704.49 907.182 1707.75 907.182C1711.01 907.182 1713.82 906.038 1716.03 903.836C1718.23 901.547 1719.37 898.641 1719.37 895.119ZM1742.49 895.295C1742.49 888.339 1744.95 882.44 1749.97 877.773C1754.99 873.019 1761.16 870.641 1768.29 870.641C1775.42 870.641 1781.5 873.019 1786.43 877.685C1791.36 882.352 1793.82 888.075 1793.82 895.031C1793.82 902.075 1791.36 907.975 1786.34 912.729C1781.32 917.396 1775.24 919.773 1768.11 919.773C1760.89 919.773 1754.82 917.484 1749.89 912.817C1744.95 908.151 1742.49 902.339 1742.49 895.295ZM1756.58 895.119C1756.58 898.641 1757.72 901.547 1759.92 903.836C1762.12 906.038 1764.94 907.182 1768.2 907.182C1774.8 907.182 1779.73 902.163 1779.73 895.119C1779.73 891.685 1778.59 888.78 1776.39 886.578C1774.19 884.289 1771.37 883.144 1768.11 883.144C1764.85 883.144 1762.12 884.289 1759.92 886.578C1757.72 888.78 1756.58 891.685 1756.58 895.119Z" fill="white"/>
<path d="M597.003 914.623H573.576V883.963H542.915V861.007H573.576V830.504H597.003V861.007H626.878V883.963H597.003V914.623Z" fill="#04CB3A"/>
<path d="M1301.41 908.332H1277.98V877.672H1247.32V854.716H1277.98V824.213H1301.41V854.716H1331.28V877.672H1301.41V908.332Z" fill="#04CB3A"/>
<defs>
<linearGradient id="paint0_linear_3426_93" x1="1078.62" y1="50.3145" x2="716.981" y2="600.629" gradientUnits="userSpaceOnUse">
<stop stop-color="#04CC3A"/>
<stop offset="1" stop-color="#008D1E"/>
</linearGradient>
</defs>
</svg>
