<svg width="3383" height="1033" viewBox="0 0 3383 1033" fill="none" xmlns="http://www.w3.org/2000/svg">
<circle cx="966.803" cy="361.727" r="361.727" fill="url(#paint0_linear_3433_450)"/>
<circle cx="361.727" cy="361.727" r="361.727" fill="white" fill-opacity="0.25"/>
<path d="M667.433 391.536H651.831V371.117H631.412V355.83H651.831V335.515H667.433V355.83H687.329V371.117H667.433V391.536Z" fill="white"/>
<path d="M972.23 201.221C1039.46 202.425 1103.17 228.176 1155.89 280.299C1164.27 288.581 1165.65 297.508 1160.25 305.963C1153.28 316.852 1139.67 318.491 1129.73 309.738C1121.2 302.226 1112.97 294.292 1103.89 287.5C1012.83 219.249 886.174 226.997 803.905 305.64C802.415 307.068 800.962 308.558 799.41 309.924C790.744 317.56 779.296 317.237 771.623 309.154C763.987 301.108 763.95 290.157 771.983 281.901C787.503 265.971 804.935 252.35 823.982 240.878C867.513 214.643 914.756 201.519 972.23 201.221Z" fill="white"/>
<path d="M962.731 280.598C1017.61 281.454 1061.94 299.669 1098.58 336.135C1108.76 346.267 1108.06 359.378 1097.27 367.188C1089.39 372.899 1080.51 371.98 1072.25 365.487C1061.72 357.205 1051.49 348.203 1039.93 341.635C981.554 308.484 909.95 317.362 861.018 363.86C847.037 377.146 829.543 369.311 826.253 355.653C824.539 348.539 826.588 342.48 831.492 337.464C861.105 307.181 896.925 288.879 938.817 282.721C947.794 281.392 956.92 281.094 962.731 280.598Z" fill="white"/>
<path d="M1030.27 430.627C1023.66 430.838 1019.06 427.162 1014.48 423.077C993.977 404.826 970.461 398.68 944.412 408.253C935.77 411.431 927.812 417.403 920.672 423.425C910.59 431.918 899.764 433.097 891.407 424.915C883.163 416.832 883.163 403.87 891.395 394.731C932.207 349.375 1003.95 349.5 1044.19 395.005C1050.38 402.007 1052.05 409.954 1048.21 418.583C1044.81 426.231 1038.69 430.254 1030.27 430.627Z" fill="white"/>
<path d="M966.56 514.133C945.813 514.108 928.952 497.408 928.84 476.76C928.741 455.827 945.701 438.904 966.759 438.953C987.531 438.99 1004.31 455.641 1004.43 476.351C1004.55 497.321 987.693 514.158 966.56 514.133Z" fill="white"/>
<path d="M314.898 447.492C311.291 447.492 308.656 447.492 305.881 447.492C276.331 447.492 246.643 447.492 217.093 447.492C197.394 447.492 188.237 438.449 188.237 419.13C188.237 357.883 188.237 296.773 188.237 235.526C188.237 216.891 197.394 207.711 216.261 207.711C316.147 207.711 416.033 207.711 515.78 207.711C534.093 207.711 543.388 217.028 543.388 235.252C543.388 296.91 543.388 358.568 543.388 420.226C543.388 438.175 533.815 447.492 515.503 447.629C485.676 447.766 455.849 447.629 426.022 447.629C423.247 447.629 420.472 447.629 416.727 447.629C416.727 456.261 416.449 464.346 417.004 472.43C417.143 473.937 420.056 475.992 422.137 476.677C447.386 485.583 472.774 494.078 497.884 502.985C501.352 504.218 505.376 506.684 506.624 509.698C507.873 512.576 507.04 518.194 504.959 520.112C502.185 522.441 496.774 523.674 493.167 522.715C483.595 520.386 474.3 516.549 465.005 513.261C438.23 504.081 411.316 494.901 384.541 485.446C372.055 481.062 359.847 480.925 347.361 485.309C312.54 497.504 277.58 509.424 242.758 521.482C232.631 525.044 226.804 523.674 224.446 517.097C221.949 510.247 225.417 505.588 236.099 501.888C260.516 493.53 284.933 484.898 309.349 476.814C313.511 475.444 315.315 473.663 315.037 469.141C314.621 462.427 314.898 455.576 314.898 447.492ZM365.813 228.264C316.702 228.264 267.73 228.264 218.758 228.264C209.047 228.264 209.047 228.264 209.047 237.581C209.047 297.595 209.047 357.609 209.047 417.622C209.047 426.803 209.047 426.94 218.203 426.94C316.702 426.94 415.062 426.94 513.561 426.94C522.44 426.94 522.578 426.803 522.578 418.17C522.578 357.883 522.578 297.595 522.578 237.444C522.578 228.401 522.578 228.264 513.422 228.264C464.173 228.264 414.923 228.264 365.813 228.264ZM336.402 447.903C336.402 454.754 336.402 460.92 336.402 467.908C356.379 459.139 375.662 459.687 395.362 467.634C395.362 460.509 395.362 454.343 395.362 447.903C375.524 447.903 356.24 447.903 336.402 447.903Z" fill="white"/>
<path d="M321.004 262.786C318.784 266.486 317.674 269.5 315.455 271.692C295.061 292.108 274.529 312.387 253.858 332.665C248.725 337.735 242.898 337.872 238.459 333.762C233.881 329.514 234.158 323.211 239.291 318.142C259.824 297.726 280.356 277.447 301.027 257.169C304.634 253.606 308.934 251.688 313.512 254.428C316.426 256.209 318.368 259.772 321.004 262.786Z" fill="#04CC3A"/>
<path d="M236.377 290.479C234.019 288.698 229.995 287.19 228.886 284.45C227.637 281.436 227.498 276.092 229.441 273.9C237.764 264.582 246.782 255.813 256.216 247.318C260.239 243.619 265.372 244.578 269.256 248.414C272.863 252.114 273.973 257.046 270.644 260.746C261.765 270.337 252.331 279.243 242.897 288.287C241.649 289.383 239.429 289.52 236.377 290.479Z" fill="#04CC3A"/>
<path d="M322.754 958.881V894.188H298.468V877.963H363.678V894.188H339.392V958.881H322.754ZM357.692 903.696H374.744L388.385 940.486L402.026 903.696H419.078L396.446 958.881H380.014L357.692 903.696Z" fill="white"/>
<path d="M780.601 865.936V946.854H763.859V865.936H780.601ZM849.192 946.854H833.174V916.264C833.174 909.753 829.867 905.516 823.563 905.516C817.052 905.516 813.642 910.167 813.642 916.264V946.854H797.521V891.668H813.539V898.902H813.642C814.986 896.629 816.742 894.872 819.119 893.528C823.976 890.738 826.87 890.635 829.247 890.635C835.861 890.635 840.821 892.702 844.128 896.939C847.539 901.176 849.192 906.343 849.192 912.544V946.854ZM897.021 933.212V946.543C894.644 947.267 892.164 947.577 889.477 947.577C875.112 947.577 867.568 939.723 867.568 926.805V905.62H857.647V891.668H867.775V874.41H883.689V891.668H897.331V905.62H883.689V924.841C883.689 931.145 886.996 933.626 893.3 933.626C894.644 933.626 895.884 933.522 897.021 933.212ZM961.854 923.705H921.757C922.687 930.422 928.474 934.556 935.398 934.556C940.255 934.556 945.216 931.972 947.696 927.942L959.374 935.589C954.723 943.96 946.869 948.094 935.605 948.094C927.027 948.094 919.897 945.407 914.006 940.033C908.219 934.556 905.325 927.632 905.325 919.158C905.325 911.2 908.219 904.483 913.903 898.799C919.69 893.115 926.614 890.325 934.571 890.325C942.735 890.325 949.349 892.908 954.413 897.972C959.477 903.036 962.061 909.753 962.061 917.917C962.061 920.501 961.957 922.465 961.854 923.705ZM922.17 913.06H945.939C945.526 908.203 941.495 903.449 934.158 903.449C930.851 903.449 928.061 904.483 925.891 906.653C923.72 908.72 922.48 910.89 922.17 913.06ZM1008.46 891.462V907.376C1007.22 907.17 1005.98 907.066 1004.63 907.066C994.196 907.066 989.648 913.577 989.648 923.498V946.854H973.527V891.668H989.545V900.142H989.648C992.025 895.079 997.916 891.048 1005.25 891.048C1006.6 891.048 1007.63 891.152 1008.46 891.462ZM1069.1 946.854H1053.08V916.264C1053.08 909.753 1049.77 905.516 1043.47 905.516C1036.96 905.516 1033.55 910.167 1033.55 916.264V946.854H1017.43V891.668H1033.45V898.902H1033.55C1034.89 896.629 1036.65 894.872 1039.03 893.528C1043.88 890.738 1046.78 890.635 1049.15 890.635C1055.77 890.635 1060.73 892.702 1064.04 896.939C1067.45 901.176 1069.1 906.343 1069.1 912.544V946.854ZM1136.55 923.705H1096.45C1097.38 930.422 1103.17 934.556 1110.09 934.556C1114.95 934.556 1119.91 931.972 1122.39 927.942L1134.07 935.589C1129.42 943.96 1121.56 948.094 1110.3 948.094C1101.72 948.094 1094.59 945.407 1088.7 940.033C1082.91 934.556 1080.02 927.632 1080.02 919.158C1080.02 911.2 1082.91 904.483 1088.6 898.799C1094.38 893.115 1101.31 890.325 1109.27 890.325C1117.43 890.325 1124.04 892.908 1129.11 897.972C1134.17 903.036 1136.75 909.753 1136.75 917.917C1136.75 920.501 1136.65 922.465 1136.55 923.705ZM1096.86 913.06H1120.63C1120.22 908.203 1116.19 903.449 1108.85 903.449C1105.55 903.449 1102.76 904.483 1100.58 906.653C1098.41 908.72 1097.17 910.89 1096.86 913.06ZM1181.11 933.212V946.543C1178.74 947.267 1176.26 947.577 1173.57 947.577C1159.2 947.577 1151.66 939.723 1151.66 926.805V905.62H1141.74V891.668H1151.87V874.41H1167.78V891.668H1181.42V905.62H1167.78V924.841C1167.78 931.145 1171.09 933.626 1177.39 933.626C1178.74 933.626 1179.98 933.522 1181.11 933.212Z" fill="white"/>
<path d="M616.014 943.208H591.954V911.721H560.467V888.146H591.954V856.82H616.014V888.146H646.694V911.721H616.014V943.208Z" fill="#04CB3A"/>
<circle cx="2413.95" cy="362.947" r="359.947" fill="url(#paint1_linear_3433_450)"/>
<circle cx="3022.58" cy="362.947" r="359.947" fill="white" fill-opacity="0.25"/>
<path d="M2731.28 419.15H2715.67V398.731H2695.25V383.443H2715.67V363.129H2731.28V383.443H2751.17V398.731H2731.28V419.15Z" fill="white"/>
<path d="M2419.35 203.23C2486.25 204.429 2549.65 230.053 2602.11 281.92C2610.45 290.16 2611.82 299.044 2606.44 307.457C2599.51 318.293 2585.97 319.924 2576.07 311.213C2567.59 303.739 2559.4 295.844 2550.36 289.086C2459.75 221.17 2333.72 228.88 2251.85 307.136C2250.37 308.557 2248.93 310.04 2247.38 311.399C2238.76 318.997 2227.37 318.676 2219.73 310.633C2212.13 302.627 2212.1 291.73 2220.09 283.513C2235.53 267.662 2252.88 254.108 2271.83 242.692C2315.15 216.586 2362.16 203.527 2419.35 203.23Z" fill="white"/>
<path d="M2409.9 282.217C2464.51 283.069 2508.62 301.194 2545.08 337.481C2555.21 347.563 2554.52 360.609 2543.78 368.381C2535.93 374.064 2527.1 373.15 2518.88 366.688C2508.41 358.447 2498.23 349.49 2486.72 342.954C2428.63 309.966 2357.38 318.8 2308.69 365.07C2294.78 378.29 2277.37 370.494 2274.09 356.903C2272.39 349.824 2274.43 343.794 2279.31 338.803C2308.78 308.669 2344.42 290.458 2386.11 284.33C2395.04 283.008 2404.12 282.711 2409.9 282.217Z" fill="white"/>
<path d="M2477.11 431.507C2470.53 431.718 2465.95 428.06 2461.39 423.996C2440.99 405.834 2417.59 399.718 2391.67 409.244C2383.07 412.407 2375.15 418.349 2368.05 424.342C2358.02 432.792 2347.24 433.966 2338.93 425.824C2330.73 417.781 2330.73 404.882 2338.92 395.789C2379.53 350.656 2450.91 350.78 2490.96 396.061C2497.12 403.029 2498.78 410.936 2494.96 419.523C2491.58 427.134 2485.48 431.137 2477.11 431.507Z" fill="white"/>
<path d="M2413.71 514.595C2393.07 514.57 2376.29 497.953 2376.18 477.406C2376.08 456.576 2392.96 439.736 2413.91 439.785C2434.58 439.822 2451.27 456.39 2451.39 476.999C2451.52 497.866 2434.74 514.62 2413.71 514.595Z" fill="white"/>
<path d="M2859.98 291.681C2859.6 283.097 2864.15 271.402 2874.76 261.946C2882.08 255.352 2888.78 248.136 2895.85 241.418C2907.73 230.22 2919.73 230.096 2931.47 241.169C2943.98 253.113 2956.36 265.305 2968.48 277.747C2980.48 289.939 2980.23 301.385 2968.1 313.578C2961.16 320.545 2954.21 327.512 2947.01 334.231C2943.6 337.466 2943.09 340.452 2945.11 344.682C2956.99 369.067 2975.05 388.6 2994.88 406.764C3008.02 418.833 3022.54 429.035 3038.71 436.873C3043.01 438.988 3045.91 438.614 3049.2 435.255C3056.14 428.039 3063.34 421.072 3070.54 414.105C3082.54 402.534 3094.54 402.534 3106.54 414.105C3118.92 425.924 3131.17 437.992 3143.17 450.185C3155.3 462.378 3155.17 474.321 3142.92 486.638C3136.73 492.859 3130.16 498.707 3124.35 505.176C3111.97 518.986 3096.56 522.719 3078.75 520.479C3055.76 517.618 3034.92 509.033 3014.97 498.084C2948.15 461.507 2898.76 409.377 2869.58 339.207C2864.15 325.646 2860.36 311.587 2859.98 291.681Z" fill="white"/>
<path d="M3183.21 351.906C3175 353.274 3167.17 354.518 3158.71 356.011C3152.27 322.295 3137.11 293.555 3112.35 269.917C3087.72 246.402 3058.29 232.343 3023.56 227.118C3024.69 218.907 3025.83 211.069 3026.84 203.23C3095.81 209.576 3168.94 267.304 3183.21 351.906Z" fill="#008D1E"/>
<path d="M3020.27 290.197C3021.41 282.359 3022.42 274.645 3023.55 266.932C3060.56 268.549 3109.32 303.012 3117.53 356.012C3113.49 356.759 3109.45 357.381 3105.4 358.127C3101.49 358.749 3097.57 359.496 3093.41 360.118C3084.18 321.55 3059.93 298.284 3020.27 290.197Z" fill="#008D1E"/>
<path d="M2227.73 864.67V945.588H2210.99V864.67H2227.73ZM2296.32 945.588H2280.3V914.998C2280.3 908.488 2277 904.251 2270.69 904.251C2264.18 904.251 2260.77 908.901 2260.77 914.998V945.588H2244.65V890.403H2260.67V897.637H2260.77C2262.12 895.363 2263.87 893.606 2266.25 892.263C2271.11 889.473 2274 889.369 2276.38 889.369C2282.99 889.369 2287.95 891.436 2291.26 895.673C2294.67 899.91 2296.32 905.077 2296.32 911.278V945.588ZM2344.15 931.947V945.278C2341.77 946.001 2339.29 946.311 2336.61 946.311C2322.24 946.311 2314.7 938.457 2314.7 925.539V904.354H2304.78V890.403H2314.9V873.144H2330.82V890.403H2344.46V904.354H2330.82V923.576C2330.82 929.88 2334.13 932.36 2340.43 932.36C2341.77 932.36 2343.01 932.257 2344.15 931.947ZM2408.98 922.439H2368.89C2369.82 929.156 2375.6 933.29 2382.53 933.29C2387.39 933.29 2392.35 930.706 2394.83 926.676L2406.5 934.323C2401.85 942.694 2394 946.828 2382.73 946.828C2374.16 946.828 2367.03 944.141 2361.14 938.767C2355.35 933.29 2352.46 926.366 2352.46 917.892C2352.46 909.934 2355.35 903.217 2361.03 897.533C2366.82 891.849 2373.74 889.059 2381.7 889.059C2389.87 889.059 2396.48 891.643 2401.54 896.707C2406.61 901.77 2409.19 908.488 2409.19 916.652C2409.19 919.235 2409.09 921.199 2408.98 922.439ZM2369.3 911.795H2393.07C2392.66 906.938 2388.63 902.184 2381.29 902.184C2377.98 902.184 2375.19 903.217 2373.02 905.387C2370.85 907.454 2369.61 909.624 2369.3 911.795ZM2455.59 890.196V906.111C2454.35 905.904 2453.11 905.801 2451.76 905.801C2441.33 905.801 2436.78 912.311 2436.78 922.232V945.588H2420.66V890.403H2436.68V898.877H2436.78C2439.16 893.813 2445.05 889.783 2452.38 889.783C2453.73 889.783 2454.76 889.886 2455.59 890.196ZM2516.23 945.588H2500.21V914.998C2500.21 908.488 2496.9 904.251 2490.6 904.251C2484.09 904.251 2480.68 908.901 2480.68 914.998V945.588H2464.56V890.403H2480.58V897.637H2480.68C2482.02 895.363 2483.78 893.606 2486.16 892.263C2491.01 889.473 2493.91 889.369 2496.28 889.369C2502.9 889.369 2507.86 891.436 2511.17 895.673C2514.58 899.91 2516.23 905.077 2516.23 911.278V945.588ZM2583.68 922.439H2543.58C2544.51 929.156 2550.3 933.29 2557.22 933.29C2562.08 933.29 2567.04 930.706 2569.52 926.676L2581.2 934.323C2576.55 942.694 2568.69 946.828 2557.43 946.828C2548.85 946.828 2541.72 944.141 2535.83 938.767C2530.04 933.29 2527.15 926.366 2527.15 917.892C2527.15 909.934 2530.04 903.217 2535.73 897.533C2541.51 891.849 2548.44 889.059 2556.4 889.059C2564.56 889.059 2571.17 891.643 2576.24 896.707C2581.3 901.77 2583.89 908.488 2583.89 916.652C2583.89 919.235 2583.78 921.199 2583.68 922.439ZM2543.99 911.795H2567.76C2567.35 906.938 2563.32 902.184 2555.98 902.184C2552.68 902.184 2549.89 903.217 2547.72 905.387C2545.54 907.454 2544.3 909.624 2543.99 911.795ZM2628.24 931.947V945.278C2625.87 946.001 2623.39 946.311 2620.7 946.311C2606.33 946.311 2598.79 938.457 2598.79 925.539V904.354H2588.87V890.403H2599V873.144H2614.91V890.403H2628.55V904.354H2614.91V923.576C2614.91 929.88 2618.22 932.36 2624.52 932.36C2625.87 932.36 2627.11 932.257 2628.24 931.947Z" fill="white"/>
<path d="M3013.48 808.209H3042.14V822.135H3013.48V850.076H2998.83V779.273H3045.49V793.199H3013.48V808.209ZM3062.8 776.199C3067.77 776.199 3071.66 779.997 3071.66 784.97C3071.66 789.763 3067.77 793.651 3062.8 793.651C3058.09 793.651 3054.12 789.763 3054.12 784.97C3054.12 780.177 3058.09 776.199 3062.8 776.199ZM3070.03 850.076H3055.83V801.789H3070.03V850.076ZM3093.16 850.076H3077.52L3094.88 825.752L3078.06 801.789H3093.88L3102.56 815.443L3111.52 801.789H3127.07L3110.07 825.48L3127.52 850.076H3111.7L3102.47 835.879L3093.16 850.076ZM3129.59 826.023C3129.59 818.879 3132.12 812.821 3137.27 808.028C3142.43 803.145 3148.76 800.704 3156.08 800.704C3163.41 800.704 3169.65 803.145 3174.71 807.938C3179.77 812.731 3182.31 818.608 3182.31 825.752C3182.31 832.986 3179.77 839.044 3174.62 843.927C3169.46 848.72 3163.23 851.161 3155.9 851.161C3148.49 851.161 3142.25 848.81 3137.18 844.018C3132.12 839.225 3129.59 833.257 3129.59 826.023ZM3144.06 825.842C3144.06 829.459 3145.23 832.443 3147.49 834.794C3149.75 837.055 3152.65 838.23 3155.99 838.23C3162.77 838.23 3167.84 833.076 3167.84 825.842C3167.84 822.316 3166.66 819.332 3164.4 817.071C3162.14 814.72 3159.25 813.544 3155.9 813.544C3152.56 813.544 3149.75 814.72 3147.49 817.071C3145.23 819.332 3144.06 822.316 3144.06 825.842ZM2902.7 877.273V948.076H2888.05V877.273H2902.7ZM2931.7 874.38V948.076H2917.5V874.38H2931.7ZM2951.66 874.199C2956.64 874.199 2960.52 877.997 2960.52 882.97C2960.52 887.763 2956.64 891.651 2951.66 891.651C2946.96 891.651 2942.98 887.763 2942.98 882.97C2942.98 878.177 2946.96 874.199 2951.66 874.199ZM2958.9 948.076H2944.7V899.789H2958.9V948.076ZM3025.16 911.906C3019.64 911.906 3016.48 915.433 3016.48 921.129V948.076H3002.46V921.31C3002.46 915.071 2999.84 911.906 2994.6 911.906C2988.9 911.906 2986 915.614 2986 921.31V948.076H2971.9V899.789H2985.73V906.119H2985.91C2988.54 901.417 2994.23 898.704 3000.02 898.704C3006.71 898.704 3011.41 901.236 3014.13 906.39C3018.83 901.055 3023.35 898.704 3030.13 898.704C3041.44 898.704 3047.13 906.3 3047.13 917.965V948.076H3033.03V921.129C3033.03 914.981 3030.4 911.906 3025.16 911.906ZM3066.64 874.199C3071.61 874.199 3075.5 877.997 3075.5 882.97C3075.5 887.763 3071.61 891.651 3066.64 891.651C3061.94 891.651 3057.96 887.763 3057.96 882.97C3057.96 878.177 3061.94 874.199 3066.64 874.199ZM3073.87 948.076H3059.67V899.789H3073.87V948.076ZM3116.71 936.14V947.805C3114.63 948.438 3112.46 948.709 3110.11 948.709C3097.54 948.709 3090.94 941.837 3090.94 930.534V911.996H3082.26V899.789H3091.12V884.688H3105.05V899.789H3116.98V911.996H3105.05V928.816C3105.05 934.332 3107.94 936.502 3113.46 936.502C3114.63 936.502 3115.72 936.411 3116.71 936.14ZM3141.15 948.98C3136.62 948.98 3132.74 947.714 3129.57 945.092C3126.41 942.47 3124.87 938.943 3124.87 934.603V934.422C3124.87 928.725 3127.67 924.566 3132.01 922.486C3136.44 920.406 3140.96 919.592 3146.39 919.592H3151.18C3153.71 919.592 3154.98 918.417 3154.98 916.066C3154.98 912.72 3152.27 910.098 3147.2 910.098C3142.41 910.098 3138.89 912.268 3136.44 916.608L3125.68 910.188C3129.84 902.502 3137.26 898.704 3147.84 898.704C3160.59 898.704 3168.82 905.486 3168.82 918.145V948.076H3155.79V942.108L3155.61 942.018C3152.36 946.629 3147.57 948.98 3141.15 948.98ZM3145.21 938.672C3151.27 938.672 3154.89 934.693 3154.89 929.358V928.273H3146.39C3142.32 928.273 3139.07 930.172 3139.07 933.789C3139.07 937.044 3141.6 938.672 3145.21 938.672ZM3216.63 948.076V941.927H3216.45C3213.28 946.629 3208.22 948.98 3201.43 948.98C3194.65 948.98 3189.14 946.539 3184.89 941.566C3180.64 936.592 3178.47 930.624 3178.47 923.842C3178.47 917.422 3180.64 911.635 3185.07 906.571C3189.5 901.417 3195.01 898.885 3201.62 898.885C3207.67 898.885 3212.47 901.055 3216.08 905.305H3216.26V874.47H3230.28V948.076H3216.63ZM3216.63 923.842C3216.63 916.699 3211.47 911.635 3204.69 911.635C3197.91 911.635 3192.75 916.699 3192.75 923.842C3192.75 927.459 3193.93 930.443 3196.19 932.794C3198.45 935.055 3201.34 936.23 3204.69 936.23C3208.04 936.23 3210.93 935.055 3213.19 932.794C3215.45 930.443 3216.63 927.459 3216.63 923.842ZM3240.37 924.023C3240.37 916.879 3242.9 910.821 3248.05 906.028C3253.21 901.145 3259.54 898.704 3266.86 898.704C3274.19 898.704 3280.43 901.145 3285.49 905.938C3290.55 910.731 3293.08 916.608 3293.08 923.752C3293.08 930.986 3290.55 937.044 3285.4 941.927C3280.24 946.72 3274.01 949.161 3266.68 949.161C3259.27 949.161 3253.03 946.81 3247.96 942.018C3242.9 937.225 3240.37 931.257 3240.37 924.023ZM3254.84 923.842C3254.84 927.459 3256.01 930.443 3258.27 932.794C3260.53 935.055 3263.43 936.23 3266.77 936.23C3273.55 936.23 3278.62 931.076 3278.62 923.842C3278.62 920.316 3277.44 917.332 3275.18 915.071C3272.92 912.72 3270.03 911.544 3266.68 911.544C3263.33 911.544 3260.53 912.72 3258.27 915.071C3256.01 917.332 3254.84 920.316 3254.84 923.842Z" fill="white"/>
<path d="M2788.35 935.784H2764.29V904.297H2732.8V880.722H2764.29V849.396H2788.35V880.722H2819.03V904.297H2788.35V935.784Z" fill="#04CB3A"/>
<path d="M1629.73 552.777C1620.85 552.777 1613.15 550.822 1606.64 546.914C1600.13 543.005 1595.07 537.538 1591.48 530.51C1587.93 523.483 1586.15 515.271 1586.15 505.875C1586.15 496.479 1587.93 488.248 1591.48 481.181C1595.07 474.114 1600.13 468.627 1606.64 464.718C1613.15 460.81 1620.85 458.856 1629.73 458.856C1638.62 458.856 1646.32 460.81 1652.83 464.718C1659.34 468.627 1664.38 474.114 1667.93 481.181C1671.52 488.248 1673.32 496.479 1673.32 505.875C1673.32 515.271 1671.52 523.483 1667.93 530.51C1664.38 537.538 1659.34 543.005 1652.83 546.914C1646.32 550.822 1638.62 552.777 1629.73 552.777ZM1629.85 535.603C1634.67 535.603 1638.7 534.281 1641.93 531.635C1645.17 528.951 1647.58 525.358 1649.16 520.858C1650.78 516.357 1651.59 511.343 1651.59 505.816C1651.59 500.25 1650.78 495.216 1649.16 490.715C1647.58 486.175 1645.17 482.563 1641.93 479.878C1638.7 477.194 1634.67 475.851 1629.85 475.851C1624.92 475.851 1620.81 477.194 1617.54 479.878C1614.3 482.563 1611.87 486.175 1610.25 490.715C1608.67 495.216 1607.88 500.25 1607.88 505.816C1607.88 511.343 1608.67 516.357 1610.25 520.858C1611.87 525.358 1614.3 528.951 1617.54 531.635C1620.81 534.281 1624.92 535.603 1629.85 535.603ZM1749.49 512.745V460.04H1770.93V551H1750.14V534.833H1749.19C1747.14 539.926 1743.77 544.091 1739.07 547.328C1734.41 550.566 1728.66 552.184 1721.83 552.184C1715.87 552.184 1710.6 550.862 1706.02 548.217C1701.48 545.532 1697.93 541.643 1695.36 536.551C1692.8 531.418 1691.51 525.22 1691.51 517.956V460.04H1712.95V514.64C1712.95 520.404 1714.53 524.983 1717.69 528.378C1720.85 531.774 1724.99 533.471 1730.13 533.471C1733.28 533.471 1736.34 532.701 1739.3 531.162C1742.27 529.622 1744.69 527.332 1746.59 524.292C1748.52 521.213 1749.49 517.364 1749.49 512.745Z" fill="white"/>
<defs>
<linearGradient id="paint0_linear_3433_450" x1="1113.19" y1="51.9271" x2="739.964" y2="619.88" gradientUnits="userSpaceOnUse">
<stop stop-color="#04CC3A"/>
<stop offset="1" stop-color="#008D1E"/>
</linearGradient>
<linearGradient id="paint1_linear_3433_450" x1="2559.61" y1="54.6716" x2="2188.23" y2="619.83" gradientUnits="userSpaceOnUse">
<stop stop-color="#04CC3A"/>
<stop offset="1" stop-color="#008D1E"/>
</linearGradient>
</defs>
</svg>
