<svg width="30" height="36" viewBox="0 0 30 36" fill="none" xmlns="http://www.w3.org/2000/svg">
<path d="M16.9833 19.373C16.9833 19.1787 16.9833 18.9844 16.9833 18.7911C16.9833 13.5498 16.9824 8.30853 16.9833 3.06724C16.9833 2.20729 16.6834 1.54166 16.0574 1.11436C15.4611 0.707472 14.845 0.722502 14.2596 1.14443C13.6426 1.58889 13.3751 2.2717 13.376 3.12736C13.3805 7.06316 13.3778 10.999 13.3778 14.9337C13.3778 16.4142 13.3778 17.8957 13.3778 19.4965C13.1958 19.2989 13.0769 19.1787 12.9671 19.0477C12.0321 17.9365 11.1008 16.82 10.1641 15.711C9.37685 14.7791 8.27889 14.7254 7.54842 15.5725C6.79003 16.4528 6.80264 17.7648 7.60337 18.7235C9.67768 21.2089 11.7574 23.6889 13.8425 26.1614C14.6559 27.1254 15.7052 27.1233 16.5194 26.1581C18.6046 23.6856 20.6843 21.2056 22.7586 18.7203C23.5476 17.7755 23.571 16.4947 22.8406 15.6079C22.1119 14.7254 20.9959 14.7651 20.1934 15.7131C19.2666 16.8082 18.3434 17.9097 17.4255 19.0166C17.3111 19.154 17.2373 19.3387 17.1445 19.5008C17.0914 19.4578 17.0373 19.4149 16.9833 19.373Z" fill="black"/>
<path d="M15.2315 35.1807C19.4027 35.1807 23.5748 35.1818 27.7459 35.1796C28.5277 35.1785 29.1015 34.748 29.4284 33.9074C29.7428 33.1011 29.6329 32.3314 29.1627 31.6507C28.7979 31.1225 28.3115 30.882 27.7369 30.8831C26.5516 30.8863 25.3662 30.8831 24.1809 30.8831C17.0384 30.8831 9.89578 30.882 2.75411 30.8842C1.61832 30.8842 0.812192 31.7226 0.773462 32.9304C0.733831 34.1457 1.51294 35.156 2.53884 35.1742C3.75389 35.1957 4.96983 35.1807 6.18488 35.1807C9.19953 35.1807 12.216 35.1807 15.2315 35.1807Z" fill="black"/>
</svg>
