<svg width="237" height="211" viewBox="0 0 237 211" fill="none" xmlns="http://www.w3.org/2000/svg">
<path d="M60.1802 51.6309C66.9543 53.1362 73.7284 54.2652 80.1262 55.7706C94.0508 58.7813 107.975 61.792 122.276 64.4264C124.158 64.8028 126.04 64.8028 127.921 64.4264C135.072 62.5447 142.599 60.2867 149.749 58.405C159.534 55.7706 165.179 58.405 167.437 68.1898C168.566 73.0823 170.824 74.964 175.717 76.093C191.899 79.1037 207.706 82.8671 223.888 86.2542C225.017 86.6305 226.146 86.6305 227.652 87.0068C226.899 91.5229 225.77 96.039 225.017 100.555C222.759 111.469 220.125 122.759 217.867 133.673C215.985 141.953 210.716 145.34 202.437 143.834C197.921 143.082 193.405 141.953 187.76 140.824C188.889 145.34 190.394 149.479 191.147 153.619C191.899 156.253 192.276 158.888 192.276 161.146C191.523 166.791 187.76 169.425 182.491 170.931C158.029 177.705 133.567 184.479 109.481 191.253C86.9004 197.651 63.9436 203.672 41.3632 210.07C33.0837 212.328 27.4386 209.317 25.1806 200.662C16.9011 171.683 8.99792 142.705 0.718436 113.727C-1.53961 105.071 1.47112 99.4261 10.5033 97.168C23.6752 93.4046 36.8471 89.6412 50.019 86.2542C52.2771 85.5015 53.4061 84.7488 53.7824 82.4908C55.6641 73.8349 57.5458 64.8028 59.4275 56.1469C59.4275 54.2652 59.8039 53.1362 60.1802 51.6309ZM20.2881 146.845C20.2881 147.598 20.2881 148.35 20.2881 148.727C24.8042 165.286 29.3203 181.845 34.2127 198.78C34.9654 201.414 36.4708 201.791 39.1051 201.038C53.7824 196.898 68.836 192.758 83.5133 188.619C115.126 179.963 146.738 170.931 178.351 162.275C183.62 160.77 183.62 160.77 182.114 155.501C178.727 143.082 175.34 130.662 171.577 118.243C170.448 114.103 169.319 110.34 168.19 106.2C118.513 119.748 69.2124 133.297 20.2881 146.845ZM162.545 85.8778C161.039 80.2327 159.534 75.3403 158.405 70.4479C157.652 67.0608 156.147 66.3081 152.76 67.4371C117.76 77.222 82.3843 87.0068 47.3846 96.7917C35.7181 99.8024 24.4279 103.189 12.7613 106.2C10.8796 106.577 8.62158 107.329 9.37426 109.587C10.8796 115.232 12.385 120.877 14.2667 126.899C63.9436 113.351 112.868 99.4261 162.545 85.8778ZM193.405 91.1466C189.265 90.7702 187.76 92.2756 187.007 95.2863C185.878 100.555 184.749 105.448 183.62 110.716C182.867 114.103 184.372 116.361 187.76 117.114C193.028 118.243 198.297 119.372 203.566 120.501C206.577 121.254 208.835 119.748 209.587 116.738C210.716 111.093 212.222 105.824 212.974 100.179C213.351 97.5444 212.222 95.2863 209.587 94.91C203.942 93.4046 198.297 92.2756 193.405 91.1466Z" fill="url(#paint0_linear_3417_3)"/>
<path d="M234.052 61.7981C177.977 50.1316 122.655 38.0887 66.2039 26.4221C67.3329 19.648 68.0856 12.8739 69.9673 6.85245C71.4726 1.20735 77.4941 -1.0507 84.2682 0.454665C95.1821 2.71271 106.472 5.34709 117.386 7.60513C153.515 15.1319 190.02 23.0351 226.148 30.5619C234.052 32.0673 237.439 37.336 236.31 45.2392C235.933 50.5079 234.804 55.7767 234.052 61.7981Z" fill="url(#paint1_linear_3417_3)"/>
<path d="M43.2442 190.087C42.1152 188.958 39.8572 187.452 39.4808 185.947C37.5991 180.678 36.4701 175.409 34.9648 169.764C34.2121 166.377 35.7174 164.119 38.7282 163.367C43.9969 161.861 48.8893 160.356 54.1581 159.227C57.5452 158.474 59.8032 159.603 60.9322 162.99C62.4376 168.259 63.9429 173.151 65.072 178.42C66.201 182.184 65.072 184.442 60.9322 185.571C55.2871 186.7 49.642 188.205 43.2442 190.087Z" fill="white"/>
<defs>
<linearGradient id="paint0_linear_3417_3" x1="113.826" y1="51.6309" x2="113.826" y2="210.792" gradientUnits="userSpaceOnUse">
<stop stop-color="#008D1E"/>
<stop offset="1" stop-color="#04CB3A"/>
</linearGradient>
<linearGradient id="paint1_linear_3417_3" x1="151.363" y1="0" x2="151.363" y2="61.7981" gradientUnits="userSpaceOnUse">
<stop stop-color="#008D1E"/>
<stop offset="1" stop-color="#04CB3A"/>
</linearGradient>
</defs>
</svg>
