<svg width="190" height="176" viewBox="0 0 190 176" fill="none" xmlns="http://www.w3.org/2000/svg">
<path d="M140.47 77.8613C134.95 77.8613 130.736 82.0687 130.736 87.5818C130.736 93.0949 134.95 97.3023 140.47 97.3023C145.991 97.3023 150.205 93.0949 150.205 87.5818C150.205 82.0687 145.991 77.8613 140.47 77.8613ZM140.47 90.822C138.533 90.822 137.226 89.5162 137.226 87.5818C137.226 85.6474 138.533 84.3416 140.47 84.3416C142.408 84.3416 143.715 85.6474 143.715 87.5818C143.715 89.5404 142.408 90.822 140.47 90.822Z" fill="url(#paint0_linear_3426_50)"/>
<path d="M94.9965 155.721C61.5327 155.721 33.2749 133.33 33.2749 107.07C33.2749 105.136 31.9673 103.83 30.0302 103.83C28.0931 103.83 26.7855 105.136 26.7855 107.07C26.7855 136.909 57.9732 162.225 94.9965 162.225C96.9336 162.225 98.2412 160.92 98.2412 158.985C98.2412 157.051 96.9336 155.721 94.9965 155.721Z" fill="url(#paint1_linear_3426_50)"/>
<path d="M62.5013 71.356C82.3084 71.356 98.2412 55.4696 98.2412 35.6659C98.2412 15.8623 82.3084 0 62.5013 0C42.6942 0 26.7614 15.8864 26.7614 35.6901C26.7614 55.4937 42.6942 71.356 62.5013 71.356ZM62.5013 6.48032C78.7489 6.48032 91.7276 19.4651 91.7276 35.6659C91.7276 51.8667 78.7489 64.8757 62.5013 64.8757C46.2537 64.8757 33.2749 51.8909 33.2749 35.6901C33.2749 19.4893 46.2537 6.48032 62.5013 6.48032Z" fill="url(#paint2_linear_3426_50)"/>
<path d="M179.455 90.82H176.21C174.903 90.82 173.62 89.8527 173.281 88.547C167.76 72.0077 154.757 57.7413 137.226 48.6496V29.1844C137.226 27.8787 136.572 26.5971 135.289 26.2586C133.981 25.6057 132.698 25.9443 131.705 26.9115L117.08 41.5164C114.15 40.8635 110.905 40.2106 107.975 39.8963C106.353 39.5819 104.731 40.8635 104.392 42.4836C100.808 62.9159 83.2769 77.8351 62.4771 77.8351C51.7502 77.8351 41.6772 73.9421 33.8803 66.8089C33.2265 66.1561 32.2579 65.8417 31.6041 65.8417C30.6356 65.8417 29.9818 66.1561 29.328 66.8089C19.9088 77.8351 14.7027 90.4814 13.7342 103.781C12.4266 103.466 10.8043 102.813 9.83572 101.508C8.21338 99.8876 7.24481 97.3003 7.24481 94.0359V81.0511C7.24481 81.0511 7.24481 81.0511 7.24481 80.7368C7.24481 80.4224 7.24481 76.5294 9.52094 73.6036C11.1433 72.2979 13.7342 71.3307 17.0031 71.3307C18.9402 71.3307 20.2478 70.0249 20.2478 68.0905C20.2478 66.1561 18.9402 64.8503 17.0031 64.8503C11.7971 64.8503 7.89859 66.4704 4.99291 69.3962C0.779663 73.9663 0.779663 80.1323 0.779663 81.0995V94.0843C0.779663 99.2831 2.402 103.176 5.3319 106.078C7.92281 108.665 11.5065 109.656 13.7826 109.971C14.4364 123.584 19.9572 136.908 29.6912 147.934L26.7613 157.993C26.4466 159.299 26.7613 160.266 27.7299 161.233L40.7328 174.218C42.0404 175.523 43.9775 175.523 45.2851 174.218L53.7358 165.779C66.3997 171.945 80.3712 175.185 94.9965 175.185C109.622 175.185 123.593 171.945 136.257 165.779L144.708 174.218C145.362 174.871 146.33 175.185 146.984 175.185C147.638 175.185 148.606 174.871 149.26 174.218L162.263 161.233C163.232 160.266 163.571 159.299 163.232 157.993L159.987 147.934C166.162 141.115 170.375 133.667 173.305 125.543C173.62 124.237 174.927 123.27 176.235 123.27H179.479C185 123.27 189.213 119.063 189.213 113.549V100.565C189.189 95.0515 184.976 90.82 179.455 90.82ZM182.7 113.525C182.7 115.46 181.392 116.765 179.455 116.765H176.21C171.997 116.765 168.414 119.353 167.106 123.246C164.515 131.032 159.963 138.165 154.103 144.645C153.449 145.612 153.134 146.58 153.449 147.885L156.379 157.944L146.96 167.351L139.163 159.564C138.194 158.597 136.572 158.259 135.265 158.912C123.254 165.392 109.283 168.632 94.9723 168.632C80.6618 168.632 66.7145 165.392 54.6801 158.912C54.3654 158.597 53.7116 158.597 53.0578 158.597C52.0892 158.597 51.4355 158.912 50.7817 159.564L42.9848 167.351L33.5655 157.944L36.4954 147.885C36.8102 146.918 36.4954 145.612 35.8416 144.645C25.7686 133.933 20.2478 120.973 20.2478 107.021C20.2478 95.0273 24.461 83.6626 32.2579 73.6036C41.0234 80.4224 51.4355 84.3155 62.4771 84.3155C85.2141 84.3155 104.706 68.7434 109.912 46.6909C112.503 47.0053 114.779 47.6582 117.056 48.311C118.024 48.6254 119.332 48.311 120.3 47.3438L130.688 36.9705V50.9225C130.688 52.2282 131.342 53.1954 132.625 53.8483C149.527 61.9487 161.852 75.2479 167.058 90.82C168.365 94.713 171.925 97.3003 176.162 97.3003H179.407C181.344 97.3003 182.651 98.606 182.651 100.54V113.525H182.7Z" fill="url(#paint3_linear_3426_50)"/>
<path d="M105.699 104.773L92.6961 117.758C91.3886 119.064 91.3886 120.998 92.6961 122.304C93.3499 122.957 94.3185 123.271 94.9722 123.271C95.626 123.271 96.5946 122.957 97.2484 122.304L110.251 109.319C111.559 108.013 111.559 106.079 110.251 104.773C108.944 103.467 107.007 103.491 105.699 104.773Z" fill="url(#paint4_linear_3426_50)"/>
<path d="M105.699 91.8133L79.7174 117.759C78.4098 119.064 78.4098 120.999 79.7174 122.305C80.3711 122.957 81.3397 123.272 81.9935 123.272C82.6473 123.272 83.6158 122.957 84.2696 122.305L110.251 96.3592C111.559 95.0534 111.559 93.119 110.251 91.8133C108.944 90.5076 107.007 90.5076 105.699 91.8133Z" fill="url(#paint5_linear_3426_50)"/>
<path d="M81.9935 110.286C82.9621 110.286 83.6158 109.971 84.2696 109.319L97.2725 96.3338C98.5801 95.0281 98.5801 93.0936 97.2725 91.7879C95.965 90.4822 94.0279 90.4822 92.7203 91.7879L79.7174 104.773C78.4098 106.078 78.4098 108.013 79.7174 109.319C80.3711 109.971 81.0249 110.286 81.9935 110.286Z" fill="url(#paint6_linear_3426_50)"/>
<path d="M62.5013 58.3966C75.1652 58.3966 85.2383 48.3376 85.2383 35.6913C85.2383 33.7569 83.9307 32.4512 81.9936 32.4512C80.0565 32.4512 78.7489 33.7569 78.7489 35.6913C78.7489 44.7831 71.6058 51.9163 62.5013 51.9163C60.5642 51.9163 59.2566 53.222 59.2566 55.1565C59.2566 57.0909 60.5399 58.3966 62.5013 58.3966Z" fill="url(#paint7_linear_3426_50)"/>
<defs>
<linearGradient id="paint0_linear_3426_50" x1="130.719" y1="87.5874" x2="150.21" y2="87.5874" gradientUnits="userSpaceOnUse">
<stop stop-color="#008A1E"/>
<stop offset="1" stop-color="#04C93A"/>
</linearGradient>
<linearGradient id="paint1_linear_3426_50" x1="26.7674" y1="133.002" x2="98.2339" y2="133.002" gradientUnits="userSpaceOnUse">
<stop stop-color="#008A1E"/>
<stop offset="1" stop-color="#04C93A"/>
</linearGradient>
<linearGradient id="paint2_linear_3426_50" x1="26.7674" y1="35.6833" x2="98.234" y2="35.6833" gradientUnits="userSpaceOnUse">
<stop stop-color="#008A1E"/>
<stop offset="1" stop-color="#04C93A"/>
</linearGradient>
<linearGradient id="paint3_linear_3426_50" x1="0.779663" y1="100.555" x2="189.191" y2="100.555" gradientUnits="userSpaceOnUse">
<stop stop-color="#008A1E"/>
<stop offset="1" stop-color="#04C93A"/>
</linearGradient>
<linearGradient id="paint4_linear_3426_50" x1="91.737" y1="113.538" x2="111.228" y2="113.538" gradientUnits="userSpaceOnUse">
<stop stop-color="#008A1E"/>
<stop offset="1" stop-color="#04C93A"/>
</linearGradient>
<linearGradient id="paint5_linear_3426_50" x1="78.743" y1="107.051" x2="111.228" y2="107.051" gradientUnits="userSpaceOnUse">
<stop stop-color="#008A1E"/>
<stop offset="1" stop-color="#04C93A"/>
</linearGradient>
<linearGradient id="paint6_linear_3426_50" x1="78.743" y1="100.562" x2="98.2338" y2="100.562" gradientUnits="userSpaceOnUse">
<stop stop-color="#008A1E"/>
<stop offset="1" stop-color="#04C93A"/>
</linearGradient>
<linearGradient id="paint7_linear_3426_50" x1="59.2522" y1="45.4164" x2="85.2402" y2="45.4164" gradientUnits="userSpaceOnUse">
<stop stop-color="#008A1E"/>
<stop offset="1" stop-color="#04C93A"/>
</linearGradient>
</defs>
</svg>
