<svg width="276" height="276" viewBox="0 0 276 276" fill="none" xmlns="http://www.w3.org/2000/svg">
<path d="M126.834 275.223C126.834 273.031 126.834 271.337 126.834 269.652C126.834 238.264 126.834 206.875 126.834 175.487C126.834 164.517 123.017 160.64 112.227 160.631C95.1703 160.622 78.1221 160.622 61.0652 160.631C50.4305 160.64 46.4844 164.543 46.4758 175.074C46.4672 206.609 46.4758 238.135 46.4758 269.669C46.4758 271.354 46.4758 273.048 46.4758 275.094C37.9732 275.094 29.8316 275.395 21.733 274.982C16.7639 274.724 13.0929 270.417 12.2675 265.242C12.1128 264.262 12.0698 263.247 12.0698 262.241C12.0612 221.25 12.0612 180.258 12.0698 139.267C12.0698 138.278 12.1987 137.29 12.2159 137.161C26.238 137.315 40.0623 137.522 53.8866 137.599C66.3009 137.677 70.5995 136.275 81.1569 128.959C90.2527 137.539 101.747 137.84 113.525 137.685C131.863 137.436 150.21 137.616 168.556 137.616C180.996 137.616 185.252 136.284 195.758 128.968C204.673 137.212 215.798 138.046 227.344 137.668C235.649 137.401 243.971 137.745 252.276 137.556C256.093 137.47 259.901 136.748 264.2 136.267C264.269 137.599 264.415 139.086 264.415 140.574C264.423 180.706 264.432 220.837 264.423 260.969C264.423 271.131 260.254 275.232 250.023 275.232C210.76 275.232 171.488 275.232 132.224 275.232C130.66 275.223 129.103 275.223 126.834 275.223ZM190.126 160.622C180.816 160.622 171.505 160.562 162.194 160.64C154.362 160.7 149.788 165.067 149.694 172.805C149.556 183.689 149.573 194.581 149.685 205.465C149.771 213.254 154.285 217.751 162.039 217.777C180.515 217.845 198.99 217.845 217.465 217.777C225.461 217.751 229.906 213.272 229.983 205.182C230.078 194.581 230.069 183.981 229.992 173.381C229.923 165.076 225.478 160.683 217.19 160.631C208.172 160.579 199.145 160.622 190.126 160.622Z" fill="url(#paint0_linear_3426_82)"/>
<path d="M275.525 92.1414C275.525 97.3427 276.126 102.278 275.404 107.015C273.71 118.217 264.572 125.885 252.828 126.143C241.368 126.393 229.899 126.393 218.439 126.135C207.598 125.885 199.938 119.824 196.448 109.413C196.224 108.751 195.957 108.106 195.476 106.817C193.739 113.531 190.705 118.647 185.383 122.249C180.113 125.825 174.207 126.255 168.111 126.238C147.478 126.178 126.845 126.229 106.211 126.204C92.9458 126.186 85.0622 120.297 81.1505 107.419C80.8581 107.737 80.5572 107.934 80.4541 108.21C75.717 121.252 68.7533 126.195 55.0236 126.212C45.1368 126.221 35.2501 126.264 25.3633 126.204C10.1892 126.109 0.715072 116.583 0.663489 101.444C0.654892 98.4518 0.663489 95.4599 0.663489 92.1328C92.387 92.1414 183.844 92.1414 275.525 92.1414Z" fill="url(#paint1_linear_3426_82)"/>
<path d="M94.9728 79.9753C100.303 53.2896 105.565 26.9478 110.886 0.322266C129.052 0.322266 147.149 0.322266 165.59 0.322266C170.877 26.7501 176.165 53.2036 181.512 79.9753C152.505 79.9753 123.954 79.9753 94.9728 79.9753Z" fill="url(#paint2_linear_3426_82)"/>
<path d="M87.58 0.0233522C82.3014 26.3824 77.1946 52.045 71.9503 77.6818C71.7526 78.6705 70.2395 80.1234 69.3282 80.1234C47.7234 80.2094 26.1187 80.1148 4.51393 80.0547C4.39357 80.0547 4.28177 79.8999 3.83472 79.5818C4.13562 78.3868 4.43653 77.037 4.81481 75.7045C10.9188 54.2459 17.0228 32.7873 23.1354 11.3373C25.6974 2.35319 28.801 0.0233522 38.1805 0.0233522C52.9247 0.014755 67.6689 0.0233522 82.4045 0.0233522C83.9778 0.0233522 85.5339 0.0233522 87.58 0.0233522Z" fill="url(#paint3_linear_3426_82)"/>
<path d="M188.889 0.022458C202.283 0.022458 215.145 0.022458 228.006 0.022458C232.442 0.022458 236.879 -0.0463196 241.315 0.0568468C246.585 0.177208 250.643 2.6618 252.121 7.69116C259.051 31.2905 265.705 54.9672 272.445 78.618C272.548 78.9877 272.411 79.4262 272.376 80.0538C271.207 80.1226 270.09 80.2429 268.981 80.2429C248.941 80.2515 228.9 80.1913 208.869 80.3203C205.86 80.3375 204.751 79.5122 204.149 76.443C199.231 51.1672 194.09 25.9516 188.889 0.022458Z" fill="url(#paint4_linear_3426_82)"/>
<defs>
<linearGradient id="paint0_linear_3426_82" x1="38.4837" y1="274.247" x2="141.329" y2="77.8213" gradientUnits="userSpaceOnUse">
<stop stop-color="#008D1E"/>
<stop offset="1" stop-color="#04CB3A"/>
</linearGradient>
<linearGradient id="paint1_linear_3426_82" x1="29.4603" y1="126.099" x2="35.9486" y2="68.3172" gradientUnits="userSpaceOnUse">
<stop stop-color="#008D1E"/>
<stop offset="1" stop-color="#04CB3A"/>
</linearGradient>
<linearGradient id="paint2_linear_3426_82" x1="104.033" y1="79.4389" x2="171.032" y2="-1.14138" gradientUnits="userSpaceOnUse">
<stop stop-color="#008D1E"/>
<stop offset="1" stop-color="#04CB3A"/>
</linearGradient>
<linearGradient id="paint3_linear_3426_82" x1="12.6021" y1="79.6182" x2="80.4397" y2="1.14182" gradientUnits="userSpaceOnUse">
<stop stop-color="#008D1E"/>
<stop offset="1" stop-color="#04CB3A"/>
</linearGradient>
<linearGradient id="paint4_linear_3426_82" x1="197.641" y1="79.7796" x2="265.672" y2="1.39952" gradientUnits="userSpaceOnUse">
<stop stop-color="#008D1E"/>
<stop offset="1" stop-color="#04CB3A"/>
</linearGradient>
</defs>
</svg>
