<svg width="21" height="25" viewBox="0 0 21 25" fill="none" xmlns="http://www.w3.org/2000/svg">
<path d="M0.00684323 20.0402C0.00684323 19.2057 0.00684323 18.4074 0.00684323 17.6031C0.00684323 13.878 0.00684323 10.1528 0.00684323 6.42764C0.00684323 6.02247 0.0189379 5.6052 0.000795885 5.19398C-0.0112988 4.96418 0.115696 4.89766 0.297116 4.83114C1.44611 4.41387 2.60116 3.99056 3.75015 3.56724C6.16909 2.67224 8.58803 1.77723 11.0009 0.876173C11.7508 0.597995 12.4946 0.301675 13.2445 0.0234966C13.3292 -0.00674014 13.4441 -0.00674014 13.5287 0.0174493C15.3853 0.616137 17.2478 1.21482 19.1044 1.81956C19.5337 1.95865 19.951 2.12797 20.3864 2.24892C20.6223 2.31544 20.6646 2.43034 20.6646 2.64805C20.6585 4.64367 20.6646 6.63325 20.6646 8.62887C20.6646 13.1583 20.6585 17.6818 20.6767 22.2112C20.6767 22.562 20.5799 22.7011 20.2352 22.8039C18.0945 23.4328 15.9658 24.0799 13.8371 24.739C13.5348 24.8358 13.2747 24.8297 12.9724 24.7148C10.9042 23.9529 8.82993 23.2211 6.75569 22.4773C4.80239 21.7758 2.84305 21.0683 0.889756 20.3668C0.738573 20.3124 0.593436 20.2579 0.442252 20.2035C0.4483 20.1854 0.454347 20.1612 0.460394 20.143C4.76006 20.6631 9.05973 21.1832 13.3896 21.7032C13.3896 15.795 13.3896 9.9472 13.3896 4.03289C12.9905 4.1236 12.6216 4.20826 12.2467 4.29293C10.7469 4.64972 9.25324 5.01256 7.7535 5.36331C6.87663 5.56892 5.99977 5.76848 5.11685 5.9499C4.77215 6.02247 4.62702 6.14341 4.62702 6.54254C4.64516 10.2435 4.63307 13.9445 4.64516 17.6394C4.64516 17.8995 4.57259 18.0386 4.32465 18.1474C2.89143 18.7582 1.47635 19.3932 0.00684323 20.0402Z" fill="white"/>
</svg>
