<svg width="30" height="27" viewBox="0 0 30 27" fill="none" xmlns="http://www.w3.org/2000/svg">
<path d="M7.6332 6.61816C8.49242 6.81094 9.35165 6.95552 10.1631 7.14829C11.9293 7.53384 13.6955 7.91938 15.5094 8.25674C15.7481 8.30493 15.9867 8.30493 16.2254 8.25674C17.1324 8.01577 18.0871 7.72661 18.994 7.48564C20.2351 7.14829 20.9511 7.48564 21.2376 8.73867C21.3808 9.36518 21.6672 9.60615 22.2877 9.75073C24.3403 10.1363 26.3451 10.6182 28.3977 11.0519C28.5409 11.1001 28.6841 11.1001 28.8751 11.1483C28.7796 11.7267 28.6364 12.305 28.5409 12.8833C28.2545 14.2809 27.9204 15.7267 27.634 17.1243C27.3953 18.1845 26.727 18.6183 25.6769 18.4255C25.1041 18.3291 24.5312 18.1845 23.8152 18.04C23.9584 18.6183 24.1494 19.1484 24.2448 19.6785C24.3403 20.0159 24.388 20.3532 24.388 20.6424C24.2926 21.3653 23.8152 21.7027 23.1469 21.8954C20.0442 22.7629 16.9414 23.6304 13.8864 24.4979C11.0224 25.3172 8.11055 26.0882 5.24647 26.9075C4.19631 27.1967 3.48029 26.8111 3.19389 25.7027C2.14373 21.9918 1.1413 18.2809 0.0911411 14.5701C-0.195266 13.4616 0.18661 12.7387 1.33224 12.4495C3.00295 11.9676 4.67366 11.4857 6.34437 11.0519C6.63078 10.9556 6.77398 10.8592 6.82171 10.57C7.06039 9.46157 7.29906 8.30493 7.53773 7.19648C7.53773 6.95552 7.58547 6.81094 7.6332 6.61816ZM2.57334 18.8111C2.57334 18.9074 2.57334 19.0038 2.57334 19.052C3.14615 21.1725 3.71897 23.293 4.33952 25.4617C4.43499 25.7991 4.62592 25.8473 4.96007 25.7509C6.82171 25.2208 8.7311 24.6906 10.5927 24.1605C14.6024 23.0521 18.6122 21.8954 22.6219 20.787C23.2901 20.5942 23.2901 20.5942 23.0992 19.9195C22.6696 18.3291 22.24 16.7388 21.7626 15.1484C21.6194 14.6182 21.4762 14.1363 21.333 13.6062C15.0321 15.3411 8.77883 17.0761 2.57334 18.8111ZM20.617 11.0038C20.4261 10.2809 20.2351 9.65434 20.0919 9.02783C19.9965 8.59409 19.8055 8.4977 19.3759 8.64228C14.9366 9.89531 10.4495 11.1483 6.01023 12.4014C4.53046 12.7869 3.09842 13.2206 1.61865 13.6062C1.37997 13.6544 1.09357 13.7508 1.18904 14.0399C1.37997 14.7628 1.57091 15.4857 1.80959 16.2568C8.11055 14.5219 14.316 12.7387 20.617 11.0038ZM24.5312 11.6785C24.0062 11.6303 23.8152 11.823 23.7197 12.2086C23.5765 12.8833 23.4333 13.5098 23.2901 14.1845C23.1947 14.6182 23.3856 14.9074 23.8152 15.0038C24.4835 15.1484 25.1518 15.293 25.8201 15.4375C26.2019 15.5339 26.4884 15.3411 26.5838 14.9556C26.727 14.2327 26.918 13.558 27.0134 12.8351C27.0612 12.4977 26.918 12.2086 26.5838 12.1604C25.8678 11.9676 25.1518 11.823 24.5312 11.6785Z" fill="white"/>
<path d="M29.6866 7.91373C22.5741 6.41974 15.5572 4.87755 8.39697 3.38356C8.54018 2.51608 8.63565 1.6486 8.87432 0.877509C9.06526 0.15461 9.82901 -0.13455 10.6882 0.0582234C12.0725 0.347383 13.5046 0.684736 14.8889 0.973896C19.4714 1.93776 24.1016 2.94982 28.6842 3.91369C29.6866 4.10646 30.1162 4.78117 29.973 5.79323C29.9253 6.46793 29.7821 7.14264 29.6866 7.91373Z" fill="white"/>
<path d="M5.48465 24.3359C5.34144 24.1913 5.05503 23.9985 5.0073 23.8057C4.76863 23.131 4.62542 22.4563 4.43449 21.7334C4.33902 21.2997 4.52995 21.0105 4.91183 20.9141C5.58011 20.7214 6.20066 20.5286 6.86895 20.384C7.29856 20.2876 7.58497 20.4322 7.72817 20.8659C7.91911 21.5406 8.11005 22.1672 8.25325 22.8419C8.39645 23.3238 8.25325 23.613 7.72817 23.7575C7.01215 23.9021 6.29613 24.0949 5.48465 24.3359Z" fill="#04CB3A"/>
</svg>
