<svg width="21" height="22" viewBox="0 0 21 22" fill="none" xmlns="http://www.w3.org/2000/svg">
<path d="M10.5295 14.5106C9.79712 14.4985 8.82078 14.0912 8.00064 13.28C7.61331 12.8968 7.56977 12.3728 7.88668 11.9943C8.21768 11.5984 8.72154 11.5817 9.13961 11.9514C10.3842 13.0525 11.7492 12.9928 12.9048 11.783C14.6104 9.99744 16.3178 8.21392 18.017 6.42167C18.9197 5.46952 19.0657 4.08256 18.3973 3.01365C17.5016 1.58173 15.6226 1.38043 14.4273 2.60434C13.5117 3.54173 12.6148 4.49925 11.7095 5.44737C11.6339 5.52655 11.5603 5.60841 11.4764 5.67686C11.1224 5.96606 10.6499 5.93654 10.3407 5.61177C10.0353 5.29103 10.0116 4.78979 10.2863 4.4194C10.3253 4.36639 10.3708 4.31875 10.4156 4.27111C11.3503 3.29078 12.2735 2.29702 13.2236 1.33279C15.0508 -0.521856 17.7853 -0.427243 19.462 1.53141C20.8801 3.18811 20.9096 5.82247 19.4338 7.43757C17.597 9.44722 15.6911 11.3871 13.8088 13.3504C13.6295 13.5376 13.4138 13.692 13.1987 13.8356C12.5053 14.2979 11.7447 14.52 10.5295 14.5106Z" fill="white"/>
<path d="M4.15171 21.4689C2.49672 21.3649 1.13751 20.5228 0.407654 18.7796C-0.315164 17.0531 -0.0814804 15.3816 1.14648 14.0101C2.81043 12.1521 4.53905 10.3531 6.30416 8.59979C7.91561 6.99878 10.4426 7.07796 12.0585 8.67562C12.4542 9.06681 12.5041 9.60764 12.1795 9.98809C11.8485 10.3759 11.3421 10.3847 10.9221 10.0102C9.71401 8.93261 8.32152 8.98293 7.20304 10.1525C5.63896 11.7871 4.07232 13.4189 2.51977 15.0662C1.35327 16.3042 1.52869 18.2562 2.87253 19.2097C3.88666 19.9297 5.22153 19.7941 6.12938 18.8621C6.90661 18.0636 7.67169 17.2524 8.43932 16.4431C8.6794 16.1902 8.9515 16.0365 9.29915 16.111C9.94514 16.2499 10.2019 17.0531 9.75691 17.5832C9.45408 17.9435 9.11604 18.2709 8.7908 18.6105C8.24597 19.1781 7.7133 19.7599 7.1499 20.3068C6.34897 21.0838 5.38031 21.4421 4.15171 21.4689Z" fill="white"/>
<path d="M6.01065 5.2215C5.99208 5.71066 5.85443 5.97503 5.56889 6.13876C5.28591 6.30114 4.9978 6.29107 4.71674 6.12265C4.68025 6.10051 4.64248 6.07636 4.61303 6.04549C3.72375 5.11548 2.82871 4.19218 1.95224 3.25009C1.6827 2.96022 1.68014 2.52005 1.88181 2.19461C2.08604 1.86448 2.4689 1.70209 2.82871 1.82959C2.98365 1.88461 3.13666 1.98928 3.25382 2.11006C4.07331 2.95485 4.89089 3.80233 5.69053 4.66792C5.85763 4.84775 5.94662 5.10743 6.01065 5.2215Z" fill="white"/>
<path d="M15.4417 15.1787C15.6338 15.2861 15.8617 15.3538 16.0115 15.5068C16.8681 16.3791 17.712 17.2655 18.5481 18.1593C18.9002 18.5357 18.8951 19.0772 18.5711 19.4262C18.2389 19.7838 17.7087 19.7912 17.3393 19.4107C16.4949 18.5418 15.6613 17.6601 14.8264 16.7804C14.5505 16.4898 14.4807 16.1429 14.6267 15.7625C14.7522 15.4337 15.0697 15.2304 15.4417 15.1787Z" fill="white"/>
<path d="M14.5482 19.2671C14.5482 19.6812 14.5571 20.0952 14.5463 20.5085C14.5309 21.1111 14.1781 21.5029 13.6762 21.4929C13.1749 21.4828 12.842 21.0815 12.84 20.4736C12.8368 19.6577 12.8362 18.8411 12.84 18.0251C12.8426 17.4259 13.1883 17.0273 13.6935 17.0273C14.1884 17.0273 14.529 17.4038 14.5456 17.9936C14.5578 18.417 14.5482 18.8424 14.5482 19.2671Z" fill="white"/>
<path d="M7.71623 2.26645C7.71623 2.6912 7.72199 3.11594 7.71495 3.54068C7.70535 4.09225 7.35706 4.47472 6.87113 4.48076C6.39544 4.48613 6.02987 4.13586 6.01706 3.59235C5.99594 2.69858 5.9953 1.80346 6.01706 0.909684C6.03051 0.358792 6.42041 -0.00556185 6.9025 0.0165812C7.36602 0.0380533 7.70599 0.425894 7.71495 0.957999C7.72199 1.39482 7.71623 1.83097 7.71623 2.26645Z" fill="white"/>
<path d="M2.13828 8.03938C1.73302 8.03938 1.32711 8.04609 0.922486 8.03737C0.417986 8.02663 0.0498543 7.66161 0.035129 7.17446C0.0204037 6.68329 0.359725 6.27599 0.866146 6.26123C1.72917 6.23573 2.59412 6.2364 3.45779 6.25989C3.97253 6.27398 4.30545 6.66651 4.29393 7.16574C4.28176 7.6757 3.91812 8.02999 3.38673 8.03871C2.97058 8.04475 2.55443 8.04005 2.13828 8.03938Z" fill="white"/>
<path d="M18.3793 13.4357C18.7954 13.4357 19.2116 13.429 19.6271 13.437C20.1328 13.4471 20.5023 13.8074 20.5202 14.2946C20.5381 14.7871 20.2007 15.1977 19.6943 15.2125C18.8204 15.238 17.9445 15.238 17.0713 15.2111C16.5751 15.1957 16.2531 14.8018 16.2614 14.3147C16.2697 13.8168 16.6257 13.4498 17.1315 13.4377C17.547 13.4276 17.9631 13.4357 18.3793 13.4357Z" fill="white"/>
</svg>
