<svg width="29" height="22" viewBox="0 0 29 22" fill="none" xmlns="http://www.w3.org/2000/svg">
<path d="M15.0498 0C19.9544 0.0846624 24.6019 1.89487 28.4477 5.55892C29.0591 6.14108 29.1596 6.76863 28.7656 7.36301C28.2575 8.12846 27.2648 8.24368 26.5393 7.62835C25.917 7.1003 25.3165 6.54257 24.6544 6.06515C18.0116 1.26732 8.77203 1.81195 2.77051 7.34032C2.66182 7.44069 2.55585 7.54543 2.44263 7.64144C1.81042 8.17821 0.975314 8.15552 0.41556 7.58732C-0.141478 7.02174 -0.144196 6.25193 0.441826 5.67151C1.57402 4.5517 2.84569 3.59423 4.23512 2.78775C7.41068 0.943506 10.8571 0.0209474 15.0498 0Z" fill="white"/>
<path d="M14.3574 5.58789C18.3609 5.64811 21.5944 6.92852 24.2673 9.49196C25.01 10.2042 24.9593 11.1259 24.1722 11.6749C23.597 12.0763 22.9494 12.0118 22.3471 11.5553C21.579 10.9731 20.8327 10.3403 19.9894 9.87862C15.7306 7.54822 10.5071 8.17228 6.93753 11.4409C5.91765 12.3749 4.64145 11.8241 4.40142 10.864C4.27643 10.3639 4.42588 9.93797 4.78365 9.58535C6.94387 7.45657 9.55696 6.17005 12.613 5.73714C13.2678 5.64375 13.9336 5.6228 14.3574 5.58789Z" fill="white"/>
<path d="M19.2847 16.1286C18.8029 16.1435 18.4668 15.8851 18.1326 15.598C16.6372 14.3149 14.9217 13.8829 13.0214 14.5558C12.391 14.7793 11.8105 15.1991 11.2896 15.6224C10.5542 16.2194 9.76436 16.3023 9.15479 15.7271C8.55337 15.1589 8.55337 14.2477 9.15388 13.6053C12.1311 10.417 17.3645 10.4257 20.3001 13.6245C20.752 14.1168 20.8734 14.6754 20.5935 15.282C20.3454 15.8197 19.8988 16.1024 19.2847 16.1286Z" fill="white"/>
<path d="M14.6365 21.9997C13.123 21.998 11.8929 20.824 11.8848 19.3726C11.8776 17.901 13.1148 16.7114 14.651 16.7149C16.1663 16.7175 17.39 17.8879 17.399 19.3438C17.4081 20.8179 16.1781 22.0015 14.6365 21.9997Z" fill="white"/>
</svg>
