<svg width="150" height="179" viewBox="0 0 150 179" fill="none" xmlns="http://www.w3.org/2000/svg">
<path d="M0.0493698 144.578C0.0493698 138.557 0.0493698 132.798 0.0493698 126.996C0.0493698 100.121 0.0493698 73.2463 0.0493698 46.3715C0.0493698 43.4484 0.136626 40.4381 0.00574182 37.4714C-0.081514 35.8135 0.834673 35.3336 2.14351 34.8537C10.4328 31.8434 18.7658 28.7894 27.0551 25.7355C44.5062 19.2785 61.9574 12.8216 79.365 6.32105C84.7748 4.31417 90.1411 2.1764 95.5509 0.169514C96.1617 -0.048626 96.9906 -0.048626 97.6014 0.125886C110.995 4.44505 124.433 8.76422 137.826 13.127C140.924 14.1305 143.934 15.352 147.076 16.2246C148.777 16.7045 149.082 17.5334 149.082 19.104C149.039 33.5013 149.082 47.8548 149.082 62.2521C149.082 94.9294 149.039 127.563 149.17 160.24C149.17 162.771 148.472 163.774 145.985 164.516C130.541 169.053 115.183 173.721 99.8265 178.477C97.6451 179.175 95.7691 179.131 93.5877 178.302C78.6669 172.805 63.7025 167.526 48.7381 162.16C34.6463 157.099 20.5109 151.995 6.41905 146.934C5.32835 146.541 4.28128 146.149 3.19058 145.756C3.23421 145.625 3.27784 145.451 3.32146 145.32C34.3409 149.072 65.3604 152.824 96.598 156.576C96.598 113.951 96.598 71.763 96.598 29.0948C93.7185 29.7493 91.0572 30.36 88.3523 30.9708C77.5326 33.5449 66.7565 36.1626 55.9368 38.693C49.6107 40.1763 43.2847 41.6161 36.915 42.9249C34.4282 43.4484 33.3811 44.321 33.3811 47.2004C33.512 73.9007 33.4247 100.601 33.512 127.258C33.512 129.134 32.9885 130.137 31.1997 130.922C20.8599 135.329 10.651 139.91 0.0493698 144.578Z" fill="black"/>
</svg>
