<svg width="154" height="160" viewBox="0 0 154 160" fill="none" xmlns="http://www.w3.org/2000/svg">
<path d="M70.6206 96.3675C66.1006 96.2963 60.0752 93.898 55.0138 89.1211C52.6234 86.8651 52.3547 83.7793 54.3105 81.5508C56.3532 79.2197 59.4627 79.1209 62.0428 81.298C69.7237 87.7817 78.1475 87.4301 85.2792 80.3062C95.805 69.7923 106.343 59.2903 116.829 48.7369C122.4 43.1303 123.301 34.9634 119.176 28.6693C113.648 20.2376 102.052 19.0523 94.6749 26.2591C89.0249 31.7788 83.4894 37.417 77.9025 42.9999C77.4363 43.4662 76.9819 43.9482 76.4643 44.3512C74.2794 46.0541 71.3634 45.8803 69.4551 43.968C67.5704 42.0793 67.4242 39.1279 69.1192 36.9469C69.3602 36.6347 69.6408 36.3542 69.9173 36.0737C75.686 30.3011 81.3834 24.4495 87.2469 18.7718C98.5233 7.85095 115.398 8.40807 125.746 19.9413C134.498 29.6966 134.68 45.2086 125.573 54.7189C114.237 66.5525 102.474 77.9751 90.8582 89.536C89.7519 90.6384 88.4203 91.5471 87.0928 92.3927C82.8137 95.115 78.1198 96.4228 70.6206 96.3675Z" fill="black"/>
<path d="M31.2595 137.349C21.0459 136.736 12.6577 131.778 8.15349 121.513C3.6927 111.347 5.13485 101.504 12.7131 93.4283C22.982 82.4877 33.6499 71.8948 44.5431 61.5706C54.488 52.1432 70.083 52.6095 80.0556 62.017C82.4974 64.3205 82.8056 67.5051 80.8024 69.7454C78.7597 72.0291 75.6343 72.0805 73.0424 69.8758C65.5867 63.5303 56.993 63.8266 50.0905 70.7134C40.4379 80.3383 30.7696 89.9474 21.1882 99.6473C13.9893 106.937 15.0719 118.431 23.3652 124.045C29.6238 128.285 37.8618 127.487 43.4645 121.999C48.2611 117.297 52.9827 112.52 57.72 107.755C59.2017 106.265 60.8809 105.361 63.0264 105.799C67.013 106.617 68.5974 111.347 65.8514 114.468C63.9825 116.59 61.8964 118.518 59.8892 120.517C56.5268 123.86 53.2395 127.285 49.7625 130.505C44.8197 135.081 38.8417 137.191 31.2595 137.349Z" fill="black"/>
<path d="M42.7305 41.6818C42.6159 44.5622 41.7665 46.1189 40.0043 47.0829C38.2579 48.0391 36.4799 47.9798 34.7454 46.9881C34.5201 46.8577 34.287 46.7155 34.1053 46.5338C28.6172 41.0575 23.0936 35.6208 17.6845 30.0735C16.0211 28.3666 16.0053 25.7747 17.2499 23.8584C18.5103 21.9144 20.873 20.9583 23.0936 21.709C24.0497 22.033 24.994 22.6493 25.7171 23.3605C30.7745 28.335 35.8201 33.3252 40.755 38.4221C41.7862 39.481 42.3354 41.0101 42.7305 41.6818Z" fill="black"/>
<path d="M100.929 100.295C102.114 100.927 103.521 101.326 104.445 102.227C109.732 107.363 114.939 112.583 120.1 117.846C122.273 120.062 122.241 123.251 120.242 125.305C118.191 127.411 114.92 127.455 112.64 125.215C107.428 120.098 102.284 114.906 97.1319 109.726C95.4289 108.015 94.9983 105.973 95.8991 103.732C96.6735 101.796 98.6333 100.599 100.929 100.295Z" fill="black"/>
<path d="M95.4187 124.363C95.4187 126.8 95.474 129.238 95.4069 131.672C95.312 135.22 93.135 137.528 90.0373 137.468C86.9436 137.409 84.889 135.046 84.8772 131.467C84.8574 126.662 84.8535 121.854 84.8772 117.049C84.893 113.521 87.0266 111.174 90.144 111.174C93.1982 111.174 95.3002 113.39 95.4029 116.863C95.478 119.357 95.4187 121.862 95.4187 124.363Z" fill="black"/>
<path d="M53.2574 24.2595C53.2574 26.7606 53.2929 29.2616 53.2495 31.7627C53.1902 35.0105 51.0408 37.2626 48.0419 37.2982C45.1063 37.3298 42.8502 35.2673 42.7712 32.0669C42.6408 26.8041 42.6368 21.5333 42.7712 16.2704C42.8541 13.0266 45.2603 10.8811 48.2355 11.0115C51.0961 11.1379 53.1942 13.4217 53.2495 16.5549C53.2929 19.1271 53.2574 21.6953 53.2574 24.2595Z" fill="black"/>
<path d="M18.8328 58.2681C16.3318 58.2681 13.8268 58.3076 11.3297 58.2562C8.21619 58.193 5.94431 56.0436 5.85343 53.1751C5.76256 50.2829 7.85664 47.8846 10.982 47.7977C16.308 47.6475 21.646 47.6515 26.976 47.7898C30.1527 47.8727 32.2073 50.1841 32.1362 53.1237C32.0611 56.1266 29.8169 58.2128 26.5374 58.2641C23.9692 58.2997 21.401 58.272 18.8328 58.2681Z" fill="black"/>
<path d="M119.064 90.0277C121.632 90.0277 124.2 89.9882 126.765 90.0356C129.886 90.0949 132.166 92.2166 132.276 95.0851C132.387 97.9852 130.305 100.403 127.179 100.49C121.786 100.64 116.381 100.64 110.992 100.482C107.93 100.391 105.942 98.0722 105.994 95.2037C106.045 92.272 108.242 90.1107 111.363 90.0396C113.927 89.9803 116.496 90.0277 119.064 90.0277Z" fill="black"/>
<path d="M3 3L151.113 156.403" stroke="#04CB3A" stroke-width="7.67951"/>
<path d="M151.113 3L3 156.403" stroke="#04CB3A" stroke-width="7.67951"/>
</svg>
