<svg width="179" height="85" viewBox="0 0 179 85" fill="none" xmlns="http://www.w3.org/2000/svg">
<path d="M154.015 35.6008C145.882 27.5278 138.303 20.1094 130.889 12.5273C129.506 11.109 128.566 9.03623 128.178 7.12707C127.68 4.50879 129.174 2.38144 131.553 1.0723C134.043 -0.291387 136.532 -0.127745 138.856 1.45413C139.631 1.94506 140.239 2.59963 140.903 3.2542C152.245 14.3273 163.531 25.4005 174.817 36.5281C179.132 40.7828 179.132 44.1648 174.762 48.474C163.475 59.5472 152.134 70.6748 140.848 81.748C140.626 81.9662 140.46 82.1298 140.239 82.2935C136.92 85.4027 132.715 85.5117 129.893 82.6207C127.183 79.8388 127.349 75.6932 130.447 72.6385C136.034 67.0747 141.678 61.62 147.321 56.1107C149.423 54.0924 151.525 52.0742 153.628 50.0559C153.572 49.7832 153.462 49.565 153.406 49.2922C152.3 49.2922 151.138 49.2922 150.032 49.2922C103.559 49.2922 57.0863 49.2922 10.669 49.2922C9.45184 49.2922 8.29002 49.3468 7.07288 49.1831C3.58743 48.7468 0.987177 45.9648 0.987177 42.5284C0.931852 39.0373 3.58743 36.0918 7.18353 35.7099C8.34535 35.6008 9.56249 35.6554 10.7796 35.6554C57.1416 35.6554 103.504 35.6554 149.866 35.6554C150.972 35.6008 152.134 35.6008 154.015 35.6008Z" fill="url(#paint0_linear_3455_73)"/>
<defs>
<linearGradient id="paint0_linear_3455_73" x1="0.931852" y1="42.4174" x2="178.069" y2="42.4174" gradientUnits="userSpaceOnUse">
<stop stop-color="#008C1E"/>
<stop offset="1" stop-color="#04CB3A"/>
</linearGradient>
</defs>
</svg>
